<svg xmlns="http://www.w3.org/2000/svg" viewBox="0 0 24 24"><path d="M20.5,19A1.5,1.5,0,1,0,22,20.5,1.5,1.5,0,0,0,20.5,19Zm0,2a.5.5,0,1,1,.5-.5A.5.5,0,0,1,20.5,21ZM4,19.5v2a.5.5,0,0,1-1,0v-2a.5.5,0,0,1,1,0Zm2,0v2a.5.5,0,0,1-1,0v-2a.5.5,0,0,1,1,0Zm2,0v2a.5.5,0,0,1-1,0v-2a.5.5,0,0,1,1,0Zm2,0v2a.5.5,0,0,1-1,0v-2a.5.5,0,0,1,1,0Zm2,0v2a.5.5,0,0,1-1,0v-2a.5.5,0,0,1,1,0Zm2,0v2a.5.5,0,0,1-1,0v-2a.5.5,0,0,1,1,0ZM20.5,16A1.5,1.5,0,1,0,19,14.5,1.5,1.5,0,0,0,20.5,16Zm0-2a.5.5,0,1,1-.5.5A.5.5,0,0,1,20.5,14ZM3,15.5v-2a.5.5,0,0,1,1,0v2a.5.5,0,0,1-1,0Zm2,0v-2a.5.5,0,0,1,1,0v2a.5.5,0,0,1-1,0Zm2,0v-2a.5.5,0,0,1,1,0v2a.5.5,0,0,1-1,0Zm2,0v-2a.5.5,0,0,1,1,0v2a.5.5,0,0,1-1,0Zm2,0v-2a.5.5,0,0,1,1,0v2a.5.5,0,0,1-1,0Zm2,0v-2a.5.5,0,0,1,1,0v2a.5.5,0,0,1-1,0Zm11-9a.88.88,0,0,0,0-.16.45.45,0,0,0,0-.32l-3-5.75A.48.48,0,0,0,20.5,0H3.5a.48.48,0,0,0-.44.27L.06,6a.45.45,0,0,0,0,.32A.88.88,0,0,0,0,6.5v4a1.49,1.49,0,0,0,.39,1,1.49,1.49,0,0,0-.39,1v4a1.49,1.49,0,0,0,.39,1,1.49,1.49,0,0,0-.39,1v4A1.5,1.5,0,0,0,1.5,24h21A1.5,1.5,0,0,0,24,22.5v-4a1.49,1.49,0,0,0-.39-1,1.49,1.49,0,0,0,.39-1v-4a1.49,1.49,0,0,0-.39-1,1.49,1.49,0,0,0,.39-1Zm-1,6v4a.5.5,0,0,1-.5.5H1.5a.5.5,0,0,1-.5-.5v-4a.5.5,0,0,1,.5-.5h21A.5.5,0,0,1,23,12.5ZM1.5,11a.5.5,0,0,1-.5-.5v-4A.5.5,0,0,1,1.5,6h21a.5.5,0,0,1,.5.5v4a.5.5,0,0,1-.5.5ZM3.8,1H20.2l2.08,4H1.72ZM23,22.5a.5.5,0,0,1-.5.5H1.5a.5.5,0,0,1-.5-.5v-4a.5.5,0,0,1,.5-.5h21a.5.5,0,0,1,.5.5ZM20.5,7A1.5,1.5,0,1,0,22,8.5,1.5,1.5,0,0,0,20.5,7Zm0,2a.5.5,0,1,1,.5-.5A.5.5,0,0,1,20.5,9ZM4,7.5v2a.5.5,0,0,1-1,0v-2a.5.5,0,0,1,1,0Zm2,0v2a.5.5,0,0,1-1,0v-2a.5.5,0,0,1,1,0Zm2,0v2a.5.5,0,0,1-1,0v-2a.5.5,0,0,1,1,0Zm2,0v2a.5.5,0,0,1-1,0v-2a.5.5,0,0,1,1,0Zm2,0v2a.5.5,0,0,1-1,0v-2a.5.5,0,0,1,1,0Zm2,0v2a.5.5,0,0,1-1,0v-2a.5.5,0,0,1,1,0Zm5.13-5.31a.43.43,0,0,1,0-.19.47.47,0,0,1,.15-.35.36.36,0,0,1,.16-.11.5.5,0,0,1,.38,0,.45.45,0,0,1,.17.11.5.5,0,0,1,.14.35.43.43,0,0,1,0,.19.44.44,0,0,1-.1.16.45.45,0,0,1-.17.11.41.41,0,0,1-.19,0,.47.47,0,0,1-.35-.15A.36.36,0,0,1,19.13,2.19ZM7.7,2a.51.51,0,1,1,.51.5A.5.5,0,0,1,7.7,2ZM5.81,2a.5.5,0,0,1,.5-.5.5.5,0,0,1,0,1A.5.5,0,0,1,5.81,2ZM9.6,2a.5.5,0,0,1,.5-.5.5.5,0,0,1,0,1A.5.5,0,0,1,9.6,2Zm5.69,0a.51.51,0,1,1,.51.5A.5.5,0,0,1,15.29,2ZM11.5,2a.5.5,0,1,1,.5.5A.5.5,0,0,1,11.5,2Zm5.69,0a.5.5,0,0,1,.5-.5.5.5,0,0,1,0,1A.5.5,0,0,1,17.19,2ZM13.4,2a.5.5,0,0,1,.5-.5.5.5,0,0,1,0,1A.5.5,0,0,1,13.4,2ZM4,2.19a.47.47,0,0,1,0-.38.36.36,0,0,1,.11-.16.5.5,0,0,1,.7,0A.47.47,0,0,1,4.91,2a.43.43,0,0,1,0,.19.36.36,0,0,1-.11.16.36.36,0,0,1-.16.11.43.43,0,0,1-.19,0,.47.47,0,0,1-.35-.15A.36.36,0,0,1,4,2.19ZM3.1,3.55a.5.5,0,0,1,.14-.35.53.53,0,0,1,.55-.11A.64.64,0,0,1,4,3.2a.47.47,0,0,1,.15.35A.51.51,0,0,1,4,3.91.64.64,0,0,1,3.79,4a.63.63,0,0,1-.19,0,.58.58,0,0,1-.19,0l-.17-.11A.54.54,0,0,1,3.1,3.55Z" fill="#b3b3b3"/></svg>