<svg xmlns="http://www.w3.org/2000/svg" viewBox="0 0 24 24"><path d="M22.5,4H21V1.5a.5.5,0,0,0-1,0V4H19V1.5a.5.5,0,0,0-1,0V4H16V1.5a.5.5,0,0,0-1,0V4H14V1.5a.5.5,0,0,0-1,0V4H11V1.5a.5.5,0,0,0-1,0V4H9V1.5a.5.5,0,0,0-1,0V4H6V1.5a.5.5,0,0,0-1,0V4H4V1.5a.5.5,0,0,0-1,0V4H1.5A1.5,1.5,0,0,0,0,5.5v13A1.5,1.5,0,0,0,1.5,20H3v2.5a.5.5,0,0,0,1,0V20H5v2.5a.5.5,0,0,0,1,0V20H8v2.5a.5.5,0,0,0,1,0V20h1v2.5a.5.5,0,0,0,1,0V20h2v2.5a.5.5,0,0,0,1,0V20h1v2.5a.5.5,0,0,0,1,0V20h2v2.5a.5.5,0,0,0,1,0V20h1v2.5a.5.5,0,0,0,1,0V20h1.5A1.5,1.5,0,0,0,24,18.5V5.5A1.5,1.5,0,0,0,22.5,4ZM23,18.5a.5.5,0,0,1-.5.5H1.5a.5.5,0,0,1-.5-.5V5.5A.5.5,0,0,1,1.5,5h21a.5.5,0,0,1,.5.5Z" fill="#b3b3b3"/><path d="M3.85,16.15A.36.36,0,0,0,3.69,16a.49.49,0,0,0-.54.11.36.36,0,0,0-.11.16.43.43,0,0,0,0,.19.41.41,0,0,0,0,.19.36.36,0,0,0,.11.16.48.48,0,0,0,.7,0A.47.47,0,0,0,4,16.5a.43.43,0,0,0,0-.19A.36.36,0,0,0,3.85,16.15Z" fill="#b3b3b3"/><circle cx="14.83" cy="16.5" r="0.5" fill="#b3b3b3"/><circle cx="18.61" cy="16.5" r="0.5" fill="#b3b3b3"/><circle cx="5.39" cy="16.5" r="0.5" fill="#b3b3b3"/><circle cx="16.72" cy="16.5" r="0.5" fill="#b3b3b3"/><circle cx="7.28" cy="16.5" r="0.5" fill="#b3b3b3"/><path d="M11.05,16a.5.5,0,0,0,0,1,.5.5,0,1,0,0-1Z" fill="#b3b3b3"/><circle cx="12.94" cy="16.5" r="0.5" fill="#b3b3b3"/><circle cx="9.17" cy="16.5" r="0.5" fill="#b3b3b3"/><path d="M20.85,16.15a.36.36,0,0,0-.16-.11.49.49,0,0,0-.54.11.5.5,0,0,0,.35.85.43.43,0,0,0,.19,0,.36.36,0,0,0,.16-.11A.47.47,0,0,0,21,16.5a.43.43,0,0,0,0-.19A.36.36,0,0,0,20.85,16.15Z" fill="#b3b3b3"/><circle cx="20.5" cy="12.9" r="0.5" fill="#b3b3b3"/><circle cx="20.5" cy="14.7" r="0.5" fill="#b3b3b3"/><circle cx="20.5" cy="9.3" r="0.5" fill="#b3b3b3"/><circle cx="20.5" cy="11.1" r="0.5" fill="#b3b3b3"/><path d="M20.69,7a.49.49,0,0,0-.54.11A.47.47,0,0,0,20,7.5a.43.43,0,0,0,0,.19.36.36,0,0,0,.11.16A.47.47,0,0,0,20.5,8a.43.43,0,0,0,.19,0,.36.36,0,0,0,.16-.11.48.48,0,0,0,0-.7A.36.36,0,0,0,20.69,7Z" fill="#b3b3b3"/><circle cx="5.39" cy="7.5" r="0.5" fill="#b3b3b3"/><circle cx="7.28" cy="7.5" r="0.5" fill="#b3b3b3"/><circle cx="16.72" cy="7.5" r="0.5" fill="#b3b3b3"/><circle cx="14.83" cy="7.5" r="0.5" fill="#b3b3b3"/><circle cx="18.61" cy="7.5" r="0.5" fill="#b3b3b3"/><circle cx="9.17" cy="7.5" r="0.5" fill="#b3b3b3"/><circle cx="11.06" cy="7.5" r="0.5" fill="#b3b3b3"/><path d="M13,7a.5.5,0,1,0,0,1,.5.5,0,0,0,0-1Z" fill="#b3b3b3"/><path d="M3.85,7.15A.49.49,0,0,0,3.31,7a.36.36,0,0,0-.16.11A.36.36,0,0,0,3,7.31a.47.47,0,0,0,0,.38.36.36,0,0,0,.11.16A.36.36,0,0,0,3.31,8,.41.41,0,0,0,3.5,8a.47.47,0,0,0,.35-.15A.36.36,0,0,0,4,7.69a.47.47,0,0,0,0-.38A.36.36,0,0,0,3.85,7.15Z" fill="#b3b3b3"/><circle cx="3.5" cy="9.3" r="0.5" fill="#b3b3b3"/><circle cx="3.5" cy="14.7" r="0.5" fill="#b3b3b3"/><circle cx="3.5" cy="11.1" r="0.5" fill="#b3b3b3"/><circle cx="3.5" cy="12.9" r="0.5" fill="#b3b3b3"/></svg>