<svg xmlns="http://www.w3.org/2000/svg" viewBox="0 0 24 24"><path d="M5.82,8h16.9l-2.55,5.62a2.05,2.05,0,0,1,.84.58L24,7.71a.51.51,0,0,0,0-.48A.5.5,0,0,0,23.5,7H19V3.5a.5.5,0,0,0-.5-.5H7.86L7,.34A.49.49,0,0,0,6.5,0H.5A.5.5,0,0,0,0,.5v18a.52.52,0,0,0,.5.5H13.57a1.94,1.94,0,0,1,.62-1H1.28Zm.32-7,.67,2H3A.5.5,0,0,0,3,4H18V7H5.5A.51.51,0,0,0,5,7.29l-4,8.9V1ZM24,19.5a.5.5,0,0,1-.5.5H20v3.5a.5.5,0,0,1-1,0V20H15.5a.5.5,0,0,1,0-1H19V15.5a.5.5,0,0,1,1,0V19h3.5A.5.5,0,0,1,24,19.5ZM4.46,16.45a.43.43,0,0,1,0,.19.51.51,0,0,1-.15.36.51.51,0,0,1-.7,0,.51.51,0,0,1-.15-.36.43.43,0,0,1,0-.19.36.36,0,0,1,.11-.16.46.46,0,0,1,.16-.11.5.5,0,0,1,.38,0,.46.46,0,0,1,.16.11A.42.42,0,0,1,4.46,16.45Zm.19-1.11a.5.5,0,1,1,.67-.22.5.5,0,0,1-.45.27A.44.44,0,0,1,4.65,15.34Zm1.75-3.5a.5.5,0,0,1-.22-.67A.5.5,0,0,1,6.85,11a.5.5,0,0,1,.22.67.49.49,0,0,1-.44.28A.46.46,0,0,1,6.4,11.84Zm-.87,1.75a.5.5,0,0,1-.23-.67A.49.49,0,0,1,6,12.7a.5.5,0,0,1,.23.67.52.52,0,0,1-.45.28A.46.46,0,0,1,5.53,13.59ZM7.15,10A.36.36,0,0,1,7,9.84a.41.41,0,0,1,0-.19.47.47,0,0,1,.15-.35.36.36,0,0,1,.16-.11.49.49,0,0,1,.54.11A.47.47,0,0,1,8,9.65a.41.41,0,0,1,0,.19.36.36,0,0,1-.11.16.48.48,0,0,1-.7,0Zm9.61-.85a.5.5,0,0,1,.5.5.5.5,0,1,1-1,0A.5.5,0,0,1,16.76,9.15Zm1.85,0a.5.5,0,0,1,.5.5.5.5,0,0,1-.5.5.51.51,0,0,1-.5-.5A.5.5,0,0,1,18.61,9.15Zm-9.26,0a.5.5,0,0,1,.5.5.5.5,0,0,1-.5.5.51.51,0,0,1-.5-.5A.5.5,0,0,1,9.35,9.15Zm5.56,1a.5.5,0,0,1-.5-.5.5.5,0,0,1,.5-.5.5.5,0,0,1,.5.5A.51.51,0,0,1,14.91,10.15Zm-3.7-1a.49.49,0,0,1,.49.5.5.5,0,0,1-.49.5.51.51,0,0,1-.51-.5A.5.5,0,0,1,11.21,9.15Zm1.85,0a.5.5,0,0,1,.5.5.51.51,0,0,1-.5.5.5.5,0,0,1-.5-.5A.5.5,0,0,1,13.06,9.15Zm7.76.85a.47.47,0,0,1-.35.15.49.49,0,0,1-.36-.15.51.51,0,0,1,0-.7.5.5,0,1,1,.71.7Z" fill="#b3b3b3"/></svg>