<svg xmlns="http://www.w3.org/2000/svg" viewBox="0 0 24 24"><path d="M9,11a5,5,0,1,0,5-5A5,5,0,0,0,9,11Zm5-4a4,4,0,1,1-4,4A4,4,0,0,1,14,7ZM24,19.5a.5.5,0,0,1-.5.5H20v3.5a.5.5,0,0,1-1,0V20H15.5a.5.5,0,0,1,0-1H19V15.5a.5.5,0,0,1,1,0V19h3.5A.5.5,0,0,1,24,19.5ZM11,11a3,3,0,0,1,3-3,.5.5,0,0,1,0,1,2,2,0,0,0-2,2,.5.5,0,0,1-1,0Zm.5-8a.51.51,0,0,1-.5-.5.47.47,0,0,1,.15-.35.5.5,0,0,1,.7,0,.48.48,0,0,1,0,.7.36.36,0,0,1-.16.11A.43.43,0,0,1,11.5,3ZM24,4.5v13s0,.05,0,.07a2,2,0,0,0-.49-.07H23V4.5a.5.5,0,0,0-.5-.5H19.13a.49.49,0,0,1-.49-.41l-.4-2.18A.49.49,0,0,0,17.75,1h-7.5a.49.49,0,0,0-.49.41l-.4,2.18A.49.49,0,0,1,8.87,4H6.28a.5.5,0,0,1-.5-.45l-.06-.5V3H3.28v0l-.06.5a.5.5,0,0,1-.5.45H1.5a.5.5,0,0,0-.5.5v13a.5.5,0,0,0,.5.5H14.19a1.94,1.94,0,0,0-.62,1H1.5A1.5,1.5,0,0,1,0,17.5V4.5A1.5,1.5,0,0,1,1.5,3h.77V2.94A.94.94,0,0,1,3.14,2H5.86a.94.94,0,0,1,.86.94V3H8.45l.32-1.77A1.52,1.52,0,0,1,10.25,0h7.5a1.52,1.52,0,0,1,1.48,1.23L19.55,3H22.5A1.5,1.5,0,0,1,24,4.5ZM4,5A2,2,0,1,0,6,7,2,2,0,0,0,4,5ZM4,8A1,1,0,1,1,5,7,1,1,0,0,1,4,8ZM14.83,3a.5.5,0,1,1,0-1,.5.5,0,0,1,0,1ZM16.5,3a.51.51,0,0,1-.5-.5.47.47,0,0,1,.15-.35.5.5,0,0,1,.7,0,.48.48,0,0,1,0,.7A.47.47,0,0,1,16.5,3ZM13.17,3a.5.5,0,0,1,0-1,.5.5,0,0,1,0,1Z" fill="#b3b3b3"/></svg>