<svg xmlns="http://www.w3.org/2000/svg" viewBox="0 0 24 24"><path d="M14,16a5,5,0,1,1,5-5A5,5,0,0,1,14,16Zm0-9a4,4,0,1,0,4,4A4,4,0,0,0,14,7Zm-2,4a2,2,0,0,1,2-2,.5.5,0,0,0,0-1,3,3,0,0,0-3,3,.5.5,0,0,0,1,0ZM4,9A2,2,0,1,1,6,7,2,2,0,0,1,4,9ZM4,6A1,1,0,1,0,5,7,1,1,0,0,0,4,6Zm7.85-3.15a.48.48,0,0,0,0-.7A.49.49,0,0,0,11.31,2a.36.36,0,0,0-.16.11.48.48,0,0,0,0,.7.36.36,0,0,0,.16.11.41.41,0,0,0,.19,0A.47.47,0,0,0,11.85,2.85Zm2.48-.35a.5.5,0,0,1,.5-.5h0a.5.5,0,0,1,.5.5h0a.5.5,0,0,1-.5.5h0A.5.5,0,0,1,14.33,2.5Zm-1.66,0a.5.5,0,0,1,.5-.5h0a.5.5,0,0,1,.5.5h0a.5.5,0,0,1-.5.5h0A.5.5,0,0,1,12.67,2.5Zm4,.46a.36.36,0,0,0,.16-.11A.47.47,0,0,0,17,2.5a.41.41,0,0,0,0-.19.36.36,0,0,0-.11-.16.5.5,0,0,0-.7,0,.36.36,0,0,0-.11.16.41.41,0,0,0,0,.19.47.47,0,0,0,.15.35.36.36,0,0,0,.16.11.47.47,0,0,0,.38,0Zm-.6,15.13.08-.09H1.5a.5.5,0,0,1-.5-.5V4.5A.5.5,0,0,1,1.5,4H2.72a.5.5,0,0,0,.5-.45l.06-.5V3H5.72v0l.06.5a.5.5,0,0,0,.5.45H8.87a.49.49,0,0,0,.49-.41l.4-2.18A.49.49,0,0,1,10.25,1h7.5a.49.49,0,0,1,.49.41l.4,2.18a.49.49,0,0,0,.49.41H22.5a.5.5,0,0,1,.5.5V16.17l1,1V4.5A1.5,1.5,0,0,0,22.5,3H19.55l-.32-1.77A1.52,1.52,0,0,0,17.75,0h-7.5A1.52,1.52,0,0,0,8.77,1.23L8.45,3H6.73V2.94A.94.94,0,0,0,5.86,2H3.14a.94.94,0,0,0-.86.94V3H1.5A1.5,1.5,0,0,0,0,4.5v13A1.5,1.5,0,0,0,1.5,19H15.57A2,2,0,0,1,16.09,18.09Zm7.76,1.06-3-3a.36.36,0,0,0-.16-.11.5.5,0,0,0-.38,0,.36.36,0,0,0-.16.11l-3,3a.48.48,0,0,0,0,.7.48.48,0,0,0,.7,0L20,17.71V23.5a.5.5,0,0,0,1,0V17.71l2.15,2.14a.48.48,0,0,0,.7,0A.48.48,0,0,0,23.85,19.15Z" fill="#b3b3b3"/></svg>