<svg xmlns="http://www.w3.org/2000/svg" width="24" height="24" viewBox="0 0 24 24">
  <g id="_008-notifications-24" data-name="008-notifications-24" transform="translate(0)">
    <path id="Path_11607" data-name="Path 11607" d="M21.568,2.389C18.759-.44,15.181-.79,12.873,1.519c-.27.27-.57.59-.879.94-1.319,1.439-3,3.218-5,3.618a24.883,24.883,0,0,1-2.728.34c-1.249.11-2.159.19-2.718.76L.42,8.266C-.79,9.475.74,12.534,3.238,15.612a3.608,3.608,0,1,0,4.947,5c2.4,2,4.8,3.388,6.346,3.388a1.589,1.589,0,0,0,1.169-.42l1.089-1.1c.56-.56.64-1.469.75-2.729.07-.74.15-1.669.35-2.729.39-2.069,2.179-3.708,3.608-5,.34-.32.66-.61.939-.89C25.145,8.386,23.986,4.768,21.568,2.389ZM5.117,21.309a2.609,2.609,0,0,1-2.608-2.619,2.639,2.639,0,0,1,1.379-2.309c.56.66,1.159,1.3,1.779,1.929S6.826,19.42,7.416,19.99A2.638,2.638,0,0,1,5.117,21.309Zm16.61-10.924c-.26.27-.57.55-.9.86-1.549,1.419-3.468,3.188-3.928,5.577a25.229,25.229,0,0,0-.35,2.839,4.173,4.173,0,0,1-.47,2.1h0l-1.089,1.1c-.69.69-4.377-1-8.615-5.257S.44,9.665,1.129,9L2.219,7.9a4.117,4.117,0,0,1,2.109-.46,27.982,27.982,0,0,0,2.828-.36C9.544,6.627,11.3,4.7,12.723,3.148c.31-.33.59-.64.86-.9A4,4,0,0,1,16.46,1a6.576,6.576,0,0,1,4.407,2.1C22.9,5.127,23.986,8.166,21.727,10.385Z" transform="translate(0.002 0)" fill="#6b00de"/>
    <path id="Path_11608" data-name="Path 11608" d="M14.64,21.11a.5.5,0,0,0-.82.16.65.65,0,0,0,0,.19.53.53,0,0,0,.15.36.52.52,0,0,0,.35.14.48.48,0,0,0,.5-.5.63.63,0,0,0,0-.19.91.91,0,0,0-.18-.16Z" transform="translate(-0.006 -0.013)" fill="#6b00de"/>
    <path id="Path_11609" data-name="Path 11609" d="M12.63,20.13a.49.49,0,0,0-.68.17.5.5,0,0,0,.16.69.48.48,0,0,0,.26.07.51.51,0,0,0,.43-.24.5.5,0,0,0-.17-.69Z" transform="translate(-0.005 -0.013)" fill="#6b00de"/>
    <path id="Path_11610" data-name="Path 11610" d="M10.23,19.05a.49.49,0,0,0,.09.7.51.51,0,0,0,.31.11.47.47,0,0,0,.39-.2.5.5,0,1,0-.79-.61Z" transform="translate(-0.004 -0.01)" fill="#6b00de"/>
    <path id="Path_11611" data-name="Path 11611" d="M8.61,17.68a.49.49,0,0,0,.05.7.46.46,0,0,0,.33.13.5.5,0,0,0,.33-.88A.51.51,0,0,0,8.61,17.68Z" transform="translate(-0.003 -0.01)" fill="#6b00de"/>
    <path id="Path_11612" data-name="Path 11612" d="M7.63,16.09a.49.49,0,0,0-.54.11.5.5,0,0,0,.35.85.43.43,0,0,0,.19,0,.36.36,0,0,0,.16-.11.48.48,0,0,0,0-.7A.36.36,0,0,0,7.63,16.09Z" transform="translate(-0.002 -0.009)" fill="#6b00de"/>
    <path id="Path_11613" data-name="Path 11613" d="M3.08,8.74a.49.49,0,0,0-.15.36.43.43,0,0,0,0,.19.42.42,0,0,0,.11.16.46.46,0,0,0,.16.11.65.65,0,0,0,.19,0,.51.51,0,0,0,.35-.15.47.47,0,0,0,.15-.35.49.49,0,0,0-.15-.36.52.52,0,0,0-.66.04Z" transform="translate(0.002 -0.005)" fill="#6b00de"/>
    <path id="Path_11614" data-name="Path 11614" d="M7.5,8.09a.51.51,0,0,0-.39.59.5.5,0,0,0,.49.4h.11a.511.511,0,0,0-.21-1Z" transform="translate(-0.002 -0.005)" fill="#6b00de"/>
    <path id="Path_11615" data-name="Path 11615" d="M5.47,8.4a.5.5,0,0,0,0,1h.06A.5.5,0,0,0,6,8.84a.49.49,0,0,0-.53-.44Z" transform="translate(-0.001 -0.005)" fill="#6b00de"/>
    <path id="Path_11616" data-name="Path 11616" d="M11,6.35a.52.52,0,0,0-.07.71.5.5,0,0,0,.39.18.56.56,0,0,0,.32-.11A.5.5,0,0,0,11,6.35Z" transform="translate(-0.004 -0.004)" fill="#6b00de"/>
    <path id="Path_11617" data-name="Path 11617" d="M9.36,7.45a.5.5,0,0,0-.22.67.49.49,0,0,0,.45.28.59.59,0,0,0,.22-.05h0A.5.5,0,0,0,10,7.67.52.52,0,0,0,9.36,7.45Z" transform="translate(-0.003 -0.004)" fill="#6b00de"/>
    <path id="Path_11618" data-name="Path 11618" d="M13.94,3.42a.49.49,0,0,0,0,.7.52.52,0,0,0,.35.14.48.48,0,0,0,.36-.16.49.49,0,0,0,0-.7.5.5,0,0,0-.71.02Z" transform="translate(-0.006 0)" fill="#6b00de"/>
    <path id="Path_11619" data-name="Path 11619" d="M15.92,2.11a.51.51,0,0,0,.1,1h.09a.5.5,0,0,0,.4-.59.49.49,0,0,0-.59-.41Z" transform="translate(-0.007 0)" fill="#6b00de"/>
    <path id="Path_11620" data-name="Path 11620" d="M18.27,2.51a.5.5,0,0,0-.43.91.54.54,0,0,0,.21.05.51.51,0,0,0,.46-.28.53.53,0,0,0-.24-.68Z" transform="translate(-0.008 0)" fill="#6b00de"/>
    <path id="Path_11621" data-name="Path 11621" d="M12.5,5a.49.49,0,0,0,0,.7.45.45,0,0,0,.34.14.51.51,0,0,0,.37-.15A.5.5,0,1,0,12.5,5Z" transform="translate(-0.005 -0.003)" fill="#6b00de"/>
    <path id="Path_11622" data-name="Path 11622" d="M20.11,3.86A.57.57,0,0,0,20,3.75a.49.49,0,0,0-.54.11.5.5,0,0,0-.14.35.58.58,0,0,0,0,.19.71.71,0,0,0,.11.17.54.54,0,0,0,.36.14.48.48,0,0,0,.34-.14.55.55,0,0,0,.15-.36.65.65,0,0,0,0-.19.46.46,0,0,0-.17-.16Z" transform="translate(-0.012 0)" fill="#6b00de"/>
  </g>
</svg>
