<?xml version="1.0" encoding="UTF-8"?><svg id="Artwork" xmlns="http://www.w3.org/2000/svg" viewBox="0 0 24 24"><path d="M3.5,10.5c-.06,0-.13-.01-.19-.04-.06-.02-.12-.06-.16-.11-.05-.04-.09-.1-.11-.16-.03-.06-.04-.12-.04-.19,0-.13.05-.26.15-.35.04-.05.1-.09.16-.11.12-.05.26-.05.38,0,.06.02.12.06.16.11.1.09.15.22.15.35,0,.07-.01.13-.04.19-.02.06-.06.12-.11.16-.04.05-.1.09-.16.11-.06.03-.12.04-.19.04ZM23,11.5c0-1.364-.795-2.585-2.016-3.155.011-.117.016-.231.016-.345,0-2.206-1.794-4-4-4-.071,0-.142.003-.211.007C16.129,1.659,13.976,0,11.5,0,8.65,0,6.3,2.179,6.031,5c-2.791-.03-5.031,2.232-5.031,5,0,2.585,1.938,4.724,4.507,4.976.275.028.52-.174.546-.449.027-.275-.174-.52-.449-.546-2.055-.202-3.604-1.913-3.604-3.981,0-2.206,1.794-4,4-4,.101,0,.197.015.294.028l.155.02c.134.018.28-.055.387-.149.106-.095.165-.256.165-.398,0-2.481,2.019-4.5,4.5-4.5,2.154,0,4.011,1.537,4.414,3.654.051.268.304.441.577.399.167-.029.335-.053.509-.053,1.654,0,3,1.346,3,3,0,.195-.022.384-.058.568-.048.247.095.491.334.57,1.031.339,1.723,1.289,1.723,2.362,0,1.378-1.122,2.5-2.5,2.5h-1c-.276,0-.5.224-.5.5s.224.5.5.5h1c1.93,0,3.5-1.57,3.5-3.5ZM10.09,3.18c0,.15-.06.29-.18.39-.09.08-.21.12-.32.12-.14,0-.29-.06-.39-.18-.17-.22-.14-.53.07-.71.09-.07.2-.11.32-.11.14,0,.29.06.39.18.07.09.11.2.11.31ZM9.06,4.92c0,.03,0,.06-.01.09-.05.24-.26.41-.49.41-.04,0-.07-.01-.1-.01-.27-.06-.45-.32-.39-.59.04-.23.25-.4.48-.4.03,0,.06,0,.1.01.25.04.41.25.41.49ZM8.52,6.85c0,.12-.03.24-.11.33-.1.11-.24.17-.38.17-.12,0-.24-.04-.33-.12-.21-.18-.23-.49-.06-.7h.01c.1-.12.24-.18.38-.18.11,0,.23.04.32.12.12.1.17.24.17.38ZM6.68,7.53v.06c-.04.25-.25.44-.5.44-.02,0-.04-.01-.07-.01-.27-.04-.46-.29-.43-.56.04-.25.25-.44.5-.44.02,0,.04.01.07.01.25.04.43.26.43.5ZM4.8,8.17c0,.14-.06.27-.16.37-.1.09-.22.13-.34.13-.13,0-.27-.05-.37-.16-.18-.2-.17-.52.03-.71.09-.09.22-.13.34-.13.13,0,.27.05.36.16.09.1.14.22.14.34ZM11.69,2.96c.06-.02.12-.06.16-.11.1-.09.15-.22.15-.35s-.05-.26-.15-.35c-.14-.14-.35-.19-.54-.11-.06.02-.12.06-.16.11-.05.04-.09.1-.11.16-.03.06-.04.12-.04.19,0,.07.01.13.04.19.02.06.06.12.11.16.04.05.1.09.16.11.06.03.13.04.19.04.07,0,.13-.01.19-.04ZM16.98,12.88c-.335-2.527-9.827-2.565-9.98.12v9c.025.816.837,1.305,2,1.64v-1.05c-.666-.226-1.004-.454-1-.6,0,0,0-1.74,0-1.74.28.16.62.28,1,.39v-1.05c-.66-.22-1-.46-1-.59v-.69c0-.263,0-.798,0-1.06.297.171.652.288,1,.39v-1.05c-.66-.22-1-.46-1-.59,0-.015,0-.655,0-.69,0-.263,0-.798,0-1.06.297.171.652.288,1,.39v-1.05c-.666-.226-1.004-.454-1-.6.03-.27,1.41-.99,4-.99,2.62,0,4,.74,4,1-.022.288-1.406.995-4,1-.763.006-1.449-.066-2-.16v1.01c1.967.27,4.205.257,6-.6,0,.514,0,1.234,0,1.75-.022.288-1.395.995-3.98,1-.436-.001-.911-.011-1.33-.07-.237-.02-.488-.057-.69-.09v1.01c1.967.26,4.204.262,6-.6,0,.514,0,1.234,0,1.75-.022.288-1.405.995-4,1-.78,0-1.45-.07-2-.16v1.01c1.939.266,4.249.247,6-.6,0,.008,0,1.753,0,1.76-.03.27-1.41.99-4,.99-.78,0-1.45-.07-2-.16v1.01c2.142.403,6.823.05,6.99-1.74.01-.03.01-.07.01-.11l-.02-9.12Z" fill="#b3b3b3" stroke-width="0"/></svg>