<svg xmlns="http://www.w3.org/2000/svg" viewBox="0 0 24 24"><path d="M23,10.42a.51.51,0,0,0,.5.45h.05a.5.5,0,0,0,.45-.55.51.51,0,0,0-.55-.45A.5.5,0,0,0,23,10.42Zm.57,1.46a.5.5,0,1,0-.09,1h0a.5.5,0,0,0,.5-.46A.49.49,0,0,0,23.55,11.88ZM19,11.54a7.06,7.06,0,0,1-3.5,6.1.57.57,0,0,1-.25.06.5.5,0,0,1-.26-.93,6,6,0,1,0-6,0,.5.5,0,0,1,.18.68.52.52,0,0,1-.69.19A7,7,0,1,1,19,11.54ZM14.52,21h-5a.5.5,0,0,0,0,1h5a.5.5,0,0,0,0-1Zm0-2h-5a.5.5,0,0,0,0,1h5a.5.5,0,0,0,0-1Zm-1,4h-3a.5.5,0,1,0,0,1h3a.5.5,0,0,0,0-1ZM13,13V11a.5.5,0,1,0-1,0,.5.5,0,1,0-1,0v2a.5.5,0,0,0,1,0,.5.5,0,0,0,1,0Zm-1.19,4a.36.36,0,0,0-.16.11.5.5,0,1,0,.85.35.43.43,0,0,0,0-.19.36.36,0,0,0-.11-.16A.49.49,0,0,0,11.83,17ZM12,15.5a.5.5,0,1,0,.5.5A.5.5,0,0,0,12,15.5Zm.46-1.19a.36.36,0,0,0-.11-.16.5.5,0,0,0-.7,0,.48.48,0,0,0,0,.7.36.36,0,0,0,.16.11A.41.41,0,0,0,12,15a.51.51,0,0,0,.5-.5A.43.43,0,0,0,12.48,14.31ZM8.62,1.48l.14,0A.51.51,0,0,0,9.1.83.5.5,0,0,0,8.48.5a.49.49,0,0,0-.34.62A.49.49,0,0,0,8.62,1.48Zm-8,8.28H.74a.5.5,0,1,0-.49-.61A.5.5,0,0,0,.63,9.76Zm10-8.69h.06a.5.5,0,1,0-.12-1,.49.49,0,0,0-.43.55A.49.49,0,0,0,10.58,1.07ZM1.14,7.82a.48.48,0,0,0,.2,0,.5.5,0,0,0,.46-.3.51.51,0,0,0-.27-.66.5.5,0,0,0-.39.92ZM.5,11.75a.49.49,0,0,0,.5-.48.5.5,0,1,0-.51.48ZM6.76,2.2A.44.44,0,0,0,7,2.15a.49.49,0,0,0,.22-.67.49.49,0,0,0-.66-.23.5.5,0,0,0-.23.67A.48.48,0,0,0,6.76,2.2ZM12.56,1h0a.5.5,0,0,0,.5-.47A.51.51,0,0,0,12.6,0a.5.5,0,0,0-.52.48A.5.5,0,0,0,12.56,1Zm10,7.56a.49.49,0,0,0,.47.36l.15,0a.5.5,0,0,0-.29-1A.49.49,0,0,0,22.61,8.56ZM16.29,1.81l.19,0a.49.49,0,0,0,.46-.31.5.5,0,1,0-.65.28ZM18,2.67a.48.48,0,0,0,.26.07.5.5,0,0,0,.27-.92.5.5,0,0,0-.69.16A.49.49,0,0,0,18,2.67ZM14.46,1.25h.1a.5.5,0,1,0-.1,0Zm8.82,12.61a.5.5,0,0,0-.61.35.49.49,0,0,0,.34.61.34.34,0,0,0,.14,0,.49.49,0,0,0,.48-.36A.51.51,0,0,0,23.28,13.86Zm-1-6.79a.5.5,0,1,0-.45-.27A.51.51,0,0,0,22.33,7.07Zm.32,8.69A.49.49,0,0,0,22,16a.5.5,0,0,0,.23.67.42.42,0,0,0,.22.05.51.51,0,0,0,.45-.27A.5.5,0,0,0,22.65,15.76ZM21,17.6a.5.5,0,0,0,.1.7.47.47,0,0,0,.3.1.51.51,0,0,0,.4-.2.49.49,0,0,0-.1-.7A.51.51,0,0,0,21,17.6ZM19.49,3.1a.5.5,0,0,0,0,.71.5.5,0,0,0,.33.13.5.5,0,1,0-.37-.84Zm2.05,2.18a.47.47,0,0,0,.08-.7h0a.5.5,0,0,0-.79.62.48.48,0,0,0,.39.19A.45.45,0,0,0,21.54,5.28ZM3.18,3.7a.48.48,0,0,0,0,.71.49.49,0,0,0,.34.14.48.48,0,0,0,.36-.16.49.49,0,0,0,0-.7A.5.5,0,0,0,3.18,3.7ZM1.63,15a.49.49,0,0,0-.64-.3.5.5,0,0,0-.29.65h0a.48.48,0,0,0,.47.33l.17,0A.5.5,0,0,0,1.63,15Zm.15,1.54a.5.5,0,0,0,.26.93.52.52,0,0,0,.26-.08.5.5,0,0,0-.52-.85Zm-.64-3.38a.5.5,0,1,0-.5.58H.73A.5.5,0,0,0,1.14,13.17Zm4.2-10A.5.5,0,1,0,4.64,3a.52.52,0,0,0,.41.21A.53.53,0,0,0,5.34,3.14ZM2.56,5.19a.5.5,0,0,0-.69.14A.49.49,0,0,0,2,6a.45.45,0,0,0,.27.08.5.5,0,0,0,.28-.91Z" fill="#b3b3b3"/></svg>