<svg xmlns="http://www.w3.org/2000/svg" viewBox="0 0 24 24"><path d="M12,9.12a.49.49,0,0,1,.49-.51h0a.5.5,0,0,1,.51.48h0a.5.5,0,0,1-.49.51h0A.5.5,0,0,1,12,9.12Zm-1.54.43A.51.51,0,0,1,10,9h0a.51.51,0,0,1,.54-.46h0a.5.5,0,0,1,.46.54h0a.5.5,0,0,1-.5.46h0ZM14,9a.5.5,0,0,1,.42-.56h0a.5.5,0,0,1,.57.43h0a.51.51,0,0,1-.43.56h-.07A.49.49,0,0,1,14,9ZM8.4,9.24h0A.5.5,0,0,1,8,8.65H8a.5.5,0,0,1,.6-.38h0A.49.49,0,0,1,9,8.86H9a.49.49,0,0,1-.49.39H8.4ZM16,8.67a.49.49,0,0,1,.33-.62h0a.49.49,0,0,1,.62.33h0a.49.49,0,0,1-.33.62h0a.39.39,0,0,1-.15,0h0A.48.48,0,0,1,16,8.67ZM6.4,8.59a.5.5,0,0,1-.24-.67h0a.5.5,0,0,1,.67-.23h0a.51.51,0,0,1,.24.66h0a.52.52,0,0,1-.46.29h0A.54.54,0,0,1,6.4,8.59Zm14.79,6.5c-.12-.08-.57-.14-.89.63l-1.92,5.16a.49.49,0,0,0,.08.49l2.07,2.45a.49.49,0,0,0,.38.18.47.47,0,0,0,.32-.12.49.49,0,0,0,.06-.7L19.42,21l2-5.27A.5.5,0,0,0,21.19,15.09ZM19.56,7.48c-.07-.31-.14-.62-.22-.92a.13.13,0,0,1,0-.06L19.19,6V6C18.23,2.56,17,.66,15.43.15A2.63,2.63,0,0,0,12.72.8a2,2,0,0,1-1.22.58c-.39,0-.51-.16-.75-.51A1.6,1.6,0,0,0,8.58.15C7,.66,5.77,2.56,4.82,6V6l-.14.5v0c-.09.31-.16.62-.23.93C1.58,8.22,0,9.32,0,10.62s1.92,2.52,4.62,3.19V14c0,.38,0,.75,0,1.11A15.2,15.2,0,0,0,.66,16.65.49.49,0,0,0,.45,17a.47.47,0,0,0,.08.38l2.83,4.22L1.74,23.14a.5.5,0,1,0,.7.72L4.36,22a.5.5,0,0,0,.06-.64L1.65,17.22a17.71,17.71,0,0,1,3-1.12,9.41,9.41,0,0,0,1.12,3.6c1.11,2.13,2.53,4.12,5.44,4.24h.41c5,0,6.84-3.81,7.87-8.58.09-.38.14-.72.2-1s.09-.46.13-.69C22.27,13,24,12,24,10.62S22.42,8.22,19.56,7.48ZM5.17,8.26A.5.5,0,0,0,5.34,8s0,0,0,0c.09-.41.18-.81.29-1.2a.64.64,0,0,0,0-.07,3.45,3.45,0,0,1,.11-.4h0s0,0,0,0c.84-3,1.89-4.76,3.11-5.15.66-.22.75-.08,1,.32a1.74,1.74,0,0,0,1.58,1,2.9,2.9,0,0,0,1.84-.79,1.65,1.65,0,0,1,1.78-.49c1.21.39,2.26,2.13,3.1,5.15,0,0,0,0,0,0h0c0,.13.08.26.11.39s0,.06,0,.08l.12.51a.49.49,0,0,0-.67.71.47.47,0,0,0,.39.19.5.5,0,0,0,.31-.1.52.52,0,0,0,.13-.17h0a.49.49,0,0,0,.19.34.51.51,0,0,1,.17.36c0,.81-2.73,2-7,2s-7-1.19-7-2A.52.52,0,0,1,5.17,8.26Zm6.06,14.68c-2-.08-3.25-1.12-4.59-3.7a8.7,8.7,0,0,1-1-5.21,31.29,31.29,0,0,0,4.52.53L9,17.67a.46.46,0,0,0,0,.38.5.5,0,0,0,.29.26l1.81.65a.47.47,0,0,0,.17,0,.52.52,0,0,0,.47-.33.51.51,0,0,0-.31-.64l-1.33-.48,1-2.68a.46.46,0,0,0,0-.26l.89,0A32.77,32.77,0,0,0,18.74,14C17.77,19.12,16.29,23.13,11.23,22.94ZM12,13.62c-6.82,0-11-1.75-11-3,0-.53.81-1.32,3-2,0,2,4,3,8,3s8-1,8-3c2.19.67,3,1.46,3,2C23,11.87,18.82,13.62,12,13.62ZM9.26,20a.5.5,0,1,0,.35.93,2.33,2.33,0,0,1,1.54,0,5.87,5.87,0,0,0,1.34.18,5.44,5.44,0,0,0,1.18-.14.5.5,0,1,0-.21-1,4.14,4.14,0,0,1-2.09-.05A3.28,3.28,0,0,0,9.26,20Z" fill="#b3b3b3"/></svg>