<svg xmlns="http://www.w3.org/2000/svg" viewBox="0 0 24 24"><path d="M5,24a5,5,0,0,1-1.07-.12.49.49,0,0,1-.37-.35A.5.5,0,0,1,3.69,23l2.42-2.43-.38-2.32-2.32-.38L1,20.35a.49.49,0,0,1-.49.13.5.5,0,0,1-.35-.37A4.86,4.86,0,0,1,0,19a5,5,0,0,1,6.82-4.65l7.53-7.53A5,5,0,0,1,20.07.12a.49.49,0,0,1,.37.35.5.5,0,0,1-.13.49L17.89,3.39l.38,2.32,2.32.38L23,3.65a.49.49,0,0,1,.49-.13.5.5,0,0,1,.35.37A4.86,4.86,0,0,1,24,5a5,5,0,0,1-6.82,4.65L9.65,17.18A5,5,0,0,1,5,24ZM3.24,16.88h.08l2.93.48a.5.5,0,0,1,.41.42l.48,2.92a.49.49,0,0,1-.14.44L5.14,23A4,4,0,0,0,9,19a3.86,3.86,0,0,0-.4-1.71.5.5,0,0,1,.1-.57l8-8a.5.5,0,0,1,.57-.1A3.86,3.86,0,0,0,19,9a4,4,0,0,0,4-3.91L21.11,7a.52.52,0,0,1-.43.14l-2.93-.48a.5.5,0,0,1-.41-.42L16.86,3.3A.49.49,0,0,1,17,2.86L18.86,1A4,4,0,0,0,15,5a3.86,3.86,0,0,0,.4,1.71.5.5,0,0,1-.1.57l-8,8a.5.5,0,0,1-.57.1A3.86,3.86,0,0,0,5,15a4,4,0,0,0-4,3.91L2.89,17A.5.5,0,0,1,3.24,16.88ZM9.69,15a.36.36,0,0,0,.16-.11A.47.47,0,0,0,10,14.5a.43.43,0,0,0,0-.19.36.36,0,0,0-.11-.16.5.5,0,0,0-.7,0,.36.36,0,0,0-.11.16.43.43,0,0,0,0,.19.51.51,0,0,0,.5.5A.41.41,0,0,0,9.69,15Zm.71-1.36a.48.48,0,0,1,0-.7h0a.48.48,0,0,1,.7,0h0a.48.48,0,0,1,0,.7h0a.47.47,0,0,1-.35.15h0A.47.47,0,0,1,10.4,13.6Zm1.25-1.25a.48.48,0,0,1,0-.7h0a.48.48,0,0,1,.7,0h0a.48.48,0,0,1,0,.7h0a.47.47,0,0,1-.35.15h0A.47.47,0,0,1,11.65,12.35ZM12.9,11.1a.48.48,0,0,1,0-.7h0a.48.48,0,0,1,.7,0h0a.48.48,0,0,1,0,.7h0a.47.47,0,0,1-.35.15h0A.47.47,0,0,1,12.9,11.1Zm1.95-1.25A.47.47,0,0,0,15,9.5a.41.41,0,0,0,0-.19A.53.53,0,0,0,14.69,9a.49.49,0,0,0-.54.11.5.5,0,1,0,.7.7Z" fill="#b3b3b3"/></svg>