<svg xmlns="http://www.w3.org/2000/svg" viewBox="0 0 24 24"><path d="M20.8,11.27l0,10a.5.5,0,0,1-.14.35l-2.18,2.23a.49.49,0,0,1-.36.15.51.51,0,0,1-.36-.15l-2.1-2.15a.5.5,0,0,1,0-.7l1.16-1.18-1.09-1.21a.5.5,0,0,1,0-.7l1.05-1-1.11-1.35a.51.51,0,0,1-.11-.31V14a6.93,6.93,0,0,0,1-.34V15.1l1.29,1.57a.49.49,0,0,1-.05.68l-1,1,1.08,1.19a.52.52,0,0,1,0,.69l-1.14,1.16,1.4,1.44,1.68-1.72,0-10c.16-.22.31-.46.45-.7a5,5,0,0,0-1.4-9.34,7.29,7.29,0,0,0-1.38-1c.23,0,.45,0,.68,0A5.91,5.91,0,0,1,24,6,6,6,0,0,1,20.8,11.27Zm-2.48.05a6.6,6.6,0,0,1-6.78,1.59L4.39,20.12a.5.5,0,0,1-.35.14H.5a.5.5,0,0,1-.5-.5V16.35a.5.5,0,0,1,.5-.5H2.43L2.51,14a.51.51,0,0,1,.17-.35A.47.47,0,0,1,3,13.48l1.67.08.18-2A.55.55,0,0,1,5,11.23L7.39,8.85a6.63,6.63,0,1,1,10.93,2.47Zm-.7-.71A5.63,5.63,0,1,0,8.44,8.78a.53.53,0,0,1-.11.55L5.87,11.81l-.21,2.32a.5.5,0,0,1-.52.45L3.49,14.5l-.08,1.88a.5.5,0,0,1-.5.47H1v2.41H3.83L11.05,12a.51.51,0,0,1,.54-.11A5.64,5.64,0,0,0,17.62,10.61Zm0-5.73A2.27,2.27,0,0,1,17,6.47a2.26,2.26,0,0,1-3.19,0,2.25,2.25,0,0,1,0-3.18,2.31,2.31,0,0,1,3.19,0A2.25,2.25,0,0,1,17.64,4.88Zm-1,0A1.24,1.24,0,0,0,16.27,4,1.27,1.27,0,0,0,14.5,4a1.28,1.28,0,0,0-.37.89,1.26,1.26,0,0,0,2.14.88A1.22,1.22,0,0,0,16.64,4.88ZM11.26,9a.53.53,0,0,0-.55-.11.53.53,0,0,0-.27.27.43.43,0,0,0,0,.19.55.55,0,0,0,.15.36.54.54,0,0,0,.16.1.43.43,0,0,0,.19,0,.48.48,0,0,0,.5-.5.43.43,0,0,0,0-.19A.54.54,0,0,0,11.26,9ZM9.77,6.12H9.9a.49.49,0,0,0,.48-.37A.5.5,0,0,0,10,5.15a.5.5,0,0,0-.26,1Zm0,1a.49.49,0,0,0-.35.61.5.5,0,0,0,.48.37H10a.5.5,0,0,0-.26-1Zm.94-3.71a.54.54,0,0,0-.16.1.55.55,0,0,0-.15.36.51.51,0,0,0,.15.35.57.57,0,0,0,.16.11.65.65,0,0,0,.19,0,.55.55,0,0,0,.36-.15.5.5,0,0,0,.14-.35.54.54,0,0,0-.14-.36A.51.51,0,0,0,10.71,3.44Z" fill="#b3b3b3"/></svg>