<svg width="8" height="6" viewBox="0 0 8 6" fill="none" xmlns="http://www.w3.org/2000/svg">
<path d="M4 5.50205C3.86853 5.50281 3.7382 5.47758 3.61649 5.42782C3.49477 5.37805 3.38407 5.30473 3.29073 5.21205L0.293791 2.21205C0.10568 2.02374 0 1.76835 0 1.50205C0 1.23575 0.10568 0.980351 0.293791 0.792047C0.481902 0.603743 0.737036 0.497955 1.00307 0.497955C1.2691 0.497955 1.52423 0.603743 1.71234 0.792047L4 3.09205L6.28766 0.792047C6.3808 0.698808 6.49138 0.624848 6.61308 0.574387C6.73478 0.523927 6.86521 0.497955 6.99694 0.497955C7.12866 0.497955 7.25909 0.523927 7.38079 0.574387C7.50249 0.624848 7.61307 0.698808 7.70621 0.792047C7.79935 0.885285 7.87324 0.995976 7.92365 1.1178C7.97406 1.23962 8 1.37019 8 1.50205C8 1.63391 7.97406 1.76447 7.92365 1.8863C7.87324 2.00812 7.79935 2.11881 7.70621 2.21205L4.70928 5.21205C4.61593 5.30473 4.50523 5.37805 4.38351 5.42782C4.2618 5.47758 4.13147 5.50281 4 5.50205Z" fill="#8C8C8C"/>
</svg>
