<svg xmlns="http://www.w3.org/2000/svg" viewBox="0 0 16 16"><path d="M8,16a7.78,7.78,0,0,1-6.95-4.33A.5.5,0,0,1,1.23,11a12.31,12.31,0,0,1,2-.89l1-.38c.8-.34,1.25-.55,1.49-.67V8.2A3.36,3.36,0,0,1,5,6.69l-.12-.07a1.74,1.74,0,0,1-.66-1.14A2.08,2.08,0,0,1,4.65,4a6,6,0,0,1-.07-1.25A3.29,3.29,0,0,1,8,0,3.29,3.29,0,0,1,11.4,2.76,6.13,6.13,0,0,1,11.33,4h0a2,2,0,0,1,.42,1.44,1.65,1.65,0,0,1-.64,1.15L11,6.69a3.5,3.5,0,0,1-.64,1.51v.89c.24.12.7.33,1.5.67l1,.4a11.78,11.78,0,0,1,1.93.88.5.5,0,0,1,.18.64A7.77,7.77,0,0,1,8,16ZM2.18,11.65a6.73,6.73,0,0,0,11.64,0c-.38-.18-.85-.37-1.34-.56-.33-.13-.69-.26-1-.41-1.45-.61-1.83-.83-1.87-.85a.5.5,0,0,1-.25-.43V8a.47.47,0,0,1,.2-.39h0A2.51,2.51,0,0,0,10,6.2a.49.49,0,0,1,.23-.36.52.52,0,0,1,.3-.08.79.79,0,0,0,.19-.36,1.86,1.86,0,0,0-.07-.56.6.6,0,0,1-.25-.13.54.54,0,0,1-.15-.44,6.79,6.79,0,0,0,.12-1.41A2.31,2.31,0,0,0,8,1,2.31,2.31,0,0,0,5.57,2.86a10.46,10.46,0,0,0,.12,1.42.5.5,0,0,1-.16.43.42.42,0,0,1-.24.12,2.08,2.08,0,0,0-.06.57.74.74,0,0,0,.19.36.52.52,0,0,1,.3.08A.49.49,0,0,1,6,6.2a2.33,2.33,0,0,0,.53,1.41.56.56,0,0,1,.19.4l0,1.4a.49.49,0,0,1-.24.42s-.42.24-1.87.85l-1,.39C3.06,11.27,2.57,11.46,2.18,11.65Z" fill="#b3b3b3"/></svg>