<svg xmlns="http://www.w3.org/2000/svg" viewBox="0 0 16 16"><path d="M6,4h.5a.5.5,0,0,0,0,1h3a.5.5,0,0,0,0-1H10a.5.5,0,0,0,.5-.5V.5A.5.5,0,0,0,10,0H6a.5.5,0,0,0-.5.5v3A.5.5,0,0,0,6,4Zm.5-3h3V3h-3Zm-2,10H.5a.5.5,0,0,0-.5.5v3a.5.5,0,0,0,.5.5H1a.5.5,0,0,0,0,1H4a.5.5,0,0,0,0-1h.5a.5.5,0,0,0,.5-.5v-3A.5.5,0,0,0,4.5,11ZM4,14H1V12H4Zm6-3H6a.5.5,0,0,0-.5.5v3A.5.5,0,0,0,6,15h.5a.5.5,0,0,0,0,1h3a.5.5,0,0,0,0-1H10a.5.5,0,0,0,.5-.5v-3A.5.5,0,0,0,10,11Zm-.5,3h-3V12h3Zm6-3h-4a.5.5,0,0,0-.5.5v3a.5.5,0,0,0,.5.5H12a.5.5,0,0,0,0,1h3a.5.5,0,0,0,0-1h.5a.5.5,0,0,0,.5-.5v-3A.5.5,0,0,0,15.5,11ZM15,14H12V12h3ZM2,9.5v-1A.5.5,0,0,1,2.5,8h5V6.5a.5.5,0,0,1,1,0V8h5a.5.5,0,0,1,.5.5v1a.5.5,0,0,1-1,0V9H8.5v.5a.5.5,0,0,1-1,0V9H3v.5a.5.5,0,0,1-1,0Z" fill="#b3b3b3"/></svg>