<svg xmlns="http://www.w3.org/2000/svg" viewBox="0 0 16 16"><path d="M8,2.81A5.19,5.19,0,1,0,13.19,8,5.2,5.2,0,0,0,8,2.81Zm0,9.38A4.19,4.19,0,1,1,12.19,8,4.2,4.2,0,0,1,8,12.19ZM14.94,12a7.93,7.93,0,0,0,0-7.92.06.06,0,0,0,0,0s0,0,0,0A7.94,7.94,0,0,0,12,1.11s0,0,0,0h0A7.93,7.93,0,0,0,4,1.06H4s0,0,0,0A7.94,7.94,0,0,0,1.11,4s0,0,0,0a.06.06,0,0,0,0,0,7.93,7.93,0,0,0,0,7.92.06.06,0,0,0,0,0l0,0A8,8,0,0,0,4,14.89l0,0H4a8,8,0,0,0,7.94,0h0l0,0A8,8,0,0,0,14.9,12l0,0A.06.06,0,0,0,14.94,12Zm-3,1.83-.24-.41a.5.5,0,0,0-.86.5l.23.41A6.84,6.84,0,0,1,8.5,15V14.5a.5.5,0,0,0-1,0V15A6.84,6.84,0,0,1,5,14.29l.23-.41a.5.5,0,1,0-.86-.5l-.24.41a6.93,6.93,0,0,1-1.87-1.87l.41-.24a.5.5,0,1,0-.5-.86l-.41.23A6.84,6.84,0,0,1,1,8.5H1.5a.5.5,0,0,0,0-1H1A6.84,6.84,0,0,1,1.71,5l.41.23a.47.47,0,0,0,.25.07.5.5,0,0,0,.25-.93l-.41-.24A6.93,6.93,0,0,1,4.08,2.21l.24.41a.5.5,0,0,0,.43.25A.45.45,0,0,0,5,2.8a.49.49,0,0,0,.18-.68L5,1.71A6.84,6.84,0,0,1,7.5,1V1.5a.5.5,0,0,0,1,0V1a6.84,6.84,0,0,1,2.55.68l-.23.41A.49.49,0,0,0,11,2.8a.45.45,0,0,0,.25.07.5.5,0,0,0,.43-.25l.24-.41a6.93,6.93,0,0,1,1.87,1.87l-.41.24a.5.5,0,0,0,.25.93.47.47,0,0,0,.25-.07L14.29,5A6.84,6.84,0,0,1,15,7.5H14.5a.5.5,0,0,0,0,1H15a6.84,6.84,0,0,1-.68,2.55l-.41-.23a.5.5,0,1,0-.5.86l.41.24A6.93,6.93,0,0,1,11.92,13.79Zm-.26-6.54-.27-.83a.48.48,0,0,0-.29-.3.51.51,0,0,0-.42,0L8.49,7.25l.39-2.43a.5.5,0,0,0-.12-.41.39.39,0,0,0-.38-.17H7.51a.49.49,0,0,0-.38.18.46.46,0,0,0-.11.4L7.4,7.25,5.21,6.13a.48.48,0,0,0-.42,0,.5.5,0,0,0-.29.31l-.26.83a.46.46,0,0,0,0,.41.5.5,0,0,0,.34.24l2.44.38L5.32,10a.5.5,0,0,0-.14.4.47.47,0,0,0,.2.36l.71.51a.54.54,0,0,0,.3.1l.11,0a.46.46,0,0,0,.33-.26L8,8.93l1.12,2.2a.49.49,0,0,0,.33.26h.11a.47.47,0,0,0,.3-.1l.7-.52a.49.49,0,0,0,.21-.36.51.51,0,0,0-.15-.39L8.83,8.29l2.44-.39a.46.46,0,0,0,.34-.23A.48.48,0,0,0,11.66,7.25ZM7.94,8h0Z" fill="#b3b3b3"/></svg>