<svg xmlns="http://www.w3.org/2000/svg" viewBox="0 0 24 24" width="24" height="24"><path d="M14.29,22a.5.5,0,0,1-.35-.14.55.55,0,0,1-.15-.36.5.5,0,0,1,.69-.46.48.48,0,0,1,.31.46.52.52,0,0,1-.14.36.71.71,0,0,1-.17.11A.58.58,0,0,1,14.29,22Zm-1.91-.9h0a.51.51,0,0,0,.43-.24h0a.5.5,0,0,0-.17-.69h0a.51.51,0,0,0-.69.17h0a.52.52,0,0,0,.17.69A.59.59,0,0,0,12.38,21.06Zm-1.74-1.2h0a.47.47,0,0,0,.39-.2h0a.49.49,0,0,0-.09-.7h0a.49.49,0,0,0-.7.09h0a.49.49,0,0,0,.09.7A.51.51,0,0,0,10.64,19.86ZM9,18.51H9a.5.5,0,0,0,.37-.17h0a.5.5,0,0,0,0-.71h0a.51.51,0,0,0-.71.05h0a.49.49,0,0,0,.05.7h0A.46.46,0,0,0,9,18.51ZM7.8,16.9A.45.45,0,0,0,8,16.56a.47.47,0,0,0-.15-.35.36.36,0,0,0-.16-.11.49.49,0,0,0-.54.11.36.36,0,0,0-.11.16.41.41,0,0,0,0,.19.45.45,0,0,0,.15.34.48.48,0,0,0,.7,0ZM3.63,9.58a.46.46,0,0,0,.16-.11.47.47,0,0,0,.15-.35.51.51,0,0,0-.15-.36.52.52,0,0,0-.7,0,.51.51,0,0,0-.15.36.47.47,0,0,0,.15.35.51.51,0,0,0,.35.15A.58.58,0,0,0,3.63,9.58Zm1.9-.17h.06A.5.5,0,0,0,6,8.86H6a.5.5,0,0,0-.55-.44h0A.51.51,0,0,0,5,9,.51.51,0,0,0,5.53,9.41Zm5.82-2.15h0a.56.56,0,0,0,.32-.11h0a.51.51,0,0,0,.06-.71h0a.5.5,0,0,0-.7-.07h0a.52.52,0,0,0-.07.71A.5.5,0,0,0,11.35,7.26Zm1.52-1.45h0a.48.48,0,0,0,.36-.15h0a.5.5,0,0,0,0-.71h0a.49.49,0,0,0-.7,0h0a.5.5,0,0,0,0,.71A.48.48,0,0,0,12.87,5.81Zm1.44-1.53h0a.49.49,0,0,0,.37-.16h0a.5.5,0,0,0,0-.71h0a.5.5,0,0,0-.71,0h0a.49.49,0,0,0,0,.7A.51.51,0,0,0,14.31,4.28Zm3.75-.79h0a.51.51,0,0,0,.46-.28h0a.49.49,0,0,0-.24-.66h0a.49.49,0,0,0-.66.22h0a.5.5,0,0,0,.23.67A.54.54,0,0,0,18.06,3.49Zm-2-.36h.09a.5.5,0,0,0,.4-.58h0a.5.5,0,0,0-.59-.39h0a.48.48,0,0,0-.39.58A.49.49,0,0,0,16,3.13Zm4.1,1.46a.55.55,0,0,0,.15-.36.51.51,0,0,0-.86-.35.5.5,0,0,0-.14.35.48.48,0,0,0,.5.5A.5.5,0,0,0,20.13,4.59Zm3.8,2.09A8,8,0,0,0,21.6,2.42c-2.38-2.38-6-3.58-8.71-.87L12,2.49A12.4,12.4,0,0,1,7.92,5.81l.76.76a14.15,14.15,0,0,0,4.06-3.41c.31-.33.59-.64.86-.9A4,4,0,0,1,16.49,1a6.55,6.55,0,0,1,4.4,2.1A7,7,0,0,1,23,6.84a4,4,0,0,1-1.19,3.57c-.27.27-.58.55-.91.85a14.33,14.33,0,0,0-3.41,4.07l.76.76A12.42,12.42,0,0,1,21.53,12c.34-.31.66-.61.93-.88A5,5,0,0,0,23.93,6.68Zm-7.28,12.1.92.91v.06c-.1,1.26-.18,2.17-.75,2.73l-1.09,1.09a1.56,1.56,0,0,1-1.17.43,6.67,6.67,0,0,1-3-1A24.63,24.63,0,0,1,8.2,20.61a3.61,3.61,0,1,1-4.95-5A23,23,0,0,1,1,12.46C-.09,10.46-.3,9,.43,8.29L1.52,7.2c.57-.57,1.47-.64,2.73-.75h.06l.92.92-.9.08a4.11,4.11,0,0,0-2.1.46L1.13,9c-.28.28-.15,1.32.78,3a27.63,27.63,0,0,0,4.48,5.65A28.14,28.14,0,0,0,12,22.09c1.66.93,2.69,1.06,3,.78l1.1-1.1a4.08,4.08,0,0,0,.46-2.1C16.59,19.4,16.62,19.09,16.65,18.78ZM7.43,20c-.59-.51-1.17-1.05-1.75-1.63S4.45,17,3.9,16.4A2.61,2.61,0,1,0,7.43,20Zm16.42,3.9a.48.48,0,0,0,0-.7L.85.16a.5.5,0,0,0-.7,0,.5.5,0,0,0,0,.71l23,23a.47.47,0,0,0,.35.15A.49.49,0,0,0,23.85,23.85Z" fill="#b3b3b3"/></svg>
