<svg xmlns="http://www.w3.org/2000/svg" viewBox="0 0 24 24"><path d="M11.65,4.67a.47.47,0,0,1-.15-.35.41.41,0,0,1,0-.19A.45.45,0,0,1,11.65,4a.44.44,0,0,1,.16-.1.51.51,0,0,1,.54.1.45.45,0,0,1,.11.17.41.41,0,0,1,0,.19.51.51,0,0,1-.5.5.41.41,0,0,1-.19,0A.46.46,0,0,1,11.65,4.67Zm-.71,1.61a.53.53,0,0,0,.24.06.51.51,0,0,0,.44-.26.5.5,0,1,0-.68.2Zm-.58,1.58a.58.58,0,0,0,.19,0,.71.71,0,0,0,.17-.11.52.52,0,0,0,.14-.35A.51.51,0,0,0,10.72,7a.71.71,0,0,0-.17-.11A.51.51,0,0,0,10,7a.5.5,0,0,0,0,.71A.51.51,0,0,0,10.36,7.86ZM5.15,17.07a.53.53,0,0,0-.71,0,.51.51,0,0,0-.15.36.51.51,0,0,0,.15.35.57.57,0,0,0,.16.11.65.65,0,0,0,.19,0,.53.53,0,0,0,.36-.15.5.5,0,0,0,.14-.35.58.58,0,0,0,0-.19A1,1,0,0,0,5.15,17.07ZM4.21,18.5a.5.5,0,0,0-.47.89.46.46,0,0,0,.23.05.5.5,0,0,0,.24-.94Zm-.7,1.61a.51.51,0,0,0-.71,0,.54.54,0,0,0-.1.16.43.43,0,0,0,0,.19.48.48,0,0,0,.14.35.49.49,0,0,0,.36.15.43.43,0,0,0,.19,0,.42.42,0,0,0,.16-.11.49.49,0,0,0,.15-.35.65.65,0,0,0,0-.19A.46.46,0,0,0,3.51,20.11Zm20.28,2.15A1.49,1.49,0,0,1,22.5,23H1.5A1.5,1.5,0,0,1,.19,20.77l10.5-19a1.5,1.5,0,0,1,2.62,0l10.5,19A1.5,1.5,0,0,1,23.79,22.26Zm-.85-1-10.5-19a.5.5,0,0,0-.88,0l-10.5,19a.5.5,0,0,0,0,.49A.47.47,0,0,0,1.5,22h21a.47.47,0,0,0,.43-.25A.5.5,0,0,0,22.94,21.26ZM17.5,15.71a.5.5,0,0,1-.5.5H15.57a.5.5,0,0,1-.26-.08,3.13,3.13,0,0,1-.41,1.24.49.49,0,0,1,.31.13l1.43,1.43a.5.5,0,0,1,0,.71.5.5,0,0,1-.35.15.51.51,0,0,1-.36-.15L14.5,18.21a.54.54,0,0,1-.1-.16,3.33,3.33,0,0,1-4.8,0,.54.54,0,0,1-.1.16L8.07,19.64a.51.51,0,0,1-.36.15.5.5,0,0,1-.35-.15.5.5,0,0,1,0-.71L8.79,17.5a.49.49,0,0,1,.31-.13,3.13,3.13,0,0,1-.41-1.24.5.5,0,0,1-.26.08H7a.5.5,0,0,1-.5-.5.5.5,0,0,1,.5-.5H8.43a.51.51,0,0,1,.27.09,3.32,3.32,0,0,1,.38-1.24.46.46,0,0,1-.29-.13L7.36,12.5a.5.5,0,1,1,.71-.71L9.5,13.22a.44.44,0,0,1,.1.16,3.37,3.37,0,0,1,.62-.51,1.83,1.83,0,0,1-.15-.73,1.93,1.93,0,0,1,3.86,0,1.83,1.83,0,0,1-.15.73,3.37,3.37,0,0,1,.62.51.44.44,0,0,1,.1-.16l1.43-1.43a.5.5,0,0,1,.71.71l-1.43,1.43a.46.46,0,0,1-.29.13,3.32,3.32,0,0,1,.38,1.24.51.51,0,0,1,.27-.09H17A.5.5,0,0,1,17.5,15.71Zm-3.14,0a2.36,2.36,0,0,0-1.47-2.18.51.51,0,0,1-.3-.34.5.5,0,0,1,.11-.45.93.93,0,1,0-1.4,0,.5.5,0,0,1,.11.45.51.51,0,0,1-.3.34,2.36,2.36,0,1,0,3.25,2.18Z" fill="#b3b3b3"/></svg>