<svg xmlns="http://www.w3.org/2000/svg" viewBox="0 0 24 24"><path d="M3.04,11.354a.341.341,0,0,1,.109.16.391.391,0,0,1,.04.19.5.5,0,0,1-.149.351.483.483,0,0,1-.7,0,.491.491,0,0,1-.151-.351.416.416,0,0,1,.04-.19.36.36,0,0,1,.111-.16A.5.5,0,0,1,3.04,11.354Zm5.189-4.34a.5.5,0,0,0-.62.35.509.509,0,0,0,.341.622A.732.732,0,0,0,8.09,8a.478.478,0,0,0,.479-.36A.5.5,0,0,0,8.229,7.014Zm1.13-3.248a.514.514,0,0,0-.149.7.522.522,0,0,0,.42.22.429.429,0,0,0,.269-.08.493.493,0,0,0,.151-.691A.5.5,0,0,0,9.359,3.766ZM8.88,5.83a.5.5,0,1,0-.66.262.493.493,0,0,0,.2.04A.5.5,0,0,0,8.88,5.83Zm-2.21,2.6a.5.5,0,0,0-.26.661.5.5,0,0,0,.46.3.488.488,0,0,0,.2-.04.5.5,0,1,0-.4-.922Zm-1.75.13H4.91a.5.5,0,0,0,.08.993h.079a.513.513,0,0,0,.421-.572A.5.5,0,0,0,4.92,8.557ZM3.729,10.281a.494.494,0,0,0-.049-.7.5.5,0,0,0-.7.04.516.516,0,0,0,.041.712.537.537,0,0,0,.33.12A.479.479,0,0,0,3.729,10.281ZM11.45,4.147a.406.406,0,0,0,.19-.04.585.585,0,0,0,.17-.1.483.483,0,0,0,.1-.171.418.418,0,0,0,.04-.19.445.445,0,0,0-.04-.19.53.53,0,0,0-.1-.161.511.511,0,0,0-.71,0,.452.452,0,0,0-.11.161.43.43,0,0,0-.04.19.406.406,0,0,0,.04.19.5.5,0,0,0,.11.171.525.525,0,0,0,.16.1A.43.43,0,0,0,11.45,4.147Zm10.34,5.8c.013-.132.02-.261.02-.388A4.3,4.3,0,0,0,17.477,5.3c-.09,0-.179,0-.266.011A5.99,5.99,0,0,0,5.5,6.371H5.429a5.334,5.334,0,1,0,0,10.666h5.756l-1.005-1H5.429a4.332,4.332,0,1,1,0-8.662A2.6,2.6,0,0,1,5.75,7.4l.176.022a.535.535,0,0,0,.386-.153.562.562,0,0,0,.165-.4,4.984,4.984,0,0,1,9.86-.914.5.5,0,0,0,.573.4,3.514,3.514,0,0,1,.567-.057A3.3,3.3,0,0,1,20.81,9.556a3.134,3.134,0,0,1-.065.615.5.5,0,0,0,.338.573,2.686,2.686,0,0,1-.166,5.191l-.007.009-1.095,1.092h.4A3.758,3.758,0,0,0,24,13.314,3.7,3.7,0,0,0,21.79,9.944Zm-5.581,8.567,3.644-3.633a.5.5,0,0,0-.706-.71L15.5,17.8l-3.647-3.636a.5.5,0,0,0-.706.71l3.644,3.633-3.644,3.633a.5.5,0,0,0,0,.708A.494.494,0,0,0,11.5,23a.5.5,0,0,0,.353-.146L15.5,19.218l3.647,3.636A.5.5,0,0,0,19.5,23a.494.494,0,0,0,.354-.148.5.5,0,0,0,0-.708Z" fill="#b3b3b3"/></svg>