<svg xmlns="http://www.w3.org/2000/svg" viewBox="0 0 24 24"><path d="M3,11.32a.45.45,0,0,1,.11.17.41.41,0,0,1,0,.19A.47.47,0,0,1,3,12a.36.36,0,0,1-.16.11.41.41,0,0,1-.19,0,.41.41,0,0,1-.19,0A.36.36,0,0,1,2.34,12a.47.47,0,0,1-.15-.35.41.41,0,0,1,0-.19.45.45,0,0,1,.11-.17.44.44,0,0,1,.16-.1A.49.49,0,0,1,3,11.32Zm.69-1.06A.5.5,0,0,0,3,9.6a.51.51,0,0,0,0,.71.54.54,0,0,0,.33.12A.48.48,0,0,0,3.73,10.26ZM4.92,8.54h0a.5.5,0,0,0,.08,1h.08A.51.51,0,0,0,5.49,9,.5.5,0,0,0,4.92,8.54Zm1.75-.13a.5.5,0,0,0,.2,1,.48.48,0,0,0,.2,0,.5.5,0,1,0-.4-.92ZM8.23,7A.5.5,0,0,0,8,8h.14a.49.49,0,0,0,.48-.36A.5.5,0,0,0,8.23,7Zm.39-1.84a.5.5,0,0,0-.4.92.48.48,0,0,0,.2,0,.5.5,0,0,0,.2-1Zm1-.48A.43.43,0,0,0,9.9,4.6a.49.49,0,0,0,.15-.69.5.5,0,0,0-.69-.15.51.51,0,0,0-.15.7A.52.52,0,0,0,9.63,4.68ZM11.8,4A.45.45,0,0,0,12,3.64a.47.47,0,0,0-.15-.35.5.5,0,0,0-.7,0,.51.51,0,0,0-.15.35A.45.45,0,0,0,11.1,4a.48.48,0,0,0,.7,0ZM14,13a5,5,0,0,0-3.44,1.37V13.5a.5.5,0,0,0-.5-.5.5.5,0,0,0-.5.5v2.15a.51.51,0,0,0,.5.5h2.25a.5.5,0,0,0,.5-.5.5.5,0,0,0-.5-.5H11.23A3.93,3.93,0,0,1,14,14a4,4,0,0,1,4,4,.5.5,0,0,0,1,0A5,5,0,0,0,14,13Zm4.07,6.72H15.82a.5.5,0,0,0,0,1H16.9A4,4,0,0,1,10,18a.5.5,0,0,0-1,0,5,5,0,0,0,8.57,3.5v.87a.5.5,0,0,0,.5.5.51.51,0,0,0,.5-.5V20.22A.5.5,0,0,0,18.07,19.72Zm3.72-9.79c0-.13,0-.26,0-.39a4.29,4.29,0,0,0-4.33-4.25h-.27A6,6,0,0,0,5.5,6.36H5.43A5.39,5.39,0,0,0,0,11.68,5.39,5.39,0,0,0,5.43,17H7.78a1.88,1.88,0,0,1,.46-.55A1.81,1.81,0,0,1,8.1,16H5.43A4.39,4.39,0,0,1,1,11.68,4.38,4.38,0,0,1,5.43,7.36c.11,0,.21,0,.32,0l.18,0a.55.55,0,0,0,.38-.15.56.56,0,0,0,.17-.4A5,5,0,0,1,16.34,6a.48.48,0,0,0,.57.39,3.45,3.45,0,0,1,.57,0,3.3,3.3,0,0,1,3.33,3.25,3.4,3.4,0,0,1-.06.61.5.5,0,0,0,.33.58A2.69,2.69,0,0,1,23,13.29,2.76,2.76,0,0,1,20.21,16h0a5.19,5.19,0,0,1,.23,1A3.75,3.75,0,0,0,24,13.29,3.68,3.68,0,0,0,21.79,9.93Z" fill="#b3b3b3"/></svg>