<svg xmlns="http://www.w3.org/2000/svg" viewBox="0 0 24 24"><path d="M12,24A12,12,0,1,1,24,12,12.013,12.013,0,0,1,12,24ZM12,1A11,11,0,1,0,23,12,11.013,11.013,0,0,0,12,1ZM2.689,12.46a.369.369,0,0,0,.161-.11.369.369,0,0,0,.11-.161A.4.4,0,0,0,3,12a.473.473,0,0,0-.15-.351.5.5,0,0,0-.7,0A.476.476,0,0,0,2,12a.4.4,0,0,0,.04.189.359.359,0,0,0,.109.161.456.456,0,0,0,.351.15A.4.4,0,0,0,2.689,12.46ZM2.63,10.37a.5.5,0,0,1-.38-.6h0a.491.491,0,0,1,.6-.371h0a.5.5,0,0,1,.37.591V10a.492.492,0,0,1-.48.38h0A.375.375,0,0,1,2.63,10.37Zm.59-2.04a.5.5,0,0,1-.23-.67h0a.5.5,0,0,1,.67-.23h0a.5.5,0,0,1,.23.66h0a.515.515,0,0,1-.451.29h0A.6.6,0,0,1,3.22,8.33ZM4.26,6.47a.508.508,0,0,1-.08-.71h0a.5.5,0,0,1,.7-.071h0a.487.487,0,0,1,.08.7h0a.5.5,0,0,1-.391.179h0A.5.5,0,0,1,4.26,6.47ZM5.68,4.88a.5.5,0,0,1,.08-.7h0a.508.508,0,0,1,.71.08h0a.5.5,0,0,1-.08.7h0a.455.455,0,0,1-.31.109h0A.5.5,0,0,1,5.68,4.88ZM7.42,3.66a.5.5,0,0,1,.24-.67h0a.49.49,0,0,1,.659.23h0a.5.5,0,0,1-.229.67h0a.536.536,0,0,1-.21.049h0A.525.525,0,0,1,7.42,3.66Zm1.97-.81a.5.5,0,0,1,.38-.6h0a.5.5,0,0,1,.6.38h0a.5.5,0,0,1-.38.59h0a.472.472,0,0,1-.11.02h0A.51.51,0,0,1,9.39,2.85Zm2.8.11a.369.369,0,0,0,.161-.11.469.469,0,0,0,.15-.35.43.43,0,0,0-.04-.19.375.375,0,0,0-.11-.161.5.5,0,0,0-.7,0,.364.364,0,0,0-.109.161.43.43,0,0,0-.04.19.472.472,0,0,0,.149.35.375.375,0,0,0,.161.11A.406.406,0,0,0,12,3,.4.4,0,0,0,12.189,2.96Zm3.872,9.479a1.5,1.5,0,0,0-2.122,0l-.439.44V8.5a1.5,1.5,0,0,0-3,0v4.379l-.439-.44a1.5,1.5,0,0,0-2.122,2.122l3,3a1.5,1.5,0,0,0,2.122,0l3-3A1.5,1.5,0,0,0,16.061,12.439Zm-.707,1.415-3,3a.5.5,0,0,1-.708,0l-3-3a.5.5,0,0,1,.708-.708L11.5,15.293V8.5a.5.5,0,0,1,1,0v6.793l2.146-2.147a.5.5,0,0,1,.708.708Z" fill="#b3b3b3"/></svg>