<svg xmlns="http://www.w3.org/2000/svg" viewBox="0 0 24 24"><path d="M13.5,24h-3a.5.5,0,0,1-.5-.5V14H.5a.5.5,0,0,1-.5-.5v-3A.5.5,0,0,1,.5,10H10V.5a.5.5,0,0,1,.5-.5h3a.5.5,0,0,1,.5.5V10h9.5a.5.5,0,0,1,.5.5v3a.5.5,0,0,1-.5.5H14v9.5A.5.5,0,0,1,13.5,24ZM11,23h2V13.5a.5.5,0,0,1,.5-.5H23V11H13.5a.5.5,0,0,1-.5-.5V1H11v9.5a.5.5,0,0,1-.5.5H1v2h9.5a.5.5,0,0,1,.5.5ZM0,4.5A.5.5,0,0,1,.5,4h0a.5.5,0,0,1,.5.5H1A.5.5,0,0,1,.5,5h0A.5.5,0,0,1,0,4.5Zm0-2A.5.5,0,0,1,.5,2h0a.5.5,0,0,1,.5.5H1A.5.5,0,0,1,.5,3h0A.5.5,0,0,1,0,2.5Zm4-2A.5.5,0,0,1,4.5,0h0A.5.5,0,0,1,5,.5H5a.5.5,0,0,1-.5.5h0A.5.5,0,0,1,4,.5ZM2,.5A.5.5,0,0,1,2.5,0h0A.5.5,0,0,1,3,.5H3a.5.5,0,0,1-.5.5h0A.5.5,0,0,1,2,.5ZM0,.5A.5.5,0,0,1,.5,0h0A.5.5,0,0,1,1,.5H1A.5.5,0,0,1,.5,1h0A.5.5,0,0,1,0,.5Zm23,4a.5.5,0,0,1,.5-.5h0a.5.5,0,0,1,.5.5h0a.5.5,0,0,1-.5.5h0A.5.5,0,0,1,23,4.5Zm0-2a.5.5,0,0,1,.5-.5h0a.5.5,0,0,1,.5.5h0a.5.5,0,0,1-.5.5h0A.5.5,0,0,1,23,2.5Zm0-2a.5.5,0,0,1,.5-.5h0a.5.5,0,0,1,.5.5h0a.5.5,0,0,1-.5.5h0A.5.5,0,0,1,23,.5Zm-2,0a.5.5,0,0,1,.5-.5h0a.5.5,0,0,1,.5.5h0a.5.5,0,0,1-.5.5h0A.5.5,0,0,1,21,.5Zm-2,0a.5.5,0,0,1,.5-.5h0a.5.5,0,0,1,.5.5h0a.5.5,0,0,1-.5.5h0A.5.5,0,0,1,19,.5Zm4,23a.5.5,0,0,1,.5-.5h0a.5.5,0,0,1,.5.5h0a.5.5,0,0,1-.5.5h0A.5.5,0,0,1,23,23.5Zm-2,0a.5.5,0,0,1,.5-.5h0a.5.5,0,0,1,.5.5h0a.508.508,0,0,1-.5.5h0A.5.5,0,0,1,21,23.5Zm-2,0a.5.5,0,0,1,.5-.5h0a.5.5,0,0,1,.5.5h0a.5.5,0,0,1-.5.5h0A.5.5,0,0,1,19,23.5Zm4-2a.5.5,0,0,1,.5-.5h0a.5.5,0,0,1,.5.5h0a.5.5,0,0,1-.5.5h0A.5.5,0,0,1,23,21.5Zm0-2a.5.5,0,0,1,.5-.5h0a.5.5,0,0,1,.5.5h0a.5.5,0,0,1-.5.5h0A.5.5,0,0,1,23,19.5Zm-19,4a.5.5,0,0,1,.5-.5h0a.5.5,0,0,1,.5.5H5a.5.5,0,0,1-.5.5h0A.5.5,0,0,1,4,23.5Zm-2,0a.5.5,0,0,1,.5-.5h0a.5.5,0,0,1,.5.5H3a.5.5,0,0,1-.5.5h0A.5.5,0,0,1,2,23.5Zm-2,0A.5.5,0,0,1,.5,23h0a.5.5,0,0,1,.5.5H1a.5.5,0,0,1-.5.5h0A.5.5,0,0,1,0,23.5Zm0-2A.5.5,0,0,1,.5,21h0a.5.5,0,0,1,.5.5H1a.5.5,0,0,1-.5.5h0A.5.5,0,0,1,0,21.5Zm0-2A.5.5,0,0,1,.5,19h0a.5.5,0,0,1,.5.5H1a.5.5,0,0,1-.5.5h0A.5.5,0,0,1,0,19.5Z" fill="#b3b3b3"/></svg>