<svg xmlns="http://www.w3.org/2000/svg" viewBox="0 0 24 24"><path d="M22.5,19.569a.584.584,0,0,1-.19-.039.457.457,0,0,1-.16-.11.5.5,0,0,1,0-.71.511.511,0,0,1,.7,0,.49.49,0,0,1,.15.359.511.511,0,0,1-.5.5ZM12.92,22h.01a.515.515,0,0,0,.49-.51h0a.5.5,0,0,0-.51-.49h0a.486.486,0,0,0-.49.5A.5.5,0,0,0,12.92,22Zm-2-.05h0a.51.51,0,0,0,.5-.471h0a.5.5,0,0,0-.47-.529h0a.5.5,0,0,0-.53.46h0a.505.505,0,0,0,.47.54Zm3.99-.07h0a.09.09,0,0,0,.05-.01h0a.492.492,0,0,0,.45-.551h0a.5.5,0,0,0-.55-.439h0a.5.5,0,0,0-.45.55A.508.508,0,0,0,14.91,21.88Zm-5.97-.151h0a.5.5,0,0,0,.49-.429h0a.507.507,0,0,0-.42-.571h0a.506.506,0,0,0-.57.42h0a.506.506,0,0,0,.42.571A.215.215,0,0,0,8.94,21.729Zm7.94-.149h.1a.5.5,0,0,0,.39-.59h0a.5.5,0,0,0-.58-.4h0a.514.514,0,0,0-.4.59A.5.5,0,0,0,16.88,21.58Zm-9.9-.25h0a.5.5,0,0,0,.48-.38h0a.483.483,0,0,0-.36-.6h0a.5.5,0,0,0-.61.36h0a.511.511,0,0,0,.37.609A.444.444,0,0,0,6.98,21.33Zm11.84-.221h0a.77.77,0,0,0,.15-.019h0a.5.5,0,0,0,.33-.62h0a.493.493,0,0,0-.62-.34h0a.5.5,0,0,0,.14.979ZM5.07,20.75h0a.506.506,0,0,0,.47-.33h0a.5.5,0,0,0-.3-.64h0a.492.492,0,0,0-.64.3h0a.5.5,0,0,0,.3.64A.508.508,0,0,0,5.07,20.75Zm15.64-.311h0a.626.626,0,0,0,.19-.029h0V20.4h0a.5.5,0,0,0,.27-.649h0a.509.509,0,0,0-.66-.271h0a.518.518,0,0,0-.27.661A.5.5,0,0,0,20.71,20.439ZM3.23,19.96h0a.5.5,0,0,0,.45-.28h0a.5.5,0,0,0-.22-.67h0a.5.5,0,0,0-.67.23h0a.494.494,0,0,0,.22.67A.605.605,0,0,0,3.23,19.96ZM1.69,18.9a.346.346,0,0,0,.16-.109A.455.455,0,0,0,2,18.439a.468.468,0,0,0-.15-.349.5.5,0,0,0-.7,0,.468.468,0,0,0-.15.349.41.41,0,0,0,.04.191.361.361,0,0,0,.11.16.468.468,0,0,0,.35.149A.394.394,0,0,0,1.69,18.9ZM24,12c0,2.634-5.555,8-12,8S0,14.634,0,12c0-1.912,3.138-5.4,7.183-7.034a12.554,12.554,0,0,1,9.633,0C20.862,6.6,24,10.088,24,12ZM12,5a11.9,11.9,0,0,0-4.349.86,6,6,0,1,0,8.7,0c-.088-.035-.176-.06-.264-.093l-.007,0h0A11.82,11.82,0,0,0,12,5Zm11,7c0-1.033-1.793-3.518-4.813-5.252a7,7,0,1,1-12.371,0C2.794,8.479,1,10.966,1,12c0,1.918,5,7,11,7S23,13.918,23,12Zm-.31-6.6a.617.617,0,0,0,.16-.109A.494.494,0,0,0,23,4.93a.469.469,0,0,0-.15-.35.51.51,0,0,0-.7,0,.469.469,0,0,0-.15.35.494.494,0,0,0,.15.36.617.617,0,0,0,.16.109.6.6,0,0,0,.38,0ZM3.24,5.04h0a.585.585,0,0,0,.22-.05h0a.511.511,0,0,0,.22-.68h0a.5.5,0,0,0-.67-.22h0a.5.5,0,0,0-.22.67A.5.5,0,0,0,3.24,5.04Zm17.47-.48h0a.511.511,0,0,0,.46-.31h0a.5.5,0,0,0-.27-.65h0a.5.5,0,0,0-.66.27h0a.509.509,0,0,0,.27.65A.711.711,0,0,0,20.71,4.56ZM5.07,4.25h0a.508.508,0,0,0,.17-.03h0a.5.5,0,0,0,.3-.64h0a.5.5,0,0,0-.64-.3h0a.509.509,0,0,0-.3.64A.492.492,0,0,0,5.07,4.25Zm13.76-.36h0a.489.489,0,0,0,.47-.36h0a.5.5,0,0,0-.33-.62h0a.5.5,0,0,0-.63.34h0a.514.514,0,0,0,.34.62h0A.772.772,0,0,0,18.83,3.89ZM6.98,3.67h0a.459.459,0,0,0,.12-.021h0a.491.491,0,0,0,.36-.6h0a.5.5,0,0,0-.6-.37h0a.5.5,0,0,0,.12.99Zm9.9-.25h0a.513.513,0,0,0,.5-.41h0a.514.514,0,0,0-.4-.59h0a.514.514,0,0,0-.59.4h0a.515.515,0,0,0,.4.591C16.82,3.41,16.85,3.42,16.88,3.42ZM8.94,3.27h.07a.508.508,0,0,0,.42-.581h0a.5.5,0,0,0-.57-.409h0a.5.5,0,0,0,.08.99Zm5.97-.15h0a.507.507,0,0,0,.5-.45h0a.509.509,0,0,0-.45-.55v.01a.5.5,0,0,0-.55.439h0a.5.5,0,0,0,.45.551h.05Zm-3.99-.07h.03a.5.5,0,0,0,.47-.53h0a.5.5,0,0,0-.53-.47h0a.5.5,0,0,0,.03,1ZM12.91,3h0a.5.5,0,0,0,.51-.49h0A.515.515,0,0,0,12.93,2h0a.5.5,0,0,0-.51.49h0a.489.489,0,0,0,.49.51ZM1.69,6.02a.457.457,0,0,0,.16-.11A.472.472,0,0,0,2,5.56a.484.484,0,0,0-.04-.2A.423.423,0,0,0,1.85,5.2a.511.511,0,0,0-.7,0,.423.423,0,0,0-.11.159.455.455,0,0,0-.04.2.472.472,0,0,0,.15.35.457.457,0,0,0,.16.11.585.585,0,0,0,.19.04A.585.585,0,0,0,1.69,6.02ZM16,10a4,4,0,0,0-4-4,.5.5,0,0,0,0,1,3,3,0,1,1-3,3,.5.5,0,0,0-1,0,4,4,0,0,0,8,0ZM8.97,8.75h0A.5.5,0,0,0,9.4,8.5h0a.5.5,0,0,0-.18-.681h0A.492.492,0,0,0,8.54,8h0a.493.493,0,0,0,.18.68A.46.46,0,0,0,8.97,8.75Zm1.28-1.28h0A.467.467,0,0,0,10.5,7.4h0a.5.5,0,0,0,.18-.679h0A.494.494,0,0,0,10,6.54h0a.488.488,0,0,0-.19.68A.511.511,0,0,0,10.25,7.47Z" fill="#b3b3b3"/></svg>