<svg xmlns="http://www.w3.org/2000/svg" viewBox="0 0 12 12"><path d="M10.5,4h-9a.5.5,0,0,0,0,1H2v5.5A1.5,1.5,0,0,0,3.5,12h5A1.5,1.5,0,0,0,10,10.5V5h.5a.5.5,0,0,0,0-1ZM9,10.5a.5.5,0,0,1-.5.5h-5a.5.5,0,0,1-.5-.5V5H9ZM1.5,3.981a.607.607,0,0,0,.085-.006L10.456,2.46a.5.5,0,0,0-.168-.986L7.823,1.9,7.571.416a.5.5,0,0,0-.2-.324A.509.509,0,0,0,6.994.007L4.037.512a.5.5,0,0,0-.409.577L3.88,2.568l-2.464.42a.5.5,0,0,0,.083.993ZM4.7,1.414l1.971-.337.168.986L4.866,2.4ZM4,9.5v-3a.5.5,0,0,1,1,0v3a.5.5,0,0,1-1,0Zm3,0v-3a.5.5,0,0,1,1,0v3a.5.5,0,0,1-1,0Z" fill="#b3b3b3"/></svg>