<svg xmlns="http://www.w3.org/2000/svg" viewBox="0 0 16 16"><path d="M4,12.5v-5a.5.5,0,0,1,1,0v5a.5.5,0,0,1-1,0Zm2.5.5a.5.5,0,0,0,.5-.5v-5a.5.5,0,0,0-1,0v5A.5.5,0,0,0,6.5,13Zm3,0a.5.5,0,0,0,.5-.5v-5a.5.5,0,0,0-1,0v5A.5.5,0,0,0,9.5,13Zm2,0a.5.5,0,0,0,.5-.5v-5a.5.5,0,0,0-1,0v5A.5.5,0,0,0,11.5,13ZM15,5.5a.5.5,0,0,1-.5.5H14v7.5A2.5,2.5,0,0,1,11.5,16h-7A2.5,2.5,0,0,1,2,13.5V6H1.5a.5.5,0,0,1,0-1h13A.5.5,0,0,1,15,5.5ZM13,6H3v7.5A1.5,1.5,0,0,0,4.5,15h7A1.5,1.5,0,0,0,13,13.5ZM1.009,4.262a.5.5,0,0,1,.4-.586l3.437-.662L4.559,1.541a.5.5,0,0,1,.4-.586L9.864.009a.506.506,0,0,1,.586.4l.284,1.473,3.437-.662a.5.5,0,1,1,.189.982L1.6,4.658a.528.528,0,0,1-.1.009A.5.5,0,0,1,1.009,4.262ZM7.788,2.446l1.964-.379-.19-.981-3.926.757.188.981Z" fill="#b3b3b3"/></svg>