<svg xmlns="http://www.w3.org/2000/svg" viewBox="0 0 16 16"><path d="M7.5,12.5a2,2,0,0,1,2-2h1V9.375a2,2,0,0,1,4,0V10.5h.341l1.142-4.14a.474.474,0,0,0,.006-.075.565.565,0,0,0,.005-.071.485.485,0,0,0-.042-.185c0-.01,0-.021-.007-.031L12.987.271A.5.5,0,0,0,12.542,0H3.449a.5.5,0,0,0-.444.271L.047,6c-.007.014,0,.029-.01.043A.488.488,0,0,0,0,6.206a.4.4,0,0,0,0,.077.4.4,0,0,0,0,.06l1.957,8.272A.5.5,0,0,0,2.449,15H10.5v-.5h-1A2,2,0,0,1,7.5,12.5ZM1.312,5.728,3.441,1.605l.326,2.727a.5.5,0,0,0,.495.44c.021,0,.04,0,.061,0a.5.5,0,0,0,.437-.556L4.391,1.127A.463.463,0,0,0,4.349,1h7.284a.43.43,0,0,0-.029.078l-.457,3.128a.5.5,0,0,0,.423.567.6.6,0,0,0,.073,0,.5.5,0,0,0,.495-.427l.4-2.762,2.138,4.139ZM16,12.5a.5.5,0,0,1-.5.5H13v2.5a.5.5,0,0,1-1,0V13H9.5a.5.5,0,1,1,0-1H12V9.375a.5.5,0,0,1,1,0V12h2.5A.5.5,0,0,1,16,12.5Z" fill="#b3b3b3"/></svg>