<svg xmlns="http://www.w3.org/2000/svg" viewBox="0 0 16 16"><path d="M10.5,14.559h-1a2,2,0,0,1,0-4h1V9.485a2,2,0,0,1,1.3-1.866L12,6A6,6,0,0,0,0,6l1,8c0,1.1,2.239,2,5,2a7.594,7.594,0,0,0,4.5-1.143ZM6,1a5,5,0,0,1,4.845,3.824A12.453,12.453,0,0,0,6,4a12.453,12.453,0,0,0-4.845.824A5,5,0,0,1,6,1ZM1.091,6C1.56,5.63,3.236,5,6,5s4.44.63,4.909,1C10.44,6.37,8.764,7,6,7S1.56,6.37,1.091,6ZM16,12.561a.5.5,0,0,1-.5.5H13V15.5a.5.5,0,0,1-1,0V13.06H9.5a.5.5,0,1,1,0-1H12V9.5a.5.5,0,0,1,1,0v2.565h2.5A.5.5,0,0,1,16,12.561Z" fill="#b3b3b3"/></svg>