<svg xmlns="http://www.w3.org/2000/svg" viewBox="0 0 16 16"><path d="M1.9,11.59a1.008,1.008,0,0,1-1.3-.55.993.993,0,0,1,.54-1.3,1,1,0,1,1,.76,1.85ZM1.38,8.92a1.155,1.155,0,0,0,.33-.21A.99.99,0,0,0,2,8a1.029,1.029,0,0,0-.29-.71l-.15-.12a.757.757,0,0,0-.18-.09.636.636,0,0,0-.18-.06.949.949,0,0,0-.58.06,1.155,1.155,0,0,0-.33.21l-.12.149a.782.782,0,0,0-.09.181.636.636,0,0,0-.06.18A1.487,1.487,0,0,0,0,8a.99.99,0,0,0,1.38.92Zm4.31,4.62a1,1,0,0,0-1.32.529,1.015,1.015,0,0,0,.55,1.311.852.852,0,0,0,.38.08,1,1,0,0,0,.39-1.92ZM3.73,12.21a1.576,1.576,0,0,0-.15-.12A.757.757,0,0,0,3.4,12a.672.672,0,0,0-.18-.061A.956.956,0,0,0,2.64,12a1.155,1.155,0,0,0-.33.21,1.155,1.155,0,0,0-.21.33.99.99,0,0,0,.21,1.09,1.033,1.033,0,0,0,.71.29,1,1,0,0,0,.38-.08,1.155,1.155,0,0,0,.33-.21.99.99,0,0,0,.21-1.09A1.032,1.032,0,0,0,3.73,12.21ZM8,0A7.679,7.679,0,0,0,2.933,1.981V1a1,1,0,0,0-2,0V4.733a1,1,0,0,0,1,1H5.667a1,1,0,1,0,0-2H3.993A5.772,5.772,0,0,1,8,2,6,6,0,0,1,8,14a1,1,0,0,0,0,2A8,8,0,0,0,8,0ZM9.5,8A1.5,1.5,0,1,0,8,9.5,1.5,1.5,0,0,0,9.5,8Z" fill="#b3b3b3"/></svg>