<svg xmlns="http://www.w3.org/2000/svg" viewBox="0 0 24 24"><path d="M12.732,23.31a2.98,2.98,0,0,0,1.1.69H1.5A1.5,1.5,0,0,1,0,22.5V4.5A1.5,1.5,0,0,1,1.5,3h2V4h-2a.5.5,0,0,0-.5.5v18a.5.5,0,0,0,.5.5H12.477A3,3,0,0,0,12.732,23.31ZM16.5,3h-2V4h2a.5.5,0,0,1,.5.5v6.2a2.926,2.926,0,0,1,1-.2v-6A1.5,1.5,0,0,0,16.5,3ZM13,4.5v-2a.5.5,0,0,0-.5-.5H11A2,2,0,0,0,7,2H5.5a.5.5,0,0,0-.5.5v2a.5.5,0,0,0,.5.5h7A.5.5,0,0,0,13,4.5ZM6,3H7.592a.5.5,0,0,0,.471-.667,1,1,0,1,1,1.874,0A.5.5,0,0,0,10.408,3H12V4H6Zm-.77,7.531L7.686,8.074a.5.5,0,0,0-.707-.707L4.837,9.51,3.811,8.7a.5.5,0,1,0-.619.785L4.567,10.57a.5.5,0,0,0,.663-.039ZM8.85,9.85a.353.353,0,0,0,.11-.161A.4.4,0,0,0,9,9.5a.43.43,0,0,0-.04-.19.358.358,0,0,0-.11-.161.5.5,0,0,0-.54-.109.523.523,0,0,0-.27.27A.43.43,0,0,0,8,9.5a.4.4,0,0,0,.04.189.353.353,0,0,0,.11.161.483.483,0,0,0,.7,0ZM12.5,10h0a.5.5,0,0,0,.5-.5h0a.5.5,0,0,0-.5-.5h0a.5.5,0,0,0-.5.5A.5.5,0,0,0,12.5,10Zm-2,0h0a.5.5,0,0,0,.5-.5h0a.5.5,0,0,0-.5-.5h0a.5.5,0,0,0-.5.5A.5.5,0,0,0,10.5,10Zm4.35-.15a.353.353,0,0,0,.11-.161A.4.4,0,0,0,15,9.5a.43.43,0,0,0-.04-.19.358.358,0,0,0-.11-.161.5.5,0,0,0-.7,0A.473.473,0,0,0,14,9.5a.4.4,0,0,0,.04.189.353.353,0,0,0,.11.161.483.483,0,0,0,.7,0ZM5.23,14.531l2.456-2.457a.5.5,0,0,0-.707-.707L4.837,13.51,3.811,12.7a.5.5,0,1,0-.619.785L4.567,14.57a.5.5,0,0,0,.663-.039Zm3.62-.681a.353.353,0,0,0,.11-.161A.4.4,0,0,0,9,13.5a.43.43,0,0,0-.04-.19.358.358,0,0,0-.11-.161.5.5,0,0,0-.7,0,.358.358,0,0,0-.11.161A.43.43,0,0,0,8,13.5a.4.4,0,0,0,.04.189.353.353,0,0,0,.11.161.483.483,0,0,0,.7,0ZM10.5,14h0a.5.5,0,0,0,.5-.5h0a.5.5,0,0,0-.5-.5h0a.5.5,0,0,0-.5.5A.5.5,0,0,0,10.5,14Zm2,0h0a.5.5,0,0,0,.5-.5h0a.5.5,0,0,0-.5-.5h0a.5.5,0,0,0-.5.5A.5.5,0,0,0,12.5,14ZM8.85,17.85a.353.353,0,0,0,.11-.161A.4.4,0,0,0,9,17.5a.473.473,0,0,0-.15-.351.361.361,0,0,0-.16-.109.5.5,0,0,0-.38,0,.361.361,0,0,0-.16.109A.473.473,0,0,0,8,17.5a.4.4,0,0,0,.04.189.353.353,0,0,0,.11.161.483.483,0,0,0,.7,0ZM10.5,18h0a.5.5,0,0,0,.5-.5h0a.5.5,0,0,0-.5-.5h0a.5.5,0,0,0,0,1ZM7,19.5v-3a.5.5,0,0,0-.5-.5h-3a.5.5,0,0,0-.5.5v3a.5.5,0,0,0,.5.5h3A.5.5,0,0,0,7,19.5ZM4,17H6v2H4Zm16,1a2,2,0,1,0-2,2A2,2,0,0,0,20,18Zm-1,0a1,1,0,1,1-1-1A1,1,0,0,1,19,18Zm.54,4.417a.328.328,0,0,1,.2-.3.335.335,0,0,1,.384.092,1.493,1.493,0,0,0,1.061.439h0a1.5,1.5,0,0,0,1.035-2.587.323.323,0,0,1-.065-.359l0-.005a.343.343,0,0,1,.34-.2A1.5,1.5,0,0,0,24,18a1.522,1.522,0,0,0-1.583-1.5.324.324,0,0,1-.268-.143.437.437,0,0,0-.031-.1.336.336,0,0,1,.092-.385,1.5,1.5,0,0,0-1.063-2.561h0a1.516,1.516,0,0,0-1.086.465.326.326,0,0,1-.364.063.343.343,0,0,1-.2-.34A1.5,1.5,0,0,0,18,12a1.522,1.522,0,0,0-1.5,1.583.327.327,0,0,1-.142.268.423.423,0,0,0-.1.032.339.339,0,0,1-.384-.092,1.493,1.493,0,0,0-1.061-.439h0a1.5,1.5,0,0,0-1.035,2.587.341.341,0,0,1,.054.389.336.336,0,0,1-.331.212,1.5,1.5,0,0,0-1.5,1.5,1.522,1.522,0,0,0,1.583,1.5.323.323,0,0,1,.3.2.336.336,0,0,1-.092.385,1.5,1.5,0,0,0,1.063,2.561h0a1.516,1.516,0,0,0,1.086-.465.364.364,0,0,1,.6.277,1.5,1.5,0,0,0,1.5,1.5A1.522,1.522,0,0,0,19.54,22.417Zm-4.334-.875a.5.5,0,0,1-.352.146h0a.5.5,0,0,1-.5-.5.534.534,0,0,1,.18-.388,1.318,1.318,0,0,0,.268-1.456,1.358,1.358,0,0,0-1.3-.8.5.5,0,0,1-.5-.5.516.516,0,0,1,.557-.5,1.3,1.3,0,0,0,1.2-.838,1.336,1.336,0,0,0-.3-1.5.5.5,0,0,1,0-.708.513.513,0,0,1,.741.034,1.321,1.321,0,0,0,1.365.3A.591.591,0,0,0,16.7,14.8a1.358,1.358,0,0,0,.8-1.3A.5.5,0,0,1,18,13a.513.513,0,0,1,.5.547,1.332,1.332,0,0,0,2.294.911.5.5,0,0,1,.352-.146h0a.5.5,0,0,1,.5.5.534.534,0,0,1-.18.388,1.316,1.316,0,0,0-.3,1.365.471.471,0,0,0,.036.132,1.356,1.356,0,0,0,1.3.8.5.5,0,0,1,.5.5.513.513,0,0,1-.546.5,1.332,1.332,0,0,0-.912,2.294.5.5,0,0,1,0,.708.514.514,0,0,1-.741-.034,1.316,1.316,0,0,0-1.456-.268,1.358,1.358,0,0,0-.8,1.3.5.5,0,0,1-.5.5.516.516,0,0,1-.5-.557,1.388,1.388,0,0,0-1.367-1.313A1.38,1.38,0,0,0,15.206,21.542ZM21.7,19.5h0Z" fill="#b3b3b3"/></svg>