<svg xmlns="http://www.w3.org/2000/svg" viewBox="0 0 16 16"><path d="M14.5,14H1.5A1.5,1.5,0,0,1,0,12.5v-7A1.5,1.5,0,0,1,1.492,4a.77.77,0,0,1,.728-.734H4A.78.78,0,0,1,4.726,4h.8l.2-1.074A1.149,1.149,0,0,1,6.858,2H11.75a1.149,1.149,0,0,1,1.133.926L13.085,4H14.5A1.5,1.5,0,0,1,16,5.5v7A1.5,1.5,0,0,1,14.5,14Zm-5-8A3.5,3.5,0,1,0,13,9.5,3.5,3.5,0,0,0,9.5,6ZM8.174,9.145A1.109,1.109,0,0,1,9.305,8.062a.5.5,0,1,0,0-1A2.11,2.11,0,0,0,7.174,9.145a.5.5,0,1,0,1,0ZM3,6A1,1,0,1,0,4,7,1,1,0,0,0,3,6Z" fill="#b3b3b3"/></svg>