<svg xmlns="http://www.w3.org/2000/svg" width="12.002" height="16.001" viewBox="0 0 12.002 16.001">
  <g id="_107-expand-16" data-name="107-expand-16" transform="translate(0.001 0)">
    <path id="_107-expand-16-2" data-name="107-expand-16" d="M8,16a1,1,0,0,1-.625-.219l-5-4a1,1,0,1,1,1.25-1.563L8,13.72l4.375-3.5a1,1,0,0,1,1.25,1.563l-5,4A1,1,0,0,1,8,16ZM13.781,5.625a1,1,0,0,0-.156-1.406l-5-4a1,1,0,0,0-1.25,0l-5,4a1,1,0,1,0,1.25,1.562L8,2.28l4.375,3.5a1,1,0,0,0,1.406-.156Z" transform="translate(-2)" fill="#8c8c8c"/>
  </g>
</svg>
