<svg xmlns="http://www.w3.org/2000/svg" width="12.003" height="16.001" viewBox="0 0 12.003 16.001">
  <g id="_108-contract-16" data-name="108-contract-16" transform="translate(0.001 0)">
    <path id="_108-contract-16-2" data-name="108-contract-16" d="M13,16a.994.994,0,0,1-.624-.219L8,12.28l-4.375,3.5a1,1,0,1,1-1.25-1.562l5-4a1,1,0,0,1,1.25,0l5,4A1,1,0,0,1,13,16ZM8.625,5.781l5-4A1,1,0,1,0,12.375.219L8,3.72,3.625.219a1,1,0,1,0-1.25,1.563l5,4a1,1,0,0,0,1.25,0Z" transform="translate(-2)" fill="#8c8c8c"/>
  </g>
</svg>
