<svg xmlns="http://www.w3.org/2000/svg" viewBox="0 0 24 24"><path d="M21.5,14a.469.469,0,0,1-.35-.15.353.353,0,0,1-.11-.161A.4.4,0,0,1,21,13.5a.473.473,0,0,1,.15-.351.5.5,0,0,1,.7,0A.473.473,0,0,1,22,13.5a.454.454,0,0,1-.15.35.372.372,0,0,1-.16.11A.406.406,0,0,1,21.5,14ZM2.69,13.96a.372.372,0,0,0,.16-.11A.454.454,0,0,0,3,13.5a.473.473,0,0,0-.15-.351.5.5,0,0,0-.7,0A.473.473,0,0,0,2,13.5a.4.4,0,0,0,.04.189.353.353,0,0,0,.11.161A.469.469,0,0,0,2.5,14,.406.406,0,0,0,2.69,13.96ZM2.632,9.874a3.918,3.918,0,0,0,1.869.451c1.774,0,2.662-.995,2.662-2.19,0-1.032-.588-1.676-1.813-2.188-.962-.4-1.381-.687-1.381-1.3,0-.46.364-.962,1.243-.962a2.852,2.852,0,0,1,1.372.337l.291-.98a3.514,3.514,0,0,0-1.633-.35A2.2,2.2,0,0,0,2.757,4.774c0,1.025.755,1.686,1.9,2.127.905.363,1.288.719,1.288,1.325,0,.654-.5,1.1-1.378,1.1A3.43,3.43,0,0,1,2.9,8.874Zm11.473.343h1.162L14.831,2.8H13.312L12.244,5.971c-.29.9-.533,1.762-.721,2.559h-.03c-.178-.813-.411-1.658-.683-2.556L9.791,2.8H8.262l-.5,7.415H8.88l.169-3.029c.059-1.027.106-2.2.132-3.138h.026c.189.9.452,1.882.748,2.84l1.015,3.253h.9l1.109-3.312c.315-.934.608-1.9.842-2.781h.031c-.008.957.046,2.119.1,3.085Zm2.135-.024a12.049,12.049,0,0,0,1.545.09,3.788,3.788,0,0,0,2.608-.69,1.967,1.967,0,0,0,.662-1.505,1.872,1.872,0,0,0-1.487-1.846V6.213A1.722,1.722,0,0,0,20.79,4.6,1.589,1.589,0,0,0,20.1,3.244a3.249,3.249,0,0,0-2.038-.5A9.784,9.784,0,0,0,16.24,2.9Zm1.193-6.485a3.367,3.367,0,0,1,.745-.061c.876,0,1.4.353,1.4,1.086,0,.665-.542,1.142-1.452,1.142h-.7Zm0,3.049h.66c.93,0,1.7.389,1.7,1.3,0,.956-.781,1.311-1.669,1.311a4.017,4.017,0,0,1-.693-.04ZM19.5,0H4.5A4.505,4.505,0,0,0,0,4.5V15.917a2.973,2.973,0,0,1,1-.366V4.5A3.5,3.5,0,0,1,4.5,1h15A3.5,3.5,0,0,1,23,4.5v13A3.5,3.5,0,0,1,19.5,21H11.337L10.6,22h8.9a4.471,4.471,0,0,0,3.341-1.514A3.493,3.493,0,0,1,19.5,23H9.86l-.739,1H19.5A4.505,4.505,0,0,0,24,19.5V4.5A4.505,4.505,0,0,0,19.5,0ZM7.707,23.391l3-4.063a1.508,1.508,0,0,0-.014-1.8l-3-3.938a1.5,1.5,0,0,0-2.386,1.819L6.519,17H1.5a1.5,1.5,0,0,0,0,3H6.482L5.293,21.609a1.5,1.5,0,0,0,2.414,1.782ZM7.528,18a.5.5,0,0,0,.4-.8L6.1,14.8a.5.5,0,0,1,.8-.608l3,3.938h0a.5.5,0,0,1,0,.6L6.9,22.8a.51.51,0,0,1-.7.105.5.5,0,0,1-.105-.7L7.875,19.8a.5.5,0,0,0-.4-.8H1.5a.5.5,0,0,1,0-1ZM18.2,20h0a.5.5,0,0,0,.5-.5h0a.5.5,0,0,0-.5-.5h0a.5.5,0,0,0-.5.5A.508.508,0,0,0,18.2,20Zm-2.06,0h0a.508.508,0,0,0,.5-.5h0a.5.5,0,0,0-.5-.5h0a.5.5,0,0,0-.5.5A.5.5,0,0,0,16.14,20Zm-2.07,0h0a.5.5,0,0,0,.5-.5h0a.5.5,0,0,0-.5-.5h0a.5.5,0,0,0-.5.5A.508.508,0,0,0,14.07,20Zm-2.06,0h0a.508.508,0,0,0,.5-.5h0a.5.5,0,0,0-.5-.5h0a.5.5,0,0,0-.5.5A.5.5,0,0,0,12.01,20Zm8.21-.29h0a.466.466,0,0,0,.23-.061h0v.011h0a.5.5,0,0,0,.21-.681h0a.5.5,0,0,0-.68-.209h0a.5.5,0,0,0-.2.68A.489.489,0,0,0,20.22,19.71Zm1.22-1.59h0a.5.5,0,0,0,.49-.38h0a.5.5,0,0,0-.38-.6h0a.489.489,0,0,0-.6.37h0a.5.5,0,0,0,.37.6A.444.444,0,0,0,21.44,18.12ZM2.5,16.08h0a.5.5,0,0,0,.5-.5H3a.5.5,0,0,0-.5-.5h0a.5.5,0,1,0,0,1Zm19-.02h0a.5.5,0,0,0,.5-.5h0a.5.5,0,0,0-.5-.5h0a.5.5,0,0,0-.5.5A.5.5,0,0,0,21.5,16.06Z" fill="#b3b3b3"/></svg>