<svg xmlns="http://www.w3.org/2000/svg" viewBox="0 0 24 24"><path d="M9.44,19.5a.5.5,0,0,1,.5-.5h0a.5.5,0,0,1,.5.5h0a.5.5,0,0,1-.5.5h0A.508.508,0,0,1,9.44,19.5Zm-2.06,0a.5.5,0,0,1,.5-.5h0a.5.5,0,0,1,.5.5h0a.508.508,0,0,1-.5.5h0A.5.5,0,0,1,7.38,19.5Zm-2.07,0a.5.5,0,0,1,.5-.5h0a.5.5,0,0,1,.5.5h0a.5.5,0,0,1-.5.5h0A.508.508,0,0,1,5.31,19.5Zm-1.75.16a.5.5,0,0,1-.21-.67h0a.5.5,0,0,1,.68-.21h0a.516.516,0,0,1,.21.68h0a.525.525,0,0,1-.45.26h0A.525.525,0,0,1,3.56,19.66ZM2.08,17.75v.01h0a.506.506,0,0,1,.37-.611h0a.5.5,0,0,1,.6.371h0a.489.489,0,0,1-.37.6h0a.5.5,0,0,1-.12.02h0A.5.5,0,0,1,2.08,17.75ZM2,15.58a.5.5,0,0,1,.5-.5h0a.5.5,0,0,1,.5.5H3a.5.5,0,0,1-.5.5h0A.5.5,0,0,1,2,15.58Zm.69-1.62a.372.372,0,0,0,.16-.11.353.353,0,0,0,.11-.161A.4.4,0,0,0,3,13.5a.473.473,0,0,0-.15-.351.361.361,0,0,0-.16-.109.5.5,0,0,0-.54.109A.473.473,0,0,0,2,13.5a.454.454,0,0,0,.15.35.372.372,0,0,0,.16.11A.406.406,0,0,0,2.5,14,.406.406,0,0,0,2.69,13.96Zm10.042,9.351a2.964,2.964,0,0,1-.24-.311H4.5a3.493,3.493,0,0,1-3.341-2.514A4.471,4.471,0,0,0,4.5,22h7.468a2.984,2.984,0,0,1-.087-1H4.5A3.5,3.5,0,0,1,1,17.5V4.5A3.5,3.5,0,0,1,4.5,1h15A3.5,3.5,0,0,1,23,4.5v7.969a3.1,3.1,0,0,1,.268.22A2.973,2.973,0,0,1,24,13.915V4.5A4.505,4.505,0,0,0,19.5,0H4.5A4.505,4.505,0,0,0,0,4.5v15A4.505,4.505,0,0,0,4.5,24h9.331A2.977,2.977,0,0,1,12.732,23.311ZM18,20a2,2,0,1,1,2-2A2,2,0,0,1,18,20Zm0-3a1,1,0,1,0,1,1A1,1,0,0,0,18,17Zm.04,7a1.5,1.5,0,0,1-1.5-1.5.364.364,0,0,0-.6-.277,1.516,1.516,0,0,1-1.086.465h0a1.5,1.5,0,0,1-1.063-2.561.336.336,0,0,0,.092-.385.323.323,0,0,0-.3-.2A1.522,1.522,0,0,1,12,18.04a1.5,1.5,0,0,1,1.5-1.5.336.336,0,0,0,.331-.212.341.341,0,0,0-.054-.389,1.51,1.51,0,0,1-.465-1.085,1.5,1.5,0,0,1,1.5-1.5h0a1.493,1.493,0,0,1,1.061.439.337.337,0,0,0,.384.092.423.423,0,0,1,.1-.032.327.327,0,0,0,.142-.268A1.522,1.522,0,0,1,18,12a1.5,1.5,0,0,1,1.5,1.5.343.343,0,0,0,.2.34.323.323,0,0,0,.364-.063,1.516,1.516,0,0,1,1.086-.465h0a1.5,1.5,0,0,1,1.063,2.561.336.336,0,0,0-.092.385.437.437,0,0,1,.031.1.324.324,0,0,0,.268.143A1.522,1.522,0,0,1,24,18a1.5,1.5,0,0,1-1.5,1.5.343.343,0,0,0-.34.2l0,.005a.323.323,0,0,0,.065.359,1.51,1.51,0,0,1,.465,1.085,1.5,1.5,0,0,1-1.5,1.5h0a1.493,1.493,0,0,1-1.061-.439.335.335,0,0,0-.384-.092.328.328,0,0,0-.2.3A1.522,1.522,0,0,1,18.04,24Zm-1.867-2.87a1.388,1.388,0,0,1,1.367,1.313.516.516,0,0,0,.5.557.5.5,0,0,0,.5-.5,1.358,1.358,0,0,1,.8-1.3,1.317,1.317,0,0,1,1.456.268.514.514,0,0,0,.741.034.5.5,0,0,0,0-.708,1.332,1.332,0,0,1,.912-2.294A.513.513,0,0,0,23,18a.5.5,0,0,0-.5-.5,1.356,1.356,0,0,1-1.3-.8.471.471,0,0,1-.036-.132,1.316,1.316,0,0,1,.3-1.365.534.534,0,0,0,.18-.388.5.5,0,0,0-.5-.5h0a.5.5,0,0,0-.352.146,1.336,1.336,0,0,1-1.5.3,1.321,1.321,0,0,1-.8-1.21A.513.513,0,0,0,18,13a.5.5,0,0,0-.5.5,1.358,1.358,0,0,1-.8,1.3.591.591,0,0,1-.131.036,1.318,1.318,0,0,1-1.365-.3.513.513,0,0,0-.741-.034.5.5,0,0,0,0,.708,1.336,1.336,0,0,1,.3,1.5,1.3,1.3,0,0,1-1.2.838.516.516,0,0,0-.557.5.5.5,0,0,0,.5.5,1.358,1.358,0,0,1,1.3.8,1.318,1.318,0,0,1-.268,1.456.534.534,0,0,0-.18.388.5.5,0,0,0,.5.5h0a.5.5,0,0,0,.352-.146A1.38,1.38,0,0,1,16.173,21.13ZM21.7,19.5h0ZM4.147,10.217V2.8H5.473L7.422,6.155A22.179,22.179,0,0,1,8.646,8.612L8.671,8.6c-.088-.991-.116-1.951-.116-3.115V2.8H9.663v7.415H8.442l-1.958-3.4A24.291,24.291,0,0,1,5.214,4.3L5.182,4.3c.055.947.074,1.908.074,3.177v2.736ZM10.834,2.8h4.008v1H12.036V6.008h2.607v.986H12.036v3.223h-1.2ZM15.61,8.874a3.434,3.434,0,0,0,1.669.448c.878,0,1.378-.442,1.378-1.1,0-.606-.384-.962-1.288-1.325-1.148-.441-1.9-1.1-1.9-2.127A2.2,2.2,0,0,1,17.95,2.693a3.515,3.515,0,0,1,1.634.35l-.292.98a2.848,2.848,0,0,0-1.372-.337c-.878,0-1.243.5-1.243.962,0,.612.42.9,1.382,1.3,1.225.512,1.812,1.156,1.812,2.188,0,1.2-.887,2.19-2.661,2.19a3.926,3.926,0,0,1-1.87-.451Z" fill="#b3b3b3"/></svg>