<svg xmlns="http://www.w3.org/2000/svg" viewBox="0 0 24 24"><path d="M21.5,14a.473.473,0,0,1-.351-.15.359.359,0,0,1-.109-.161A.4.4,0,0,1,21,13.5a.476.476,0,0,1,.149-.351.364.364,0,0,1,.161-.109.5.5,0,0,1,.54.109A.473.473,0,0,1,22,13.5a.454.454,0,0,1-.15.35.369.369,0,0,1-.161.11A.4.4,0,0,1,21.5,14ZM2.689,13.96a.369.369,0,0,0,.161-.11A.454.454,0,0,0,3,13.5a.473.473,0,0,0-.15-.351.5.5,0,0,0-.54-.109.364.364,0,0,0-.161.109A.5.5,0,0,0,2.5,14,.4.4,0,0,0,2.689,13.96Zm2.567-3.743V7.481c0-1.269-.019-2.23-.074-3.177L5.215,4.3A24.281,24.281,0,0,0,6.484,6.812l1.958,3.405H9.663V2.8H8.555V5.489c0,1.164.028,2.124.116,3.115l-.025.008A22.005,22.005,0,0,0,7.422,6.155L5.473,2.8H4.147v7.415Zm5.578,0h1.2V6.994h2.607V6.008H12.036V3.8h2.806v-1H10.834Zm4.506-.343a3.923,3.923,0,0,0,1.87.451c1.774,0,2.661-.995,2.661-2.19,0-1.032-.588-1.676-1.812-2.188-.962-.4-1.381-.687-1.381-1.3,0-.46.364-.962,1.242-.962a2.856,2.856,0,0,1,1.373.337l.291-.98a3.522,3.522,0,0,0-1.634-.35,2.2,2.2,0,0,0-2.484,2.081c0,1.025.755,1.686,1.9,2.127.9.363,1.287.719,1.287,1.325,0,.654-.5,1.1-1.377,1.1a3.437,3.437,0,0,1-1.669-.448ZM19.5,0H4.5A4.505,4.505,0,0,0,0,4.5V15.917a2.973,2.973,0,0,1,1-.366V4.5A3.5,3.5,0,0,1,4.5,1h15A3.5,3.5,0,0,1,23,4.5v13A3.5,3.5,0,0,1,19.5,21H11.337L10.6,22h8.9a4.471,4.471,0,0,0,3.341-1.514A3.493,3.493,0,0,1,19.5,23H9.86l-.739,1H19.5A4.505,4.505,0,0,0,24,19.5V4.5A4.505,4.505,0,0,0,19.5,0ZM7.707,23.391l3-4.063a1.5,1.5,0,0,0-.015-1.8l-3-3.938a1.5,1.5,0,0,0-2.1-.283,1.5,1.5,0,0,0-.284,2.1L6.519,17H1.5a1.5,1.5,0,0,0,0,3H6.481L5.293,21.609A1.5,1.5,0,0,0,6.5,24,1.508,1.508,0,0,0,7.707,23.391ZM7.528,18a.5.5,0,0,0,.4-.8L6.1,14.8a.485.485,0,0,1-.1-.369A.5.5,0,0,1,6.9,14.2l3,3.938h0a.5.5,0,0,1,0,.6L6.9,22.8a.438.438,0,0,1-.7.105.5.5,0,0,1-.105-.7L7.875,19.8a.5.5,0,0,0-.4-.8H1.5a.5.5,0,0,1,0-1ZM18.2,20h0a.5.5,0,0,0,.5-.5h0a.5.5,0,0,0-.5-.5h0a.5.5,0,0,0-.5.5A.508.508,0,0,0,18.2,20Zm-2.06,0h0a.508.508,0,0,0,.5-.5h0a.5.5,0,0,0-.5-.5h0a.5.5,0,0,0-.5.5A.5.5,0,0,0,16.14,20Zm-2.071,0h0a.5.5,0,0,0,.5-.5h0a.5.5,0,0,0-.5-.5h0a.5.5,0,0,0-.5.5A.509.509,0,0,0,14.069,20ZM12.01,20h0a.508.508,0,0,0,.5-.5h0a.5.5,0,0,0-.5-.5h0a.5.5,0,0,0-.5.5A.5.5,0,0,0,12.01,20Zm8.21-.29h0a.711.711,0,0,0,.24-.05h0a.51.51,0,0,0,.2-.681h0a.5.5,0,0,0-.681-.209h0a.506.506,0,0,0-.2.68A.489.489,0,0,0,20.22,19.71Zm1.219-1.59h0a.483.483,0,0,0,.481-.38h0a.49.49,0,0,0-.37-.6h0a.489.489,0,0,0-.6.37h0a.494.494,0,0,0,.38.6A.333.333,0,0,0,21.439,18.12ZM2.5,16.08h0a.5.5,0,0,0,.5-.5H3a.5.5,0,0,0-.5-.5h0a.5.5,0,1,0,0,1Zm19-.02h0a.5.5,0,0,0,.5-.5h0a.5.5,0,0,0-.5-.5h0a.5.5,0,0,0-.5.5A.5.5,0,0,0,21.5,16.06Z" fill="#b3b3b3"/></svg>