<svg xmlns="http://www.w3.org/2000/svg" viewBox="0 0 24 24"><path d="M9.439,19.5a.5.5,0,0,1,.5-.5h0a.5.5,0,0,1,.5.5h0a.5.5,0,0,1-.5.5h0A.509.509,0,0,1,9.439,19.5Zm-2.059,0a.5.5,0,0,1,.5-.5h0a.5.5,0,0,1,.5.5h0a.509.509,0,0,1-.5.5h0A.5.5,0,0,1,7.38,19.5Zm-2.07,0a.5.5,0,0,1,.5-.5h0a.5.5,0,0,1,.5.5h0a.5.5,0,0,1-.5.5h0A.508.508,0,0,1,5.31,19.5Zm-1.75.16a.5.5,0,0,1-.21-.67h0a.5.5,0,0,1,.68-.21h0a.517.517,0,0,1,.21.68h0a.526.526,0,0,1-.45.26h0A.465.465,0,0,1,3.56,19.66Zm-1.48-1.9a.506.506,0,0,1,.37-.611h0a.5.5,0,0,1,.6.371h0a.489.489,0,0,1-.37.6h0a.513.513,0,0,1-.111.02h0A.505.505,0,0,1,2.08,17.76ZM2,15.58a.5.5,0,0,1,.5-.5h0a.5.5,0,0,1,.5.5H3a.5.5,0,0,1-.5.5h0A.5.5,0,0,1,2,15.58Zm.689-1.62a.437.437,0,0,0,.161-.11.369.369,0,0,0,.11-.161A.4.4,0,0,0,3,13.5a.473.473,0,0,0-.15-.351.5.5,0,0,0-.7,0A.476.476,0,0,0,2,13.5a.456.456,0,0,0,.149.35.375.375,0,0,0,.161.11A.406.406,0,0,0,2.5,14,.4.4,0,0,0,2.689,13.96Zm10.042,9.35a3,3,0,0,1-.255-.31H4.5a3.493,3.493,0,0,1-3.341-2.514A4.471,4.471,0,0,0,4.5,22h7.477a2.972,2.972,0,0,1-.125-.811c0-.064.015-.125.019-.189H4.5A3.5,3.5,0,0,1,1,17.5V4.5A3.5,3.5,0,0,1,4.5,1h15A3.5,3.5,0,0,1,23,4.5v7.97a3.112,3.112,0,0,1,.269.22A2.979,2.979,0,0,1,24,13.923V4.5A4.505,4.505,0,0,0,19.5,0H4.5A4.505,4.505,0,0,0,0,4.5v15A4.505,4.505,0,0,0,4.5,24h9.331A3,3,0,0,1,12.731,23.31ZM18,20a2,2,0,1,1,2-2A2,2,0,0,1,18,20Zm0-3a1,1,0,1,0,1,1A1,1,0,0,0,18,17Zm.04,7a1.5,1.5,0,0,1-1.5-1.5.365.365,0,0,0-.6-.277,1.51,1.51,0,0,1-1.085.465h0a1.5,1.5,0,0,1-1.062-2.561.339.339,0,0,0,.092-.385.326.326,0,0,0-.3-.2A1.522,1.522,0,0,1,12,18.04a1.5,1.5,0,0,1,1.5-1.5.365.365,0,0,0,.277-.6,1.51,1.51,0,0,1-.465-1.085,1.5,1.5,0,0,1,1.5-1.5h0a1.491,1.491,0,0,1,1.061.439.337.337,0,0,0,.385.092.389.389,0,0,1,.1-.032.327.327,0,0,0,.142-.268A1.522,1.522,0,0,1,18,12a1.5,1.5,0,0,1,1.5,1.5.342.342,0,0,0,.2.34.322.322,0,0,0,.365-.063,1.51,1.51,0,0,1,1.085-.465h0a1.5,1.5,0,0,1,1.062,2.561.339.339,0,0,0-.092.385.389.389,0,0,1,.032.1.327.327,0,0,0,.268.142A1.522,1.522,0,0,1,24,18a1.5,1.5,0,0,1-1.5,1.5.342.342,0,0,0-.34.2l0,.006a.326.326,0,0,0,.066.359,1.51,1.51,0,0,1,.465,1.085,1.5,1.5,0,0,1-1.5,1.5h0a1.491,1.491,0,0,1-1.061-.439.341.341,0,0,0-.385-.092.326.326,0,0,0-.2.3A1.522,1.522,0,0,1,18.04,24Zm-1.867-2.87a1.291,1.291,0,0,1,.529.113,1.3,1.3,0,0,1,.838,1.2.517.517,0,0,0,.5.557.5.5,0,0,0,.5-.5,1.356,1.356,0,0,1,.8-1.3,1.319,1.319,0,0,1,1.456.268.531.531,0,0,0,.388.18h0a.5.5,0,0,0,.353-.146.5.5,0,0,0,.147-.356.494.494,0,0,0-.146-.351,1.332,1.332,0,0,1,.911-2.3A.514.514,0,0,0,23,18a.5.5,0,0,0-.5-.5,1.358,1.358,0,0,1-1.3-.8.591.591,0,0,1-.036-.131,1.314,1.314,0,0,1,.3-1.365.532.532,0,0,0,.18-.388.5.5,0,0,0-.5-.5h0a.494.494,0,0,0-.351.146,1.334,1.334,0,0,1-1.5.3,1.321,1.321,0,0,1-.8-1.21A.514.514,0,0,0,18,13a.5.5,0,0,0-.5.5,1.358,1.358,0,0,1-.8,1.3.591.591,0,0,1-.131.036,1.315,1.315,0,0,1-1.365-.3.531.531,0,0,0-.388-.18h0a.5.5,0,0,0-.353.146.5.5,0,0,0-.147.356.494.494,0,0,0,.146.351,1.335,1.335,0,0,1,.3,1.5,1.3,1.3,0,0,1-1.2.838.517.517,0,0,0-.557.5.5.5,0,0,0,.5.5,1.356,1.356,0,0,1,1.3.8,1.315,1.315,0,0,1-.268,1.456.532.532,0,0,0-.18.388.5.5,0,0,0,.5.5h0a.494.494,0,0,0,.351-.146A1.382,1.382,0,0,1,16.173,21.13ZM21.7,19.5h0ZM8.1,8.874a3.431,3.431,0,0,0,1.669.448c.877,0,1.376-.442,1.376-1.1,0-.606-.382-.962-1.287-1.325-1.148-.441-1.9-1.1-1.9-2.127A2.2,2.2,0,0,1,10.44,2.693a3.519,3.519,0,0,1,1.634.35l-.291.98a2.853,2.853,0,0,0-1.373-.337c-.878,0-1.242.5-1.242.962,0,.612.419.9,1.381,1.3,1.224.512,1.812,1.156,1.812,2.188,0,1.2-.886,2.19-2.661,2.19a3.926,3.926,0,0,1-1.87-.451Zm4.913.074a3.3,3.3,0,0,0,1.531.418C15.588,9.366,16,8.738,16,8.133c-.008-.895-.8-1.293-1.656-1.295h-.533V5.953h.518c.63,0,1.441-.312,1.441-1.076,0-.539-.358-.962-1.139-.962a2.613,2.613,0,0,0-1.367.435l-.276-.873a3.543,3.543,0,0,1,1.9-.528c1.4,0,2.1.813,2.1,1.728a1.759,1.759,0,0,1-1.276,1.671v.021a1.811,1.811,0,0,1,1.525,1.809c0,1.178-.947,2.155-2.642,2.155a3.6,3.6,0,0,1-1.856-.468Z" fill="#b3b3b3"/></svg>