<svg xmlns="http://www.w3.org/2000/svg" viewBox="0 0 24 24"><path d="M21.5,14a.469.469,0,0,1-.35-.15.353.353,0,0,1-.11-.161A.4.4,0,0,1,21,13.5a.406.406,0,0,1,.04-.19.523.523,0,0,1,.27-.27.5.5,0,0,1,.54.109.358.358,0,0,1,.11.161.406.406,0,0,1,.04.19.4.4,0,0,1-.04.189.353.353,0,0,1-.11.161A.469.469,0,0,1,21.5,14Zm-3.3,6h0a.5.5,0,0,0,.5-.5h0a.5.5,0,0,0-.5-.5h0a.5.5,0,0,0-.5.5A.508.508,0,0,0,18.2,20Zm-2.06,0h0a.508.508,0,0,0,.5-.5h0a.5.5,0,0,0-.5-.5h0a.5.5,0,0,0-.5.5A.5.5,0,0,0,16.14,20Zm-2.07,0h0a.5.5,0,0,0,.5-.5h0a.5.5,0,0,0-.5-.5h0a.5.5,0,0,0-.5.5A.508.508,0,0,0,14.07,20Zm-2.06,0h0a.508.508,0,0,0,.5-.5h0a.5.5,0,0,0-.5-.5h0a.5.5,0,0,0-.5.5A.5.5,0,0,0,12.01,20Zm8.21-.29h0a.466.466,0,0,0,.23-.061h0a.489.489,0,0,0,.21-.67h0a.5.5,0,0,0-.68-.209h0a.5.5,0,0,0-.2.68A.489.489,0,0,0,20.22,19.71Zm1.22-1.59h0a.5.5,0,0,0,.49-.38h-.01a.489.489,0,0,0-.37-.6h0a.5.5,0,0,0-.6.37h0a.5.5,0,0,0,.37.6A.444.444,0,0,0,21.44,18.12ZM2.5,16.08h0a.508.508,0,0,0,.5-.5H3a.5.5,0,0,0-.5-.5h0a.5.5,0,0,0-.5.5A.5.5,0,0,0,2.5,16.08Zm19-.02h0a.5.5,0,0,0,.5-.5h0a.5.5,0,0,0-.5-.5h0a.5.5,0,0,0-.5.5A.5.5,0,0,0,21.5,16.06ZM2.69,13.96a.372.372,0,0,0,.16-.11.353.353,0,0,0,.11-.161A.4.4,0,0,0,3,13.5a.406.406,0,0,0-.04-.19.358.358,0,0,0-.11-.161.5.5,0,0,0-.54-.109.361.361,0,0,0-.16.109.358.358,0,0,0-.11.161A.406.406,0,0,0,2,13.5a.4.4,0,0,0,.04.189.353.353,0,0,0,.11.161A.469.469,0,0,0,2.5,14,.406.406,0,0,0,2.69,13.96ZM7.831,9.874a3.918,3.918,0,0,0,1.869.451c1.774,0,2.661-.995,2.661-2.19,0-1.032-.587-1.676-1.812-2.188-.962-.4-1.382-.687-1.382-1.3,0-.46.365-.962,1.244-.962a2.852,2.852,0,0,1,1.372.337l.291-.98a3.515,3.515,0,0,0-1.634-.35A2.2,2.2,0,0,0,7.956,4.774c0,1.025.755,1.686,1.9,2.127.9.363,1.288.719,1.288,1.325,0,.654-.5,1.1-1.378,1.1A3.427,3.427,0,0,1,8.1,8.874Zm4.91-.009a3.6,3.6,0,0,0,1.855.468c1.7,0,2.643-.977,2.643-2.155a1.812,1.812,0,0,0-1.526-1.809V6.348a1.759,1.759,0,0,0,1.276-1.671c0-.915-.7-1.728-2.1-1.728a3.543,3.543,0,0,0-1.9.528l.275.873a2.619,2.619,0,0,1,1.368-.435c.781,0,1.139.423,1.139.962,0,.764-.811,1.074-1.441,1.076h-.518v.885h.533c.852,0,1.648.4,1.656,1.295,0,.605-.412,1.233-1.456,1.233a3.3,3.3,0,0,1-1.53-.418ZM19.5,0H4.5A4.505,4.505,0,0,0,0,4.5V15.917a2.973,2.973,0,0,1,1-.366V4.5A3.5,3.5,0,0,1,4.5,1h15A3.5,3.5,0,0,1,23,4.5v13A3.5,3.5,0,0,1,19.5,21H11.337L10.6,22h8.9a4.471,4.471,0,0,0,3.341-1.514A3.493,3.493,0,0,1,19.5,23H9.86l-.739,1H19.5A4.505,4.505,0,0,0,24,19.5V4.5A4.505,4.505,0,0,0,19.5,0ZM7.707,23.391l3-4.063a1.508,1.508,0,0,0-.014-1.8l-3-3.938a1.5,1.5,0,0,0-2.386,1.819L6.519,17H1.5a1.5,1.5,0,0,0,0,3H6.482L5.293,21.609a1.5,1.5,0,0,0,2.414,1.782ZM7.528,18a.5.5,0,0,0,.4-.8L6.1,14.8a.5.5,0,0,1,.8-.608l3,3.938h0a.5.5,0,0,1,0,.6L6.9,22.8a.51.51,0,0,1-.7.105.5.5,0,0,1-.105-.7L7.875,19.8a.5.5,0,0,0-.4-.8H1.5a.5.5,0,0,1,0-1Z" fill="#b3b3b3"/></svg>