<svg xmlns="http://www.w3.org/2000/svg" viewBox="0 0 16 16"><path d="M2,7.689a6.673,6.673,0,0,0,1,.656V11.9a7.67,7.67,0,0,1-1-.6ZM1,6.6A2.962,2.962,0,0,1,.5,5C.5,2.519,3.864.5,8,.5S15.5,2.519,15.5,5c0,1.674-1.535,3.135-3.8,3.91a1.969,1.969,0,0,1,.215.176L13,10.172l1.086-1.086a1.991,1.991,0,0,1,1.862-.53A3.222,3.222,0,0,0,16,8V5c0-2.761-3.582-5-8-5S0,2.239,0,5V8a3.637,3.637,0,0,0,1,2.419Zm8.086,5.312a1.994,1.994,0,0,1-.3-2.439c-.26.016-.523.025-.79.025a11.331,11.331,0,0,1-4-.7v3.526A11.821,11.821,0,0,0,8,13a12.553,12.553,0,0,0,2.007-.165ZM13.707,13l2.147-2.146a.5.5,0,0,0-.708-.708L13,12.293l-2.146-2.147a.5.5,0,0,0-.708.708L12.293,13l-2.147,2.146a.5.5,0,0,0,.708.708L13,13.707l2.146,2.147a.5.5,0,0,0,.708-.708Z" fill="#b3b3b3"/></svg>