<svg xmlns="http://www.w3.org/2000/svg" viewBox="0 0 16 16"><path d="M16,.5v4a.5.5,0,0,1-1,0V1.707L9.854,6.854a.5.5,0,0,1-.708-.708L14.293,1H11.5a.5.5,0,0,1,0-1h4a.5.5,0,0,1,.5.5ZM6.854,9.146a.5.5,0,0,0-.708,0L1,14.293V11.5a.5.5,0,0,0-1,0v4a.5.5,0,0,0,.5.5h4a.5.5,0,0,0,0-1H1.707L6.854,9.854A.5.5,0,0,0,6.854,9.146ZM2.5,9A.5.5,0,0,0,3,8.5V3H8.5a.5.5,0,0,0,0-1h-6a.5.5,0,0,0-.5.5v6A.5.5,0,0,0,2.5,9Zm11-2a.5.5,0,0,0-.5.5V13H7.5a.5.5,0,0,0,0,1h6a.5.5,0,0,0,.5-.5v-6A.5.5,0,0,0,13.5,7Z" fill="#b3b3b3"/></svg>