<svg xmlns="http://www.w3.org/2000/svg" viewBox="0 0 16 16"><path d="M15.5,10H11V5.5a.5.5,0,0,0-.5-.5H10V3.5A.5.5,0,0,0,9.5,3H8V.5a.5.5,0,0,0-1,0V3H5.5a.5.5,0,0,0-.5.5V5H4.5a.5.5,0,0,0-.5.5V14H3V7.5A.5.5,0,0,0,2.5,7H.5a.5.5,0,0,0-.5.5v8a.5.5,0,0,0,.5.5h15a.5.5,0,0,0,.5-.5v-5A.5.5,0,0,0,15.5,10ZM6,15a1,1,0,0,1-1-1V7A1,1,0,0,1,6,6Z"/><path d="M15.5,10H11V5.5a.5.5,0,0,0-.5-.5H10V3.5A.5.5,0,0,0,9.5,3H8V.5a.5.5,0,0,0-1,0V3H5.5a.5.5,0,0,0-.5.5V5H4.5a.5.5,0,0,0-.5.5V14H3V7.5A.5.5,0,0,0,2.5,7H.5a.5.5,0,0,0-.5.5v8a.5.5,0,0,0,.5.5h15a.5.5,0,0,0,.5-.5v-5A.5.5,0,0,0,15.5,10ZM6,15a1,1,0,0,1-1-1V7A1,1,0,0,1,6,6Z" fill="#b3b3b3"/></svg>