<svg xmlns="http://www.w3.org/2000/svg" viewBox="0 0 16 16"><path d="M16,2.5v9.142a3.776,3.776,0,0,0-.357-.232A4.053,4.053,0,0,0,14.514,11a2.825,2.825,0,0,0,.367-1.277,3.3,3.3,0,0,0-.076-1.366,3.98,3.98,0,0,0,.005-.722,3.683,3.683,0,0,0-3.717-3.321c-.029,0-.153,0-.187,0A3.838,3.838,0,0,0,7.2,7.635a4.122,4.122,0,0,0,0,.721,3.412,3.412,0,0,0-.076,1.4,2.832,2.832,0,0,0,.355,1.254,3.925,3.925,0,0,0-1.122.4A4.135,4.135,0,0,0,4.257,14H.5a.5.5,0,0,1-.5-.5V.5A.5.5,0,0,1,.5,0h4A.5.5,0,0,1,5,.5V2H15.5A.5.5,0,0,1,16,2.5Zm0,13.03A2.769,2.769,0,0,0,14.752,13.2c-.79-.393-.486-.092-1.455-.494s-1.2-.533-1.2-.533l-.009-.921a1.724,1.724,0,0,0,.477-1.146c.226.065.3-.266.315-.478s.134-.842-.143-.785a5.68,5.68,0,0,0,.081-1.014,1.685,1.685,0,0,0-1.812-1.516A1.838,1.838,0,0,0,9.188,7.831a5.626,5.626,0,0,0,.078,1.014c-.277-.057-.158.581-.146.786s.088.544.316.478a1.735,1.735,0,0,0,.476,1.149l-.009.925a11.3,11.3,0,0,1-1.2.542c-.969.4-.665.083-1.455.476A2.769,2.769,0,0,0,6,15.53H6A.469.469,0,0,0,6.469,16h9.062A.469.469,0,0,0,16,15.531Z" fill="#b3b3b3"/></svg>