<svg xmlns="http://www.w3.org/2000/svg" viewBox="0 0 16 16"><path d="M12.826,15l-.913-3.042A3.3,3.3,0,0,1,11.5,12c-.1,0-.194-.021-.291-.029L10,16,7,15l2.017-4.035a3.511,3.511,0,1,1,5.169-.246L15.826,14ZM13,1.007V3.782a4.883,4.883,0,0,0-1.5-.258A4.977,4.977,0,0,0,7.2,6.042H2.5a.5.5,0,0,0,0,1.007H6.755A4.825,4.825,0,0,0,7.262,11.2L4.923,16H1a1,1,0,0,1-1-1.007V4.028L4,0h8A1,1,0,0,1,13,1.007ZM4,1,1,4H4ZM6,8.5H6A.5.5,0,0,0,5.5,8h-3a.5.5,0,0,0-.5.5H2a.5.5,0,0,0,.5.5h3A.5.5,0,0,0,6,8.5Zm-1,2H5a.5.5,0,0,0-.5-.5h-2a.5.5,0,0,0-.5.5H2a.5.5,0,0,0,.5.5h2A.5.5,0,0,0,5,10.5Z" fill="#b3b3b3"/></svg>