<?xml version="1.0" encoding="UTF-8"?><svg xmlns="http://www.w3.org/2000/svg" viewBox="0 0 16 16"><g id="a"/><g id="b"><g id="c"/><g id="d"/><g id="e"/><path d="M7.674,9.645c-.276,0-.5-.224-.5-.5,0-1.148,.956-2.082,2.131-2.082,.276,0,.5,.224,.5,.5s-.224,.5-.5,.5c-.624,0-1.131,.485-1.131,1.082,0,.276-.224,.5-.5,.5Zm-.82,1.502l-2-2c-.195-.195-.512-.195-.707,0s-.195,.512,0,.707l1.146,1.146H.5c-.276,0-.5,.224-.5,.5s.224,.5,.5,.5H5.293l-1.146,1.146c-.195,.195-.195,.512,0,.707,.098,.098,.226,.146,.354,.146s.256-.049,.354-.146l2-2c.195-.195,.195-.512,0-.707Zm7.646-7.146h-1.415l-.202-1.074c-.102-.536-.578-.926-1.133-.926H6.858c-.554,0-1.029,.389-1.133,.926l-.202,1.074h-.798c-.057-.427-.36-.734-.728-.734h-1.778c-.374,0-.671,.302-.728,.734-.823,.004-1.492,.676-1.492,1.5v4.071c.161-.042,.326-.071,.5-.071H2.5c0-.512,.195-1.024,.586-1.414,.052-.052,.111-.092,.168-.137-.083,.022-.164,.051-.253,.051-.552,0-1-.448-1-1s.448-1,1-1,1,.448,1,1c0,.25-.101,.471-.252,.646,.722-.292,1.58-.146,2.166,.44l.288,.288c.471-1.377,1.762-2.373,3.298-2.373,1.933,0,3.5,1.567,3.5,3.5s-1.567,3.5-3.5,3.5c-.503,0-.978-.11-1.41-.301-.055,.073-.109,.148-.176,.215l-1.086,1.086h7.672c.827,0,1.5-.673,1.5-1.5V5.5c0-.827-.673-1.5-1.5-1.5Z" fill="#b3b3b3"/><g id="f"/><g id="g"/></g></svg>