<svg xmlns="http://www.w3.org/2000/svg" viewBox="0 0 16 16"><path d="M15.971,2.575A.879.879,0,0,0,16,2.411C16,.5,10.767,0,8,0S0,.5,0,2.411a.879.879,0,0,0,.029.164.488.488,0,0,0,.12.455L5.87,8.66V15.5a.5.5,0,0,0,.753.432l2.686-1.575a.5.5,0,0,0-.506-.863L6.87,14.627V8.451A.5.5,0,0,0,6.72,8.1L2.875,4.311A25.2,25.2,0,0,0,8,4.822a25.2,25.2,0,0,0,5.125-.511L9.28,8.1a.5.5,0,0,0,.7.713l5.87-5.778A.488.488,0,0,0,15.971,2.575ZM8,3.822c-4.545,0-6.967-.989-7-1.411C1.033,1.989,3.455,1,8,1s6.966.989,7,1.411C14.966,2.833,12.544,3.822,8,3.822Zm7.854,7.032L13.707,13l2.147,2.146a.5.5,0,0,1-.708.708L13,13.707l-2.146,2.147a.5.5,0,0,1-.708-.708L12.293,13l-2.147-2.146a.5.5,0,0,1,.708-.708L13,12.293l2.146-2.147a.5.5,0,0,1,.708.708Z" fill="#b3b3b3"/></svg>