<?xml version="1.0" encoding="UTF-8"?><svg xmlns="http://www.w3.org/2000/svg" viewBox="0 0 16 16"><g id="a"/><g id="b"><g id="c"/><g id="d"/><g id="e"/><g id="f"/><g id="g"/><path d="M4.84,2.719c.972-.44,2.035-.719,3.16-.719,1.148,0,2.233,.288,3.221,.744,2.81,1.304,4.779,3.984,4.779,5.256,0,.845-.875,2.315-2.289,3.59l-2.028-2.028c.204-.48,.317-1.008,.317-1.562,0-2.209-1.791-4-4-4-.554,0-1.082,.113-1.562,.317l-1.598-1.598Zm4.722,8.964c-.48,.204-1.008,.317-1.562,.317-2.209,0-4-1.791-4-4,0-.554,.113-1.082,.317-1.562l-2.022-2.022C.884,5.689,0,7.154,0,8c0,1.712,3.583,6,8,6,1.122,0,2.19-.279,3.159-.72l-1.597-1.597Zm6.292,4.17c.195-.195,.195-.512,0-.707L.854,.146C.658-.049,.342-.049,.146,.146S-.049,.658,.146,.854L15.146,15.854c.098,.098,.226,.146,.354,.146s.256-.049,.354-.146Z" fill="#b3b3b3"/></g></svg>