<svg xmlns="http://www.w3.org/2000/svg" viewBox="0 0 16 16"><path d="M15.994,8.238l-.334,2.74a1.036,1.036,0,0,1-.769.877c-.467,1.71-1.079,2.64-2.689,2.947a1.561,1.561,0,1,1-.077-.99c1.1-.24,1.448-.895,1.794-2.179a1.027,1.027,0,0,1-.381-.917l.334-2.74a1.023,1.023,0,0,1,.956-.892A6.885,6.885,0,0,0,1.166,6.972a1.023,1.023,0,0,1,.962.892l.334,2.741a1.041,1.041,0,0,1-.9,1.161l-.065.008A1.038,1.038,0,0,1,.34,10.866L.006,8.126a1.022,1.022,0,0,1,.1-.551,7.887,7.887,0,0,1,15.765.074A1.02,1.02,0,0,1,15.994,8.238Zm-4.446,3.781A9.2,9.2,0,0,0,12.8,7.443a4.815,4.815,0,1,0-9.629,0c0,2.678,1.444,6.79,4.815,6.79.057,0,.11-.01.166-.013a2.56,2.56,0,0,1,2.538-2.36A2.509,2.509,0,0,1,11.548,12.019Z" fill="#b3b3b3"/></svg>