<svg xmlns="http://www.w3.org/2000/svg" viewBox="0 0 16 16"><path d="M4.045,16H.5a.5.5,0,0,1-.5-.5v-9A.5.5,0,0,1,.5,6H2V4.5a4.5,4.5,0,0,1,9,0V5h-.088A4.2,4.2,0,0,0,9,5.566V4.5a2.5,2.5,0,0,0-5,0V6H8.385A3.393,3.393,0,0,0,7.2,8.2a3.6,3.6,0,0,0,0,.669,3.247,3.247,0,0,0-.072,1.348,2.8,2.8,0,0,0,.258,1.025,4.341,4.341,0,0,0-.974.343A4.447,4.447,0,0,0,4,15.564,2.319,2.319,0,0,0,4.045,16ZM16,15.563A2.51,2.51,0,0,0,14.752,13.4c-.79-.365-.486-.085-1.455-.459s-1.2-.495-1.2-.495l-.009-.856a1.564,1.564,0,0,0,.477-1.065c.226.061.3-.247.315-.443s.134-.783-.143-.73a4.914,4.914,0,0,0,.081-.942C12.75,7.744,12.255,7.051,11.007,7A1.8,1.8,0,0,0,9.188,8.409a4.866,4.866,0,0,0,.078.943c-.277-.054-.158.54-.146.73s.088.5.316.444a1.571,1.571,0,0,0,.476,1.068l-.009.86a11.7,11.7,0,0,1-1.2.5c-.969.374-.665.077-1.455.442A2.51,2.51,0,0,0,6,15.563H6A.453.453,0,0,0,6.469,16h9.062A.453.453,0,0,0,16,15.564Z" fill="#b3b3b3"/></svg>