<svg xmlns="http://www.w3.org/2000/svg" viewBox="0 0 16 16"><path d="M16,7.857A2.217,2.217,0,0,1,13.714,10H11.328L9.414,8.086a2,2,0,0,0-2.828,0L4.672,10H3.429A3.327,3.327,0,0,1,0,6.786,3.326,3.326,0,0,1,3.429,3.572a3.49,3.49,0,0,1,.384.036c0-.013,0-.024,0-.036A3.7,3.7,0,0,1,7.619,0a3.749,3.749,0,0,1,3.737,2.9,2.817,2.817,0,0,1,.454-.043,2.588,2.588,0,0,1,2.666,2.5,2.325,2.325,0,0,1-.051.474A2.154,2.154,0,0,1,16,7.857Zm-5.646,3.289-2-2a.5.5,0,0,0-.708,0l-2,2a.5.5,0,0,0,.708.708L7.5,10.707V15.5a.5.5,0,0,0,1,0V10.707l1.146,1.147a.5.5,0,0,0,.708-.708Z" fill="#b3b3b3"/></svg>