<svg xmlns="http://www.w3.org/2000/svg" viewBox="0 0 16 16"><path d="M0,7.188H.974v4.639H3.183l-.107.815H0ZM7.819,9.88c0,1.748-.65,2.847-2.143,2.847-1.433,0-2.082-1.1-2.082-2.855,0-1.621.695-2.763,2.141-2.763C7.158,7.109,7.819,8.216,7.819,9.88ZM4.6,9.868c0,1.223.347,2.062,1.113,2.062.821,0,1.111-.787,1.111-2.055,0-1.174-.3-1.967-1.12-1.967C4.912,7.908,4.6,8.705,4.6,9.868Zm8.176,2.774h-.73a4.755,4.755,0,0,1-.064-.585,1.339,1.339,0,0,1-1.331.67c-1.3,0-1.887-1.132-1.887-2.783,0-1.747.776-2.835,2.175-2.835a1.72,1.72,0,0,1,1.841,1.6h-.959a.881.881,0,0,0-.926-.8c-.837,0-1.127.892-1.127,2.034,0,1.162.283,1.984,1.1,1.984.741,0,.943-.538.943-1.346v-.148H10.8V9.605h1.971ZM15,0H8L4,4V6H14a1,1,0,0,1,1,1v6a1,1,0,0,1-1,1H4v1a1,1,0,0,0,1,1H15a1,1,0,0,0,1-1V1A1,1,0,0,0,15,0ZM8,3A1,1,0,0,1,7,4H5L8,1Z" fill="#b3b3b3"/></svg>