<svg xmlns="http://www.w3.org/2000/svg" viewBox="0 0 16 16"><path d="M12.21,12.832a1.668,1.668,0,0,0,0-3.336,1.63,1.63,0,0,0-1.548,1.167H7.02a.5.5,0,0,0-.5.5A2.8,2.8,0,0,1,3.76,14,2.8,2.8,0,0,1,1,11.163,2.844,2.844,0,0,1,2.808,8.5a.5.5,0,0,0-.353-.936A3.85,3.85,0,0,0,0,11.163,3.8,3.8,0,0,0,3.76,15a3.8,3.8,0,0,0,3.729-3.337h3.173A1.63,1.63,0,0,0,12.21,12.832Z" fill="#b3b3b3"/><path d="M2.328,10.3a1.665,1.665,0,0,0,.594,2.265A1.631,1.631,0,0,0,5.173,12a1.654,1.654,0,0,0-.207-1.936L6.821,6.888a.5.5,0,0,0-.176-.682A2.834,2.834,0,0,1,5.634,2.357,2.72,2.72,0,0,1,7.32,1.091a2.771,2.771,0,0,1,2.129.3A2.853,2.853,0,0,1,10.8,4.324.5.5,0,0,0,11.2,4.9a.494.494,0,0,0,.579-.4A3.863,3.863,0,0,0,9.961.536,3.768,3.768,0,0,0,7.071.122a3.718,3.718,0,0,0-2.3,1.73,3.837,3.837,0,0,0,.952,4.932L4.107,9.547A1.618,1.618,0,0,0,2.328,10.3Z" fill="#b3b3b3"/><path d="M15.515,9.3a3.714,3.714,0,0,0-2.273-1.767,3.783,3.783,0,0,0-2.442.144L9.228,4.889a1.655,1.655,0,0,0,.238-1.933A1.631,1.631,0,0,0,7.225,2.35,1.665,1.665,0,0,0,6.6,4.605a1.62,1.62,0,0,0,1.766.782l1.8,3.194a.5.5,0,0,0,.685.188,2.777,2.777,0,0,1,2.132-.27,2.725,2.725,0,0,1,1.667,1.293,2.835,2.835,0,0,1-1.073,3.833,2.79,2.79,0,0,1-3.177-.272.5.5,0,1,0-.645.763A3.753,3.753,0,0,0,12.174,15a3.8,3.8,0,0,0,1.9-.5A3.837,3.837,0,0,0,15.515,9.3Z" fill="#b3b3b3"/></svg>