<?xml version="1.0" encoding="UTF-8"?><svg id="Artwork" xmlns="http://www.w3.org/2000/svg" viewBox="0 0 16 16"><path d="m6.342,8.547c-.113.017-.225.036-.342.036-1.287,0-2.333-1.074-2.333-2.396s1.047-2.396,2.333-2.396c.367,0,.71.095,1.019.251-.223.249-.403.536-.528.85-.152-.063-.317-.101-.491-.101-.735,0-1.333.626-1.333,1.396s.598,1.396,1.333,1.396c.111,0,.216-.018.319-.045l.023,1.009Zm-1.635,1.011c-.173-.078-.354-.117-.535-.117-.347,0-.693.144-.972.427-.188.192-.509.193-.696,0-.205-.212-.205-.557.033-.804.375-.396.477-.977.264-1.476-.207-.499-.683-.823-1.302-.826-.276,0-.5-.239-.5-.534s.224-.534.557-.534c.55-.013,1.026-.362,1.203-.861.215-.505.112-1.086-.295-1.517-.205-.212-.205-.556,0-.768.093-.098.217-.15.347-.15h0c.13,0,.254.053.383.187.361.363.9.485,1.374.312.046-.006.091-.019.133-.038.482-.213.795-.698.798-1.325,0-.295.224-.534.5-.534s.5.239.5.583c.002.537.315,1.022.792,1.233.503.227,1.081.12,1.507-.309.188-.195.508-.195.696,0,.15.155.188.382.104.59.333.046.651.161.948.318.191-.541.085-1.171-.334-1.604-.568-.586-1.539-.612-2.159.027-.094.096-.229.123-.353.065-.122-.055-.202-.182-.202-.37,0-.846-.673-1.534-1.5-1.534s-1.5.688-1.5,1.62c0,.12-.057.229-.147.294-.035.008-.069.019-.101.034-.116.052-.253.027-.373-.096-.284-.293-.663-.454-1.066-.454h0c-.404,0-.783.162-1.067.456-.575.595-.575,1.562.027,2.185.099.104.126.266.057.43-.047.134-.164.223-.329.226-.827,0-1.5.688-1.5,1.534s.673,1.534,1.582,1.534c.127,0,.244.083.298.214.058.136.03.296-.096.429-.574.596-.573,1.563.002,2.158.283.293.662.455,1.066.455s.783-.161,1.093-.482c.094-.096.232-.121.376-.056.127.049.215.18.218.36,0,.327.103.63.274.879.143-.357.361-.746.698-1.102-.07-.484-.373-.896-.805-1.06Zm10.201.458c-.179-.028-.361-.021-.533.023-.161-.438-.543-.783-1.035-.885-.276-.06-.553-.036-.805.063-.204-.359-.565-.628-1.006-.7-.292-.05-.583-.006-.845.115l-.081-2.718c-.012-.375-.172-.721-.452-.975-.283-.258-.667-.395-1.053-.365-.753.05-1.331.67-1.314,1.412l.115,5.054c-1.095.192-1.733.794-1.852,1.834-.097.848-.078,2.084,1.208,3.027.089.065.193.097.295.097.154,0,.306-.07.404-.204.163-.223.115-.536-.107-.699-.852-.624-.886-1.416-.807-2.107.07-.607.4-.847.882-.953l.036,1.57c.006.275.192.52.511.488.276-.007.495-.235.489-.512l-.174-7.618c-.005-.204.162-.376.38-.391.117-.012.229.031.314.107.077.07.121.164.124.264l.141,4.711c.008.258.21.468.468.484.268.016.486-.166.526-.42l.141-.885c.016-.102.073-.192.16-.255.095-.068.21-.096.329-.076.226.037.377.232.342.463l-.063.546c-.032.272.162.519.433.554.277.042.521-.155.559-.427l.026-.189c.015-.106.069-.198.154-.257.089-.063.201-.083.318-.061.201.042.338.218.32.41l-.052.562c-.002.02-.005.038-.006.058,0,.002-.007.093-.008.103,0,.006,0,.012,0,.018h0c-.011.268.189.497.457.52.284.022.515-.177.541-.452l.011-.121c.017-.085.071-.139.104-.164.04-.031.124-.088.249-.062.173.027.25.193.25.347,0,1.082-.307,2.878-.591,3.921-.073.267.084.542.351.614.044.012.088.018.132.018.22,0,.421-.146.482-.368.26-.955.626-2.884.626-4.185,0-.683-.449-1.231-1.092-1.335Z" fill="#b3b3b3"/></svg>