<?xml version="1.0" encoding="UTF-8"?><svg id="Artwork" xmlns="http://www.w3.org/2000/svg" viewBox="0 0 16 16"><path d="m14.492,10c-2.195,2.876-6.043,4.834-6.269,4.947-.07.035-.146.053-.223.053s-.153-.018-.223-.053c-.226-.113-4.074-2.071-6.269-4.947h1.288c1.805,2.019,4.428,3.518,5.205,3.936.776-.418,3.399-1.917,5.205-3.936h1.288ZM.5,7h.605c-.062-.283-.105-.568-.105-.857,0-2.284,1.645-4.143,3.667-4.143,1.136,0,2.228.612,2.919,1.637.186.275.644.275.829,0,.691-1.024,1.783-1.637,2.919-1.637,2.021,0,3.667,1.858,3.667,4.143,0,.29-.043.575-.105.857h.605c.143,0,.279.026.41.064.057-.302.09-.609.09-.921,0-2.836-2.093-5.143-4.667-5.143-1.256,0-2.461.567-3.333,1.545-.872-.978-2.078-1.545-3.333-1.545C2.093,1,0,3.307,0,6.143c0,.312.032.619.09.921.131-.038.267-.064.41-.064Zm7.447,4.724l1.661-3.321.356.421c.095.112.235.177.382.177h5.154c.276,0,.5-.224.5-.5s-.224-.5-.5-.5h-4.922l-.696-.823c-.109-.128-.272-.196-.441-.173-.167.02-.312.122-.388.272l-1.46,2.92-1.619-4.854c-.06-.181-.218-.312-.408-.337-.191-.03-.376.059-.482.218l-1.852,2.777H.5c-.276,0-.5.224-.5.5s.224.5.5.5h3c.167,0,.323-.084.416-.223l1.433-2.149,1.677,5.03c.064.191.237.326.438.341.012,0,.024,0,.036,0,.188,0,.362-.106.447-.276Z" fill="#b3b3b3"/></svg>