<?xml version="1.0" encoding="UTF-8"?><svg id="Artwork" xmlns="http://www.w3.org/2000/svg" viewBox="0 0 16 16"><path d="m8,15c-.076,0-.153-.018-.223-.053-.318-.158-7.777-3.935-7.777-8.807C0,3.306,2.095,1,4.67,1c.136,0,.261.011.385.021.172.016.325.119.402.274l1.49,2.98c.098.196.057.434-.102.585l-1.672,1.597,2.425,3.086-.589-2.946c-.04-.198.044-.401.213-.514l2.612-1.741-1.09-1.916c-.127-.223-.064-.507.146-.655.713-.505,1.556-.771,2.439-.771,2.575,0,4.67,2.306,4.67,5.141,0,4.872-7.459,8.648-7.777,8.807-.069.035-.146.053-.223.053ZM4.67,2c-2.023,0-3.67,1.857-3.67,4.141,0,3.826,5.781,7.14,7,7.795,1.219-.655,7-3.969,7-7.795,0-2.283-1.646-4.141-3.67-4.141-.521,0-1.024.121-1.477.354l1.081,1.899c.13.228.062.518-.157.663l-2.722,1.814.935,4.672c.046.227-.071.455-.281.552-.21.098-.459.037-.603-.146l-4-5.09c-.158-.202-.138-.492.048-.67l1.733-1.655-1.196-2.394h-.021Z" fill="#b3b3b3"/></svg>