<?xml version="1.0" encoding="UTF-8"?><svg id="Artwork" xmlns="http://www.w3.org/2000/svg" viewBox="0 0 16 16"><path d="m13,15.5c0,.276-.224.5-.5.5H3.5c-.276,0-.5-.224-.5-.5s.224-.5.5-.5h4v-1.5c0-.276.224-.5.5-.5s.5.224.5.5v1.5h4c.276,0,.5.224.5.5Zm3-14v5.884l-1-.5v-1.885H1v5.5c0,.275.224.5.5.5h7.255l.338,1H1.5c-.827,0-1.5-.673-1.5-1.5V1.5C0,.673.673,0,1.5,0h13c.827,0,1.5.673,1.5,1.5Zm-1,2.5V1.5c0-.275-.224-.5-.5-.5H1.5c-.276,0-.5.225-.5.5v2.5h14Zm.778,5.312c-.021.207-.168.379-.37.433l-1.986.525,1.655,1.9c.182.208.16.523-.048.705-.095.083-.212.123-.329.123-.139,0-.278-.058-.377-.172l-1.655-1.9-.792,1.895c-.078.186-.26.307-.461.307h-.018c-.208-.008-.39-.143-.456-.34l-2.155-6.376c-.065-.192-.007-.404.145-.537.154-.133.372-.16.552-.07l6.02,3.009c.186.093.295.291.274.498Zm-1.905-.195l-3.75-1.874,1.343,3.972.591-1.415c.06-.143.183-.25.333-.29l1.482-.393Zm-3.373-7.116H2.5c-.276,0-.5.224-.5.5s.224.5.5.5h8c.276,0,.5-.224.5-.5s-.224-.5-.5-.5Zm3,0h-1c-.276,0-.5.224-.5.5s.224.5.5.5h1c.276,0,.5-.224.5-.5s-.224-.5-.5-.5Z" fill="#b3b3b3"/></svg>