<?xml version="1.0" encoding="UTF-8"?><svg id="Artwork" xmlns="http://www.w3.org/2000/svg" viewBox="0 0 24 24"><path d="m10,15.5c0-.28.22-.5.5-.5h0c.28,0,.5.22.5.5h0c0,.27-.22.5-.5.5h0c-.28,0-.5-.23-.5-.5Zm-2,0c0-.28.22-.5.5-.5h0c.28,0,.5.22.5.5h0c0,.27-.22.5-.5.5h0c-.28,0-.5-.23-.5-.5Zm-2,0c0-.28.22-.5.5-.5h0c.28,0,.5.22.5.5h0c0,.27-.22.5-.5.5h0c-.28,0-.5-.23-.5-.5Zm-2,0c0-.28.22-.5.5-.5h0c.28,0,.5.22.5.5h0c0,.27-.22.5-.5.5h0c-.28,0-.5-.23-.5-.5Zm-1.15.35c.05-.04.09-.1.11-.16.03-.06.04-.12.04-.189,0-.07-.01-.13-.04-.19-.02-.06-.06-.12-.11-.16-.04-.05-.1-.09-.16-.109-.12-.05-.26-.05-.38,0-.06.02-.12.06-.16.109-.05.04-.09.101-.11.16-.03.061-.04.12-.04.19,0,.069.01.13.04.189.02.061.06.12.11.16.09.101.22.15.35.15s.26-.05.35-.15Zm-.85-2.35c0-.28.22-.5.5-.5h0c.28,0,.5.22.5.5h0c0,.279-.22.5-.5.5h0c-.28,0-.5-.221-.5-.5Zm0-2c0-.28.22-.5.5-.5h0c.28,0,.5.22.5.5h0c0,.279-.22.5-.5.5h0c-.28,0-.5-.221-.5-.5Zm.85-1.65c.05-.04.09-.1.11-.16.03-.06.04-.13.04-.189,0-.07-.01-.13-.04-.19-.02-.06-.06-.12-.11-.16-.04-.05-.1-.09-.16-.109-.12-.05-.26-.05-.38,0-.06.02-.12.06-.16.109-.05.04-.09.101-.11.16-.03.061-.04.12-.04.19,0,.069.01.13.04.189.02.061.06.12.11.16.04.05.1.09.16.11.06.03.12.04.19.04.13,0,.26-.05.35-.15Zm10.924,4.63,7.106,5.19c.139-.239.057-.545-.182-.684l-2.198-1.274v-2.244c0-.276-.224-.5-.5-.5s-.5.224-.5.5v2.532c0,.179.095.343.249.433l2.447,1.419c.079.046.166.067.25.067.172,0,.34-.089.433-.249ZM3.5,4h2c.276,0,.5-.224.5-.5s-.224-.5-.5-.5h-2c-.276,0-.5.224-.5.5s.224.5.5.5Zm5,0h10c.276,0,.5-.224.5-.5s-.224-.5-.5-.5h-10c-.276,0-.5.224-.5.5s.224.5.5.5ZM1,16.5V7h20v4.13c.349.153.681.334,1,.536V1.5c0-.827-.673-1.5-1.5-1.5H1.5C.673,0,0,.673,0,1.5v15c0,.827.673,1.5,1.5,1.5h9c0-.366.103-.707.276-1H1.5c-.276,0-.5-.225-.5-.5ZM1.5,1h19c.276,0,.5.225.5.5v4.5H1V1.5c0-.275.224-.5.5-.5Zm16.5,11c-1.676,0-3.253.7-4.388,1.92l-.098-1.618c-.017-.276-.247-.485-.529-.469-.275.017-.485.254-.469.529l.169,2.806c.016.265.236.47.499.47h.022l2.771-.119c.276-.013.49-.245.478-.521-.012-.276-.234-.462-.521-.479l-1.579.068c.944-1.009,2.253-1.588,3.644-1.588,2.757,0,5,2.243,5,5s-2.243,5-5,5-5-2.243-5-5c0-.276-.224-.5-.5-.5s-.5.224-.5.5c0,3.309,2.691,6,6,6s6-2.691,6-6-2.691-6-6-6Z" fill="#b3b3b3"/></svg>