<?xml version="1.0" encoding="UTF-8"?><svg id="Artwork" xmlns="http://www.w3.org/2000/svg" viewBox="0 0 16 16"><path d="m15.5,2h-1.5V.5C14,.224,13.776,0,13.5,0h-5C8.224,0,8,.224,8,.5v1.5H.5C.224,2,0,2.224,0,2.5v11C0,13.776.224,14,.5,14h3c.276,0,.5-.224.5-.5V5h4v3.5c0,.276.224.5.5.5s.5-.224.5-.5V3h4v5.5c0,.276.224.5.5.5s.5-.224.5-.5v-3.5h1v4.5c0,.276.224.5.5.5s.5-.224.5-.5V2.5c0-.276-.224-.5-.5-.5ZM3,13H1V5h2v8Zm12.854.854l-2,2c-.098.098-.226.146-.354.146s-.256-.049-.354-.146c-.195-.195-.195-.512,0-.707l1.146-1.146h-6.586l1.146,1.146c.195.195.195.512,0,.707-.098.098-.226.146-.354.146s-.256-.049-.354-.146l-2-2c-.195-.195-.195-.512,0-.707l2-2c.195-.195.512-.195.707,0s.195.512,0,.707l-1.146,1.146h6.586l-1.146-1.146c-.195-.195-.195-.512,0-.707s.512-.195.707,0l2,2c.195.195.195.512,0,.707Z" fill="#b3b3b3"/></svg>