<?xml version="1.0" encoding="UTF-8"?><svg id="Artwork" xmlns="http://www.w3.org/2000/svg" viewBox="0 0 16 16"><path d="m15.5,2h-1.5V.5c0-.276-.224-.5-.5-.5h-5c-.276,0-.5.224-.5.5v1.5H.5C.224,2,0,2.224,0,2.5v11C0,13.776.224,14,.5,14h6.296c.276,0,.5-.224.5-.5s-.224-.5-.5-.5h-2.796V5h4v2.5c0,.276.224.5.5.5s.5-.224.5-.5V3h4v5.5c0,.276.224.5.5.5s.5-.224.5-.5v-3.5h1v6.25c0,.276.224.5.5.5s.5-.224.5-.5V2.5c0-.276-.224-.5-.5-.5ZM3,13H1V5h2v8Zm11,0c0,1.654-1.346,3-3,3-.863,0-1.684-.372-2.253-1.02-.183-.208-.162-.523.045-.706.208-.182.524-.161.706.046.379.432.927.68,1.502.68,1.103,0,2-.897,2-2s-.897-2-2-2c-.494,0-.951.186-1.311.5h.311c.276,0,.5.224.5.5s-.224.5-.5.5h-1.5c-.276,0-.5-.224-.5-.5v-1.5c0-.276.224-.5.5-.5s.5.224.5.5v.275c.543-.49,1.244-.775,2-.775,1.654,0,3,1.346,3,3Z" fill="#b3b3b3"/></svg>