<?xml version="1.0" encoding="UTF-8"?><svg id="Artwork" xmlns="http://www.w3.org/2000/svg" viewBox="0 0 16 16"><path d="m4,14h12v1c0,.55-.45,1-1,1H5c-.55,0-1-.45-1-1v-1ZM16,1v5H4v-2L8,0h7c.55,0,1,.45,1,1Zm-8,0l-3,3h2c.552,0,1-.448,1-1V1ZM1.92,7.203h-.959v3.982c0,.469-.077.732-.57.732-.148,0-.292-.012-.391-.024v.772c.12.023.312.048.549.048,1.117,0,1.371-.624,1.371-1.57v-3.94Zm.912,3.904c.048.895.558,1.616,1.781,1.616s1.78-.707,1.78-1.573c0-.852-.405-1.328-1.531-1.765-.705-.278-.924-.452-.924-.871,0-.389.21-.649.663-.649.559,0,.688.431.733.776h.94c-.032-.749-.418-1.518-1.657-1.518-1.002,0-1.635.582-1.635,1.475,0,.798.395,1.202,1.434,1.608.75.302,1,.552,1,1.037,0,.44-.222.735-.77.735s-.804-.38-.863-.872h-.952Zm6.408-3.984c-1.331,0-2.015,1.01-2.015,2.754,0,1.844.618,2.852,1.962,2.852,1.412,0,2.02-1.015,2.02-2.844,0-1.746-.624-2.762-1.966-2.762Zm-.029.784c.749,0,1.014.738,1.014,1.97,0,1.312-.256,2.071-1.007,2.071-.706,0-1.006-.811-1.006-2.077,0-1.2.277-1.964.999-1.964Zm3.984,4.734v-1.717c0-.975-.002-1.832-.043-2.51h.008c.076.231.278.744,1.742,4.227h1.097v-5.438h-.867v1.666c0,.889.005,1.72.054,2.386h-.01c-.074-.259-.31-.811-1.704-4.052h-1.147v5.438h.869Z" fill="#b3b3b3" stroke-width="0"/></svg>