<?xml version="1.0" encoding="UTF-8"?><svg id="Artwork" xmlns="http://www.w3.org/2000/svg" viewBox="0 0 16 16"><path d="m5.468,1.303c-.14-.403-.806-.404-.945,0L.028,14.335c-.09.261.048.546.309.637.054.019.109.027.164.027.207,0,.401-.13.473-.338l1.613-4.674h4.826l1.616,4.675c.091.26.374.399.636.309.261-.091.399-.376.309-.638L5.468,1.303Zm-2.537,7.683l2.065-5.986,2.069,5.986H2.931Zm13.069-3.508c0,.277-.224.501-.5.501h-6c-.276,0-.5-.224-.5-.501s.224-.501.5-.501h6c.276,0,.5.224.5.501Z" fill="#b3b3b3" stroke-width="0"/></svg>