<?xml version="1.0" encoding="UTF-8"?><svg id="Artwork" xmlns="http://www.w3.org/2000/svg" viewBox="0 0 16 16"><path d="m.5,5c-.276,0-.5-.224-.5-.5V.5C0,.224.224,0,.5,0h4c.276,0,.5.224.5.5s-.224.5-.5.5H1v3.5c0,.276-.224.5-.5.5Zm15.5-.5V.5c0-.276-.224-.5-.5-.5h-4c-.276,0-.5.224-.5.5s.224.5.5.5h3.5v3.5c0,.276.224.5.5.5s.5-.224.5-.5Zm0,11v-4c0-.276-.224-.5-.5-.5s-.5.224-.5.5v3.5h-3.5c-.276,0-.5.224-.5.5s.224.5.5.5h4c.276,0,.5-.224.5-.5Zm-11,0c0-.276-.224-.5-.5-.5H1v-3.5c0-.276-.224-.5-.5-.5s-.5.224-.5.5v4c0,.276.224.5.5.5h4c.276,0,.5-.224.5-.5Z" fill="#b3b3b3" stroke-width="0"/></svg>