<?xml version="1.0" encoding="UTF-8"?><svg id="Artwork" xmlns="http://www.w3.org/2000/svg" viewBox="0 0 16 16"><path d="m11.5,16c-.276,0-.5-.224-.5-.5v-4c0-.276.224-.5.5-.5h4c.276,0,.5.224.5.5s-.224.5-.5.5h-3.5v3.5c0,.276-.224.5-.5.5Zm-6.5-.5v-4c0-.276-.224-.5-.5-.5H.5c-.276,0-.5.224-.5.5s.224.5.5.5h3.5v3.5c0,.276.224.5.5.5s.5-.224.5-.5Zm0-11V.5c0-.276-.224-.5-.5-.5s-.5.224-.5.5v3.5H.5c-.276,0-.5.224-.5.5s.224.5.5.5h4c.276,0,.5-.224.5-.5Zm11,0c0-.276-.224-.5-.5-.5h-3.5V.5c0-.276-.224-.5-.5-.5s-.5.224-.5.5v4c0,.276.224.5.5.5h4c.276,0,.5-.224.5-.5Z" fill="#b3b3b3" stroke-width="0"/></svg>