<?xml version="1.0" encoding="UTF-8"?><svg id="Artwork" xmlns="http://www.w3.org/2000/svg" viewBox="0 0 16 16"><path d="m13.5,16H2.5c-1.379,0-2.5-1.121-2.5-2.5v-5c0-.276.224-.5.5-.5s.5.224.5.5v5c0,.827.673,1.5,1.5,1.5h11c.827,0,1.5-.673,1.5-1.5v-5c0-.276.224-.5.5-.5s.5.224.5.5v5c0,1.379-1.121,2.5-2.5,2.5Zm-1.671-9.876c-.206-.182-.522-.162-.705.047l-2.624,2.998V.5c0-.276-.224-.5-.5-.5s-.5.224-.5.5v8.669l-2.624-2.998c-.183-.209-.498-.229-.705-.047-.208.182-.229.497-.047.705l3.5,4c.095.108.231.171.376.171s.281-.062.376-.171l3.5-4c.183-.208.161-.523-.047-.705Z" fill="#b3b3b3" stroke-width="0"/></svg>