<?xml version="1.0" encoding="UTF-8"?><svg id="Artwork" xmlns="http://www.w3.org/2000/svg" viewBox="0 0 16 16"><path d="m16,7.285c0,1.447-1.186,2.624-2.643,2.624h-1.126c-.276,0-.5-.224-.5-.5s.224-.5.5-.5h1.126c.906,0,1.643-.729,1.643-1.624,0-.695-.455-1.312-1.132-1.532-.24-.079-.384-.323-.335-.571.024-.121.039-.246.039-.373,0-1.091-.897-1.978-2-1.978-.452,0-.885.156-1.252.45-.127.102-.297.134-.451.091-.156-.045-.281-.163-.334-.316-.428-1.229-1.59-2.056-2.891-2.056-1.509,0-2.81,1.121-3.025,2.607-.032.225-.211.398-.435.425-1.244.149-2.182,1.19-2.182,2.423,0,1.354,1.113,2.454,2.481,2.454h.754c.276,0,.5.224.5.5s-.224.5-.5.5h-.754c-1.919,0-3.481-1.55-3.481-3.454,0-1.614,1.136-2.996,2.697-3.352.432-1.793,2.067-3.104,3.945-3.104,1.516,0,2.889.845,3.585,2.154.417-.213.872-.323,1.343-.323,1.654,0,3,1.336,3,2.978,0,.052-.001.104-.004.154.872.444,1.433,1.333,1.433,2.322Zm-6.991-.541l.52,2.147c.055.229.26.383.485.383.039,0,.079-.005.118-.014.269-.065.433-.336.368-.604l-.753-3.112c-.054-.225-.255-.383-.486-.383h-.008l-3.201.052c-.276.005-.496.232-.492.508.004.273.228.492.5.492h.008l2.131-.034c-1.667,1.968-3.336,4.556-1.454,7.116.098.134.25.204.403.204.103,0,.207-.031.296-.097.222-.164.27-.477.106-.699-1.46-1.986-.104-4.088,1.414-5.881.02-.024.029-.053.044-.079Zm1.491,6.256c-.276,0-.5.224-.5.5v1c0,.275-.224.5-.5.5h-5c-.276,0-.5-.225-.5-.5v-1c0-.276-.224-.5-.5-.5s-.5.224-.5.5v1c0,.827.673,1.5,1.5,1.5h5c.827,0,1.5-.673,1.5-1.5v-1c0-.276-.224-.5-.5-.5Z" fill="#b3b3b3" stroke-width="0"/></svg>