<?xml version="1.0" encoding="UTF-8"?><svg id="Artwork" xmlns="http://www.w3.org/2000/svg" viewBox="0 0 24 24"><path d="M14.739,23.5c0,.276-.224.5-.5.5H1.5c-.827,0-1.5-.673-1.5-1.5V1.5C0,.673.673,0,1.5,0h15c.827,0,1.5.673,1.5,1.5v9.281c0,.276-.224.5-.5.5s-.5-.224-.5-.5V1.5c0-.275-.225-.5-.5-.5H1.5c-.275,0-.5.225-.5.5v21c0,.275.225.5.5.5h12.739c.276,0,.5.224.5.5ZM3.31,2.96c.061.03.12.04.19.04.13,0,.26-.05.35-.141.05-.05.09-.109.11-.17.03-.06.04-.12.04-.189,0-.061-.01-.13-.04-.19-.021-.06-.061-.12-.11-.16-.13-.14-.359-.189-.54-.109-.06.02-.12.06-.16.109-.05.04-.09.101-.109.16-.03.061-.04.13-.04.19,0,.069.01.13.04.189.02.061.06.12.109.17.04.04.101.08.16.101ZM7.67,2.5c0-.28-.23-.5-.5-.5-.28,0-.5.22-.5.5s.22.5.5.5c.27,0,.5-.221.5-.5ZM5.83,2.5c0-.28-.221-.5-.5-.5-.271,0-.5.22-.5.5s.229.5.5.5c.279,0,.5-.221.5-.5ZM9.5,2.5c0-.28-.22-.5-.5-.5s-.5.22-.5.5.22.5.5.5.5-.221.5-.5ZM11.33,2.5c0-.28-.221-.5-.5-.5-.271,0-.5.22-.5.5s.229.5.5.5c.279,0,.5-.221.5-.5ZM13.17,2.5c0-.28-.23-.5-.5-.5-.28,0-.5.22-.5.5s.22.5.5.5c.27,0,.5-.221.5-.5ZM14.96,2.31c-.021-.06-.061-.12-.11-.16-.04-.05-.1-.09-.16-.109-.12-.05-.26-.05-.38,0-.06.02-.12.06-.16.109-.05.04-.09.101-.109.16-.03.061-.04.13-.04.19,0,.069.01.13.04.189.02.061.06.12.109.17.091.091.221.141.351.141.069,0,.13-.01.189-.04.061-.021.12-.061.16-.101.05-.05.09-.109.11-.17.03-.06.04-.12.04-.189,0-.061-.01-.13-.04-.19ZM14.5,5H3.5c-.276,0-.5.224-.5.5s.224.5.5.5h11c.276,0,.5-.224.5-.5s-.224-.5-.5-.5ZM14.5,7H3.5c-.276,0-.5.224-.5.5s.224.5.5.5h11c.276,0,.5-.224.5-.5s-.224-.5-.5-.5ZM15,9.5c0-.276-.224-.5-.5-.5H3.5c-.276,0-.5.224-.5.5s.224.5.5.5h11c.276,0,.5-.224.5-.5ZM14,11.5c0-.276-.224-.5-.5-.5H3.5c-.276,0-.5.224-.5.5s.224.5.5.5h10c.276,0,.5-.224.5-.5ZM12,13.5c0-.276-.224-.5-.5-.5H3.5c-.276,0-.5.224-.5.5s.224.5.5.5h8c.276,0,.5-.224.5-.5ZM10.5,15H3.5c-.276,0-.5.224-.5.5s.224.5.5.5h7c.276,0,.5-.224.5-.5s-.224-.5-.5-.5ZM10.5,17H3.5c-.276,0-.5.224-.5.5s.224.5.5.5h7c.276,0,.5-.224.5-.5s-.224-.5-.5-.5ZM17.5,14.5c-1.654,0-3,1.346-3,3,0,.276.224.5.5.5s.5-.224.5-.5c0-1.103.897-2,2-2,.276,0,.5-.224.5-.5s-.224-.5-.5-.5ZM23.854,23.854c-.098.098-.226.146-.354.146s-.256-.049-.354-.146l-2.5-2.5c-.862.705-1.948,1.146-3.146,1.146-2.757,0-5-2.243-5-5s2.243-5,5-5,5,2.243,5,5c0,1.198-.441,2.284-1.146,3.146l2.5,2.5c.195.195.195.512,0,.707ZM21.5,17.5c0-2.206-1.794-4-4-4s-4,1.794-4,4,1.794,4,4,4,4-1.794,4-4Z" fill="#b3b3b3" stroke-width="0"/></svg>