<?xml version="1.0" encoding="UTF-8"?><svg id="Artwork" xmlns="http://www.w3.org/2000/svg" viewBox="0 0 16 16"><path d="M7.919,16H1.5c-.827,0-1.5-.673-1.5-1.5V1.5C0,.673.673,0,1.5,0h10c.827,0,1.5.673,1.5,1.5v4.699c0,.276-.224.5-.5.5s-.5-.224-.5-.5V1.5c0-.275-.225-.5-.5-.5H1.5c-.275,0-.5.225-.5.5v13c0,.275.225.5.5.5h6.419c.276,0,.5.224.5.5s-.224.5-.5.5ZM15.854,15.854c-.098.098-.226.146-.354.146s-.256-.049-.354-.146l-1.56-1.56c-.584.438-1.302.707-2.086.707-1.93,0-3.5-1.57-3.5-3.5s1.57-3.5,3.5-3.5,3.5,1.57,3.5,3.5c0,.785-.269,1.502-.707,2.086l1.56,1.56c.195.195.195.512,0,.707ZM11.5,14c1.379,0,2.5-1.121,2.5-2.5s-1.121-2.5-2.5-2.5-2.5,1.121-2.5,2.5,1.121,2.5,2.5,2.5ZM10,3.5c0-.276-.224-.5-.5-.5H3.5c-.276,0-.5.224-.5.5s.224.5.5.5h6c.276,0,.5-.224.5-.5ZM10,5.5c0-.276-.224-.5-.5-.5H3.5c-.276,0-.5.224-.5.5s.224.5.5.5h6c.276,0,.5-.224.5-.5ZM8,7.5c0-.276-.224-.5-.5-.5H3.5c-.276,0-.5.224-.5.5s.224.5.5.5h4c.276,0,.5-.224.5-.5ZM7,9.5c0-.276-.224-.5-.5-.5h-3c-.276,0-.5.224-.5.5s.224.5.5.5h3c.276,0,.5-.224.5-.5ZM7,11.5c0-.276-.224-.5-.5-.5h-3c-.276,0-.5.224-.5.5s.224.5.5.5h3c.276,0,.5-.224.5-.5Z" fill="#b3b3b3" stroke-width="0"/></svg>