<?xml version="1.0" encoding="UTF-8"?><svg id="Artwork" xmlns="http://www.w3.org/2000/svg" viewBox="0 0 16 16"><path d="M8,9c-.276,0-.5-.224-.5-.5V.5c0-.276.224-.5.5-.5s.5.224.5.5v8c0,.276-.224.5-.5.5ZM16,8c0-1.812-.596-3.523-1.722-4.949-.171-.216-.485-.253-.703-.083-.217.172-.253.485-.083.702.986,1.248,1.507,2.746,1.507,4.33,0,3.859-3.14,7-7,7S1,11.859,1,8c0-1.584.521-3.082,1.507-4.33.171-.217.134-.53-.083-.702-.216-.17-.53-.133-.703.083C.596,4.477,0,6.188,0,8,0,12.411,3.589,16,8,16s8-3.589,8-8Z" fill="#b3b3b3" stroke-width="0"/></svg>