<?xml version="1.0" encoding="UTF-8"?><svg id="Artwork" xmlns="http://www.w3.org/2000/svg" viewBox="0 0 24 24"><path d="M19.5,0H4.5C2.019,0,0,2.019,0,4.5v15c0,2.481,2.019,4.5,4.5,4.5h15c2.481,0,4.5-2.019,4.5-4.5V4.5C24,2.019,21.981,0,19.5,0ZM1,4.5c0-1.93,1.57-3.5,3.5-3.5h15c1.93,0,3.5,1.57,3.5,3.5v13c0,1.93-1.57,3.5-3.5,3.5H4.5c-1.93,0-3.5-1.57-3.5-3.5V4.5ZM19.5,23H4.5c-1.585,0-2.912-1.066-3.341-2.514.825.922,2.01,1.514,3.341,1.514h15c1.331,0,2.517-.592,3.341-1.514-.429,1.448-1.756,2.514-3.341,2.514ZM21.15,13.149c.14-.14.36-.189.54-.109.06.02.12.06.16.109.05.04.09.101.11.16.03.061.04.13.04.19,0,.069-.01.13-.04.189-.02.061-.06.12-.11.17-.04.04-.1.08-.16.101-.06.03-.12.04-.19.04-.13,0-.26-.05-.35-.141-.05-.05-.09-.109-.11-.17-.03-.06-.04-.12-.04-.189,0-.061.01-.13.04-.19.02-.06.06-.12.11-.16ZM20.66,18.979c.13.24.04.54-.2.681-.08.04-.16.05-.24.05-.18,0-.35-.09-.44-.26-.13-.24-.04-.54.2-.671.25-.14.55-.039.68.2ZM18.7,19.5c0,.279-.22.5-.5.5-.27,0-.5-.221-.5-.5,0-.271.23-.5.5-.5.28,0,.5.229.5.5ZM4.24,19.45c-.09.17-.27.27-.45.27-.07,0-.15-.02-.23-.06-.24-.12-.34-.431-.21-.67.13-.25.43-.341.68-.211.24.131.34.431.21.671ZM6.31,19.5c0,.279-.22.5-.5.5-.27,0-.5-.221-.5-.5,0-.271.23-.5.5-.5.28,0,.5.229.5.5ZM14.57,19.5c0,.279-.22.5-.5.5-.27,0-.5-.221-.5-.5,0-.271.23-.5.5-.5.28,0,.5.229.5.5ZM3.05,17.52c.07.271-.1.54-.37.61-.04.01-.08.01-.11.01-.23,0-.44-.149-.49-.38v-.01c-.06-.26.1-.53.37-.601.27-.06.54.101.6.37ZM12.51,19.5c0,.279-.23.5-.5.5-.28,0-.5-.221-.5-.5,0-.271.22-.5.5-.5.27,0,.5.229.5.5ZM10.44,19.5c0,.279-.22.5-.5.5-.27,0-.5-.221-.5-.5,0-.271.23-.5.5-.5.28,0,.5.229.5.5ZM21.92,17.74c-.05.229-.25.38-.48.38-.04,0-.08,0-.12-.011-.26-.06-.43-.33-.37-.6s.33-.43.6-.37c.27.061.44.33.37.601ZM7.38,19.5c0-.271.22-.5.5-.5.27,0,.5.229.5.5,0,.279-.23.5-.5.5-.28,0-.5-.221-.5-.5ZM22,15.569c0,.271-.22.5-.5.5s-.5-.229-.5-.5c0-.279.22-.5.5-.5s.5.221.5.5ZM15.64,19.5c0-.271.22-.5.5-.5.27,0,.5.229.5.5,0,.279-.23.5-.5.5-.28,0-.5-.221-.5-.5ZM2,15.58c0-.28.22-.5.5-.5s.5.22.5.5-.22.5-.5.5-.5-.221-.5-.5ZM2.04,13.689c-.03-.06-.04-.12-.04-.189,0-.061.01-.13.04-.19.02-.06.06-.12.11-.16.14-.14.36-.189.54-.109.06.02.12.06.16.109.05.04.09.101.11.16.03.061.04.13.04.19,0,.069-.01.13-.04.189-.02.061-.06.12-.11.17-.04.04-.1.08-.16.101-.06.03-.12.04-.19.04-.13,0-.26-.05-.35-.141-.05-.05-.09-.109-.11-.17ZM6.113,8.226c0-.605-.383-.962-1.288-1.324-1.148-.441-1.903-1.103-1.903-2.127,0-1.188.966-2.081,2.484-2.081.74,0,1.294.168,1.634.35l-.292.98c-.249-.14-.729-.338-1.372-.338-.878,0-1.243.503-1.243.963,0,.611.419.899,1.381,1.299,1.225.512,1.812,1.155,1.812,2.188,0,1.195-.887,2.19-2.661,2.19-.729,0-1.494-.212-1.87-.451l.27-1c.409.243,1.033.448,1.668.448.878,0,1.378-.442,1.378-1.097ZM9.045,10.217h-1.115l.497-7.415h1.528l1.019,3.172c.272.898.505,1.743.683,2.557h.031c.188-.797.431-1.655.72-2.56l1.069-3.169h1.518l.437,7.415h-1.162l-.154-3.082c-.048-.966-.103-2.128-.095-3.085h-.031c-.233.882-.526,1.848-.842,2.781l-1.109,3.312h-.904l-1.015-3.253c-.296-.958-.559-1.937-.748-2.84h-.026c-.026.939-.072,2.111-.131,3.138l-.169,3.029ZM20.558,9.593c.399-.359.662-.861.662-1.505,0-1.03-.714-1.649-1.487-1.846v-.029c.787-.291,1.222-.914,1.222-1.611,0-.603-.266-1.068-.687-1.357-.482-.359-1.101-.496-2.038-.496-.699,0-1.402.066-1.825.156v7.289c.33.043.848.09,1.544.09,1.264,0,2.1-.225,2.608-.69ZM17.598,3.708c.142-.033.364-.061.745-.061.876,0,1.403.353,1.403,1.086,0,.665-.542,1.142-1.452,1.142h-.696v-2.167ZM17.598,6.757h.66c.93.002,1.702.389,1.702,1.301,0,.956-.781,1.312-1.669,1.312-.299,0-.522-.008-.693-.04v-2.572Z" fill="#b3b3b3" stroke-width="0"/></svg>