<?xml version="1.0" encoding="UTF-8"?><svg id="Artwork" xmlns="http://www.w3.org/2000/svg" viewBox="0 0 24 24"><path d="M19.5,0H4.5C2.019,0,0,2.019,0,4.5v15c0,2.481,2.019,4.5,4.5,4.5h15c2.481,0,4.5-2.019,4.5-4.5V4.5C24,2.019,21.981,0,19.5,0ZM1,4.5c0-1.93,1.57-3.5,3.5-3.5h15c1.93,0,3.5,1.57,3.5,3.5v13c0,1.93-1.57,3.5-3.5,3.5H4.5c-1.93,0-3.5-1.57-3.5-3.5V4.5ZM19.5,23H4.5c-1.585,0-2.912-1.066-3.341-2.514.825.922,2.01,1.514,3.341,1.514h15c1.331,0,2.517-.592,3.341-1.514-.429,1.448-1.756,2.514-3.341,2.514ZM21.04,13.689c-.03-.06-.04-.12-.04-.189,0-.061.01-.13.04-.19.02-.06.06-.12.11-.16.04-.05.1-.09.16-.109.18-.08.4-.03.54.109.05.04.09.101.11.16.03.061.04.13.04.19,0,.069-.01.13-.04.189-.02.061-.06.12-.11.17-.09.091-.22.141-.35.141-.06,0-.13-.01-.19-.04-.06-.021-.12-.061-.16-.101-.05-.05-.09-.109-.11-.17ZM18.7,19.5c0,.279-.22.5-.5.5-.27,0-.5-.221-.5-.5,0-.271.23-.5.5-.5.28,0,.5.229.5.5ZM16.64,19.5c0,.279-.22.5-.5.5s-.5-.221-.5-.5c0-.271.22-.5.5-.5s.5.229.5.5ZM21,15.569c0-.279.22-.5.5-.5s.5.221.5.5c0,.271-.22.5-.5.5s-.5-.229-.5-.5ZM20.95,17.51c.06-.27.33-.43.6-.37.27.061.44.33.38.601-.06.229-.26.38-.49.38-.04,0-.08,0-.11-.011-.27-.06-.44-.33-.38-.6ZM6.31,19.5c0,.279-.22.5-.5.5-.27,0-.5-.221-.5-.5,0-.271.23-.5.5-.5.28,0,.5.229.5.5ZM14.57,19.5c0,.279-.22.5-.5.5-.27,0-.5-.221-.5-.5,0-.271.23-.5.5-.5.28,0,.5.229.5.5ZM8.38,19.5c0,.279-.22.5-.5.5s-.5-.221-.5-.5c0-.271.22-.5.5-.5s.5.229.5.5ZM12.51,19.5c0,.279-.23.5-.5.5-.28,0-.5-.221-.5-.5,0-.271.22-.5.5-.5.27,0,.5.229.5.5ZM2,15.58c0-.28.22-.5.5-.5s.5.22.5.5-.22.5-.5.5-.5-.221-.5-.5ZM9.94,19c.28,0,.5.229.5.5,0,.279-.22.5-.5.5-.27,0-.5-.221-.5-.5,0-.271.23-.5.5-.5ZM19.98,18.779c.25-.14.55-.039.68.2.13.24.04.54-.2.681-.08.04-.16.05-.24.05-.18,0-.35-.09-.44-.26-.13-.24-.04-.54.2-.671ZM3.05,17.52c.07.271-.1.54-.37.61-.04.01-.08.01-.11.01-.23,0-.44-.149-.49-.38v-.01c-.06-.26.1-.53.37-.601.27-.06.54.101.6.37ZM3.35,18.99c.13-.25.43-.341.68-.211.24.131.34.431.21.671-.09.17-.27.27-.45.27-.08,0-.15-.02-.23-.06-.24-.12-.34-.431-.21-.67ZM2.04,13.689c-.03-.06-.04-.12-.04-.189,0-.061.01-.13.04-.19.02-.06.06-.12.11-.16.04-.05.1-.09.16-.109.18-.08.4-.03.54.109.05.04.09.101.11.16.03.061.04.13.04.19,0,.069-.01.13-.04.189-.02.061-.06.12-.11.17-.09.091-.22.141-.35.141-.06,0-.13-.01-.19-.04-.06-.021-.12-.061-.16-.101-.05-.05-.09-.109-.11-.17ZM5.421,10.217h-1.108V2.802h1.326l1.949,3.354c.472.817.895,1.672,1.224,2.457l.025-.008c-.088-.991-.116-1.951-.116-3.115v-2.688h1.108v7.415h-1.221l-1.958-3.405c-.455-.803-.924-1.686-1.27-2.515l-.032.007c.055.947.074,1.908.074,3.178v2.735ZM12.201,10.217h-1.202V2.802h4.008v.997h-2.806v2.209h2.606v.986h-2.606v3.223ZM18.822,8.226c0-.605-.383-.962-1.288-1.324-1.148-.441-1.903-1.103-1.903-2.127,0-1.188.966-2.081,2.484-2.081.74,0,1.294.168,1.634.35l-.292.98c-.249-.14-.729-.338-1.372-.338-.878,0-1.243.503-1.243.963,0,.611.419.899,1.381,1.299,1.225.512,1.812,1.155,1.812,2.188,0,1.195-.887,2.19-2.661,2.19-.729,0-1.494-.212-1.87-.451l.27-1c.409.243,1.033.448,1.668.448.878,0,1.378-.442,1.378-1.097Z" fill="#b3b3b3" stroke-width="0"/></svg>