<?xml version="1.0" encoding="UTF-8"?><svg id="Artwork" xmlns="http://www.w3.org/2000/svg" viewBox="0 0 24 24"><path d="M5.681,5.317l-.64,2.151h-1.231L6.123.054h1.49l2.318,7.415h-1.272l-.668-2.151h-2.309ZM7.79,4.397l-.589-1.903c-.14-.473-.256-.982-.363-1.427h-.026c-.104.45-.217.972-.347,1.422l-.583,1.908h1.908ZM10.563.054h1.202v6.405h2.928v1.01h-4.13V.054ZM15.375.156c.422-.09,1.126-.156,1.825-.156.938,0,1.556.137,2.038.496.42.289.687.755.687,1.357,0,.697-.435,1.32-1.222,1.611v.029c.773.196,1.487.815,1.487,1.846,0,.644-.263,1.146-.662,1.505-.508.466-1.344.69-2.608.69-.697,0-1.214-.047-1.544-.09V.156ZM16.568,3.127h.696c.91,0,1.452-.477,1.452-1.142,0-.733-.527-1.086-1.403-1.086-.381,0-.603.027-.745.061v2.167ZM16.568,6.581c.17.032.394.04.693.04.888,0,1.669-.355,1.669-1.312,0-.912-.772-1.299-1.702-1.301h-.66v2.572ZM12.002,15.339l1.673-1.339h8.825c.276,0,.5-.224.5-.5s-.224-.5-.5-.5h-9c-.113,0-.224.039-.312.109l-1.811,1.448c-.215.173-.25.487-.078.703.099.123.244.188.391.188.109,0,.22-.036.312-.109ZM3.812,21.891l3.532-2.826c.215-.173.25-.487.078-.703-.173-.215-.487-.25-.703-.078l-3.395,2.717H.5c-.276,0-.5.224-.5.5s.224.5.5.5h3c.114,0,.224-.039.312-.109ZM21.854,15.854l2-2c.195-.195.195-.512,0-.707l-2-2c-.195-.195-.512-.195-.707,0s-.195.512,0,.707l1.646,1.646-1.646,1.646c-.195.195-.195.512,0,.707.098.098.226.146.354.146s.256-.049.354-.146ZM23,21.5c0-.276-.224-.5-.5-.5h-8.825L3.812,13.109c-.089-.07-.199-.109-.312-.109H.5c-.276,0-.5.224-.5.5s.224.5.5.5h2.825l9.863,7.891c.089.07.199.109.312.109h9c.276,0,.5-.224.5-.5ZM21.854,23.854l2-2c.195-.195.195-.512,0-.707l-2-2c-.195-.195-.512-.195-.707,0s-.195.512,0,.707l1.646,1.646-1.646,1.646c-.195.195-.195.512,0,.707.098.098.226.146.354.146s.256-.049.354-.146ZM.85,11.85c.1-.09.15-.22.15-.35,0-.07-.01-.13-.04-.19-.02-.06-.06-.109-.11-.16-.18-.189-.52-.189-.7,0-.05.051-.09.101-.11.16-.03.061-.04.12-.04.19,0,.13.05.26.15.35.09.101.22.15.35.15s.26-.05.35-.15ZM15.92,19.5c0-.28.22-.5.5-.5h0c.28,0,.5.22.5.5h0c0,.279-.22.5-.5.5h0c-.28,0-.5-.221-.5-.5ZM14.06,19.79c-.21-.17-.25-.49-.08-.7h0c.18-.22.49-.25.71-.08h0c.21.17.25.49.07.7h0c-.09.13-.24.189-.39.189h0c-.11,0-.22-.029-.31-.109ZM12.44,18.49c-.22-.171-.25-.49-.08-.7h0c.17-.221.49-.25.7-.08h0c.22.17.25.49.08.7h0c-.1.13-.24.189-.39.189h0c-.11,0-.22-.03-.31-.109ZM10.81,17.189c-.21-.17-.25-.489-.08-.699h0c.18-.221.49-.25.71-.08h0c.21.17.25.489.08.699h0c-.1.131-.25.19-.4.19h0c-.11,0-.22-.03-.31-.11ZM9.19,15.89c-.22-.17-.25-.49-.08-.7h0c.17-.22.49-.25.7-.08h0c.22.17.25.49.08.7h0c-.1.13-.24.19-.39.19h0c-.11,0-.22-.03-.31-.11ZM7.56,14.59c-.21-.17-.25-.49-.07-.7h0c.17-.22.48-.25.7-.08h0c.21.17.25.49.08.7h0c-.1.13-.25.19-.39.19h0c-.11,0-.22-.04-.32-.11ZM5.94,13.29c-.22-.17-.25-.49-.08-.7h0c.17-.22.49-.25.7-.08h0c.22.17.25.49.08.7h0c-.1.13-.24.189-.39.189h0c-.11,0-.22-.04-.31-.109ZM4.31,11.99c-.21-.171-.25-.49-.07-.7h0c.17-.221.48-.25.7-.08h0c.21.17.25.49.08.7h0c-.1.13-.25.189-.39.189h0c-.11,0-.22-.03-.32-.109ZM2.08,11.5c0-.28.23-.5.5-.5h0c.28,0,.5.22.5.5h0c0,.279-.22.5-.5.5h0c-.27,0-.5-.221-.5-.5ZM18.85,19.85c.1-.09.15-.21.15-.35,0-.061-.01-.13-.04-.19-.02-.06-.06-.12-.11-.16-.14-.14-.36-.189-.54-.109-.06.02-.12.06-.16.109-.1.091-.15.221-.15.351s.05.26.15.35c.09.101.22.15.35.15s.26-.05.35-.15Z" fill="#b3b3b3" stroke-width="0"/></svg>