<?xml version="1.0" encoding="UTF-8"?><svg id="Artwork" xmlns="http://www.w3.org/2000/svg" viewBox="0 0 24 24"><path d="M12.888,24h-2.388c-.276,0-.5-.224-.5-.5v-2.267c0-.133.053-.26.146-.354l.861-.861c.096-.096.224-.135.364-.146.136.003.266.062.357.161l.03.033.091-.74c.013-.111.063-.214.143-.293l.363-.363c.17-.171.438-.193.637-.059l.231.159.076-.832c.011-.115.061-.224.143-.306l1.522-1.537c-.554-1.658-.132-3.485,1.12-4.736.876-.877,2.041-1.359,3.278-1.359s2.401.482,3.278,1.359h0c.876.876,1.359,2.04,1.359,3.278s-.482,2.401-1.359,3.277c-1.222,1.222-3.014,1.655-4.648,1.148l-4.75,4.789c-.094.094-.222.147-.355.147ZM11,23h1.68l4.825-4.865c.14-.14.352-.186.537-.113,1.345.524,2.873.206,3.893-.813.688-.688,1.066-1.601,1.066-2.57s-.378-1.884-1.066-2.571h0c-1.375-1.375-3.767-1.374-5.142,0-1.044,1.044-1.353,2.599-.786,3.962.078.187.036.401-.106.544l-1.621,1.637-.138,1.503c-.016.177-.125.331-.286.407-.162.075-.349.061-.496-.041l-.549-.378-.191,1.562c-.023.193-.157.355-.343.415-.185.062-.389.007-.521-.137l-.411-.446-.346.347v1.56ZM21.378,14.288c-.463.463-1.21.463-1.665,0-.463-.455-.463-1.202,0-1.665.455-.463,1.202-.463,1.665,0s.463,1.21,0,1.665ZM9.187,19.511c.009-.275-.208-.507-.484-.516-3.12-.099-5.958-1.782-7.521-4.429.537-.265,1.224-.523,1.941-.794.422-.159.859-.323,1.294-.5,1.886-.765,2.367-1.039,2.416-1.067.15-.089.243-.249.246-.424l.024-1.774c.002-.152-.075-.305-.193-.401-.005-.005-.566-.478-.746-1.872-.019-.145-.066-.275-.189-.355s-.24-.104-.381-.062c-.117-.043-.357-.409-.374-.598-.018-.281.046-.688.125-.85.122-.003.239-.051.329-.136.118-.11.175-.271.153-.431-.094-.706-.186-1.475-.154-1.824.123-1.218,1.396-2.479,3.314-2.479s3.192,1.261,3.314,2.475c.029.312-.027.976-.152,1.821-.024.16.032.322.149.435.092.088.212.137.337.139.073.152.14.539.121.852-.011.181-.234.549-.294.598-.14-.042-.291-.02-.413.06-.123.079-.204.208-.224.353-.19,1.395-.742,1.871-.741,1.871h0c-.126.095-.199.244-.198.402l.012,1.774c.001.178.097.341.251.43.044.025.474.265,2.076.924.254.104.547-.016.652-.272.105-.256-.017-.548-.272-.653-.92-.378-1.44-.613-1.709-.741l-.009-1.257c.248-.277.654-.874.866-1.959.083-.031.165-.075.244-.131.438-.308.734-.935.758-1.338.003-.05.068-1.222-.486-1.708-.022-.02-.046-.038-.07-.056.098-.743.131-1.292.099-1.638-.167-1.661-1.825-3.379-4.31-3.379s-4.143,1.718-4.31,3.383c-.033.359.015.915.104,1.634-.023.017-.045.034-.067.054-.562.492-.494,1.698-.492,1.724.036.409.346,1.036.784,1.335.073.05.149.09.227.119.206,1.085.615,1.682.867,1.96l-.017,1.258c-.293.142-.897.416-2.041.88-.427.173-.856.335-1.271.491-.968.364-1.882.709-2.531,1.105-.224.137-.304.424-.183.657,1.667,3.212,4.969,5.279,8.615,5.396h.016c.269,0,.491-.214.499-.484Z" fill="#b3b3b3" stroke-width="0"/></svg>