<?xml version="1.0" encoding="UTF-8"?><svg id="Artwork" xmlns="http://www.w3.org/2000/svg" viewBox="0 0 24 24"><path d="M22.606,4.604C17.723,3.555,15.144,2.003,12.278.082c0,0-.002,0-.002,0-.047-.031-.099-.05-.153-.064-.013-.003-.026-.009-.04-.011-.091-.016-.185.001-.273.039-.029.012-.059.019-.085.036-.001,0-.002,0-.004.001-2.865,1.921-5.445,3.473-10.328,4.522-.238.052-.405.268-.394.512l.043.99c.366,8.367.608,13.894,10.775,17.86.06.023.121.034.182.034s.122-.011.182-.034c10.166-3.965,10.409-9.492,10.775-17.86l.043-.99c.012-.244-.155-.46-.394-.512ZM21.956,6.062c-.358,8.203-.586,13.174-9.956,16.895C2.63,19.236,2.401,14.265,2.044,6.062l-.025-.571c4.634-1.049,7.217-2.554,9.982-4.395,2.765,1.842,5.347,3.346,9.982,4.395l-.025.571ZM11.919,15.803l5.749-6.025c.191-.199.184-.516-.017-.706-.199-.19-.516-.184-.706.017l-5.395,5.653-2.645-2.668c-.193-.195-.512-.199-.707-.004-.196.194-.198.512-.004.707l3.007,3.034c.095.095.223.148.355.148.121,0,.267-.057.361-.155ZM11.729,3.637c.09-.09.15-.22.15-.35s-.061-.261-.15-.351c-.18-.189-.52-.189-.699,0-.101.09-.15.221-.15.351s.05.26.15.35c.09.101.22.15.35.15s.26-.05.35-.15ZM5.62,6.538h0c.05,0,.109,0,.16-.021h0c.26-.09.399-.37.31-.64h0c-.08-.26-.37-.4-.63-.311h0c-.26.091-.4.37-.311.631.07.21.261.34.471.34ZM7.609,5.777h0c.07,0,.131-.01.2-.039h0c.25-.11.37-.4.26-.66h0c-.109-.25-.399-.37-.649-.261h-.01c-.25.11-.37.41-.261.66.08.19.271.3.46.3ZM9.53,4.857h0c.079,0,.159-.02.239-.06h0c.24-.13.34-.43.2-.68h0c-.12-.24-.43-.341-.67-.21h0c-.25.13-.34.44-.21.68.09.17.26.27.44.27ZM3.759,7.118c.06-.021.12-.061.17-.11.04-.05.08-.1.101-.16.029-.06.039-.12.039-.189,0-.141-.05-.261-.14-.36-.05-.04-.11-.08-.17-.1-.18-.08-.4-.04-.54.1-.1.1-.15.22-.15.36,0,.069.011.13.04.189.021.061.061.11.11.16s.1.09.16.11c.06.029.13.04.189.04.07,0,.131-.011.19-.04ZM9.09,20.389h0c.17,0,.34-.09.43-.24h0c.141-.239.07-.54-.17-.69h0c-.23-.141-.54-.07-.68.17h0c-.15.24-.07.54.16.69h0c.08.051.17.07.26.07ZM7.55,19.299h0c.14,0,.29-.06.39-.18h0c.17-.21.141-.53-.069-.71h0v.01h0c-.221-.18-.53-.15-.71.06h0c-.17.221-.141.53.069.71.101.07.21.11.32.11ZM6.21,17.979h0c.109,0,.23-.04.32-.12h0c.21-.18.239-.489.069-.699h-.01c-.17-.221-.49-.25-.7-.07h0c-.21.17-.24.49-.07.7h0c.101.12.25.189.391.189ZM5.17,16.398h0c.08,0,.149-.02.23-.05h0c.24-.13.341-.43.21-.68h0c-.13-.24-.43-.34-.67-.21h0c-.25.12-.34.43-.22.67.09.17.271.27.45.27ZM4.469,14.648h0c.05,0,.09-.01.14-.02h0c.271-.08.421-.36.341-.63h-.011c-.069-.26-.35-.41-.62-.33h0c-.26.08-.409.359-.329.62.06.22.26.359.48.359ZM4.04,12.808h0c.029,0,.06,0,.09-.01h0c.27-.04.45-.3.41-.58h0c-.05-.27-.311-.45-.58-.4h0c-.271.04-.45.301-.41.57h0c.04.25.26.42.49.42ZM3.8,10.928h.05c.271-.03.48-.27.45-.54h0c-.03-.28-.27-.48-.54-.46h0c-.28.03-.48.271-.45.55.021.261.24.45.49.45ZM3.67,9.048h.02c.28-.021.49-.25.48-.53h0c-.021-.27-.26-.49-.53-.47h0c-.28.02-.49.25-.47.53.01.26.23.47.5.47ZM10.97,21.259c.061-.03.11-.06.16-.11.04-.05.08-.1.11-.159.02-.061.04-.131.04-.2,0-.061-.021-.13-.04-.19-.03-.06-.07-.109-.11-.16-.05-.05-.11-.08-.16-.109-.189-.08-.41-.03-.55.109-.05.051-.08.101-.11.16-.02.061-.04.13-.04.19,0,.069.021.14.04.2.03.06.061.109.11.159.09.091.22.141.35.141.07,0,.13-.011.2-.03Z" fill="#b3b3b3" stroke-width="0"/></svg>