<?xml version="1.0" encoding="UTF-8"?><svg id="Artwork" xmlns="http://www.w3.org/2000/svg" viewBox="0 0 24 24"><path d="M23,15h-5.5v-6.5c0-.552-.448-1-1-1h-.5v-2c0-.552-.448-1-1-1h-2V1C13,.448,12.552,0,12,0h-.5C10.948,0,10.5.448,10.5,1v3.5h-2c-.552,0-1,.448-1,1v2h-.5c-.552,0-1,.448-1,1v11.5h-.5v-8.5c0-.552-.448-1-1-1H1c-.552,0-1,.448-1,1v11.5c0,.552.448,1,1,1h22c.552,0,1-.448,1-1v-7c0-.552-.448-1-1-1ZM2.5,23v-1.5c0-.276-.224-.5-.5-.5s-.5.224-.5.5v1.5h-.5v-11.5h3.5v10c0,.276.224.5.5.5s.5-.224.5-.5v-.5h1.5v2H2.5ZM14,23v-3.5c0-.276-.224-.5-.5-.5s-.5.224-.5.5v3.5h-5v-2.5c0-.276-.224-.5-.5-.5h-.5v-11.5h1c.276,0,.5-.224.5-.5v-2.5h2.5c.276,0,.5-.224.5-.5V1h.5v4c0,.276.224.5.5.5h2.5v2.5c0,.276.224.5.5.5h1v13c0,.276.224.5.5.5s.5-.224.5-.5v-.5h2v2h-5.5ZM23,23h-2.5v-2.5c0-.276-.224-.5-.5-.5h-2.5v-4h5.5v7ZM9.46,9.81c.03.061.04.12.04.19,0,.069-.01.13-.04.189-.021.061-.061.12-.11.16-.09.101-.22.15-.35.15s-.26-.05-.351-.15c-.05-.04-.09-.1-.109-.16-.03-.06-.04-.12-.04-.189,0-.07.01-.13.04-.19.02-.06.06-.109.109-.16.19-.189.521-.189.7,0,.05.051.09.101.11.16ZM9.5,16c0,.279-.22.5-.5.5s-.5-.221-.5-.5.22-.5.5-.5.5.22.5.5ZM9.5,12c0,.279-.22.5-.5.5s-.5-.221-.5-.5.22-.5.5-.5.5.22.5.5ZM9.5,14c0,.279-.22.5-.5.5s-.5-.221-.5-.5.22-.5.5-.5.5.22.5.5ZM9.5,18c0,.279-.22.5-.5.5s-.5-.221-.5-.5.22-.5.5-.5.5.22.5.5ZM9.5,20c0,.279-.22.5-.5.5s-.5-.221-.5-.5c0-.271.22-.5.5-.5s.5.229.5.5ZM9.35,21.649c.101.091.15.221.15.351,0,.069-.01.13-.04.189-.021.061-.061.12-.11.16-.09.101-.22.15-.35.15s-.26-.05-.351-.15c-.1-.09-.149-.22-.149-.35s.05-.26.149-.351c.04-.05.101-.09.16-.109.181-.08.4-.03.54.109ZM11.46,7.81c.03.061.04.12.04.19,0,.069-.01.13-.04.189-.021.061-.061.12-.11.16-.09.101-.22.15-.35.15s-.26-.05-.351-.15c-.05-.04-.09-.1-.109-.16-.03-.06-.04-.12-.04-.189,0-.061.01-.13.04-.19.02-.06.06-.109.109-.16.19-.189.521-.189.7,0,.05.051.09.101.11.16ZM11.5,20c0,.279-.22.5-.5.5-.271,0-.5-.221-.5-.5,0-.271.229-.5.5-.5.28,0,.5.229.5.5ZM11.5,18c0,.279-.22.5-.5.5-.271,0-.5-.221-.5-.5s.229-.5.5-.5c.28,0,.5.22.5.5ZM11.5,14c0,.279-.22.5-.5.5-.271,0-.5-.221-.5-.5s.229-.5.5-.5c.28,0,.5.22.5.5ZM11.5,10c0,.279-.22.5-.5.5-.271,0-.5-.221-.5-.5,0-.271.229-.5.5-.5.28,0,.5.229.5.5ZM11.5,16c0,.279-.22.5-.5.5-.271,0-.5-.221-.5-.5s.229-.5.5-.5c.28,0,.5.22.5.5ZM11.5,12c0,.279-.22.5-.5.5-.271,0-.5-.221-.5-.5s.229-.5.5-.5c.28,0,.5.22.5.5ZM11.35,21.649c.101.091.15.221.15.351,0,.069-.01.13-.04.189-.021.061-.061.12-.11.16-.09.101-.22.15-.35.15s-.26-.05-.351-.15c-.05-.04-.09-.1-.109-.16-.03-.06-.04-.12-.04-.189,0-.13.05-.26.149-.351.19-.189.521-.189.7,0ZM2.5,15c0,.279-.22.5-.5.5s-.5-.221-.5-.5.22-.5.5-.5.5.22.5.5ZM2.5,13c0,.279-.22.5-.5.5s-.5-.221-.5-.5.22-.5.5-.5.5.22.5.5ZM2.5,17c0,.279-.22.5-.5.5s-.5-.221-.5-.5.22-.5.5-.5.5.22.5.5ZM2.5,19c0,.279-.22.5-.5.5s-.5-.221-.5-.5c0-.271.22-.5.5-.5s.5.229.5.5ZM21,21.5c0-.28.22-.5.5-.5s.5.22.5.5-.22.5-.5.5-.5-.221-.5-.5ZM21,19.5c0-.28.22-.5.5-.5s.5.22.5.5-.22.5-.5.5-.5-.221-.5-.5ZM21,17.5c0-.28.22-.5.5-.5s.5.22.5.5-.22.5-.5.5-.5-.221-.5-.5ZM15.5,16c0,.279-.22.5-.5.5s-.5-.221-.5-.5c0-.271.22-.5.5-.5s.5.229.5.5ZM15.5,14c0,.279-.22.5-.5.5s-.5-.221-.5-.5c0-.271.22-.5.5-.5s.5.229.5.5ZM15.5,12c0,.279-.22.5-.5.5s-.5-.221-.5-.5.22-.5.5-.5.5.22.5.5ZM15.5,10c0,.279-.22.5-.5.5s-.5-.221-.5-.5.22-.5.5-.5.5.22.5.5Z" fill="#b3b3b3" stroke-width="0"/></svg>