<?xml version="1.0" encoding="UTF-8"?><svg id="Artwork" xmlns="http://www.w3.org/2000/svg" viewBox="0 0 24 24"><path d="M21.79,8.924c.013-.132.02-.261.02-.389,0-2.344-1.944-4.25-4.333-4.25-.089,0-.178.004-.265.011-.707-2.516-3.057-4.296-5.759-4.296-3.108,0-5.67,2.338-5.948,5.358-.025,0-.05,0-.075,0C2.436,5.357,0,7.744,0,10.679s2.436,5.321,5.429,5.321h14.786c2.087,0,3.786-1.666,3.786-3.715,0-1.459-.873-2.763-2.21-3.361ZM20.214,15H5.429c-2.442,0-4.429-1.938-4.429-4.321s1.987-4.321,4.429-4.321c.114,0,.223.016.333.03l.162.021c.144.012.282-.056.388-.151.106-.095.165-.257.165-.399,0-2.679,2.232-4.857,4.976-4.857,2.386,0,4.44,1.659,4.886,3.945.052.266.304.443.573.397.185-.03.372-.058.565-.058,1.838,0,3.333,1.458,3.333,3.25,0,.195-.021.396-.064.614-.049.249.096.495.337.572,1.146.369,1.917,1.399,1.917,2.563,0,1.497-1.25,2.715-2.786,2.715ZM3.15,10.49c.03.06.04.119.04.189s-.01.13-.04.19c-.02.06-.06.12-.11.159-.04.051-.1.091-.16.11-.06.03-.12.04-.19.04-.07,0-.13-.01-.19-.04-.06-.02-.12-.06-.16-.11-.05-.039-.09-.1-.11-.159-.03-.061-.04-.12-.04-.19s.01-.13.04-.189c.02-.061.06-.12.11-.16.04-.051.1-.09.16-.11.12-.05.26-.05.38,0,.06.021.12.06.16.11.05.04.09.1.11.16ZM3.69,8.56c.2.181.22.5.04.7-.1.11-.24.17-.38.17-.11,0-.23-.04-.33-.12-.2-.18-.22-.5-.04-.71.18-.2.5-.22.71-.04ZM7.33,7.67c.11.26-.01.55-.26.66-.07.029-.13.04-.2.04-.19,0-.38-.11-.46-.301-.11-.25.01-.55.26-.659.26-.11.55.01.66.26ZM5.49,7.96c.04.27-.15.52-.42.569-.02,0-.05.011-.07.011-.25,0-.46-.181-.5-.431-.04-.27.14-.529.42-.569.27-.04.53.149.57.42ZM10.05,2.91c.15.229.09.54-.15.689-.08.061-.17.08-.27.08-.16,0-.32-.08-.42-.22-.15-.23-.08-.54.15-.7.23-.15.54-.08.69.15ZM8.57,6.62c-.06.22-.26.37-.48.37-.04,0-.09-.011-.14-.021-.26-.08-.41-.35-.34-.62.08-.27.35-.42.62-.34.26.07.42.35.34.61ZM8.88,4.819c-.08.19-.26.301-.46.301-.07,0-.13-.011-.2-.04-.25-.11-.37-.4-.26-.65.11-.26.4-.38.66-.27.25.109.37.399.26.659ZM11.91,2.45c.03.06.04.13.04.189,0,.07-.01.13-.04.19-.02.069-.06.12-.1.17-.05.04-.11.08-.17.109-.06.021-.12.04-.19.04-.06,0-.13-.02-.19-.04-.06-.029-.11-.069-.16-.109-.05-.05-.08-.101-.11-.17-.02-.061-.04-.12-.04-.19,0-.06.02-.13.04-.189.03-.061.06-.12.11-.16.05-.05.1-.08.16-.11.12-.05.26-.05.38,0,.06.03.12.061.17.11.04.04.08.1.1.16ZM20,23.5c0,.276-.224.5-.5.5H3.5c-.276,0-.5-.224-.5-.5s.224-.5.5-.5h6.5v-4.5c0-.276.224-.5.5-.5s.5.224.5.5v4.5h1v-4.5c0-.276.224-.5.5-.5s.5.224.5.5v4.5h6.5c.276,0,.5.224.5.5Z" fill="#b3b3b3" stroke-width="0"/></svg>