<?xml version="1.0" encoding="UTF-8"?><svg id="Artwork" xmlns="http://www.w3.org/2000/svg" viewBox="0 0 24 24"><path d="M10.966,15.155c.195.195.195.512,0,.707l-1.321,1.321c.236.592.355,1.201.355,1.816,0,2.757-2.243,5-5,5-.344,0-.692-.039-1.064-.118-.179-.039-.323-.172-.375-.348s-.003-.365.126-.495l2.427-2.427-.38-2.321-2.32-.379-2.44,2.439c-.129.129-.317.175-.492.127-.175-.051-.309-.192-.349-.37C.043,19.718,0,19.355,0,19,0,16.243,2.243,14,5,14c.615,0,1.224.119,1.816.354l2.007-2.006c.195-.195.512-.195.707,0s.195.512,0,.707l-2.248,2.247c-.15.148-.378.19-.568.098-.558-.266-1.135-.4-1.714-.4-2.175,0-3.951,1.746-3.999,3.909l1.886-1.886c.114-.114.275-.166.434-.14l2.928.479c.212.034.378.2.413.412l.479,2.929c.026.159-.026.32-.14.435l-1.859,1.859c2.14-.074,3.858-1.839,3.858-3.997,0-.579-.135-1.155-.401-1.714-.091-.19-.052-.419.098-.568l1.562-1.562c.195-.195.512-.195.707,0ZM13.115,9.47l2.188-2.187c.15-.149.189-.378.098-.568-.266-.559-.401-1.135-.401-1.714,0-2.158,1.718-3.923,3.858-3.997l-1.859,1.859c-.114.114-.166.275-.14.435l.479,2.929c.035.212.201.378.413.412l2.928.479c.159.03.321-.025.434-.14l1.886-1.886c-.048,2.163-1.824,3.909-3.999,3.909-.579,0-1.156-.135-1.714-.4-.191-.093-.419-.052-.568.098l-1.561,1.561c-.195.195-.195.512,0,.707.098.098.226.146.354.146s.256-.049.354-.146l1.32-1.319c.592.235,1.202.354,1.816.354,2.757,0,5-2.243,5-5,0-.355-.043-.718-.132-1.108-.041-.178-.174-.319-.349-.37-.175-.048-.363,0-.492.127l-2.44,2.439-2.32-.379-.38-2.321,2.427-2.427c.129-.13.178-.319.126-.495s-.196-.309-.375-.348C19.692.039,19.344,0,19,0,16.243,0,14,2.243,14,5c0,.615.119,1.225.355,1.816l-1.947,1.946c-.195.195-.195.512,0,.707s.512.195.707,0ZM9.28,14.04c-.247.09-.36.41-.27.649.061.121.15.225.27.271.07.03.13.04.2.04.06,0,.13-.01.19-.04.06-.021.11-.061.16-.11.05-.04.08-.1.11-.16.111-.239-.028-.557-.27-.649-.13-.05-.26-.05-.39,0ZM14.67,9.04c-.13-.05-.26-.05-.39,0-.121.054-.21.145-.27.27-.04.123-.04.262,0,.38.03.061.07.12.11.17.05.04.1.08.16.101.07.03.13.04.2.04.06,0,.13-.01.19-.04.06-.021.11-.061.16-.101.05-.05.08-.109.11-.17.051-.119.05-.256,0-.38-.03-.06-.06-.12-.11-.16-.05-.05-.1-.08-.16-.109ZM23.407,19.872c.385.385.593.887.593,1.422s-.208,1.036-.586,1.414l-.707.707c-.39.39-.902.585-1.415.585s-1.024-.195-1.414-.585c-.053-.054-5.374-5.391-8.894-10.319-.142-.199-.12-.472.053-.645l.354-.354L2.86,3.567l-1.087-.467c-.07-.013-.134-.046-.185-.097L.102,1.517c-.136-.136-.136-.357,0-.493L1.024.102c.136-.136.357-.136.493,0l1.557,1.558c.053.053.088.123.099.197l.429,1.038,8.496,8.497.354-.354c.172-.174.445-.196.644-.054,4.132,2.951,10.251,8.83,10.312,8.888ZM23,21.294c0-.268-.104-.519-.293-.708-.053-.051-5.789-5.561-9.85-8.54l-.812.812c3.468,4.762,8.489,9.799,8.54,9.85.391.391,1.024.391,1.415,0l.707-.707c.189-.189.293-.441.293-.707ZM16.11,15.43c-.05-.05-.1-.08-.16-.11-.12-.05-.26-.05-.38,0-.07.03-.12.061-.17.11-.04.05-.08.1-.11.16-.02.06-.03.13-.03.189,0,.141.05.261.14.36.05.04.1.08.17.11.06.02.12.029.19.029.06,0,.13-.01.19-.029.06-.03.11-.07.16-.11.09-.1.15-.22.15-.36,0-.06-.02-.13-.04-.189-.03-.061-.06-.11-.11-.16ZM19.527,19.523c-.2.2-.2.51,0,.71.09.1.22.149.35.149s.26-.05.35-.149c.2-.2.2-.51,0-.71-.19-.19-.51-.19-.7,0ZM16.697,16.693c-.2.2-.2.51,0,.71.1.1.22.15.35.15s.26-.051.35-.15c.2-.2.2-.51,0-.71-.19-.19-.51-.19-.7,0ZM18.107,18.113c-.19.19-.19.51,0,.71.1.09.23.14.36.14.12,0,.25-.05.35-.14.19-.2.19-.52,0-.71-.2-.2-.51-.2-.71,0ZM21.097,20.833c-.06.021-.11.061-.16.11-.09.09-.14.22-.14.35,0,.07.01.13.03.19.03.06.07.12.11.16.05.05.1.09.16.11.06.03.13.04.2.04.06,0,.13-.01.19-.04.06-.02.11-.06.16-.11.05-.04.08-.101.11-.16.02-.061.03-.12.03-.19,0-.13-.05-.26-.14-.35-.15-.14-.37-.19-.55-.11Z" fill="#b3b3b3" stroke-width="0"/></svg>