<?xml version="1.0" encoding="UTF-8"?><svg id="Artwork" xmlns="http://www.w3.org/2000/svg" viewBox="0 0 16 16"><path d="M8,16C3.589,16,0,12.411,0,8S3.589,0,8,0s8,3.589,8,8-3.589,8-8,8ZM8,1c-3.86,0-7,3.141-7,7s3.14,7,7,7,7-3.141,7-7S11.86,1,8,1ZM7.511,11.324c.146-.011.28-.085.367-.202l3.76-5.108c.164-.223.116-.536-.106-.699-.223-.165-.536-.116-.699.105l-3.412,4.637-2.299-2.338c-.193-.197-.511-.199-.707-.006-.197.193-.2.51-.006.707l2.71,2.756c.094.096.223.149.356.149.012,0,.024,0,.036,0Z" fill="#b3b3b3"/></svg>