<?xml version="1.0" encoding="UTF-8"?><svg id="Artwork" xmlns="http://www.w3.org/2000/svg" viewBox="0 0 16 16"><path d="M13.725,7.795c3.361-3.387,2.021-7.038,1.963-7.192-.051-.132-.155-.236-.287-.287-.152-.061-3.78-1.411-7.144,1.979l-.444.448-4.189-.748c-.161-.029-.327.024-.443.14L.406,4.932c-.105.106-.157.254-.143.402.015.148.095.282.219.365l2.642,1.768-.683.689c-.193.195-.193.51,0,.705l4.758,4.797c.094.094.222.147.355.147s.261-.054.355-.147l.677-.682,1.75,2.656c.083.125.218.207.368.222.017.002.033.003.05.003.133,0,.261-.053.355-.147l2.776-2.798c.114-.115.165-.279.138-.439l-.742-4.227.446-.45ZM1.542,5.206l2.165-2.182,3.25.58-3.116,3.14-2.299-1.539ZM7.554,12.596l-4.055-4.087,5.467-5.51C11.45.495,14.057.966,14.822,1.179c.211.771.681,3.405-1.806,5.912l-5.461,5.506ZM12.992,12.391l-2.16,2.177-1.526-2.317,3.111-3.136.576,3.277ZM2.144,12.576l-1.291,1.286c-.098.097-.225.145-.353.145-.128,0-.256-.049-.354-.147-.195-.195-.194-.512.001-.707l1.291-1.286c.196-.194.512-.195.707.002.195.195.194.512-.001.707ZM4.233,13.95c.193.197.189.513-.009.707l-1.233,1.202c-.097.095-.223.142-.349.142-.13,0-.26-.051-.358-.151-.193-.197-.189-.513.009-.707l1.233-1.202c.198-.192.515-.187.707.01ZM12.842,3.785c0,.36-.292.652-.652.652s-.652-.292-.652-.652.292-.652.652-.652.652.292.652.652Z" fill="#b3b3b3"/></svg>