<?xml version="1.0" encoding="UTF-8"?><svg id="uuid-99958da5-ce00-4d55-a98f-36f838f086b6" xmlns="http://www.w3.org/2000/svg" viewBox="0 0 16 16"><path d="M16,2.5c0,.385-.15.734-.39,1,.24.266.39.615.39,1v7c0,.385-.15.734-.39,1,.24.266.39.615.39,1v2c0,.276-.224.5-.5.5s-.5-.224-.5-.5v-2c0-.275-.225-.5-.5-.5h-7c-.275,0-.5.225-.5.5v2c0,.276-.224.5-.5.5s-.5-.224-.5-.5v-2c0-.385.15-.734.39-1-.24-.266-.39-.615-.39-1v-1c0-.276.224-.5.5-.5s.5.224.5.5v1c0,.275.225.5.5.5h7c.275,0,.5-.225.5-.5v-7c0-.275-.225-.5-.5-.5h-4c-.276,0-.5-.224-.5-.5s.224-.5.5-.5h4c.275,0,.5-.225.5-.5V.5c0-.276.224-.5.5-.5s.5.224.5.5v2ZM4.5,9C2.019,9,0,6.981,0,4.5S2.019,0,4.5,0s4.5,2.019,4.5,4.5-2.019,4.5-4.5,4.5ZM8,4.5c0-1.93-1.57-3.5-3.5-3.5s-3.5,1.57-3.5,3.5,1.57,3.5,3.5,3.5,3.5-1.57,3.5-3.5ZM4.854,3.25c-.195-.195-.512-.195-.707,0l-1.5,1.5c-.195.195-.195.512,0,.707s.512.195.707,0l1.146-1.146,1.146,1.146c.098.098.226.146.354.146s.256-.049.354-.146c.195-.195.195-.512,0-.707l-1.5-1.5Z" fill="#b3b3b3"/></svg>