<?xml version="1.0" encoding="UTF-8"?><svg id="uuid-9fb9aa8c-a748-4e3d-9170-5ea7cec0011e" xmlns="http://www.w3.org/2000/svg" viewBox="0 0 16 16"><path d="M16,1.5c0-.827-.673-1.5-1.5-1.5h-5c-.276,0-.5.224-.5.5s.224.5.5.5h5c.275,0,.5.225.5.5v1c0,.275-.225.5-.5.5h-3.63c-.276,0-.5.224-.5.5s.224.5.5.5h3.63c.275,0,.5.225.5.5v1c0,.275-.225.5-.5.5h-3.839c-.276,0-.5.224-.5.5s.224.5.5.5h3.839c.275,0,.5.225.5.5v1c0,.275-.225.5-.5.5h-6.167c-.276,0-.5.224-.5.5s.224.5.5.5h6.167c.275,0,.5.225.5.5v1c0,.275-.225.5-.5.5h-7c-.275,0-.5-.225-.5-.5v-.876c0-.276-.224-.5-.5-.5s-.5.224-.5.5v.876c0,.385.15.734.39,1-.24.266-.39.615-.39,1v1c0,.827.673,1.5,1.5,1.5h7c.827,0,1.5-.673,1.5-1.5v-1c0-.385-.15-.734-.39-1,.24-.266.39-.615.39-1v-1c0-.385-.15-.734-.39-1,.24-.266.39-.615.39-1v-1c0-.385-.15-.734-.39-1,.24-.266.39-.615.39-1v-1c0-.385-.15-.734-.39-1,.24-.266.39-.615.39-1v-1ZM15,14.5c0,.275-.225.5-.5.5h-7c-.275,0-.5-.225-.5-.5v-1c0-.275.225-.5.5-.5h7c.275,0,.5.225.5.5v1ZM9,4.5C9,2.019,6.981,0,4.5,0S0,2.019,0,4.5s2.019,4.5,4.5,4.5,4.5-2.019,4.5-4.5ZM4.5,8c-1.93,0-3.5-1.57-3.5-3.5s1.57-3.5,3.5-3.5,3.5,1.57,3.5,3.5-1.57,3.5-3.5,3.5ZM6.354,3.722c.195.195.195.512,0,.707l-1.5,1.5c-.098.098-.226.146-.354.146s-.256-.049-.354-.146l-1.5-1.5c-.195-.195-.195-.512,0-.707s.512-.195.707,0l1.146,1.146,1.146-1.146c.195-.195.512-.195.707,0Z" fill="#b3b3b3"/></svg>