<?xml version="1.0" encoding="UTF-8"?><svg id="Artwork" xmlns="http://www.w3.org/2000/svg" viewBox="0 0 16 16"><path d="M8,15.5c0,.276-.224.5-.5.5H1.5c-.827,0-1.5-.673-1.5-1.5V1.5C0,.673.673,0,1.5,0h10c.827,0,1.5.673,1.5,1.5v7c0,.276-.224.5-.5.5s-.5-.224-.5-.5V1.5c0-.275-.224-.5-.5-.5H1.5c-.276,0-.5.225-.5.5v13c0,.275.224.5.5.5h6c.276,0,.5.224.5.5ZM9.5,3H3.5c-.276,0-.5.224-.5.5s.224.5.5.5h6c.276,0,.5-.224.5-.5s-.224-.5-.5-.5ZM9.5,5H3.5c-.276,0-.5.224-.5.5s.224.5.5.5h6c.276,0,.5-.224.5-.5s-.224-.5-.5-.5ZM10,7.5c0-.276-.224-.5-.5-.5H3.5c-.276,0-.5.224-.5.5s.224.5.5.5h6c.276,0,.5-.224.5-.5ZM8,9.5c0-.276-.224-.5-.5-.5H3.5c-.276,0-.5.224-.5.5s.224.5.5.5h4c.276,0,.5-.224.5-.5ZM3.5,11c-.276,0-.5.224-.5.5s.224.5.5.5h3c.276,0,.5-.224.5-.5s-.224-.5-.5-.5h-3ZM16,13c0,.822-1.817,3-4,3s-4-2.178-4-3c0-.766,1.58-2.684,3.56-2.948.142-.032.289-.052.44-.052s.298.02.44.052c1.979.264,3.56,2.182,3.56,2.948ZM12,11c-.551,0-1,.448-1,1s.449,1,1,1,1-.448,1-1-.449-1-1-1ZM14.994,13c-.073-.231-.455-.749-1.014-1.2.007.067.02.131.02.2,0,1.103-.897,2-2,2s-2-.897-2-2c0-.067.013-.131.02-.197-.585.472-.978,1.016-1.022,1.228.085.344,1.424,1.969,3.002,1.969,1.54,0,2.852-1.548,2.994-2Z" fill="#b3b3b3"/></svg>