<?xml version="1.0" encoding="UTF-8"?><svg id="Artwork" xmlns="http://www.w3.org/2000/svg" viewBox="0 0 16 16"><path d="M14.5,0H1.5C.673,0,0,.673,0,1.5v13c0,.827.673,1.5,1.5,1.5h10c.133,0,.26-.053.354-.146l4-4c.094-.094.146-.221.146-.354V1.5C16,.673,15.327,0,14.5,0ZM12,14.293v-2.293h2.293l-2.293,2.293ZM15,11.293l-.035.035c-.071-.19-.25-.328-.465-.328h-3c-.276,0-.5.224-.5.5v3c0,.215.137.395.328.465l-.035.035H1.5c-.275,0-.5-.225-.5-.5V1.5c0-.275.225-.5.5-.5h13c.275,0,.5.225.5.5v9.793ZM13,3.5c0,.276-.224.5-.5.5H3.5c-.276,0-.5-.224-.5-.5s.224-.5.5-.5h9c.276,0,.5.224.5.5ZM12,5.5c0,.276-.224.5-.5.5H3.5c-.276,0-.5-.224-.5-.5s.224-.5.5-.5h8c.276,0,.5.224.5.5ZM3,7.5c0-.276.224-.5.5-.5h5c.276,0,.5.224.5.5s-.224.5-.5.5H3.5c-.276,0-.5-.224-.5-.5ZM10,9.5c0,.276-.224.5-.5.5H3.5c-.276,0-.5-.224-.5-.5s.224-.5.5-.5h6c.276,0,.5.224.5.5ZM7,11.5c0,.276-.224.5-.5.5h-3c-.276,0-.5-.224-.5-.5s.224-.5.5-.5h3c.276,0,.5.224.5.5Z" fill="#b3b3b3"/></svg>