<?xml version="1.0" encoding="UTF-8"?><svg id="Artwork" xmlns="http://www.w3.org/2000/svg" viewBox="0 0 16 16"><path d="M3.615,16c-.31,0-.622-.04-.929-.122-.931-.246-1.71-.841-2.194-1.674C.007,13.369-.125,12.396.121,11.468c.243-.915.854-1.714,1.677-2.193l2.282-1.327c.238-.14.544-.059.684.182.139.238.058.545-.181.683l-2.281,1.326c-.596.347-1.038.925-1.213,1.585-.175.661-.077,1.382.269,1.978.349.601.912,1.031,1.585,1.209.673.181,1.375.084,1.975-.266l3.222-1.874c.238-.139.545-.058.684.182.139.238.058.544-.181.683l-3.222,1.874c-.558.323-1.177.489-1.805.489ZM13.434,8.689l2-3.144c.511-.805.686-1.796.481-2.719-.206-.925-.784-1.748-1.588-2.259-.811-.517-1.775-.686-2.717-.477-.94.209-1.742.77-2.259,1.583l-1.33,2.091c-.148.233-.08.542.154.69.232.147.541.079.69-.153l1.33-2.091c.373-.587.953-.993,1.633-1.144.681-.149,1.378-.027,1.963.346.582.37,1,.965,1.148,1.633.148.667.021,1.384-.349,1.966l-2,3.144c-.148.233-.08.542.153.69.083.053.176.078.268.078.166,0,.327-.082.422-.231ZM13.611,15.913c.228-.154.289-.465.135-.693l-2.794-4.143,4.305,2.392c.24.132.546.047.68-.194.134-.242.047-.546-.194-.681l-6.129-3.405c-.202-.111-.455-.072-.611.1-.156.17-.175.426-.046.617l3.96,5.872c.097.144.254.221.415.221.096,0,.193-.027.279-.086ZM7.495,7.638c.18-.15.232-.405.125-.613L4.151.273c-.126-.246-.428-.346-.673-.216-.246.126-.342.427-.216.673l2.442,4.752L.808,1.695c-.218-.168-.532-.129-.702.09-.169.218-.129.532.089.701l6.673,5.163c.09.069.198.104.306.104.114,0,.227-.039.32-.115Z" fill="#b3b3b3"/></svg>