<?xml version="1.0" encoding="UTF-8"?><svg id="Layer_2" xmlns="http://www.w3.org/2000/svg" viewBox="0 0 131.105 60.4"><g id="Layer_1-2"><path d="M36.947,28.473c0,1.613.174,2.921.48,3.881.349.959.785,2.006,1.395,3.139.218.349.305.698.305,1.003,0,.436-.262.872-.828,1.308l-2.747,1.831c-.392.262-.785.392-1.134.392-.436,0-.872-.218-1.308-.61-.61-.654-1.134-1.352-1.57-2.049-.436-.741-.872-1.57-1.352-2.573-3.401,4.012-7.674,6.017-12.82,6.017-3.663,0-6.584-1.046-8.721-3.139-2.137-2.093-3.227-4.884-3.227-8.372,0-3.706,1.308-6.715,3.968-8.982,2.66-2.267,6.192-3.401,10.683-3.401,1.483,0,3.009.131,4.622.349s3.27.567,5.014.959v-3.183c0-3.314-.698-5.625-2.049-6.977-1.395-1.352-3.75-2.006-7.107-2.006-1.526,0-3.096.174-4.709.567s-3.183.872-4.709,1.483c-.698.305-1.221.48-1.526.567-.305.087-.523.131-.698.131-.61,0-.916-.436-.916-1.352v-2.137c0-.698.087-1.221.305-1.526s.61-.61,1.221-.916c1.526-.785,3.358-1.439,5.494-1.962,2.137-.567,4.404-.828,6.802-.828,5.189,0,8.982,1.177,11.424,3.532,2.398,2.355,3.619,5.93,3.619,10.727v14.128h.087ZM19.243,35.101c1.439,0,2.921-.262,4.491-.785,1.57-.523,2.965-1.483,4.142-2.791.698-.828,1.221-1.744,1.483-2.791s.436-2.311.436-3.794v-1.831c-1.265-.305-2.616-.567-4.012-.741s-2.747-.262-4.099-.262c-2.921,0-5.058.567-6.497,1.744-1.439,1.177-2.137,2.834-2.137,5.014,0,2.049.523,3.576,1.613,4.622,1.046,1.09,2.573,1.613,4.578,1.613ZM54.257,39.81c-.785,0-1.308-.131-1.657-.436-.349-.262-.654-.872-.916-1.701L41.438,3.968c-.262-.872-.392-1.439-.392-1.744,0-.698.349-1.09,1.046-1.09h4.273c.828,0,1.395.131,1.701.436.349.262.61.872.872,1.701l7.325,28.866,6.802-28.866c.218-.872.48-1.439.828-1.701.349-.262.959-.436,1.744-.436h3.488c.828,0,1.395.131,1.744.436.349.262.654.872.828,1.701l6.889,29.215,7.543-29.215c.262-.872.567-1.439.872-1.701.349-.262.916-.436,1.701-.436h4.055c.698,0,1.09.349,1.09,1.09,0,.218-.044.436-.087.698-.044.262-.131.61-.305,1.09l-10.509,33.706c-.262.872-.567,1.439-.916,1.701s-.916.436-1.657.436h-3.75c-.828,0-1.395-.131-1.744-.436s-.654-.872-.828-1.744l-6.759-28.125-6.715,28.081c-.218.872-.48,1.439-.828,1.744-.349.305-.959.436-1.744.436h-3.75ZM110.289,40.988c-2.267,0-4.535-.262-6.715-.785-2.18-.523-3.881-1.09-5.014-1.744-.698-.392-1.177-.828-1.352-1.221-.174-.392-.262-.828-.262-1.221v-2.224c0-.916.349-1.352,1.003-1.352.262,0,.523.044.785.131.262.087.654.262,1.09.436,1.483.654,3.096,1.177,4.796,1.526,1.744.349,3.445.523,5.189.523,2.747,0,4.884-.48,6.366-1.439,1.483-.959,2.267-2.355,2.267-4.142,0-1.221-.392-2.224-1.177-3.052-.785-.828-2.267-1.57-4.404-2.267l-6.323-1.962c-3.183-1.003-5.538-2.485-6.977-4.448-1.439-1.919-2.18-4.055-2.18-6.323,0-1.831.392-3.445,1.177-4.84.785-1.395,1.831-2.616,3.139-3.576,1.308-1.003,2.791-1.744,4.535-2.267,1.744-.523,3.576-.741,5.494-.741.959,0,1.962.044,2.921.174,1.003.131,1.919.305,2.834.48.872.218,1.701.436,2.485.698.785.262,1.395.523,1.831.785.61.349,1.046.698,1.308,1.09.262.349.392.828.392,1.439v2.049c0,.916-.349,1.395-1.003,1.395-.349,0-.916-.174-1.657-.523-2.485-1.134-5.276-1.701-8.372-1.701-2.485,0-4.448.392-5.799,1.221s-2.049,2.093-2.049,3.881c0,1.221.436,2.267,1.308,3.096.872.828,2.485,1.657,4.796,2.398l6.192,1.962c3.139,1.003,5.407,2.398,6.759,4.186,1.352,1.788,2.006,3.837,2.006,6.105,0,1.875-.392,3.576-1.134,5.058-.785,1.483-1.831,2.791-3.183,3.837-1.352,1.09-2.965,1.875-4.84,2.442-1.962.61-4.012.916-6.235.916Z" fill="#252f3e" stroke-width="0"/><path d="M118.53,62.179c-14.346,10.596-35.188,16.221-53.11,16.221-25.116,0-47.746-9.288-64.839-24.723-1.352-1.221-.131-2.878,1.483-1.919,18.488,10.727,41.293,17.224,64.883,17.224,15.915,0,33.401-3.314,49.491-10.116,2.398-1.09,4.448,1.57,2.093,3.314Z" fill="#f90" fill-rule="evenodd" stroke-width="0"/><path d="M124.503,55.377c-1.831-2.355-12.122-1.134-16.788-.567-1.395.174-1.613-1.046-.349-1.962,8.198-5.756,21.671-4.099,23.241-2.18,1.57,1.962-.436,15.436-8.11,21.889-1.177,1.003-2.311.48-1.788-.828,1.744-4.317,5.625-14.04,3.794-16.352Z" fill="#f90" fill-rule="evenodd" stroke-width="0"/></g></svg>
