<?xml version="1.0" encoding="UTF-8"?><svg id="Layer_2" xmlns="http://www.w3.org/2000/svg" xmlns:xlink="http://www.w3.org/1999/xlink" viewBox="0 0 84.449 79.574"><defs><linearGradient id="linear-gradient" x1="-1230.769" y1="1005.891" x2="-1247.379" y2="1054.958" gradientTransform="translate(1960.338 -1565.806) scale(1.562)" gradientUnits="userSpaceOnUse"><stop offset="0" stop-color="#114a8b"/><stop offset="1" stop-color="#0669bc"/></linearGradient><linearGradient id="linear-gradient-2" x1="-1225.581" y1="1028.757" x2="-1229.423" y2="1030.056" gradientTransform="translate(1960.338 -1565.806) scale(1.562)" gradientUnits="userSpaceOnUse"><stop offset="0" stop-color="#000" stop-opacity=".3"/><stop offset=".071" stop-color="#000" stop-opacity=".2"/><stop offset=".321" stop-color="#000" stop-opacity=".1"/><stop offset=".623" stop-color="#000" stop-opacity=".05"/><stop offset="1" stop-color="#000" stop-opacity="0"/></linearGradient><linearGradient id="linear-gradient-3" x1="-1227.575" y1="1004.415" x2="-1209.343" y2="1052.988" gradientTransform="translate(1960.338 -1565.806) scale(1.562)" gradientUnits="userSpaceOnUse"><stop offset="0" stop-color="#3ccbf4"/><stop offset="1" stop-color="#2892df"/></linearGradient></defs><g id="Layer_1-2"><path d="M28.153,0h24.989l-25.941,76.861c-.547,1.619-2.065,2.71-3.775,2.71H3.979C1.781,79.573,0,77.792,0,75.595c0-.433.07-.862.209-1.272L24.377,2.711C24.924,1.091,26.443,0,28.153,0h0Z" fill="url(#linear-gradient)" stroke-width="0"/><path d="M64.466,51.554H24.839c-1.013-.001-1.835.819-1.836,1.832,0,.51.211.996.584,1.344l25.463,23.767c.741.692,1.718,1.076,2.731,1.076h22.438l-9.754-28.018Z" fill="#0078d4" stroke-width="0"/><path d="M28.153,0c-1.73-.007-3.264,1.113-3.784,2.763L.238,74.258c-.741,2.065.333,4.341,2.398,5.082.434.156.892.235,1.352.233h19.95c1.513-.27,2.763-1.334,3.273-2.783l4.812-14.182,17.189,16.032c.72.596,1.624.925,2.559.933h22.355l-9.805-28.018-28.582.007L53.232,0h-25.079Z" fill="url(#linear-gradient-2)" stroke-width="0"/><path d="M60.07,2.707C59.525,1.09,58.008,0,56.301,0h-27.85c1.707,0,3.224,1.089,3.77,2.706l24.17,71.615c.703,2.082-.415,4.34-2.497,5.043-.41.138-.84.209-1.272.209h27.851c2.198,0,3.978-1.783,3.978-3.98,0-.432-.071-.862-.209-1.271L60.07,2.707Z" fill="url(#linear-gradient-3)" stroke-width="0"/></g></svg>