<svg width="29.2" viewBox="0 0 29.2 99.9" xmlns="http://www.w3.org/2000/svg"  preserveAspectRatio="none" ><g id="svgGroup" stroke-linecap="round" fill-rule="evenodd" font-size="9pt" stroke="#773dbe" stroke-width="0.25mm" fill="none" style="stroke:#773dbe;stroke-width:0.25mm;fill:none"><path d="M 0.7 50.8 L 0 50.8 L 0 49.1 A 16.087 16.087 0 0 0 4.661 48.484 Q 9.784 46.932 11.125 41.467 A 18.368 18.368 0 0 0 11.6 37.1 L 11.6 13.6 A 18.889 18.889 0 0 1 11.875 10.286 Q 12.217 8.369 12.983 6.802 A 11.159 11.159 0 0 1 13.3 6.2 Q 16.216 1.035 23.919 0.173 A 29.53 29.53 0 0 1 27.2 0 Q 28.2 0 29.2 0.1 L 29.2 1.8 L 28.6 1.8 Q 24.2 1.8 20.9 4.85 A 8.469 8.469 0 0 0 18.889 7.82 Q 17.6 10.863 17.6 15.8 L 17.6 36.8 A 17.567 17.567 0 0 1 16.923 41.867 Q 15.229 47.495 9.302 49.595 A 17.944 17.944 0 0 1 8 50 Q 17.6 52.4 17.6 63.1 L 17.6 84.1 A 30.165 30.165 0 0 0 17.836 88.031 Q 18.56 93.514 21.5 95.7 Q 24.7 98.1 28.5 98.1 L 29.2 98.1 L 29.2 99.8 Q 28.516 99.868 27.599 99.89 A 38.229 38.229 0 0 1 26.7 99.9 Q 25.68 99.9 24.314 99.738 A 37.835 37.835 0 0 1 22.95 99.55 A 15.949 15.949 0 0 1 20.945 99.095 Q 19.498 98.673 17.85 97.95 A 9.352 9.352 0 0 1 13.889 94.637 A 11.953 11.953 0 0 1 13.3 93.7 A 12.494 12.494 0 0 1 11.974 90.118 Q 11.647 88.582 11.606 86.811 A 22.15 22.15 0 0 1 11.6 86.3 L 11.6 65.3 A 26.851 26.851 0 0 0 11.133 60.049 Q 9.478 51.79 1.963 50.897 A 15.526 15.526 0 0 0 0.7 50.8 Z" vector-effect="non-scaling-stroke"/></g></svg>
