<svg width="252" height="264" viewBox="0 0 252 264" fill="none" xmlns="http://www.w3.org/2000/svg">
    <path d="M236.83 67.4729C235.15 57.4729 226.47 49.8329 215.99 49.8329C212.24 49.8329 208.72 50.8229 205.67 52.5329C200.5 45.6229 192.26 41.1429 182.96 41.1429C181.44 41.1429 179.95 41.2729 178.49 41.5029C170.79 19.2229 149.65 3.21289 124.76 3.21289C111.27 3.21289 98.8799 7.91289 89.1399 15.7629C81.2899 22.0829 75.1399 30.4629 71.5299 40.0629C69.1199 39.1429 66.4999 38.6429 63.7699 38.6429C54.4899 38.6429 46.5499 44.3929 43.3299 52.5329C41.3799 52.0929 39.3499 51.8429 37.2699 51.8429C22.7799 51.8429 10.9299 63.1129 9.96989 77.3529C4.57989 81.7029 1.13989 88.3629 1.13989 95.8229C1.13989 108.933 11.7599 119.553 24.8699 119.553C25.4599 119.553 26.0399 119.523 26.6199 119.483C27.5699 124.763 29.7399 129.623 32.8399 133.763C39.0399 142.093 48.9699 147.493 60.1599 147.493C65.3399 147.493 70.2399 146.333 74.6299 144.273C82.3299 154.043 94.2599 160.323 107.67 160.323C113.35 160.323 118.77 159.193 123.72 157.143C129.14 159.583 135.15 160.953 141.49 160.953C154.46 160.953 166.1 155.243 174.05 146.213C178.7 148.813 184.06 150.293 189.77 150.293C205.69 150.293 218.92 138.763 221.56 123.583C229.99 121.523 236.66 115.003 238.94 106.653C245.99 103.173 250.86 95.9229 250.86 87.5229C250.86 78.3029 245.01 70.4729 236.83 67.4729Z" stroke="#D1A7FF" stroke-width="2" stroke-linecap="round" stroke-linejoin="round"/>
    <path d="M20.3198 81.3831C20.3198 68.9931 30.3598 58.9531 42.7498 58.9531C45.0398 58.9531 47.2498 59.2931 49.3298 59.9331" stroke="#D1A7FF" stroke-width="2" stroke-linecap="round" stroke-linejoin="round"/>
    <path d="M49.3298 59.9329C52.2698 54.9929 57.6498 51.6929 63.8098 51.6929C69.1718 51.6929 73.9528 54.2029 77.0398 58.1109" stroke="#D1A7FF" stroke-width="2" stroke-linecap="round" stroke-linejoin="round"/>
    <path d="M200.292 69.5649C203.309 66.5419 207.48 64.6709 212.088 64.6709C221.291 64.6709 228.751 72.1309 228.751 81.3339" stroke="#D1A7FF" stroke-width="2" stroke-linecap="round" stroke-linejoin="round"/>
    <path d="M46.958 13.389C53.8 13.389 59.347 18.936 59.347 25.778C59.347 18.936 64.894 13.389 71.736 13.389C64.894 13.389 59.347 7.842 59.347 1C59.347 7.842 53.8 13.389 46.958 13.389Z" stroke="#D1A7FF" stroke-width="2" stroke-linecap="round" stroke-linejoin="round"/>
    <path d="M21.2729 34.9369C25.9539 34.9369 29.7479 38.7319 29.7479 43.4119C29.7479 38.7309 33.543 34.9369 38.2229 34.9369C33.5419 34.9369 29.7479 31.1419 29.7479 26.4619C29.7479 31.1429 25.9529 34.9369 21.2729 34.9369Z" stroke="#D1A7FF" stroke-width="2" stroke-linecap="round" stroke-linejoin="round"/>
    <path d="M206.047 25.7782C210.728 25.7782 214.522 29.5732 214.522 34.2532C214.522 29.5722 218.317 25.7782 222.997 25.7782C218.316 25.7782 214.522 21.9832 214.522 17.3032C214.522 21.9842 210.727 25.7782 206.047 25.7782Z" stroke="#D1A7FF" stroke-width="2" stroke-linecap="round" stroke-linejoin="round"/>
    <path d="M187.987 33.015C191.528 33.015 194.399 35.886 194.399 39.427C194.399 35.886 197.27 33.015 200.811 33.015C197.27 33.015 194.399 30.144 194.399 26.603C194.399 30.144 191.528 33.015 187.987 33.015Z" stroke="#D1A7FF" stroke-width="2" stroke-linecap="round" stroke-linejoin="round"/>
    <path d="M25.354 166.105C28.895 166.105 31.766 168.976 31.766 172.517C31.766 168.976 34.637 166.105 38.178 166.105C34.637 166.105 31.766 163.234 31.766 159.693C31.766 163.234 28.895 166.105 25.354 166.105Z" stroke="#D1A7FF" stroke-width="2" stroke-linecap="round" stroke-linejoin="round"/>
    <path d="M198.514 171.712C202.055 171.712 204.926 174.583 204.926 178.124C204.926 174.583 207.797 171.712 211.338 171.712C207.797 171.712 204.926 168.841 204.926 165.3C204.926 168.841 202.055 171.712 198.514 171.712Z" stroke="#D1A7FF" stroke-width="2" stroke-linecap="round" stroke-linejoin="round"/>
    <path d="M215.801 158.395C219.922 158.395 223.262 161.736 223.262 165.856C223.262 161.735 226.603 158.395 230.723 158.395C226.602 158.395 223.262 155.054 223.262 150.934C223.262 155.055 219.921 158.395 215.801 158.395Z" stroke="#D1A7FF" stroke-width="2" stroke-linecap="round" stroke-linejoin="round"/>
    <path d="M5.57788 145.079C10.5319 145.079 14.5469 149.095 14.5469 154.048C14.5469 149.094 18.5629 145.079 23.5159 145.079C18.5619 145.079 14.5469 141.063 14.5469 136.11C14.5469 141.064 10.5309 145.079 5.57788 145.079Z" stroke="#D1A7FF" stroke-width="2" stroke-linecap="round" stroke-linejoin="round"/>
    <path d="M186.051 172.652H61.7709C58.6101 172.652 56.0479 175.214 56.0479 178.375V211.682C56.0479 214.843 58.6101 217.405 61.7709 217.405H186.051C189.212 217.405 191.774 214.843 191.774 211.682V178.375C191.774 175.214 189.212 172.652 186.051 172.652Z" stroke="#D1A7FF" stroke-width="2" stroke-linecap="round" stroke-linejoin="round"/>
    <path d="M183.077 180.111H65.2209V210.66H183.077V180.111Z" stroke="#D1A7FF" stroke-width="2" stroke-linecap="round" stroke-linejoin="round"/>
    <path d="M82.33 193.638V201.942H69.782V188.829H74.675" stroke="#D1A7FF" stroke-width="2" stroke-linecap="round" stroke-linejoin="round"/>
    <path d="M108.472 189.665H94.323V193.524H108.472V189.665Z" stroke="#D1A7FF" stroke-width="2" stroke-linecap="round" stroke-linejoin="round"/>
    <path d="M101.47 189.732V193.518" stroke="#D1A7FF" stroke-width="2" stroke-linecap="round" stroke-linejoin="round"/>
    <path d="M108.403 197.248H94.2539V201.107H108.403V197.248Z" stroke="#D1A7FF" stroke-width="2" stroke-linecap="round" stroke-linejoin="round"/>
    <path d="M101.401 197.315V201.102" stroke="#D1A7FF" stroke-width="2" stroke-linecap="round" stroke-linejoin="round"/>
    <path d="M128.097 189.665H113.948V193.524H128.097V189.665Z" stroke="#D1A7FF" stroke-width="2" stroke-linecap="round" stroke-linejoin="round"/>
    <path d="M121.094 189.732V193.518" stroke="#D1A7FF" stroke-width="2" stroke-linecap="round" stroke-linejoin="round"/>
    <path d="M128.028 197.248H113.879V201.107H128.028V197.248Z" stroke="#D1A7FF" stroke-width="2" stroke-linecap="round" stroke-linejoin="round"/>
    <path d="M121.025 197.315V201.102" stroke="#D1A7FF" stroke-width="2" stroke-linecap="round" stroke-linejoin="round"/>
    <path d="M179.722 184.293H174.722V189.293H179.722V184.293Z" stroke="#D1A7FF" stroke-width="2" stroke-linecap="round" stroke-linejoin="round"/>
    <path d="M179.366 201.917H174.366V206.917H179.366V201.917Z" stroke="#D1A7FF" stroke-width="2" stroke-linecap="round" stroke-linejoin="round"/>
    <path d="M101.184 160.04C106.584 164.738 107.298 169.822 107.298 172.512C108.398 166.154 110.11 161.263 113.534 159.918" stroke="#D1A7FF" stroke-width="2" stroke-linecap="round" stroke-linejoin="round"/>
    <path d="M133.832 160.85C139.232 165.266 139.946 170.044 139.946 172.572C141.046 166.596 142.758 161.999 146.182 160.735" stroke="#D1A7FF" stroke-width="2" stroke-linecap="round" stroke-linejoin="round"/>
    <path d="M186.051 217.993H61.7709C58.6101 217.993 56.0479 220.555 56.0479 223.716V257.023C56.0479 260.184 58.6101 262.746 61.7709 262.746H186.051C189.212 262.746 191.774 260.184 191.774 257.023V223.716C191.774 220.555 189.212 217.993 186.051 217.993Z" stroke="#D1A7FF" stroke-width="2" stroke-linecap="round" stroke-linejoin="round"/>
    <path d="M183.077 225.453H65.2209V256.002H183.077V225.453Z" stroke="#D1A7FF" stroke-width="2" stroke-linecap="round" stroke-linejoin="round"/>
    <path d="M82.33 238.979V247.284H69.782V234.171H74.675" stroke="#D1A7FF" stroke-width="2" stroke-linecap="round" stroke-linejoin="round"/>
    <path d="M108.472 235.006H94.323V238.865H108.472V235.006Z" stroke="#D1A7FF" stroke-width="2" stroke-linecap="round" stroke-linejoin="round"/>
    <path d="M101.47 235.073V238.86" stroke="#D1A7FF" stroke-width="2" stroke-linecap="round" stroke-linejoin="round"/>
    <path d="M108.403 242.59H94.2539V246.449H108.403V242.59Z" stroke="#D1A7FF" stroke-width="2" stroke-linecap="round" stroke-linejoin="round"/>
    <path d="M101.401 242.657V246.443" stroke="#D1A7FF" stroke-width="2" stroke-linecap="round" stroke-linejoin="round"/>
    <path d="M128.097 235.006H113.948V238.865H128.097V235.006Z" stroke="#D1A7FF" stroke-width="2" stroke-linecap="round" stroke-linejoin="round"/>
    <path d="M121.094 235.073V238.86" stroke="#D1A7FF" stroke-width="2" stroke-linecap="round" stroke-linejoin="round"/>
    <path d="M128.028 242.59H113.879V246.449H128.028V242.59Z" stroke="#D1A7FF" stroke-width="2" stroke-linecap="round" stroke-linejoin="round"/>
    <path d="M121.025 242.657V246.443" stroke="#D1A7FF" stroke-width="2" stroke-linecap="round" stroke-linejoin="round"/>
    <path d="M179.722 229.635H174.722V234.635H179.722V229.635Z" stroke="#D1A7FF" stroke-width="2" stroke-linecap="round" stroke-linejoin="round"/>
    <path d="M179.366 247.258H174.366V252.258H179.366V247.258Z" stroke="#D1A7FF" stroke-width="2" stroke-linecap="round" stroke-linejoin="round"/>
    <path d="M38.054 87.0911C49.988 75.3071 67.176 69.3831 84.618 72.3131" stroke="#D1A7FF" stroke-width="2" stroke-linecap="round" stroke-linejoin="round"/>
    <path d="M84.6179 72.3131C90.1069 54.3901 108.742 43.7371 127.122 48.3511C136.191 50.6281 143.852 56.2931 148.717 63.6081" stroke="#D1A7FF" stroke-width="2" stroke-linecap="round" stroke-linejoin="round"/>
    <path d="M148.716 63.6082C151.714 62.9592 154.896 62.9742 158.058 63.7672C169.086 66.5352 175.783 77.7232 173.015 88.7512" stroke="#D1A7FF" stroke-width="2" stroke-linecap="round" stroke-linejoin="round"/>
    <path d="M50.8699 90.391C56.8489 78.608 72.8219 73.281 84.7659 72.797C91.8679 63.274 106.879 48.424 128.347 56.172C113.337 57.494 101.753 65.572 95.6089 78.283C90.1929 89.488 67.9789 78.446 50.8699 90.391Z" fill="#F3EBFC"/>
</svg>
