<?xml version="1.0" encoding="UTF-8"?><svg id="Layer_2" xmlns="http://www.w3.org/2000/svg" viewBox="0 0 105.865 85.155"><g id="Layer_1-2"><path d="M67.37,23.535l3.391.058,9.214-9.214.447-3.904C73.113,3.965,63.464,0,52.921,0,33.832,0,17.721,12.988,12.952,30.582c1.006-.701,3.156-.175,3.156-.175l18.411-3.027s.946-1.566,1.426-1.489c4.353-4.782,10.521-7.507,16.988-7.505,5.459.012,10.487,1.94,14.437,5.131v.018Z" fill="#ea4335" stroke-width="0"/><path d="M92.913,30.618c-2.139-7.89-6.547-14.857-12.497-20.142l-13.046,13.046c5.227,4.218,8.58,10.672,8.58,17.898v2.303c6.347,0,11.503,5.168,11.503,11.503s-5.168,11.503-11.503,11.503h-23.006l-2.303,2.316v13.805l2.303,2.291h23.006c16.512-.023,29.891-13.402,29.915-29.913-.012-10.181-5.128-19.188-12.952-24.607v-.002Z" fill="#4285f4" stroke-width="0"/><path d="M29.915,85.155h22.992v-18.427h-22.992c-1.634,0-3.248-.351-4.734-1.029l-3.32,1.017-9.214,9.214-.807,3.11c5.192,3.961,11.543,6.105,18.073,6.102l.002.013Z" fill="#34a853" stroke-width="0"/><path d="M29.915,25.325C13.403,25.348.024,38.727,0,55.238c0,9.715,4.653,18.353,11.854,23.824l13.339-13.339c-4.124-1.86-6.777-5.962-6.78-10.486,0-6.347,5.168-11.503,11.503-11.503,4.665,0,8.674,2.812,10.487,6.782l13.339-13.339c-5.47-7.2-14.11-11.854-23.824-11.854h-.002Z" fill="#fbbc05" stroke-width="0"/></g></svg>