<svg xmlns="http://www.w3.org/2000/svg" viewBox="0 0 120 120"><path d="M60,0a60,60,0,1,0,60,60A60,60,0,0,0,60,0ZM86.955,79.637a2.524,2.524,0,0,1-2.524,2.524h-48.8A2.524,2.524,0,0,1,33.1,79.637V79.63h0s0-9.2,6.721-12.543c4.253-2.115,2.616-.4,7.837-2.563a60.211,60.211,0,0,0,6.458-2.917l.049-4.984s-1.956-1.5-2.563-6.186c-1.224.354-1.628-1.436-1.7-2.576-.066-1.1-.708-4.54.784-4.23a30.493,30.493,0,0,1-.417-5.463c.375-3.851,4.084-7.874,9.8-8.168,6.72.293,9.382,4.314,9.755,8.165a30.679,30.679,0,0,1-.436,5.461c1.493-.306.844,3.127.771,4.228-.066,1.14-.479,2.924-1.7,2.571C67.851,55.115,65.9,56.6,65.9,56.6l.046,4.959s1.236.706,6.457,2.868,3.584.546,7.837,2.663c6.721,3.344,6.721,12.541,6.721,12.541h0Z" fill="var(--main-color)"/></svg>
