<?xml version="1.0" encoding="UTF-8"?>
<svg id="LOGOS" xmlns="http://www.w3.org/2000/svg" version="1.1" height="32" viewBox="0 0 839.5 260.2">
  <defs>
    <style>
      .st0 {
        fill: #fff;
      }

      .st1 {
        fill: #773dbe;
      }
    </style>
  </defs>
  <g>
    <g>
      <path d="M215.1,53.9h42.5c3.1,0,5.7,2.5,5.7,5.7v42.5c0,5.1-6.1,7.6-9.7,4l-42.5-42.5c-3.6-3.6-1-9.7,4-9.7h0Z"/>
      <path d="M254.7,148.9l-93.2-93.3c-3.7-3.7-10.1-1.1-10.1,4.1v30.9c0,7.8,3.1,15.2,8.6,20.7l93.2,93.3c3.7,3.7,10.1,1.1,10.1-4.1v-30.9c0-7.8-3.1-15.2-8.6-20.7h0Z"/>
      <path d="M157.1,148.9L63.9,55.6c-3.7-3.7-10.1-1.1-10.1,4.1v30.9c0,7.8,3.1,15.2,8.6,20.7l93.2,93.3c3.7,3.7,10.1,1.1,10.1-4.1v-30.9c0-7.8-3.1-15.2-8.6-20.7h0Z"/>
    </g>
    <g>
      <path class="st1" d="M215.1,53.9h42.5c3.1,0,5.7,2.5,5.7,5.7v42.5c0,5.1-6.1,7.6-9.7,4l-42.5-42.5c-3.6-3.6-1-9.7,4-9.7h0Z"/>
      <path class="st1" d="M254.7,148.9l-93.2-93.3c-3.7-3.7-10.1-1.1-10.1,4.1v30.9c0,7.8,3.1,15.2,8.6,20.7l93.2,93.3c3.7,3.7,10.1,1.1,10.1-4.1v-30.9c0-7.8-3.1-15.2-8.6-20.7h0Z"/>
      <path class="st1" d="M157.1,148.9L63.9,55.6c-3.7-3.7-10.1-1.1-10.1,4.1v30.9c0,7.8,3.1,15.2,8.6,20.7l93.2,93.3c3.7,3.7,10.1,1.1,10.1-4.1v-30.9c0-7.8-3.1-15.2-8.6-20.7h0Z"/>
    </g>
  </g>
  <g>
    <g>
      <path class="st0" d="M742.4,83.1h-15.5l-43.2,93.9h21.1l10-21.9h39.2l9.9,21.9h21.6l-43.2-93.9h0ZM723.3,136.3l11.2-24.7,11.2,24.7h-22.4Z"/>
      <path class="st0" d="M647.6,83.1l-41.3,42.3v-42.3h-20v93.9h20v-25.5l12.4-12.4,30.5,37.9h25.4l-41.8-51.8,41.9-42.1h-27.1Z"/>
      <path class="st0" d="M509.9,139.2h46.3v-19h-46.3v-18.1h51.6v-19h-71.6v94h71.6v-19h-51.6v-18.8Z"/>
      <path class="st0" d="M434.6,141.4l-19.5-58.3h-15.3l-19.5,58.3-20.3-58.3h-21.4l33.8,93.9h15.3l19.5-56.6,19.4,56.6h15.4l33.8-93.9h-21l-20.3,58.3Z"/>
      <path class="st0" d="M785,94.8c.4-.5.5-1.2.5-2s-.2-1.4-.5-2c-.3-.5-.8-.9-1.4-1.2-.6-.3-1.1-.4-1.7-.4h-5.4v10.9h2.7v-3.7h2l1.8,3.7h3l-2.1-4.2c.5-.3.9-.6,1.2-1.1h0ZM779.2,91.2h2c.3,0,.7.1,1,.3.3.2.5.6.5,1.2s-.2,1-.5,1.3c-.3.3-.7.4-1.1.4h-1.9v-3.3h0Z"/>
      <path class="st0" d="M791.6,90.3c-.6-1.4-1.5-2.7-2.5-3.8-1.1-1.1-2.3-1.9-3.8-2.5-1.4-.6-2.9-.9-4.6-.9s-3.2.3-4.6.9c-1.4.6-2.7,1.4-3.8,2.5-1.1,1.1-1.9,2.3-2.5,3.8-.6,1.4-.9,2.9-.9,4.6s.3,3.2.9,4.6c.6,1.4,1.4,2.7,2.5,3.8,1.1,1.1,2.3,1.9,3.8,2.5,1.4.6,3,.9,4.6.9s3.2-.3,4.6-.9c1.4-.6,2.7-1.5,3.8-2.5,1.1-1.1,1.9-2.3,2.5-3.8.6-1.4.9-2.9.9-4.6s-.3-3.2-.9-4.6ZM788.3,99.3c-.8,1.3-1.8,2.4-3.2,3.2-1.3.8-2.8,1.2-4.4,1.2s-3.1-.4-4.4-1.2c-1.3-.8-2.4-1.8-3.2-3.2-.8-1.3-1.2-2.8-1.2-4.4s.4-3.1,1.2-4.4c.8-1.3,1.8-2.4,3.2-3.2,1.3-.8,2.8-1.2,4.4-1.2s3.1.4,4.4,1.2c1.3.8,2.4,1.8,3.2,3.2.8,1.3,1.2,2.8,1.2,4.4s-.4,3.1-1.2,4.4h0Z"/>
    </g>
    <g>
      <path d="M742.4,83.1h-15.5l-43.2,93.9h21.1l10-21.9h39.2l9.9,21.9h21.6l-43.2-93.9h0ZM723.3,136.3l11.2-24.7,11.2,24.7h-22.4Z"/>
      <path d="M647.6,83.1l-41.3,42.3v-42.3h-20v93.9h20v-25.5l12.4-12.4,30.5,37.9h25.4l-41.8-51.8,41.9-42.1h-27.1Z"/>
      <path d="M509.9,139.2h46.3v-19h-46.3v-18.1h51.6v-19h-71.6v94h71.6v-19h-51.6v-18.8Z"/>
      <path d="M434.6,141.4l-19.5-58.3h-15.3l-19.5,58.3-20.3-58.3h-21.4l33.8,93.9h15.3l19.5-56.6,19.4,56.6h15.4l33.8-93.9h-21l-20.3,58.3Z"/>
      <path d="M785,94.8c.4-.5.5-1.2.5-2s-.2-1.4-.5-2c-.3-.5-.8-.9-1.4-1.2-.6-.3-1.1-.4-1.7-.4h-5.4v10.9h2.7v-3.7h2l1.8,3.7h3l-2.1-4.2c.5-.3.9-.6,1.2-1.1h0ZM779.2,91.2h2c.3,0,.7.1,1,.3.3.2.5.6.5,1.2s-.2,1-.5,1.3c-.3.3-.7.4-1.1.4h-1.9v-3.3h0Z"/>
      <path d="M791.6,90.3c-.6-1.4-1.5-2.7-2.5-3.8-1.1-1.1-2.3-1.9-3.8-2.5-1.4-.6-2.9-.9-4.6-.9s-3.2.3-4.6.9c-1.4.6-2.7,1.4-3.8,2.5-1.1,1.1-1.9,2.3-2.5,3.8-.6,1.4-.9,2.9-.9,4.6s.3,3.2.9,4.6c.6,1.4,1.4,2.7,2.5,3.8,1.1,1.1,2.3,1.9,3.8,2.5,1.4.6,3,.9,4.6.9s3.2-.3,4.6-.9c1.4-.6,2.7-1.5,3.8-2.5,1.1-1.1,1.9-2.3,2.5-3.8.6-1.4.9-2.9.9-4.6s-.3-3.2-.9-4.6ZM788.3,99.3c-.8,1.3-1.8,2.4-3.2,3.2-1.3.8-2.8,1.2-4.4,1.2s-3.1-.4-4.4-1.2c-1.3-.8-2.4-1.8-3.2-3.2-.8-1.3-1.2-2.8-1.2-4.4s.4-3.1,1.2-4.4c.8-1.3,1.8-2.4,3.2-3.2,1.3-.8,2.8-1.2,4.4-1.2s3.1.4,4.4,1.2c1.3.8,2.4,1.8,3.2,3.2.8,1.3,1.2,2.8,1.2,4.4s-.4,3.1-1.2,4.4h0Z"/>
    </g>
  </g>
</svg>
