<svg width="112" height="24" viewBox="0 0 240 52" fill="none" xmlns="http://www.w3.org/2000/svg">
<path fill-rule="evenodd" clip-rule="evenodd" d="M56.7256 0.0637356L69.0906 0C70.1422 0 71.0026 0.828575 71.0026 1.88023V14.3089C71.0026 15.9979 68.9631 16.8265 67.784 15.6473L55.419 3.28243C54.208 2.10331 55.0366 0.0637356 56.7256 0.0637356ZM0 1.94396V11.9825C0 14.7231 1.08352 17.3682 3.02749 19.3122L34.4815 50.9574C35.6606 52.1684 37.732 51.3079 37.732 49.6189V39.6123C37.732 36.8716 36.6485 34.2265 34.7046 32.2826L3.2187 0.605494C2.03957 -0.573632 0 0.254943 0 1.94396ZM33.3662 11.9825V1.94397C33.3662 0.254951 35.4376 -0.573624 36.6167 0.637371L68.0707 32.2826C70.0147 34.2265 71.0982 36.8716 71.0982 39.6123V49.6189C71.0982 51.3079 69.0268 52.1684 67.8476 50.9574L36.3937 19.3122C34.4497 17.3682 33.3662 14.7231 33.3662 11.9825Z" fill="#773DBE"/>
<path fill-rule="evenodd" clip-rule="evenodd" d="M227.221 11.5682H224.257L211.478 39.7716H214.729L218.043 32.3782H233.308L236.59 39.8035H240L227.221 11.5682ZM225.691 15.233L232.065 29.5419H219.286L225.691 15.233ZM100.831 11.7594H97.3894L107.428 40.0265H110.073L117.785 17.2726L125.433 39.9947H128.11L138.117 11.7594H134.803L126.804 35.0869L119.124 11.6638H116.51L108.83 35.0869L100.831 11.7594ZM168.934 11.7594H148.697V39.7398H169.157V36.8716H151.852V27.0562H167.149V24.188H151.852V14.6275H168.934V11.7594ZM180.311 11.7594H183.465V28.4903L199.559 11.7594H203.638L191.624 23.9968L204.148 39.7716H200.196L189.425 26.1957L183.465 32.2507V39.7716H180.311V11.7594Z" fill="#000000"/>
</svg>
