<svg xmlns="http://www.w3.org/2000/svg" viewBox="0 0 24 24"><path d="M23.9,19,20,.4A.5.5,0,0,0,19.5,0H4.5A.5.5,0,0,0,4,.4L.1,19a1.5,1.5,0,0,0-.1.52v3A1.5,1.5,0,0,0,1.5,24H2a.5.5,0,0,0,0-1H1.5a.5.5,0,0,1-.5-.5V19.55l.06-.27A.49.49,0,0,1,1.5,19h21a.49.49,0,0,1,.44.28l.06.27V22.5a.5.5,0,0,1-.5.5H17a.5.5,0,0,0,0,1h5.5A1.5,1.5,0,0,0,24,22.5v-3A1.5,1.5,0,0,0,23.9,19Zm-1.4-1H1.5l-.18,0L4.91,1H19.09l3.59,17ZM16,21.5v1a.5.5,0,0,1-1,0V22H14v.5a.5.5,0,0,1-1,0V22H12v.5a.5.5,0,0,1-1,0V22H10v.5a.5.5,0,0,1-1,0V22H8v.5a.5.5,0,0,1-1,0V22H6v.5a.5.5,0,0,1-1,0V22H4v.5a.5.5,0,0,1-1,0v-1a.5.5,0,0,1,.5-.5h12A.5.5,0,0,1,16,21.5Zm5,.5a1,1,0,1,1,1-1A1,1,0,0,1,21,22ZM4.85,14.15A.47.47,0,0,1,5,14.5a.41.41,0,0,1,0,.19.36.36,0,0,1-.11.16A.47.47,0,0,1,4.5,15a.43.43,0,0,1-.19,0,.36.36,0,0,1-.16-.11A.36.36,0,0,1,4,14.69a.41.41,0,0,1,0-.19.47.47,0,0,1,.15-.35A.5.5,0,0,1,4.85,14.15Zm7.65.35A.5.5,0,1,1,12,14,.5.5,0,0,1,12.5,14.5Zm-1.88,0a.5.5,0,1,1-.49-.5A.49.49,0,0,1,10.62,14.5Zm-1.87,0a.5.5,0,1,1-.5-.5A.5.5,0,0,1,8.75,14.5Zm5.62,0a.5.5,0,1,1-.49-.5A.49.49,0,0,1,14.37,14.5Zm-7.5,0a.5.5,0,1,1-.49-.5A.49.49,0,0,1,6.87,14.5Zm11.26,0a.51.51,0,1,1-.5-.5A.5.5,0,0,1,18.13,14.5Zm-1.88,0a.5.5,0,1,1-.5-.5A.5.5,0,0,1,16.25,14.5Zm3.6-.35a.36.36,0,0,1,.11.16.43.43,0,0,1,0,.19.51.51,0,0,1-.5.5.43.43,0,0,1-.19,0,.36.36,0,0,1-.16-.11A.47.47,0,0,1,19,14.5a.43.43,0,0,1,0-.19.53.53,0,0,1,.27-.27A.49.49,0,0,1,19.85,14.15Zm-1.77-8a.5.5,0,0,1,.58.41.49.49,0,0,1-.41.57h-.08a.5.5,0,0,1-.5-.42A.5.5,0,0,1,18.08,6.12Zm.67,3.94a.5.5,0,1,1,.17,1h-.09a.49.49,0,0,1-.49-.41A.51.51,0,0,1,18.75,10.06Zm-.25-1A.5.5,0,1,1,19,8.5a.48.48,0,0,1-.41.57ZM19.08,12a.51.51,0,0,1,.58.41.5.5,0,0,1-.41.58h-.08a.5.5,0,0,1-.09-1ZM17.75,4.14a.51.51,0,0,1,.58.41.51.51,0,0,1-.41.58h-.09a.5.5,0,0,1-.08-1ZM17.15,3A.42.42,0,0,1,17,2.86a.48.48,0,0,1,0-.2.47.47,0,0,1,.15-.35.46.46,0,0,1,.16-.11.51.51,0,0,1,.54.11.47.47,0,0,1,.15.35.48.48,0,0,1,0,.2.42.42,0,0,1-.11.16.51.51,0,0,1-.35.15A.5.5,0,0,1,17.15,3ZM12.5,2.67a.5.5,0,0,1-.5.5.51.51,0,1,1,.5-.5Zm2.67,0a.5.5,0,0,1,.5-.51.51.51,0,0,1,0,1A.5.5,0,0,1,15.17,2.67Zm-1.84,0a.51.51,0,1,1,.51.5A.51.51,0,0,1,13.33,2.67Zm-4.49,0a.5.5,0,1,1-.5-.51A.5.5,0,0,1,8.84,2.67Zm1.83,0a.5.5,0,1,1-.5-.51A.5.5,0,0,1,10.67,2.67ZM7,2.47a.65.65,0,0,1,0,.2.65.65,0,0,1,0,.19A.57.57,0,0,1,6.86,3a.5.5,0,0,1-.35.14.58.58,0,0,1-.19,0L6.15,3a.54.54,0,0,1-.1-.16.46.46,0,0,1,0-.19.45.45,0,0,1,0-.2.54.54,0,0,1,.1-.16.71.71,0,0,1,.17-.11.5.5,0,0,1,.38,0,.91.91,0,0,1,.16.11A.57.57,0,0,1,7,2.47ZM5.66,10.64a.5.5,0,0,1-.49.42H5.09a.5.5,0,0,1-.41-.58.49.49,0,0,1,.57-.41A.5.5,0,0,1,5.66,10.64ZM5.35,6.53a.48.48,0,0,1,.57-.41.5.5,0,0,1-.08,1H5.75A.48.48,0,0,1,5.35,6.53ZM6,8.67a.51.51,0,0,1-.5.41H5.42A.51.51,0,0,1,5,8.5a.5.5,0,0,1,.58-.41A.51.51,0,0,1,6,8.67Zm-.67,3.94a.5.5,0,0,1-.5.42H4.75a.5.5,0,0,1-.41-.58.5.5,0,1,1,1,.17Zm.35-8.06a.5.5,0,0,1,1,.17.52.52,0,0,1-.5.42H6.09A.5.5,0,0,1,5.68,4.55Z" fill="#b3b3b3"/></svg>