<svg xmlns="http://www.w3.org/2000/svg" viewBox="0 0 24 24"><path d="M2.85,9.65A.36.36,0,0,1,3,9.81.43.43,0,0,1,3,10a.47.47,0,0,1-.15.35.36.36,0,0,1-.16.11.41.41,0,0,1-.19,0,.41.41,0,0,1-.19,0,.36.36,0,0,1-.16-.11A.47.47,0,0,1,2,10a.43.43,0,0,1,0-.19.36.36,0,0,1,.11-.16.36.36,0,0,1,.16-.11.5.5,0,0,1,.38,0A.36.36,0,0,1,2.85,9.65ZM7.56,5.42a.5.5,0,0,0,.09-1,.5.5,0,0,0-.19,1ZM5.18,8a.5.5,0,1,0-.5-.56A.51.51,0,0,0,5.11,8ZM6.65,6.53a.49.49,0,0,0,0,.7.5.5,0,0,0,.7-.05.51.51,0,0,0-.05-.71A.49.49,0,0,0,6.65,6.53Zm2.26-3A.49.49,0,0,0,9,2.87a.5.5,0,0,0-.7-.07.5.5,0,0,0,.32.89A.49.49,0,0,0,8.91,3.57Zm-5.27,5a.5.5,0,1,0-.71,0,.51.51,0,0,0,.71,0Zm7-5.58a.36.36,0,0,0,.16-.11A.36.36,0,0,0,11,2.69a.41.41,0,0,0,0-.19.41.41,0,0,0,0-.19.36.36,0,0,0-.11-.16A.36.36,0,0,0,10.69,2a.5.5,0,0,0-.38,0,.36.36,0,0,0-.16.11.48.48,0,0,0,0,.7A.47.47,0,0,0,10.5,3,.43.43,0,0,0,10.69,3ZM18.5,14H16v1h2.5A3.49,3.49,0,0,0,20,8.34c0-.11,0-.23,0-.34a4,4,0,0,0-4-4h-.21A5.49,5.49,0,0,0,5,5H5a5,5,0,0,0-1,9.9v-1A4,4,0,0,1,5,6a1.36,1.36,0,0,1,.29,0l.16,0a.55.55,0,0,0,.39-.15A.59.59,0,0,0,6,5.5a4.5,4.5,0,0,1,8.91-.85.51.51,0,0,0,.58.4A2.94,2.94,0,0,1,16,5a3,3,0,0,1,3,3,2.76,2.76,0,0,1-.06.57.5.5,0,0,0,.34.57A2.49,2.49,0,0,1,18.5,14ZM10,11c-2.34,0-4.86.6-5,1.89A.37.37,0,0,0,5,13v9a.37.37,0,0,0,0,.11c.07.72.88,1.22,2,1.53V22.59c-.67-.22-1-.46-1-.59V20.25a4.63,4.63,0,0,0,1,.39V19.59c-.67-.22-1-.46-1-.59V17.25a3.76,3.76,0,0,0,.57.25l.43.14V16.59c-.67-.22-1-.46-1-.59V14.25a3.76,3.76,0,0,0,.57.25l.43.14V13.59c-.67-.22-1-.46-1-.59s1.38-1,4-1,4,.74,4,1-1.38,1-4,1a11.31,11.31,0,0,1-2-.16v1A13.17,13.17,0,0,0,10,15a12.62,12.62,0,0,0,2.5-.24h0a7,7,0,0,0,.91-.26,3.76,3.76,0,0,0,.57-.25V16c0,.26-1.38,1-4,1a11.31,11.31,0,0,1-2-.16v1A13.17,13.17,0,0,0,10,18a12.62,12.62,0,0,0,2.5-.24h0a7,7,0,0,0,.91-.26,3.76,3.76,0,0,0,.57-.25V19c0,.26-1.38,1-4,1a11.31,11.31,0,0,1-2-.16v1A13.17,13.17,0,0,0,10,21a12.62,12.62,0,0,0,2.5-.24h0A5.71,5.71,0,0,0,14,20.25V22c0,.26-1.38,1-4,1a11.31,11.31,0,0,1-2-.16v1A13.17,13.17,0,0,0,10,24c2.34,0,4.86-.6,5-1.89A.37.37,0,0,0,15,22V13a.37.37,0,0,0,0-.11C14.86,11.6,12.34,11,10,11Zm13.85,8.15-3-3a.48.48,0,0,0-.7,0l-3,3a.49.49,0,0,0,.7.7L20,17.71V23.5a.5.5,0,0,0,1,0V17.71l2.15,2.14a.48.48,0,0,0,.7,0A.48.48,0,0,0,23.85,19.15Z" fill="#b3b3b3"/></svg>