<svg xmlns="http://www.w3.org/2000/svg" viewBox="0 0 16 16"><path d="M14.61,3A15.63,15.63,0,0,1,8.29.08h0L8.17,0,8.1,0H7.9L7.83,0l-.1.05h0A15.63,15.63,0,0,1,1.39,3,.5.5,0,0,0,1,3.51l0,.65c.22,5.32.38,9.17,6.78,11.8A.43.43,0,0,0,8,16H8a.43.43,0,0,0,.19,0c6.4-2.63,6.56-6.48,6.78-11.8l0-.65A.5.5,0,0,0,14.61,3ZM14,4.12c-.21,5.26-.36,8.45-6,10.83C2.39,12.57,2.24,9.38,2,4.12V3.88A16.41,16.41,0,0,0,8,1.1a16.41,16.41,0,0,0,6,2.78ZM11.44,5.69a.5.5,0,0,1,.71,0,.5.5,0,0,1,0,.7L8,10.89a.52.52,0,0,1-.37.16h0a.52.52,0,0,1-.37-.16L5.14,8.62a.5.5,0,0,1,0-.71.49.49,0,0,1,.7,0l1.8,1.89Z" fill="#b3b3b3"/></svg>