<svg xmlns="http://www.w3.org/2000/svg" viewBox="0 0 24 24"><path d="M12,24A12,12,0,1,1,24,12,12,12,0,0,1,12,24ZM12,1A11,11,0,1,0,23,12,11,11,0,0,0,12,1ZM2.85,12.35A.45.45,0,0,0,3,12a.43.43,0,0,0,0-.19.36.36,0,0,0-.11-.16.36.36,0,0,0-.16-.11.49.49,0,0,0-.54.11.36.36,0,0,0-.11.16A.43.43,0,0,0,2,12a.41.41,0,0,0,0,.19.36.36,0,0,0,.11.16.48.48,0,0,0,.7,0Zm-.22-2a.5.5,0,0,1-.38-.6h0a.5.5,0,0,1,.6-.37h0a.49.49,0,0,1,.37.59h0a.5.5,0,0,1-.49.38H2.63Zm.59-2A.5.5,0,0,1,3,7.66H3a.49.49,0,0,1,.66-.23h0a.49.49,0,0,1,.24.66h0a.51.51,0,0,1-.45.29h0A.54.54,0,0,1,3.22,8.33Zm1-1.86a.5.5,0,0,1-.08-.7h0a.49.49,0,0,1,.7-.08h0a.49.49,0,0,1,.08.7H5a.51.51,0,0,1-.39.19h0A.51.51,0,0,1,4.26,6.47ZM5.68,4.89a.52.52,0,0,1,.08-.71h0a.51.51,0,0,1,.71.08h0a.5.5,0,0,1-.08.7h0a.45.45,0,0,1-.31.11h0A.52.52,0,0,1,5.68,4.89ZM7.42,3.66A.5.5,0,0,1,7.66,3h0a.49.49,0,0,1,.66.23h0a.5.5,0,0,1-.23.67h0a.54.54,0,0,1-.21,0h0A.51.51,0,0,1,7.42,3.66Zm2-.81a.5.5,0,0,1,.38-.6h0a.5.5,0,0,1,.6.38h0a.49.49,0,0,1-.38.59h0l-.11,0h0A.51.51,0,0,1,9.39,2.85Zm3,0a.36.36,0,0,0,.11-.16.41.41,0,0,0,0-.19.43.43,0,0,0,0-.19.36.36,0,0,0-.11-.16A.49.49,0,0,0,11.81,2a.36.36,0,0,0-.16.11.36.36,0,0,0-.11.16.41.41,0,0,0,0,.19.41.41,0,0,0,0,.19.36.36,0,0,0,.11.16.36.36,0,0,0,.16.11A.41.41,0,0,0,12,3,.47.47,0,0,0,12.35,2.85ZM13,18H11a.5.5,0,0,1-.5-.5v-6A.5.5,0,0,1,11,11h2a.5.5,0,0,1,.5.5v6A.5.5,0,0,1,13,18Zm-1.5-1h1V12h-1Zm.5-7a2,2,0,1,1,2-2A2,2,0,0,1,12,10Zm0-3a1,1,0,1,0,1,1A1,1,0,0,0,12,7Z" fill="#b3b3b3"/></svg>