<svg xmlns="http://www.w3.org/2000/svg" viewBox="0 0 24 24"><path d="M21.79,9.92c0-.13,0-.26,0-.38a4.29,4.29,0,0,0-4.33-4.25h-.27A6,6,0,0,0,5.5,6.36H5.43A5.38,5.38,0,0,0,0,11.68,5.4,5.4,0,0,0,5.43,17H11.5V16H5.43A4.39,4.39,0,0,1,1,11.68,4.38,4.38,0,0,1,5.43,7.36a1.73,1.73,0,0,1,.32,0l.18,0a.54.54,0,0,0,.38-.15.56.56,0,0,0,.17-.4A5,5,0,0,1,16.34,6a.49.49,0,0,0,.57.39,3.55,3.55,0,0,1,.57,0,3.29,3.29,0,0,1,3.33,3.25,3.4,3.4,0,0,1-.06.61.49.49,0,0,0,.33.57A2.71,2.71,0,0,1,23,13.29,2.76,2.76,0,0,1,20.21,16H19.5v1h.71A3.76,3.76,0,0,0,24,13.29,3.7,3.7,0,0,0,21.79,9.92ZM2.69,12.18a.41.41,0,0,1-.19,0A.36.36,0,0,1,2.34,12a.42.42,0,0,1-.11-.16.43.43,0,0,1,0-.19.41.41,0,0,1,0-.19.36.36,0,0,1,.11-.16.5.5,0,0,1,.7,0,.36.36,0,0,1,.11.16.41.41,0,0,1,0,.19.43.43,0,0,1,0,.19A.42.42,0,0,1,3,12a.36.36,0,0,1-.16.11A.41.41,0,0,1,2.69,12.18ZM3,10.31A.5.5,0,0,1,3,9.6H3a.49.49,0,0,1,.7,0h0a.49.49,0,0,1,0,.7h0a.48.48,0,0,1-.38.17h0A.54.54,0,0,1,3,10.31ZM4.5,9.11a.5.5,0,0,1,.41-.57h0A.51.51,0,0,1,5.49,9h0a.51.51,0,0,1-.42.57H5A.49.49,0,0,1,4.5,9.11Zm1.91,0a.5.5,0,0,1,.26-.66h0a.51.51,0,0,1,.66.26h0a.51.51,0,0,1-.26.66h0a.48.48,0,0,1-.2,0h0A.5.5,0,0,1,6.41,9.07ZM8,8a.51.51,0,0,1-.34-.62h0A.51.51,0,0,1,8.23,7h0a.51.51,0,0,1,.34.62h0A.5.5,0,0,1,8.09,8h0Zm.27-1.89A.5.5,0,0,1,8,5.42H8a.5.5,0,0,1,.65-.26h0a.5.5,0,0,1,.27.66h0a.5.5,0,0,1-.46.3h0A.48.48,0,0,1,8.22,6.08Zm1-1.62a.51.51,0,0,1,.15-.7h0a.5.5,0,0,1,.69.15h0a.5.5,0,0,1-.14.69h0a.48.48,0,0,1-.28.08h0A.52.52,0,0,1,9.21,4.46Zm2.24-.32a.43.43,0,0,1-.19,0A.54.54,0,0,1,11.1,4,.5.5,0,0,1,11,3.83a.58.58,0,0,1,0-.19.65.65,0,0,1,0-.19.46.46,0,0,1,.11-.16.51.51,0,0,1,.71,0,.54.54,0,0,1,.1.16.43.43,0,0,1,0,.19.41.41,0,0,1,0,.19.48.48,0,0,1-.1.17.59.59,0,0,1-.17.1A.41.41,0,0,1,11.45,4.14ZM13.5,23a.5.5,0,0,1-.5-.5v-9a.5.5,0,0,1,1,0v9A.5.5,0,0,1,13.5,23Zm4,0a.5.5,0,0,1-.5-.5v-9a.5.5,0,0,1,1,0v9A.5.5,0,0,1,17.5,23Z" fill="#b3b3b3"/></svg>