<svg xmlns="http://www.w3.org/2000/svg" viewBox="0 0 16 16"><path d="M15.1,6.44a.89.89,0,0,1-.63-.27l-2.6-2.62A.91.91,0,0,1,12.5,2h2.6a.88.88,0,0,1,.63.26A.91.91,0,0,1,16,2.9V5.54a.91.91,0,0,1-.27.64A.92.92,0,0,1,15.1,6.44ZM12.75,3,15,5.32,15,3ZM8,14a.91.91,0,0,1-.64-.27L.78,7A2.76,2.76,0,0,1,0,5.05V2.91a.91.91,0,0,1,.55-.83.91.91,0,0,1,1,.2L8.15,9A2.75,2.75,0,0,1,8.92,11v2.13a.91.91,0,0,1-.55.84A1.15,1.15,0,0,1,8,14ZM1,3.16V5.05a1.73,1.73,0,0,0,.49,1.22l6.43,6.58V11a1.73,1.73,0,0,0-.49-1.22ZM15,14a.88.88,0,0,1-.64-.28L7.78,7A2.75,2.75,0,0,1,7,5.05V2.92a.9.9,0,0,1,.55-.84.88.88,0,0,1,1,.2L15.15,9A2.72,2.72,0,0,1,15.93,11v2.13a.9.9,0,0,1-.56.84A.83.83,0,0,1,15,14Zm-.1-.9ZM15.1,13ZM8,3.16V5.05A1.73,1.73,0,0,0,8.5,6.27l6.43,6.58V11a1.78,1.78,0,0,0-.49-1.22Z" fill="#b3b3b3"/></svg>