<svg xmlns="http://www.w3.org/2000/svg" viewBox="0 0 24 24"><path d="M12.54,23.973c-.18.008-.358.027-.54.027a12.015,12.015,0,1,1,10.459-6.128l-.048-.017A4.465,4.465,0,0,0,18.762,16a4.413,4.413,0,0,0-3.95,2.351A3.958,3.958,0,0,0,12,22.071,3.736,3.736,0,0,0,12.54,23.973Zm3.7-10.559L17.657,12A4,4,0,0,0,12,6.343L10.585,7.758A1,1,0,0,0,12,9.172l1.414-1.415a2,2,0,0,1,2.829,2.829L14.829,12a1,1,0,1,0,1.414,1.414ZM12,17.657l1.415-1.415A1,1,0,0,0,12,14.828l-1.414,1.415a2,2,0,0,1-2.829-2.829L9.171,12a1,1,0,0,0-1.414-1.414L6.343,12A4,4,0,0,0,12,17.657Zm-1.414-2.829,4.242-4.242a1,1,0,0,0-1.414-1.414L9.172,13.414a1,1,0,1,0,1.414,1.414ZM24,22.714A1.363,1.363,0,0,1,22.571,24H16.143A2.044,2.044,0,0,1,14,22.071a2.044,2.044,0,0,1,2.143-1.928,2.119,2.119,0,0,1,.24.022l0-.022A2.271,2.271,0,0,1,18.762,18,2.328,2.328,0,0,1,21.1,19.74a1.872,1.872,0,0,1,.283-.026,1.591,1.591,0,0,1,1.667,1.5,1.4,1.4,0,0,1-.032.284A1.3,1.3,0,0,1,24,22.714Z" fill="#b3b3b3"/></svg>