<svg xmlns="http://www.w3.org/2000/svg" viewBox="0 0 12 12"><path d="M10.909,4.909h-.093a.9.9,0,0,1-.823-.545V4.32a.9.9,0,0,1,.18-.993l.032-.032h0a1.09,1.09,0,0,0,0-1.543h0a1.091,1.091,0,0,0-1.543,0l-.033.033A.907.907,0,0,1,7.091,1.14V1.091a1.091,1.091,0,0,0-2.182,0v.093a.9.9,0,0,1-.545.823H4.32a.9.9,0,0,1-.993-.18L3.3,1.8h0a1.09,1.09,0,0,0-1.543,0h0a1.091,1.091,0,0,0,0,1.543l.033.033a.9.9,0,0,1,.18.993.9.9,0,0,1-.824.589H1.091a1.091,1.091,0,1,0,0,2.182h.093a.907.907,0,0,1,.643,1.538L1.8,8.705h0a1.09,1.09,0,0,0,0,1.543h0a1.091,1.091,0,0,0,1.543,0l.033-.033a.9.9,0,0,1,.993-.18.9.9,0,0,1,.589.824v.049a1.091,1.091,0,0,0,2.182,0v-.093a.907.907,0,0,1,1.538-.643l.032.032h0a1.09,1.09,0,0,0,1.543,0h0a1.091,1.091,0,0,0,0-1.543l-.033-.033a.907.907,0,0,1,.644-1.538h.049a1.091,1.091,0,0,0,0-2.182ZM6,8A2,2,0,1,1,8,6,2,2,0,0,1,6,8Z" fill="#b3b3b3"/></svg>