<svg xmlns="http://www.w3.org/2000/svg" viewBox="0 0 16 16"><path d="M7.674,7.645a.5.5,0,0,1-.5-.5A2.109,2.109,0,0,1,9.3,5.062a.5.5,0,0,1,0,1,1.109,1.109,0,0,0-1.13,1.083A.5.5,0,0,1,7.674,7.645ZM16,3.4V9.172L14.914,8.086a1.989,1.989,0,0,0-1.921-.512c0-.025.007-.049.007-.074A3.5,3.5,0,1,0,9.5,11c.031,0,.06-.008.091-.009a1.993,1.993,0,0,0,.129,1.4H1.5a1.5,1.5,0,0,1-1.5-1.5V3.4A1.5,1.5,0,0,1,1.5,1.9h.011a.757.757,0,0,1,.708-.632H4a.749.749,0,0,1,.709.632h.835L5.726.926A1.148,1.148,0,0,1,6.859,0H11.75a1.148,1.148,0,0,1,1.133.926l.184.972H14.5A1.5,1.5,0,0,1,16,3.4ZM4,5A1,1,0,1,0,3,6,1,1,0,0,0,4,5Zm11.854,6.146-2-2a.5.5,0,0,0-.708,0l-2,2a.5.5,0,0,0,.708.708L13,10.707V15.5a.5.5,0,0,0,1,0V10.707l1.146,1.147a.5.5,0,0,0,.708-.708Z" fill="#b3b3b3"/></svg>