<svg xmlns="http://www.w3.org/2000/svg" viewBox="0 0 16 16"><defs><style>.a{font-size:9px;font-family:Arial-BoldMT, Arial;font-weight:700;}.a,.b{fill:#b3b3b3;}</style></defs><text class="a" transform="translate(2.917 13.126)">22</text><path class="b" d="M15.5,1H14V.5a.5.5,0,0,0-1,0V1H11.8V.5a.5.5,0,0,0-1,0V1H9.6V.5a.5.5,0,0,0-1,0V1H7.4V.5a.5.5,0,0,0-1,0V1H5.2V.5a.5.5,0,0,0-1,0V1H3V.5a.5.5,0,0,0-1,0V1H.5a.5.5,0,0,0-.5.5v14a.5.5,0,0,0,.5.5h15a.5.5,0,0,0,.5-.5V1.5A.5.5,0,0,0,15.5,1ZM15,15H1V2H2v.5a.5.5,0,0,0,1,0V2H4.2v.5a.5.5,0,0,0,1,0V2H6.4v.5a.5.5,0,0,0,1,0V2H8.6v.5a.5.5,0,0,0,1,0V2h1.2v.5a.5.5,0,0,0,1,0V2H13v.5a.5.5,0,0,0,1,0V2h1ZM14,4.5a.5.5,0,0,1-.5.5H2.5a.5.5,0,0,1,0-1h11A.5.5,0,0,1,14,4.5Z"/></svg>
