<svg xmlns="http://www.w3.org/2000/svg" viewBox="0 0 24 24"><path d="M21.58,2.39c-2.81-2.83-6.39-3.18-8.7-.87-.27.27-.57.59-.88.94C10.68,3.9,9,5.68,7,6.08a24.9,24.9,0,0,1-2.73.34c-1.25.11-2.16.19-2.72.76L.42,8.27c-1.21,1.21.32,4.27,2.82,7.35a3.61,3.61,0,1,0,4.95,5c2.4,2,4.8,3.39,6.35,3.39a1.59,1.59,0,0,0,1.17-.42l1.09-1.1c.56-.56.64-1.47.75-2.73.07-.74.15-1.67.35-2.73.39-2.07,2.18-3.71,3.61-5,.34-.32.66-.61.94-.89C25.16,8.39,24,4.77,21.58,2.39ZM5.12,21.32A2.61,2.61,0,0,1,2.51,18.7a2.64,2.64,0,0,1,1.38-2.31c.56.66,1.16,1.3,1.78,1.93S6.83,19.43,7.42,20A2.64,2.64,0,0,1,5.12,21.32ZM21.74,10.39c-.26.27-.57.55-.9.86-1.55,1.42-3.47,3.19-3.93,5.58a25.24,25.24,0,0,0-.35,2.84c-.1,1-.16,1.8-.47,2.1h0L15,22.87c-.69.69-4.38-1-8.62-5.26S.44,9.67,1.13,9l1.09-1.1a4.12,4.12,0,0,1,2.11-.46,28,28,0,0,0,2.83-.36c2.39-.45,4.15-2.38,5.57-3.93.31-.33.59-.64.86-.9A4,4,0,0,1,16.47,1a6.58,6.58,0,0,1,4.41,2.1C22.91,5.13,24,8.17,21.74,10.39Z" fill="#b3b3b3"/><path d="M14.64,21.11a.53.53,0,0,0-.55-.11.53.53,0,0,0-.27.27.65.65,0,0,0,0,.19.53.53,0,0,0,.15.36.52.52,0,0,0,.35.14.48.48,0,0,0,.5-.5.63.63,0,0,0,0-.19A.91.91,0,0,0,14.64,21.11Z" fill="#b3b3b3"/><path d="M12.63,20.13a.49.49,0,0,0-.68.17.5.5,0,0,0,.16.69.48.48,0,0,0,.26.07.51.51,0,0,0,.43-.24A.5.5,0,0,0,12.63,20.13Z" fill="#b3b3b3"/><path d="M10.23,19.05a.49.49,0,0,0,.09.7.51.51,0,0,0,.31.11.47.47,0,0,0,.39-.2.5.5,0,1,0-.79-.61Z" fill="#b3b3b3"/><path d="M8.61,17.68a.49.49,0,0,0,.05.7.46.46,0,0,0,.33.13.5.5,0,0,0,.33-.88A.51.51,0,0,0,8.61,17.68Z" fill="#b3b3b3"/><path d="M7.63,16.09a.49.49,0,0,0-.54.11.5.5,0,0,0,.35.85.43.43,0,0,0,.19,0,.36.36,0,0,0,.16-.11.48.48,0,0,0,0-.7A.36.36,0,0,0,7.63,16.09Z" fill="#b3b3b3"/><path d="M3.08,8.74a.49.49,0,0,0-.15.36.43.43,0,0,0,0,.19.42.42,0,0,0,.11.16.46.46,0,0,0,.16.11.65.65,0,0,0,.19,0,.51.51,0,0,0,.35-.15.47.47,0,0,0,.15-.35.49.49,0,0,0-.15-.36A.52.52,0,0,0,3.08,8.74Z" fill="#b3b3b3"/><path d="M7.5,8.09a.51.51,0,0,0-.39.59.5.5,0,0,0,.49.4h.11a.5.5,0,0,0-.21-1Z" fill="#b3b3b3"/><path d="M5.47,8.4a.5.5,0,0,0,0,1h.06A.5.5,0,0,0,6,8.84.49.49,0,0,0,5.47,8.4Z" fill="#b3b3b3"/><path d="M11,6.35a.52.52,0,0,0-.07.71.5.5,0,0,0,.39.18.56.56,0,0,0,.32-.11A.5.5,0,0,0,11,6.35Z" fill="#b3b3b3"/><path d="M9.36,7.45a.5.5,0,0,0-.22.67.49.49,0,0,0,.45.28.59.59,0,0,0,.22-.05h0A.5.5,0,0,0,10,7.67.52.52,0,0,0,9.36,7.45Z" fill="#b3b3b3"/><path d="M13.94,3.42a.49.49,0,0,0,0,.7.52.52,0,0,0,.35.14.48.48,0,0,0,.36-.16.49.49,0,0,0,0-.7A.5.5,0,0,0,13.94,3.42Z" fill="#b3b3b3"/><path d="M15.92,2.11a.51.51,0,0,0,.1,1h.09a.5.5,0,0,0,.4-.59A.49.49,0,0,0,15.92,2.11Z" fill="#b3b3b3"/><path d="M18.27,2.51a.5.5,0,0,0-.43.91.54.54,0,0,0,.21.05.51.51,0,0,0,.46-.28A.53.53,0,0,0,18.27,2.51Z" fill="#b3b3b3"/><path d="M12.5,5a.49.49,0,0,0,0,.7.45.45,0,0,0,.34.14.51.51,0,0,0,.37-.15A.5.5,0,1,0,12.5,5Z" fill="#b3b3b3"/><path d="M20.11,3.86A.57.57,0,0,0,20,3.75a.49.49,0,0,0-.54.11.5.5,0,0,0-.14.35.58.58,0,0,0,0,.19.71.71,0,0,0,.11.17.54.54,0,0,0,.36.14.48.48,0,0,0,.34-.14.55.55,0,0,0,.15-.36.65.65,0,0,0,0-.19A.46.46,0,0,0,20.11,3.86Z" fill="#b3b3b3"/></svg>