<svg xmlns="http://www.w3.org/2000/svg" viewBox="0 0 24 24"><path d="M16.76,24H7.24a.49.49,0,0,1-.36-.15L.15,17.12A.49.49,0,0,1,0,16.76V7.24a.49.49,0,0,1,.15-.36L6.88.15A.49.49,0,0,1,7.24,0h9.52a.49.49,0,0,1,.36.15l6.73,6.73a.49.49,0,0,1,.15.36v9.52a.49.49,0,0,1-.15.36l-6.73,6.73A.49.49,0,0,1,16.76,24ZM7.44,23h9.12L23,16.56V7.44L16.56,1H7.44L1,7.44v9.12Zm1-19.59a.36.36,0,0,0,.16-.11A.47.47,0,0,0,8.73,3a.43.43,0,0,0,0-.19.36.36,0,0,0-.11-.16.36.36,0,0,0-.16-.11.49.49,0,0,0-.54.11.36.36,0,0,0-.11.16.43.43,0,0,0,0,.19.51.51,0,0,0,.5.5A.43.43,0,0,0,8.42,3.41Zm-6,10.8a.5.5,0,0,1,.5-.5h0a.5.5,0,0,1,.5.5h0a.51.51,0,0,1-.5.5h0A.5.5,0,0,1,2.4,14.21Zm0-1.92a.5.5,0,0,1,.5-.5h0a.5.5,0,0,1,.5.5h0a.51.51,0,0,1-.5.5h0A.5.5,0,0,1,2.4,12.29Zm0-1.92a.5.5,0,0,1,.5-.5h0a.5.5,0,0,1,.5.5h0a.5.5,0,0,1-.5.5h0A.5.5,0,0,1,2.4,10.37Zm0-1.92A.5.5,0,0,1,2.9,8h0a.5.5,0,0,1,.5.5h0a.5.5,0,0,1-.5.5h0A.5.5,0,0,1,2.4,8.45Zm1.46-1a.48.48,0,0,1,0-.7h0a.5.5,0,0,1,.71,0h0a.5.5,0,0,1,0,.71h0a.47.47,0,0,1-.35.15h0A.47.47,0,0,1,3.86,7.42ZM5.2,6.05a.49.49,0,0,1,0-.7h0a.5.5,0,0,1,.71,0h0a.5.5,0,0,1,0,.7h0a.51.51,0,0,1-.36.15h0A.46.46,0,0,1,5.2,6.05ZM6.54,4.68a.5.5,0,0,1,0-.71h0a.5.5,0,0,1,.71,0h0a.49.49,0,0,1,0,.7h0a.51.51,0,0,1-.36.15h0A.47.47,0,0,1,6.54,4.68ZM3.09,16.59a.91.91,0,0,0,.16-.11.51.51,0,0,0,.15-.36.5.5,0,0,0-.69-.46.71.71,0,0,0-.17.11.5.5,0,0,0-.14.35.51.51,0,0,0,.14.36.53.53,0,0,0,.36.15A.65.65,0,0,0,3.09,16.59Zm13,5.34a.44.44,0,0,0,.1-.16.41.41,0,0,0,0-.19.55.55,0,0,0-.14-.35.51.51,0,0,0-.71,0,.36.36,0,0,0-.11.16.43.43,0,0,0,0,.19.45.45,0,0,0,.15.35.42.42,0,0,0,.16.11.41.41,0,0,0,.19,0A.49.49,0,0,0,16.13,21.93Zm.62-1.36a.49.49,0,0,1,0-.7h0a.49.49,0,0,1,.7,0h0a.5.5,0,0,1,0,.71h0a.51.51,0,0,1-.36.15h0A.5.5,0,0,1,16.75,20.57Zm1.34-1.36a.5.5,0,0,1,0-.71h0a.5.5,0,0,1,.71,0h0a.49.49,0,0,1,0,.7h0a.47.47,0,0,1-.35.15h0A.47.47,0,0,1,18.09,19.21Zm1.33-1.36a.5.5,0,0,1,0-.71h0a.5.5,0,0,1,.71,0h0a.5.5,0,0,1,0,.71h0a.51.51,0,0,1-.36.15h0A.54.54,0,0,1,19.42,17.85Zm1.88-1.26.16-.11a.91.91,0,0,0,.11-.16.64.64,0,0,0,0-.2.5.5,0,0,0-.14-.35.5.5,0,1,0-.71.71.53.53,0,0,0,.35.15A.71.71,0,0,0,21.3,16.59Z" fill="#b3b3b3"/></svg>