<svg xmlns="http://www.w3.org/2000/svg" viewBox="0 0 24 24"><path d="M16.76,24H7.24a.49.49,0,0,1-.36-.15L.15,17.12A.49.49,0,0,1,0,16.76V7.24a.49.49,0,0,1,.15-.36L6.88.15A.49.49,0,0,1,7.24,0h9.52a.49.49,0,0,1,.36.15l6.73,6.73a.49.49,0,0,1,.15.36v9.52a.49.49,0,0,1-.15.36l-6.73,6.73A.49.49,0,0,1,16.76,24ZM7.44,23h9.12L23,16.56V7.44L16.56,1H7.44L1,7.44v9.12ZM8.58,3.31A.55.55,0,0,0,8.73,3a.51.51,0,0,0-.86-.35A.5.5,0,0,0,7.73,3a.54.54,0,0,0,.14.36.54.54,0,0,0,.36.14A.5.5,0,0,0,8.58,3.31ZM2.4,14.2a.49.49,0,0,1,.5-.49h0a.5.5,0,0,1,.5.49h0a.51.51,0,0,1-.5.51h0A.5.5,0,0,1,2.4,14.2Zm0-1.91a.5.5,0,0,1,.5-.5h0a.5.5,0,0,1,.5.5h0a.51.51,0,0,1-.5.5h0A.5.5,0,0,1,2.4,12.29Zm0-1.92a.5.5,0,0,1,.5-.5h0a.5.5,0,0,1,.5.5h0a.5.5,0,0,1-.5.5h0A.5.5,0,0,1,2.4,10.37Zm0-1.92A.5.5,0,0,1,2.9,8h0a.51.51,0,0,1,.5.5h0a.5.5,0,0,1-.5.5h0A.5.5,0,0,1,2.4,8.45Zm1.45-1a.49.49,0,0,1,0-.7h0a.49.49,0,0,1,.7,0h0a.5.5,0,0,1,0,.71h0a.49.49,0,0,1-.35.15h0A.51.51,0,0,1,3.85,7.42ZM5.2,6.05a.49.49,0,0,1,0-.7h0a.48.48,0,0,1,.7,0h0a.48.48,0,0,1,0,.7h0a.47.47,0,0,1-.35.15h0A.46.46,0,0,1,5.2,6.05ZM6.54,4.68a.5.5,0,0,1,0-.71h0a.5.5,0,0,1,.71,0h0a.49.49,0,0,1,0,.7h0a.47.47,0,0,1-.35.15h0A.47.47,0,0,1,6.54,4.68ZM3.09,16.59a.57.57,0,0,0,.16-.11.53.53,0,0,0,.15-.35.51.51,0,0,0-.15-.36.52.52,0,0,0-.71,0,.51.51,0,0,0-.15.36.53.53,0,0,0,.15.35.57.57,0,0,0,.16.11.64.64,0,0,0,.2,0A.63.63,0,0,0,3.09,16.59Zm13,5.34a.45.45,0,0,0,.15-.35.47.47,0,0,0-.15-.35.49.49,0,0,0-.54-.11.46.46,0,0,0-.16.11.47.47,0,0,0-.15.35.41.41,0,0,0,0,.19.36.36,0,0,0,.11.16.48.48,0,0,0,.7,0Zm.64-1.36a.48.48,0,0,1,0-.7h0a.49.49,0,0,1,.7,0h0a.5.5,0,0,1,0,.71h0a.51.51,0,0,1-.36.15h0A.46.46,0,0,1,16.76,20.57Zm1.33-1.36a.5.5,0,0,1,0-.71h0a.5.5,0,0,1,.71,0h0a.5.5,0,0,1,0,.7h0a.51.51,0,0,1-.36.15h0A.47.47,0,0,1,18.09,19.21Zm1.33-1.36a.5.5,0,0,1,0-.71h0a.5.5,0,0,1,.71,0h0a.5.5,0,0,1,0,.71h0a.51.51,0,0,1-.36.15h0A.52.52,0,0,1,19.42,17.85Zm2-1.37a.51.51,0,0,0,.14-.36.63.63,0,0,0,0-.19.91.91,0,0,0-.11-.16.53.53,0,0,0-.71,0,.57.57,0,0,0-.11.16.65.65,0,0,0,0,.19.53.53,0,0,0,.15.36.52.52,0,0,0,.35.14A.52.52,0,0,0,21.46,16.48ZM15,17.24a.51.51,0,0,1-.36-.15L12,14.48,9.39,17.09a.51.51,0,0,1-.71,0l-1.5-1.5a.5.5,0,0,1,0-.71l2.61-2.61L7.18,9.65a.48.48,0,0,1,0-.7l1.5-1.51a.51.51,0,0,1,.71,0L12,10.06l2.61-2.62a.51.51,0,0,1,.71,0L16.82,9a.48.48,0,0,1,0,.7l-2.61,2.62,2.61,2.61a.5.5,0,0,1,0,.71l-1.5,1.5A.5.5,0,0,1,15,17.24Zm-3-4a.47.47,0,0,1,.35.15L15,16l.79-.8-2.61-2.61a.5.5,0,0,1,0-.71L15.76,9.3,15,8.5l-2.62,2.62a.5.5,0,0,1-.7,0L9,8.5l-.79.8,2.61,2.61a.5.5,0,0,1,0,.71L8.24,15.23,9,16l2.62-2.61A.47.47,0,0,1,12,13.27Z" fill="#b3b3b3"/></svg>