<svg xmlns="http://www.w3.org/2000/svg" viewBox="0 0 24 24"><path d="M24,3.5C24,1.2,18,0,12,0S0,1.2,0,3.5a.93.93,0,0,0,0,.23.46.46,0,0,0,.11.53L9,13.19V23.5a.52.52,0,0,0,.25.44A.57.57,0,0,0,9.5,24a.48.48,0,0,0,.26-.07l5-3A.5.5,0,0,0,15,20.5V13.19l8.85-8.93A.46.46,0,0,0,24,3.73.93.93,0,0,0,24,3.5ZM12,1c6.71,0,11,1.48,11,2.5S18.71,6,12,6,1,4.52,1,3.5,5.29,1,12,1Zm2.15,11.63A.47.47,0,0,0,14,13v7.24l-4,2.4V13a.47.47,0,0,0-.15-.35L3.24,6A32.67,32.67,0,0,0,12,7a32.67,32.67,0,0,0,8.76-1ZM4.81,3.44a.47.47,0,0,1,0-.38.36.36,0,0,1,.11-.16.36.36,0,0,1,.16-.11.49.49,0,0,1,.54.11.36.36,0,0,1,.11.16.41.41,0,0,1,0,.19.47.47,0,0,1-.15.35.36.36,0,0,1-.16.11.41.41,0,0,1-.19,0,.43.43,0,0,1-.19,0,.36.36,0,0,1-.16-.11A.36.36,0,0,1,4.81,3.44Zm9.58-.64a.5.5,0,0,1,1,.06.5.5,0,0,1-.5.47h0A.5.5,0,0,1,14.39,2.8Zm1.93.14a.49.49,0,0,1,.54-.45h0a.5.5,0,0,1-.06,1h0A.5.5,0,0,1,16.32,2.94Zm-3.86-.19A.5.5,0,0,1,13,2.26a.49.49,0,0,1,.49.51.5.5,0,0,1-.5.49h0A.52.52,0,0,1,12.46,2.75ZM6.68,3a.5.5,0,1,1,.56.45H7.18A.51.51,0,0,1,6.68,3Zm3.85-.27A.5.5,0,0,1,11,2.26a.49.49,0,0,1,.51.49.5.5,0,0,1-.49.51A.51.51,0,0,1,10.53,2.77Zm-1.92.09a.5.5,0,1,1,1-.06.5.5,0,0,1-.47.53h0A.49.49,0,0,1,8.61,2.86Zm9.76.74a.5.5,0,0,1-.14-.35.43.43,0,0,1,0-.19.44.44,0,0,1,.1-.16.51.51,0,0,1,.55-.11.36.36,0,0,1,.16.11.36.36,0,0,1,.11.16.58.58,0,0,1,0,.19.58.58,0,0,1,0,.19.36.36,0,0,1-.11.16.42.42,0,0,1-.16.11.43.43,0,0,1-.19,0A.51.51,0,0,1,18.37,3.6Z" fill="#b3b3b3"/></svg>