<svg xmlns="http://www.w3.org/2000/svg" viewBox="0 0 24 24"><path d="M12,0A12,12,0,1,0,24,12,12,12,0,0,0,12,0ZM10,16.01c-.081.33-.157.67-.225,1.016a5.494,5.494,0,0,1,0-10.052c.068.346.144.686.225,1.016a4.466,4.466,0,0,0,0,8.02ZM13,12a1,1,0,0,1-1,1,21.867,21.867,0,0,1,1.5,6.5c0,2.762-.672,3.5-1.5,3.5s-1.5-.736-1.5-3.5A21.867,21.867,0,0,1,12,13a1,1,0,0,1,0-2,21.867,21.867,0,0,1-1.5-6.5c0-2.762.672-3.5,1.5-3.5s1.5.736,1.5,3.5A21.867,21.867,0,0,1,12,11,1,1,0,0,1,13,12Zm1.225,5.026c-.068-.346-.144-.686-.225-1.016a4.466,4.466,0,0,0,0-8.02c.081-.33.157-.67.225-1.016a5.494,5.494,0,0,1,0,10.052Z" fill="#595959"/></svg>