<svg xmlns="http://www.w3.org/2000/svg" viewBox="0 0 16 16"><path d="M7.5,3h6.45c-.02.28-.06.62-.11,1H7.5a.5.5,0,0,0,0,1h6.19c-.06.32-.12.65-.2,1H7.5a.5.5,0,0,0,0,1H9.34a2.79,2.79,0,0,0-1.59.78,2.741,2.741,0,0,0-.8,1.93c0,.08.01.16.01.24A2.721,2.721,0,0,0,6,12.03a2.688,2.688,0,0,0,.99,2.09c0,.07-.01.13-.01.2a2.821,2.821,0,0,0,.08.65L7,15C0,12,0,2,0,2L7,0l7,2H7.5a.5.5,0,0,0,0,1ZM16,12a.727.727,0,0,1-.727.727H15.24a.605.605,0,0,0-.429,1.026l.022.022a.727.727,0,0,1,0,1.028h0a.728.728,0,0,1-1.029,0h0l-.022-.022a.605.605,0,0,0-1.026.429v.062a.727.727,0,0,1-1.454,0V15.24a.63.63,0,0,0-1.055-.429l-.022.022a.727.727,0,0,1-1.028,0h0a.728.728,0,0,1,0-1.029h0l.022-.022a.605.605,0,0,0-.429-1.026H8.727a.727.727,0,0,1,0-1.454H8.76a.63.63,0,0,0,.429-1.055l-.022-.022a.727.727,0,0,1,0-1.028h0a.728.728,0,0,1,1.029,0h0l.022.022a.6.6,0,0,0,.662.12h.029a.6.6,0,0,0,.364-.549V8.727a.727.727,0,0,1,1.454,0V8.76a.605.605,0,0,0,1.026.429l.022-.022a.727.727,0,0,1,1.028,0h0a.728.728,0,0,1,0,1.029h0l-.022.022a.6.6,0,0,0-.12.662v.029a.6.6,0,0,0,.549.364h.062A.727.727,0,0,1,16,12Zm-2.667,0A1.333,1.333,0,1,0,12,13.333,1.333,1.333,0,0,0,13.333,12Z" fill="#b3b3b3"/></svg>