<svg xmlns="http://www.w3.org/2000/svg" width="24.007" height="24" viewBox="0 0 24.007 24"><defs><style>.a{fill:#8c8c8c;}</style></defs><path class="a" d="M1.12,10H22.85l-1.39,5.14a2.2,2.2,0,0,1,0,.36v2h.36L24,9.63h0a.22.22,0,0,0,0-.08.66.66,0,0,0,0-.14h0l-3-9A.5.5,0,0,0,20.5,0H3.42a.67.67,0,0,0-.21.09h0A.5.5,0,0,0,3,.32H3l-3,9H0a.76.76,0,0,0,0,.15v.09l3,13a.51.51,0,0,0,.49.39h14V22H3.89ZM3.3,2.67,4,7.59A.5.5,0,0,0,4.49,8h.07A.5.5,0,0,0,5,7.44L4.07,1H19.85l-.92,6.44a.5.5,0,0,0,.42.57h.07a.51.51,0,0,0,.5-.43l.72-5.08L22.81,9H1.18ZM24,19.5a.5.5,0,0,1-.5.5H20v3.5a.5.5,0,0,1-1,0V20H15.5a.5.5,0,0,1,0-1H19V15.5a.5.5,0,0,1,1,0V19h3.5A.5.5,0,0,1,24,19.5ZM13.5,11a.5.5,0,1,1-.5.5A.5.5,0,0,1,13.5,11Zm-2,0a.5.5,0,1,1-.36.143A.5.5,0,0,1,11.5,11Zm-2,0a.495.495,0,1,1-.01,0Zm6,0a.5.5,0,1,1-.5.5A.5.5,0,0,1,15.5,11Zm2,0a.5.5,0,1,1-.5.5A.5.5,0,0,1,17.5,11ZM6,11.5a.5.5,0,1,1-.5-.5A.5.5,0,0,1,6,11.5Zm-2,0a.5.5,0,1,1-.5-.5A.5.5,0,0,1,4,11.5ZM7.5,11a.495.495,0,1,1-.01,0ZM4.6,18.81a.5.5,0,1,1,.6.38H5.09a.5.5,0,0,1-.49-.38Zm.4,1.8a.5.5,0,1,1,.6.38H5.49A.5.5,0,0,1,5,20.61ZM4.2,17a.5.5,0,1,1,.6.38H4.69A.5.5,0,0,1,4.2,17Zm-.4-1.8a.5.5,0,1,1,.6.38H4.29a.5.5,0,0,1-.49-.37Zm-.4-1.8a.5.5,0,1,1,.6.38H3.89a.5.5,0,0,1-.49-.37Z" transform="translate(0.004 0)"/></svg>