<?xml version="1.0" encoding="utf-8"?><svg version="1.1" id="Layer_1" xmlns="http://www.w3.org/2000/svg" xmlns:xlink="http://www.w3.org/1999/xlink" x="0px" y="0px" viewBox="0 0 277 1" style="enable-background:new 0 0 277 1;" xml:space="preserve"><style type="text/css">.st0{fill:#45AFFF;}</style><path class="st0" d="M24.5,1h-10C14.2,1,14,0.8,14,0.5S14.2,0,14.5,0h10C24.8,0,25,0.2,25,0.5S24.8,1,24.5,1z"/><path class="st0" d="M10.5,1h-4C6.2,1,6,0.8,6,0.5S6.2,0,6.5,0h4C10.8,0,11,0.2,11,0.5S10.8,1,10.5,1z"/><path class="st0" d="M2.5,1h-2C0.2,1,0,0.8,0,0.5S0.2,0,0.5,0h2C2.8,0,3,0.2,3,0.5S2.8,1,2.5,1z"/><path class="st0" d="M248.5,1h-220C28.2,1,28,0.8,28,0.5S28.2,0,28.5,0h220c0.3,0,0.5,0.2,0.5,0.5S248.8,1,248.5,1z"/><path class="st0" d="M262.5,1h-10c-0.3,0-0.5-0.2-0.5-0.5s0.2-0.5,0.5-0.5h10c0.3,0,0.5,0.2,0.5,0.5S262.8,1,262.5,1z"/><path class="st0" d="M270.5,1h-4c-0.3,0-0.5-0.2-0.5-0.5s0.2-0.5,0.5-0.5h4c0.3,0,0.5,0.2,0.5,0.5S270.8,1,270.5,1z"/><path class="st0" d="M276.5,1h-2c-0.3,0-0.5-0.2-0.5-0.5s0.2-0.5,0.5-0.5h2c0.3,0,0.5,0.2,0.5,0.5S276.8,1,276.5,1z"/></svg>
