<?xml version="1.0" encoding="UTF-8"?>
<svg xmlns="http://www.w3.org/2000/svg" xmlns:xlink="http://www.w3.org/1999/xlink" viewBox="0 0 418 342" height="50" width="60">
  <defs>
    <style>

      .white{
      fill: #FFFFFF
      }
      .cls-1 {
        opacity: .824;
      }

      .cls-1, .cls-2, .cls-3, .cls-4, .cls-5, .cls-6, .cls-7, .cls-8, .cls-9, .cls-10, .cls-11, .cls-12, .cls-13, .cls-14, .cls-15, .cls-16, .cls-17, .cls-18, .cls-19, .cls-20 {
        fill: none;
        stroke-miterlimit: 10;
      }

      .cls-1, .cls-2, .cls-3, .cls-4, .cls-5, .cls-6, .cls-7, .cls-8, .cls-9, .cls-10, .cls-11, .cls-12, .cls-13, .cls-14, .cls-16, .cls-17, .cls-18, .cls-19, .cls-20 {
        stroke-linecap: round;
      }

      .cls-1, .cls-2, .cls-3, .cls-4, .cls-5, .cls-6, .cls-7, .cls-8, .cls-9, .cls-11, .cls-12, .cls-13, .cls-14, .cls-15, .cls-16, .cls-17, .cls-18, .cls-19, .cls-20 {
        stroke: #fff;
      }

      .cls-2 {
        opacity: .971;
      }

      .cls-21 {
        fill: url(#linear-gradient);
      }

      .cls-3 {
        opacity: .941;
      }

      .cls-4 {
        opacity: .559;
      }

      .cls-22 {
        opacity: .1;
      }

      .cls-23 {
        fill: #f2f2f2;
      }

      .cls-24 {
        fill: #00f371;
      }

      .cls-25 {
        fill: #00ef7f;
      }

      .cls-26 {
        fill: #00b353;
      }

      .cls-27 {
        fill: #000000;
      }

      .cls-28 {
        fill: #ebebeb;
      }

      .cls-29 {
        fill: #ed8274;
      }

      .cls-30 {
        fill: #f73f3f;
      }

      .cls-31 {
        fill: #eed787;
      }

      .cls-32 {
        fill: #fff;
      }

      .cls-33 {
        fill: #ffe422;
      }

      .cls-34 {
        fill: #753607;
      }

      .cls-35 {
        fill: #8c8c8c;
      }

      .cls-36 {
        fill: #b31500;
      }

      .cls-37 {
        fill: #d5b000;
      }

      .cls-38 {
        fill: #595959;
      }

      .cls-39 {
        fill: #2b2b2b;
      }

      .cls-40 {
        fill: #3d3d3d;
      }

      .cls-41 {
        fill: #26754e;
      }

      .cls-42 {
        fill: #3aa54a;
      }

      .cls-43 {
        fill: #5de653;
      }

      .cls-44 {
        fill: #757347;
      }

      .cls-5 {
        opacity: .912;
      }

      .cls-6 {
        opacity: .706;
      }

      .cls-7 {
        opacity: .647;
      }

      .cls-8 {
        opacity: .853;
      }

      .cls-9 {
        opacity: .618;
      }

      .cls-10 {
        stroke: #000;
      }

      .cls-12 {
        opacity: .588;
      }

      .cls-45 {
        fill: url(#linear-gradient-19);
        mix-blend-mode: multiply;
        opacity: .42;
      }

      .cls-46 {
        fill: url(#radial-gradient-3);
      }

      .cls-47 {
        fill: url(#radial-gradient-4);
      }

      .cls-48 {
        fill: url(#radial-gradient-2);
      }

      .cls-13 {
        opacity: .676;
      }

      .cls-14 {
        opacity: .794;
      }

      .cls-49 {
        fill: url(#linear-gradient-28);
        opacity: .69;
      }

      .cls-50 {
        fill: url(#linear-gradient-8);
      }

      .cls-51 {
        fill: url(#linear-gradient-9);
      }

      .cls-52 {
        fill: url(#linear-gradient-3);
      }

      .cls-53 {
        fill: url(#linear-gradient-4);
      }

      .cls-54 {
        fill: url(#linear-gradient-2);
      }

      .cls-55 {
        fill: url(#linear-gradient-6);
      }

      .cls-56 {
        fill: url(#linear-gradient-7);
      }

      .cls-57 {
        fill: url(#linear-gradient-5);
      }

      .cls-58 {
        opacity: .2;
      }

      .cls-59 {
        opacity: .3;
      }

      .cls-16 {
        opacity: .735;
      }

      .cls-60, .cls-17 {
        opacity: .5;
      }

      .cls-61 {
        fill: url(#radial-gradient);
      }

      .cls-18 {
        opacity: .765;
      }

      .cls-62 {
        fill: url(#linear-gradient-14);
      }

      .cls-63 {
        fill: url(#linear-gradient-18);
      }

      .cls-64 {
        fill: url(#linear-gradient-22);
      }

      .cls-65 {
        fill: url(#linear-gradient-20);
      }

      .cls-66 {
        fill: url(#linear-gradient-21);
      }

      .cls-67 {
        fill: url(#linear-gradient-23);
      }

      .cls-68 {
        fill: url(#linear-gradient-15);
      }

      .cls-69 {
        fill: url(#linear-gradient-16);
      }

      .cls-70 {
        fill: url(#linear-gradient-17);
      }

      .cls-71 {
        fill: url(#linear-gradient-13);
      }

      .cls-72 {
        fill: url(#linear-gradient-12);
      }

      .cls-73 {
        fill: url(#linear-gradient-10);
      }

      .cls-74 {
        fill: url(#linear-gradient-11);
      }

      .cls-75 {
        fill: url(#linear-gradient-27);
      }

      .cls-76 {
        fill: url(#linear-gradient-24);
      }

      .cls-77 {
        fill: url(#linear-gradient-26);
      }

      .cls-78 {
        fill: url(#linear-gradient-25);
      }

      .cls-79 {
        fill: url(#linear-gradient-29);
      }

      .cls-80 {
        fill: url(#linear-gradient-30);
      }

      .cls-81 {
        isolation: isolate;
      }

      .cls-19 {
        opacity: .882;
      }

      .cls-20 {
        opacity: .529;
      }
    </style>
    <radialGradient id="radial-gradient" cx="27.272" cy="11.494" fx="27.272" fy="11.494" r="26.918" gradientTransform="translate(0 4.746) scale(1 .587)" gradientUnits="userSpaceOnUse">
      <stop offset="0" stop-color="#00b856"/>
      <stop offset="1" stop-color="#3ff594"/>
    </radialGradient>
    <linearGradient id="linear-gradient" x1="24.111" y1="31.45" x2="53.444" y2="15.764" gradientUnits="userSpaceOnUse">
      <stop offset="0" stop-color="#00b85f"/>
      <stop offset=".12" stop-color="#005c2f"/>
      <stop offset="1" stop-color="#009646"/>
    </linearGradient>
    <linearGradient id="linear-gradient-2" x1=".084" y1="15.898" x2="23.98" y2="31.375" gradientUnits="userSpaceOnUse">
      <stop offset="0" stop-color="#00a64e"/>
      <stop offset=".347" stop-color="#00a24c"/>
      <stop offset=".652" stop-color="#009746"/>
      <stop offset=".855" stop-color="#008c41"/>
      <stop offset="1" stop-color="#00b856"/>
    </linearGradient>
    <symbol id="core-OK" viewBox="0 0 53.76 32.745">
      <g>
        <path class="cls-61" d="M53.14,14.987L23.99,30.995,.343,15.131,27.833,.401c1.095-.587,2.425-.526,3.462,.159l21.845,14.427Z"/>
        <path class="cls-21" d="M52.08,14.993l-27.199,14.499c-.248,.132-.52,.189-.79,.189v3.063c.508,.012,1.021-.095,1.486-.343l26.97-14.377c.747-.398,1.214-1.176,1.214-2.023,0-.862-.919-1.414-1.68-1.008Z"/>
        <path class="cls-54" d="M23.15,29.407L1.598,15.042c-.683-.455-1.598,.034-1.598,.855,0,.843,.421,1.631,1.123,2.099l21.372,14.254c.482,.322,1.037,.482,1.596,.495v-3.063c-.329,0-.657-.085-.94-.274Z"/>
        <path class="cls-26" d="M5.974,13.847v1.225c0,.242,.121,.468,.322,.602l17.13,11.422c.511,.341,1.169,.373,1.711,.084l22.354-12c.182-.098,.295-.287,.295-.494v-1.21"/>
        <path class="cls-25" d="M6.417,13.128L28.476,1.375c.634-.338,1.401-.3,1.999,.099l16.94,11.295c.526,.351,.487,1.136-.071,1.434l-22.646,12.066c-.272,.145-.601,.129-.857-.042L6.347,14.561c-.526-.351-.487-1.136,.071-1.434Z"/>
      </g>
    </symbol>
    <radialGradient id="radial-gradient-2" cx="27.272" cy="11.494" fx="27.272" fy="11.494" r="26.918" gradientTransform="translate(0 4.746) scale(1 .587)" gradientUnits="userSpaceOnUse">
      <stop offset="0" stop-color="#b81500"/>
      <stop offset="1" stop-color="#f5543f"/>
    </radialGradient>
    <linearGradient id="linear-gradient-3" x1="24.111" y1="31.45" x2="53.444" y2="15.764" gradientUnits="userSpaceOnUse">
      <stop offset="0" stop-color="#b81900"/>
      <stop offset=".12" stop-color="#5c0c00"/>
      <stop offset="1" stop-color="#961100"/>
    </linearGradient>
    <linearGradient id="linear-gradient-4" x1=".084" y1="15.898" x2="23.98" y2="31.375" gradientUnits="userSpaceOnUse">
      <stop offset="0" stop-color="#a61400"/>
      <stop offset=".347" stop-color="#a21300"/>
      <stop offset=".652" stop-color="#971100"/>
      <stop offset=".855" stop-color="#8c1000"/>
      <stop offset="1" stop-color="#b81500"/>
    </linearGradient>
    <symbol id="core-error" viewBox="0 0 53.76 32.745">
      <g>
        <path class="cls-48" d="M53.14,14.987L23.99,30.995,.343,15.131,27.833,.401c1.095-.587,2.425-.526,3.462,.159l21.845,14.427Z"/>
        <path class="cls-52" d="M52.08,14.993l-27.199,14.499c-.248,.132-.52,.189-.79,.189v3.063c.508,.012,1.021-.095,1.486-.343l26.97-14.377c.747-.398,1.214-1.176,1.214-2.023,0-.862-.919-1.414-1.68-1.008Z"/>
        <path class="cls-53" d="M23.15,29.407L1.598,15.042c-.683-.455-1.598,.034-1.598,.855,0,.843,.421,1.631,1.123,2.099l21.372,14.254c.482,.322,1.037,.482,1.596,.495v-3.063c-.329,0-.657-.085-.94-.274Z"/>
        <path class="cls-36" d="M5.974,13.847v1.225c0,.242,.121,.468,.322,.602l17.13,11.422c.511,.341,1.169,.373,1.711,.084l22.354-12c.182-.098,.295-.287,.295-.494v-1.21"/>
        <path class="cls-29" d="M6.417,13.128L28.476,1.375c.634-.338,1.401-.3,1.999,.099l16.94,11.295c.526,.351,.487,1.136-.071,1.434l-22.646,12.066c-.272,.145-.601,.129-.857-.042L6.347,14.561c-.526-.351-.487-1.136,.071-1.434Z"/>
      </g>
    </symbol>
    <symbol id="cores-more" viewBox="0 0 53.76 39.914">
      <g>
        <g id="fog">
          <path class="cls-22" d="M53.76,23.163c0,.85-.47,1.63-1.22,2.02l-26.97,14.38c-.46,.25-.98,.36-1.48,.35-.56-.02-1.12-.18-1.6-.5L1.12,25.163c-.7-.47-1.12-1.26-1.12-2.1,0-.32,.14-.59,.35-.76,.01-.02,.02-.03,.04-.04l.33-.17L27.83,7.563c1.1-.59,2.42-.52,3.46,.16l21.85,14.43-.01,.01c.37,.17,.63,.54,.63,1Z"/>
          <path class="cls-22" d="M53.76,20.776c0,.85-.47,1.63-1.22,2.02l-26.97,14.38c-.46,.25-.98,.36-1.48,.35-.56-.02-1.12-.18-1.6-.5L1.12,22.776c-.7-.47-1.12-1.26-1.12-2.1,0-.32,.14-.59,.35-.76,.01-.02,.02-.03,.04-.04l.33-.17L27.83,5.176c1.1-.59,2.42-.52,3.46,.16l21.85,14.43-.01,.01c.37,.17,.63,.54,.63,1Z"/>
          <path class="cls-22" d="M53.76,18.388c0,.85-.47,1.63-1.22,2.02l-26.97,14.38c-.46,.25-.98,.36-1.48,.35-.56-.02-1.12-.18-1.6-.5L1.12,20.388c-.7-.47-1.12-1.26-1.12-2.1,0-.32,.14-.59,.35-.76,.01-.02,.02-.03,.04-.04l.33-.17L27.83,2.788c1.1-.59,2.42-.52,3.46,.16l21.85,14.43-.01,.01c.37,.17,.63,.54,.63,1Z"/>
          <path class="cls-22" d="M53.76,16c0,.85-.47,1.63-1.22,2.02l-26.97,14.38c-.46,.25-.98,.36-1.48,.35-.56-.02-1.12-.18-1.6-.5L1.12,18c-.7-.47-1.12-1.26-1.12-2.1,0-.32,.14-.59,.35-.76,.01-.02,.02-.03,.04-.04l.33-.17L27.83,.4c1.1-.59,2.42-.52,3.46,.16l21.85,14.43-.01,.01c.37,.17,.63,.54,.63,1Z"/>
        </g>
        <g id="ellipsis">
          <circle class="cls-32" cx="13.762" cy="21.938" r="1.831"/>
          <circle class="cls-32" cx="13.762" cy="27.56" r="1.831"/>
          <circle class="cls-32" cx="13.762" cy="33.182" r="1.831"/>
        </g>
      </g>
    </symbol>
    <linearGradient id="linear-gradient-5" x1="-.47" y1="7.847" x2="23.573" y2="24.066" gradientUnits="userSpaceOnUse">
      <stop offset="0" stop-color="#7aff98"/>
      <stop offset=".129" stop-color="#88ffa3"/>
      <stop offset=".374" stop-color="#aeffc0"/>
      <stop offset=".708" stop-color="#ebfff0"/>
      <stop offset=".806" stop-color="#fff"/>
      <stop offset="1" stop-color="#fff"/>
    </linearGradient>
    <linearGradient id="linear-gradient-6" x1="20.909" y1="17.729" x2="19.914" y2="77.908" gradientUnits="userSpaceOnUse">
      <stop offset="0" stop-color="#fff"/>
      <stop offset=".005" stop-color="#fafdfc"/>
      <stop offset=".072" stop-color="#cbe7da"/>
      <stop offset=".145" stop-color="#a0d4bb"/>
      <stop offset=".222" stop-color="#7bc3a0"/>
      <stop offset=".304" stop-color="#5cb58a"/>
      <stop offset=".393" stop-color="#42a978"/>
      <stop offset=".492" stop-color="#2fa06a"/>
      <stop offset=".605" stop-color="#219a60"/>
      <stop offset=".746" stop-color="#19975a"/>
      <stop offset="1" stop-color="#179659"/>
    </linearGradient>
    <linearGradient id="linear-gradient-7" x1="27.751" y1="18.109" x2="-.69" y2="62.882" gradientUnits="userSpaceOnUse">
      <stop offset="0" stop-color="#298756"/>
      <stop offset=".31" stop-color="#44a45c"/>
      <stop offset=".762" stop-color="#66ca63"/>
      <stop offset="1" stop-color="#74d967"/>
    </linearGradient>
    <symbol id="drive-OK" viewBox="0 0 31.128 78.711">
      <g>
        <path class="cls-57" d="M29.988,15.211L7.828,.431c-.81-.54-1.75-.54-2.52-.18L1.378,2.211,9.589,27.815l21.29-11.534c-.196-.425-.493-.801-.891-1.07Z"/>
        <path class="cls-55" d="M9.589,27.815l16.239,50.636,4.18-2.11c.66-.45,1.12-1.2,1.12-2.12V17.351c0-.377-.096-.738-.249-1.07L9.589,27.815Z"/>
        <path class="cls-56" d="M0,61.368V4.489C0,2.438,2.286,1.214,3.992,2.352l22.157,14.777c.714,.476,1.143,1.278,1.143,2.136v56.874c0,2.051-2.286,3.274-3.992,2.136L1.143,63.504c-.714-.476-1.143-1.278-1.143-2.136Z"/>
        <g>
          <path class="cls-41" d="M5.481,59.331l.916-.947c.388,1.073,.936,1.865,1.563,2.26,.657,.414,.995,.147,.995-.832,0-.795-.229-1.37-.737-1.856l-.637-.601c-1.274-1.2-1.871-2.654-1.871-4.576,0-2.238,.816-2.934,2.349-1.969,.996,.627,1.723,1.599,2.24,3.003l-.916,.948c-.349-.932-.766-1.528-1.344-1.891-.627-.395-.906-.189-.906,.69,0,.763,.209,1.275,.697,1.748l.637,.617c1.364,1.324,1.911,2.563,1.911,4.519,0,2.454-.866,3.25-2.449,2.253-1.055-.665-1.852-1.763-2.449-3.366Z"/>
          <path class="cls-41" d="M10.919,62.757l.916-.947c.388,1.073,.936,1.865,1.563,2.26,.657,.414,.995,.147,.995-.832,0-.795-.229-1.37-.737-1.856l-.637-.601c-1.274-1.2-1.871-2.654-1.871-4.576,0-2.238,.816-2.934,2.349-1.969,.996,.627,1.723,1.599,2.24,3.003l-.916,.948c-.349-.932-.766-1.528-1.344-1.891-.627-.395-.906-.189-.906,.69,0,.763,.209,1.275,.697,1.748l.637,.617c1.364,1.324,1.911,2.563,1.911,4.519,0,2.454-.866,3.25-2.449,2.253-1.055-.665-1.852-1.763-2.449-3.366Z"/>
          <path class="cls-41" d="M16.876,56.565l2.439,1.537c1.693,1.066,2.718,3.354,2.718,7.497s-1.025,5.139-2.718,4.072l-2.439-1.537v-11.57Zm2.439,11.034c.786,.495,1.205,.012,1.205-1.563v-2.784c0-1.575-.418-2.584-1.205-3.079l-1.015-.64v7.426l1.015,.64Z"/>
        </g>
        <g>
          <path class="cls-43" d="M4.53,59.281l.916-.947c.388,1.073,.936,1.865,1.563,2.26,.657,.414,.995,.147,.995-.832,0-.795-.229-1.37-.737-1.856l-.637-.601c-1.274-1.2-1.871-2.654-1.871-4.576,0-2.238,.816-2.934,2.349-1.969,.996,.627,1.723,1.599,2.24,3.003l-.916,.948c-.349-.932-.766-1.528-1.344-1.891-.627-.395-.906-.189-.906,.69,0,.763,.209,1.275,.697,1.748l.637,.617c1.364,1.324,1.911,2.563,1.911,4.519,0,2.454-.866,3.25-2.449,2.253-1.055-.665-1.852-1.763-2.449-3.366Z"/>
          <path class="cls-43" d="M9.969,62.707l.916-.947c.388,1.073,.936,1.865,1.563,2.26,.657,.414,.995,.147,.995-.832,0-.795-.229-1.37-.737-1.856l-.637-.601c-1.274-1.2-1.871-2.654-1.871-4.576,0-2.238,.816-2.934,2.349-1.969,.996,.627,1.723,1.599,2.24,3.003l-.916,.948c-.349-.932-.766-1.528-1.344-1.891-.627-.395-.906-.189-.906,.69,0,.763,.209,1.275,.697,1.748l.637,.617c1.364,1.324,1.911,2.563,1.911,4.519,0,2.454-.866,3.25-2.449,2.253-1.055-.665-1.852-1.763-2.449-3.366Z"/>
          <path class="cls-43" d="M15.925,56.515l2.439,1.537c1.693,1.066,2.718,3.354,2.718,7.497s-1.025,5.139-2.718,4.072l-2.439-1.537v-11.57Zm2.439,11.034c.786,.495,1.205,.012,1.205-1.563v-2.784c0-1.575-.418-2.584-1.205-3.079l-1.015-.64v7.426l1.015,.64Z"/>
        </g>
      </g>
    </symbol>
    <linearGradient id="linear-gradient-8" x1="-.47" y1="7.847" x2="23.573" y2="24.066" gradientUnits="userSpaceOnUse">
      <stop offset="0" stop-color="#ff7654"/>
      <stop offset=".131" stop-color="#ff8162"/>
      <stop offset=".381" stop-color="#ffa088"/>
      <stop offset=".721" stop-color="#ffd0c5"/>
      <stop offset=".806" stop-color="#ffded6"/>
      <stop offset="1" stop-color="#fff"/>
    </linearGradient>
    <linearGradient id="linear-gradient-9" x1="20.909" y1="17.729" x2="19.914" y2="77.908" gradientUnits="userSpaceOnUse">
      <stop offset="0" stop-color="#fff"/>
      <stop offset=".005" stop-color="#fdfcfb"/>
      <stop offset=".072" stop-color="#e7d3cc"/>
      <stop offset=".144" stop-color="#d3afa1"/>
      <stop offset=".221" stop-color="#c2907c"/>
      <stop offset=".303" stop-color="#b4755d"/>
      <stop offset=".392" stop-color="#a86043"/>
      <stop offset=".491" stop-color="#9f4f30"/>
      <stop offset=".605" stop-color="#984322"/>
      <stop offset=".746" stop-color="#953d1a"/>
      <stop offset="1" stop-color="#943b18"/>
    </linearGradient>
    <linearGradient id="linear-gradient-10" x1="27.751" y1="18.109" x2="-.69" y2="62.882" gradientUnits="userSpaceOnUse">
      <stop offset="0" stop-color="#873c06"/>
      <stop offset=".398" stop-color="#b33b0d"/>
      <stop offset=".793" stop-color="#d93a14"/>
      <stop offset="1" stop-color="#e83a17"/>
    </linearGradient>
    <symbol id="drive-error" viewBox="0 0 31.128 78.711">
      <g>
        <path class="cls-50" d="M29.988,15.211L7.828,.431c-.81-.54-1.75-.54-2.52-.18L1.378,2.211,9.589,27.815l21.29-11.534c-.196-.425-.493-.801-.891-1.07Z"/>
        <path class="cls-51" d="M9.589,27.815l16.239,50.636,4.18-2.11c.66-.45,1.12-1.2,1.12-2.12V17.351c0-.377-.096-.738-.249-1.07L9.589,27.815Z"/>
        <path class="cls-73" d="M0,61.368V4.489C0,2.438,2.286,1.214,3.992,2.352l22.157,14.777c.714,.476,1.143,1.278,1.143,2.136v56.874c0,2.051-2.286,3.274-3.992,2.136L1.143,63.504c-.714-.476-1.143-1.278-1.143-2.136Z"/>
        <g>
          <path class="cls-34" d="M5.119,59.409l.916-.947c.388,1.073,.936,1.865,1.563,2.26,.657,.414,.995,.147,.995-.832,0-.795-.229-1.37-.737-1.856l-.637-.601c-1.274-1.2-1.871-2.654-1.871-4.576,0-2.238,.816-2.934,2.349-1.969,.996,.627,1.723,1.599,2.24,3.003l-.916,.948c-.349-.932-.766-1.528-1.344-1.891-.627-.395-.906-.189-.906,.69,0,.763,.209,1.275,.697,1.748l.637,.617c1.364,1.324,1.911,2.563,1.911,4.519,0,2.454-.866,3.25-2.449,2.253-1.055-.665-1.852-1.763-2.449-3.366Z"/>
          <path class="cls-34" d="M10.558,62.835l.916-.947c.388,1.073,.936,1.865,1.563,2.26,.657,.414,.995,.147,.995-.832,0-.795-.229-1.37-.737-1.856l-.637-.601c-1.274-1.2-1.871-2.654-1.871-4.576,0-2.238,.816-2.934,2.349-1.969,.996,.627,1.723,1.599,2.24,3.003l-.916,.948c-.349-.932-.766-1.528-1.344-1.891-.627-.395-.906-.189-.906,.69,0,.763,.209,1.275,.697,1.748l.637,.617c1.364,1.324,1.911,2.563,1.911,4.519,0,2.454-.866,3.25-2.449,2.253-1.055-.665-1.852-1.763-2.449-3.366Z"/>
          <path class="cls-34" d="M16.515,56.643l2.439,1.537c1.693,1.066,2.718,3.354,2.718,7.497s-1.025,5.139-2.718,4.072l-2.439-1.537v-11.57Zm2.439,11.034c.786,.495,1.205,.012,1.205-1.563v-2.784c0-1.575-.418-2.584-1.205-3.079l-1.015-.64v7.426l1.015,.64Z"/>
        </g>
        <g>
          <path class="cls-30" d="M4.169,59.359l.916-.947c.388,1.073,.936,1.865,1.563,2.26,.657,.414,.995,.147,.995-.832,0-.795-.229-1.37-.737-1.856l-.637-.601c-1.274-1.2-1.871-2.654-1.871-4.576,0-2.238,.816-2.934,2.349-1.969,.996,.627,1.723,1.599,2.24,3.003l-.916,.948c-.349-.932-.766-1.528-1.344-1.891-.627-.395-.906-.189-.906,.69,0,.763,.209,1.275,.697,1.748l.637,.617c1.364,1.324,1.911,2.563,1.911,4.519,0,2.454-.866,3.25-2.449,2.253-1.055-.665-1.852-1.763-2.449-3.366Z"/>
          <path class="cls-30" d="M9.607,62.785l.916-.947c.388,1.073,.936,1.865,1.563,2.26,.657,.414,.995,.147,.995-.832,0-.795-.229-1.37-.737-1.856l-.637-.601c-1.274-1.2-1.871-2.654-1.871-4.576,0-2.238,.816-2.934,2.349-1.969,.996,.627,1.723,1.599,2.24,3.003l-.916,.948c-.349-.932-.766-1.528-1.344-1.891-.627-.395-.906-.189-.906,.69,0,.763,.209,1.275,.697,1.748l.637,.617c1.364,1.324,1.911,2.563,1.911,4.519,0,2.454-.866,3.25-2.449,2.253-1.055-.665-1.852-1.763-2.449-3.366Z"/>
          <path class="cls-30" d="M15.564,56.593l2.439,1.537c1.693,1.066,2.718,3.354,2.718,7.497s-1.025,5.139-2.718,4.072l-2.439-1.537v-11.57Zm2.439,11.034c.786,.495,1.205,.012,1.205-1.563v-2.784c0-1.575-.418-2.584-1.205-3.079l-1.015-.64v7.426l1.015,.64Z"/>
        </g>
      </g>
    </symbol>
    <linearGradient id="linear-gradient-11" x1="-.47" y1="7.847" x2="23.573" y2="24.066" gradientUnits="userSpaceOnUse">
      <stop offset="0" stop-color="#fffee0"/>
      <stop offset=".428" stop-color="#fffeee"/>
      <stop offset=".806" stop-color="#fff"/>
      <stop offset="1" stop-color="#fff"/>
    </linearGradient>
    <linearGradient id="linear-gradient-12" x1="20.909" y1="17.729" x2="19.914" y2="77.908" gradientUnits="userSpaceOnUse">
      <stop offset="0" stop-color="#ffffd4"/>
      <stop offset=".058" stop-color="#e8e8c0"/>
      <stop offset=".156" stop-color="#cacaa4"/>
      <stop offset=".264" stop-color="#b0b08e"/>
      <stop offset=".384" stop-color="#9d9d7c"/>
      <stop offset=".521" stop-color="#8f8f70"/>
      <stop offset=".692" stop-color="#878769"/>
      <stop offset="1" stop-color="#858567"/>
    </linearGradient>
    <linearGradient id="linear-gradient-13" x1="27.751" y1="18.109" x2="-.69" y2="62.882" gradientUnits="userSpaceOnUse">
      <stop offset="0" stop-color="#878450"/>
      <stop offset=".398" stop-color="#b3a970"/>
      <stop offset=".793" stop-color="#d9c88c"/>
      <stop offset="1" stop-color="#e8d597"/>
    </linearGradient>
    <symbol id="drive-rebuilding" viewBox="0 0 31.128 78.711">
      <g>
        <path class="cls-74" d="M29.988,15.211L7.828,.431c-.81-.54-1.75-.54-2.52-.18L1.378,2.211,9.589,27.815l21.29-11.534c-.196-.425-.493-.801-.891-1.07Z"/>
        <path class="cls-72" d="M9.589,27.815l16.239,50.636,4.18-2.11c.66-.45,1.12-1.2,1.12-2.12V17.351c0-.377-.096-.738-.249-1.07L9.589,27.815Z"/>
        <path class="cls-71" d="M0,61.368V4.489C0,2.438,2.286,1.214,3.992,2.352l22.157,14.777c.714,.476,1.143,1.278,1.143,2.136v56.874c0,2.051-2.286,3.274-3.992,2.136L1.143,63.504c-.714-.476-1.143-1.278-1.143-2.136Z"/>
        <g>
          <path class="cls-44" d="M5.481,59.331l.916-.947c.388,1.073,.936,1.865,1.563,2.26,.657,.414,.995,.147,.995-.832,0-.795-.229-1.37-.737-1.856l-.637-.601c-1.274-1.2-1.871-2.654-1.871-4.576,0-2.238,.816-2.934,2.349-1.969,.996,.627,1.723,1.599,2.24,3.003l-.916,.948c-.349-.932-.766-1.528-1.344-1.891-.627-.395-.906-.189-.906,.69,0,.763,.209,1.275,.697,1.748l.637,.617c1.364,1.324,1.911,2.563,1.911,4.519,0,2.454-.866,3.25-2.449,2.253-1.055-.665-1.852-1.763-2.449-3.366Z"/>
          <path class="cls-44" d="M10.919,62.757l.916-.947c.388,1.073,.936,1.865,1.563,2.26,.657,.414,.995,.147,.995-.832,0-.795-.229-1.37-.737-1.856l-.637-.601c-1.274-1.2-1.871-2.654-1.871-4.576,0-2.238,.816-2.934,2.349-1.969,.996,.627,1.723,1.599,2.24,3.003l-.916,.948c-.349-.932-.766-1.528-1.344-1.891-.627-.395-.906-.189-.906,.69,0,.763,.209,1.275,.697,1.748l.637,.617c1.364,1.324,1.911,2.563,1.911,4.519,0,2.454-.866,3.25-2.449,2.253-1.055-.665-1.852-1.763-2.449-3.366Z"/>
          <path class="cls-44" d="M16.876,56.565l2.439,1.537c1.693,1.066,2.718,3.354,2.718,7.497s-1.025,5.139-2.718,4.072l-2.439-1.537v-11.57Zm2.439,11.034c.786,.495,1.205,.012,1.205-1.563v-2.784c0-1.575-.418-2.584-1.205-3.079l-1.015-.64v7.426l1.015,.64Z"/>
        </g>
        <g>
          <path class="cls-31" d="M4.53,59.281l.916-.947c.388,1.073,.936,1.865,1.563,2.26,.657,.414,.995,.147,.995-.832,0-.795-.229-1.37-.737-1.856l-.637-.601c-1.274-1.2-1.871-2.654-1.871-4.576,0-2.238,.816-2.934,2.349-1.969,.996,.627,1.723,1.599,2.24,3.003l-.916,.948c-.349-.932-.766-1.528-1.344-1.891-.627-.395-.906-.189-.906,.69,0,.763,.209,1.275,.697,1.748l.637,.617c1.364,1.324,1.911,2.563,1.911,4.519,0,2.454-.866,3.25-2.449,2.253-1.055-.665-1.852-1.763-2.449-3.366Z"/>
          <path class="cls-31" d="M9.969,62.707l.916-.947c.388,1.073,.936,1.865,1.563,2.26,.657,.414,.995,.147,.995-.832,0-.795-.229-1.37-.737-1.856l-.637-.601c-1.274-1.2-1.871-2.654-1.871-4.576,0-2.238,.816-2.934,2.349-1.969,.996,.627,1.723,1.599,2.24,3.003l-.916,.948c-.349-.932-.766-1.528-1.344-1.891-.627-.395-.906-.189-.906,.69,0,.763,.209,1.275,.697,1.748l.637,.617c1.364,1.324,1.911,2.563,1.911,4.519,0,2.454-.866,3.25-2.449,2.253-1.055-.665-1.852-1.763-2.449-3.366Z"/>
          <path class="cls-31" d="M15.925,56.515l2.439,1.537c1.693,1.066,2.718,3.354,2.718,7.497s-1.025,5.139-2.718,4.072l-2.439-1.537v-11.57Zm2.439,11.034c.786,.495,1.205,.012,1.205-1.563v-2.784c0-1.575-.418-2.584-1.205-3.079l-1.015-.64v7.426l1.015,.64Z"/>
        </g>
      </g>
    </symbol>
    <symbol id="drives-more" viewBox="0 0 37.712 81.902">
      <g>
        <g id="fog-2" data-name="fog">
          <path class="cls-22" d="M10.419,59.451V2.572c0-2.051,2.286-3.274,3.992-2.136l22.157,14.777c.714,.476,1.143,1.278,1.143,2.136v56.874c0,2.051-2.286,3.274-3.992,2.136l-22.157-14.772c-.714-.476-1.143-1.278-1.143-2.136Z"/>
          <path class="cls-22" d="M7.814,60.728V3.849c0-2.051,2.286-3.274,3.992-2.136l22.157,14.777c.714,.476,1.143,1.278,1.143,2.136v56.874c0,2.051-2.286,3.274-3.992,2.136l-22.157-14.772c-.714-.476-1.143-1.278-1.143-2.136Z"/>
          <path class="cls-22" d="M5.21,62.005V5.126c0-2.051,2.286-3.274,3.992-2.136l22.157,14.777c.714,.476,1.143,1.278,1.143,2.136v56.874c0,2.051-2.286,3.274-3.992,2.136l-22.157-14.772c-.714-.476-1.143-1.278-1.143-2.136Z"/>
          <path class="cls-22" d="M2.605,63.282V6.403c0-2.051,2.286-3.274,3.992-2.136l22.157,14.777c.714,.476,1.143,1.278,1.143,2.136v56.874c0,2.051-2.286,3.274-3.992,2.136L3.748,65.418c-.714-.476-1.143-1.278-1.143-2.136Z"/>
          <path class="cls-22" d="M0,64.559V7.68c0-2.051,2.286-3.274,3.992-2.136l22.157,14.777c.714,.476,1.143,1.278,1.143,2.136v56.874c0,2.051-2.286,3.274-3.992,2.136L1.143,66.695c-.714-.476-1.143-1.278-1.143-2.136Z"/>
        </g>
        <g id="elipsis">
          <circle class="cls-32" cx="15.058" cy="13.723" r="1.831"/>
          <circle class="cls-32" cx="20.087" cy="11.209" r="1.831"/>
          <circle class="cls-32" cx="25.116" cy="8.696" r="1.831"/>
        </g>
      </g>
    </symbol>
    <linearGradient id="linear-gradient-14" x1="208.853" y1="107.233" x2="208.853" y2="283.968" gradientUnits="userSpaceOnUse">
      <stop offset="0" stop-color="#3d3d3d"/>
      <stop offset="1" stop-color="#595959"/>
    </linearGradient>
    <linearGradient id="linear-gradient-15" x1="39.481" y1="249.125" x2="378.325" y2="249.125" gradientUnits="userSpaceOnUse">
      <stop offset="0" stop-color="#0071bc"/>
      <stop offset=".079" stop-color="#0079ca"/>
      <stop offset=".23" stop-color="#0091f0"/>
      <stop offset=".283" stop-color="#009aff"/>
      <stop offset=".59" stop-color="#007dd1"/>
      <stop offset="1" stop-color="#00558f"/>
    </linearGradient>
    <linearGradient id="linear-gradient-16" x1="38.392" y1="196.601" x2="379.313" y2="196.601" gradientUnits="userSpaceOnUse">
      <stop offset="0" stop-color="#026ae0"/>
      <stop offset=".369" stop-color="#45afff"/>
      <stop offset="1" stop-color="#026ae0"/>
    </linearGradient>
    <linearGradient id="linear-gradient-17" x1="259.264" y1="182.352" x2="246.645" y2="144.494" gradientUnits="userSpaceOnUse">
      <stop offset="0" stop-color="#3d7eba"/>
      <stop offset="1" stop-color="#214566"/>
    </linearGradient>
    <radialGradient id="radial-gradient-3" cx="227.955" cy="73.876" fx="227.955" fy="73.876" r="99.66" gradientTransform="translate(0 19.001) scale(1 .743)" gradientUnits="userSpaceOnUse">
      <stop offset="0" stop-color="#e8f4ff"/>
      <stop offset="1" stop-color="#a3d1ff"/>
    </radialGradient>
    <linearGradient id="linear-gradient-18" x1="157.912" y1="180.121" x2="177.301" y2="147.869" gradientUnits="userSpaceOnUse">
      <stop offset="0" stop-color="#61a6e8"/>
      <stop offset="1" stop-color="#61a6e8"/>
    </linearGradient>
    <linearGradient id="linear-gradient-19" x1="159.572" y1="180.07" x2="177.001" y2="145.845" gradientUnits="userSpaceOnUse">
      <stop offset="0" stop-color="#000" stop-opacity="0"/>
      <stop offset="1" stop-color="#000"/>
    </linearGradient>
    <linearGradient id="linear-gradient-20" x1="259.264" y1="182.352" x2="246.645" y2="144.494" gradientUnits="userSpaceOnUse">
      <stop offset="0" stop-color="#ba251d"/>
      <stop offset="1" stop-color="#662421"/>
    </linearGradient>
    <radialGradient id="radial-gradient-4" cx="227.955" cy="73.876" fx="227.955" fy="73.876" r="99.66" gradientTransform="translate(0 19.001) scale(1 .743)" gradientUnits="userSpaceOnUse">
      <stop offset="0" stop-color="#ffe9e8"/>
      <stop offset="1" stop-color="#ffa8a3"/>
    </radialGradient>
    <linearGradient id="linear-gradient-21" x1="157.912" y1="180.121" x2="177.301" y2="147.869" gradientUnits="userSpaceOnUse">
      <stop offset="0" stop-color="#e86861"/>
      <stop offset="1" stop-color="#e86861"/>
    </linearGradient>
    <linearGradient id="linear-gradient-22" x1="271.097" y1="150.194" x2="281.99" y2="150.194" gradientUnits="userSpaceOnUse">
      <stop offset="0" stop-color="#e8e8e8"/>
      <stop offset=".504" stop-color="#d9d9d9"/>
      <stop offset="1" stop-color="#c7c7c7"/>
    </linearGradient>
    <linearGradient id="linear-gradient-23" x1="329.066" y1="162.059" x2="329.066" y2="133.56" gradientUnits="userSpaceOnUse">
      <stop offset="0" stop-color="#f2f2f2"/>
      <stop offset=".037" stop-color="#f5f5f5"/>
      <stop offset=".185" stop-color="#fcfcfc"/>
      <stop offset=".5" stop-color="#fff"/>
      <stop offset=".719" stop-color="#fcfcfc"/>
      <stop offset=".876" stop-color="#f2f2f2"/>
      <stop offset="1" stop-color="#e5e5e5"/>
    </linearGradient>
    <linearGradient id="linear-gradient-24" x1="318.566" x2="318.566" xlink:href="#linear-gradient-23"/>
    <linearGradient id="linear-gradient-25" x1="303.066" x2="303.066" xlink:href="#linear-gradient-23"/>
    <linearGradient id="linear-gradient-26" x1="237.143" y1="183.286" x2="228.736" y2="167.02" gradientUnits="userSpaceOnUse">
      <stop offset="0" stop-color="#d2d2d2"/>
      <stop offset="1" stop-color="#8c8c8c"/>
    </linearGradient>
    <linearGradient id="linear-gradient-27" x1="230.55" y1="166.145" x2="237.11" y2="166.145" gradientUnits="userSpaceOnUse">
      <stop offset="0" stop-color="#000"/>
      <stop offset="1" stop-color="#595959"/>
    </linearGradient>
    <linearGradient id="linear-gradient-28" x1="232.055" y1="169.298" x2="249.582" y2="176.066" gradientUnits="userSpaceOnUse">
      <stop offset="0" stop-color="#000"/>
      <stop offset="1" stop-color="#000" stop-opacity=".5"/>
    </linearGradient>
    <linearGradient id="linear-gradient-29" x1="253.576" y1="195.311" x2="314.168" y2="218.71" gradientTransform="translate(-16.574 24.272) rotate(-5.212)" gradientUnits="userSpaceOnUse">
      <stop offset="0" stop-color="#000"/>
      <stop offset=".342" stop-color="#070707" stop-opacity=".971"/>
      <stop offset=".847" stop-color="#8d8d8d" stop-opacity=".398"/>
      <stop offset="1" stop-color="#ebebeb" stop-opacity="0"/>
    </linearGradient>
    <linearGradient id="linear-gradient-30" x1="257.214" y1="195.244" x2="312.207" y2="216.482" gradientTransform="translate(-16.574 24.272) rotate(-5.212)" gradientUnits="userSpaceOnUse">
      <stop offset="0" stop-color="#595959"/>
      <stop offset=".342" stop-color="#595959" stop-opacity=".971"/>
      <stop offset=".403" stop-color="#676767" stop-opacity=".852"/>
      <stop offset=".667" stop-color="#a1a1a1" stop-opacity=".391"/>
      <stop offset=".875" stop-color="#c4c4c4" stop-opacity=".105"/>
      <stop offset="1" stop-color="#d2d2d2" stop-opacity="0"/>
    </linearGradient>
  </defs>
  <g class="cls-81">
    <g id="Background">
      <rect id="Background-2" data-name="Background" class="cls-39" width="418" height="342"/>
    </g>
    <g id="Plate">
      <g id="Regular">
        <ellipse class="cls-40" cx="208.853" cy="198.922" rx="167.155" ry="88.368"/>
        <ellipse class="cls-62" cx="208.853" cy="195.601" rx="167.155" ry="88.368"/>
      </g>
      <g id="Selected">
        <path class="cls-68" d="M378.325,205.587c0,52.171-75.855,94.474-169.427,94.474S39.481,257.758,39.481,205.587c0-2.491,.172-4.961,.517-7.398,6.771,48.707,79.798,87.065,168.9,87.065s162.14-38.358,168.91-87.065c.345,2.438,.517,4.907,.517,7.398Z"/>
        <ellipse class="cls-32" cx="208.903" cy="195.601" rx="167.155" ry="88.368"/>
        <g>
          <ellipse class="cls-39" cx="208.853" cy="195.601" rx="168.461" ry="89.058"/>
          <path class="cls-69" d="M378.313,195.601l-.135,3.301c-.034,.549-.021,1.103-.094,1.649l-.224,1.637c-.172,1.087-.25,2.194-.501,3.266l-.751,3.219c-1.196,4.23-2.738,8.395-4.899,12.228-4.111,7.799-9.932,14.527-16.331,20.458-6.436,5.925-13.583,11.019-21.083,15.453-7.51,4.427-15.373,8.224-23.436,11.491-8.069,3.258-16.334,6.002-24.71,8.325-8.381,2.296-16.857,4.278-25.429,5.701-8.568,1.44-17.192,2.521-25.846,3.258-8.658,.679-17.338,1.025-26.021,1.072-8.683-.073-17.36-.446-26.014-1.151-8.649-.763-17.267-1.87-25.826-3.334-17.105-2.975-33.976-7.497-50.13-13.959-8.075-3.23-15.925-7.048-23.433-11.469-7.495-4.435-14.636-9.527-21.065-15.449-6.392-5.928-12.204-12.651-16.307-20.439-2.157-3.827-3.694-7.986-4.887-12.208l-.749-3.213c-.251-1.07-.328-2.175-.499-3.26l-.223-1.634c-.073-.545-.06-1.098-.094-1.646l-.134-3.294,.178-3.292c.041-.547,.035-1.099,.115-1.642l.244-1.629c.185-1.081,.277-2.181,.541-3.245l.789-3.193c1.246-4.193,2.83-8.308,5.026-12.086,4.181-7.688,10.045-14.286,16.471-20.087,12.971-11.594,28.502-19.829,44.525-26.186,16.088-6.319,32.887-10.71,49.911-13.561,8.518-1.403,17.092-2.449,25.695-3.154,8.608-.646,17.235-.963,25.865-.982,8.63,.025,17.257,.347,25.864,.999,8.602,.71,17.174,1.763,25.69,3.171,17.024,2.83,33.839,7.156,49.951,13.439,8.052,3.141,15.911,6.812,23.428,11.112,7.507,4.308,14.67,9.275,21.138,15.078,6.432,5.809,12.302,12.418,16.488,20.12,2.2,3.785,3.786,7.908,5.033,12.11l.79,3.2c.265,1.067,.356,2.169,.542,3.252l.244,1.632c.08,.544,.074,1.097,.115,1.646l.177,3.298Zm-2,0l-.132-3.166c-.033-.527-.018-1.058-.09-1.582l-.216-1.571c-.166-1.043-.237-2.105-.48-3.135l-.723-3.093c-1.155-4.067-2.633-8.081-4.73-11.79-3.976-7.545-9.652-14.113-15.925-19.922-6.309-5.805-13.344-10.819-20.746-15.191-7.412-4.365-15.188-8.118-23.172-11.348-7.989-3.225-16.181-5.944-24.488-8.247-8.312-2.278-16.725-4.239-25.235-5.659-8.505-1.438-17.07-2.521-25.667-3.262-8.601-.683-17.227-1.036-25.856-1.092-8.63,.062-17.254,.421-25.855,1.109-8.595,.747-17.159,1.835-25.662,3.279-16.994,2.932-33.747,7.402-49.764,13.784-8.007,3.187-15.778,6.969-23.197,11.333-7.407,4.378-14.447,9.398-20.762,15.211-6.279,5.818-11.962,12.395-15.943,19.955-2.099,3.717-3.58,7.738-4.736,11.814l-.723,3.099c-.244,1.032-.314,2.096-.481,3.141l-.217,1.574c-.072,.525-.057,1.057-.089,1.585l-.131,3.173,.175,3.17c.04,.527,.032,1.058,.111,1.582l.238,1.569c.181,1.042,.266,2.1,.523,3.127l.764,3.079c1.209,4.046,2.736,8.025,4.875,11.692,4.06,7.459,9.794,13.912,16.107,19.603,12.742,11.377,28.101,19.536,43.987,25.811,15.951,6.24,32.633,10.578,49.544,13.386,8.463,1.382,16.982,2.41,25.531,3.099,8.554,.63,17.129,.933,25.706,.94,8.576-.034,17.149-.362,25.699-1.019,8.545-.715,17.058-1.768,25.511-3.175,16.9-2.815,33.583-7.1,49.535-13.32,7.973-3.105,15.745-6.731,23.163-10.97,7.408-4.246,14.46-9.133,20.801-14.815,6.305-5.688,12.031-12.136,16.083-19.584,2.135-3.662,3.658-7.634,4.863-11.673l.761-3.074c.257-1.025,.341-2.081,.521-3.121l.237-1.566c.078-.522,.071-1.052,.11-1.578l.174-3.163Z"/>
        </g>
      </g>
    </g>
    <g id="Box">
      <g id="box-OK">
        <polygon class="cls-70" points="300.596 114.349 300.596 162.349 204.596 210.349 204.596 162.349 300.596 114.349"/>
        <g>
          <polygon class="cls-46" points="300.596 114.349 204.596 162.349 132.596 114.349 228.596 66.349 300.596 114.349"/>
          <g class="cls-59">
            <path class="cls-32" d="M228.453,68.657l68.167,45.445-91.879,45.94-68.167-45.445,91.879-45.94m.144-2.308l-96,48,72,48,96-48-72-48h0Z"/>
          </g>
        </g>
        <g>
          <polygon class="cls-63" points="204.596 162.349 204.596 210.349 132.596 162.349 132.596 114.349 204.596 162.349"/>
          <polygon class="cls-45" points="204.596 162.349 204.596 210.349 132.596 162.349 132.596 114.349 204.596 162.349"/>
        </g>
        <g id="Lines">
          <g id="left" class="cls-22">
            <line class="cls-10" x1="137.235" y1="121.494" x2="137.235" y2="160.496"/>
            <line class="cls-10" x1="140.546" y1="123.734" x2="140.546" y2="162.736"/>
            <line class="cls-10" x1="143.858" y1="125.974" x2="143.858" y2="164.976"/>
            <line class="cls-10" x1="147.169" y1="128.214" x2="147.169" y2="167.216"/>
            <line class="cls-10" x1="150.481" y1="130.454" x2="150.481" y2="169.456"/>
            <line class="cls-10" x1="153.792" y1="132.694" x2="153.792" y2="171.696"/>
            <line class="cls-10" x1="157.104" y1="134.934" x2="157.104" y2="173.936"/>
            <line class="cls-10" x1="160.415" y1="137.174" x2="160.415" y2="176.176"/>
            <line class="cls-10" x1="163.727" y1="139.414" x2="163.727" y2="178.416"/>
            <line class="cls-10" x1="167.038" y1="141.654" x2="167.038" y2="180.656"/>
            <line class="cls-10" x1="170.35" y1="143.894" x2="170.35" y2="182.896"/>
            <line class="cls-10" x1="173.662" y1="146.133" x2="173.662" y2="185.136"/>
            <line class="cls-10" x1="176.973" y1="148.373" x2="176.973" y2="187.376"/>
            <line class="cls-10" x1="180.285" y1="150.613" x2="180.285" y2="189.616"/>
            <line class="cls-10" x1="183.596" y1="152.853" x2="183.596" y2="191.856"/>
            <line class="cls-10" x1="186.908" y1="155.093" x2="186.908" y2="194.096"/>
            <line class="cls-10" x1="190.219" y1="157.333" x2="190.219" y2="196.336"/>
            <line class="cls-10" x1="193.531" y1="159.573" x2="193.531" y2="198.576"/>
            <line class="cls-10" x1="196.842" y1="161.813" x2="196.842" y2="200.816"/>
            <line class="cls-10" x1="200.154" y1="164.053" x2="200.154" y2="203.056"/>
          </g>
          <g id="right" class="cls-22">
            <line class="cls-10" x1="209.353" y1="164.912" x2="209.353" y2="203.914"/>
            <line class="cls-10" x1="212.95" y1="163.149" x2="212.95" y2="202.151"/>
            <line class="cls-10" x1="216.548" y1="161.386" x2="216.548" y2="200.388"/>
            <line class="cls-10" x1="220.146" y1="159.623" x2="220.146" y2="198.625"/>
            <line class="cls-10" x1="223.744" y1="157.859" x2="223.744" y2="196.862"/>
            <line class="cls-10" x1="227.341" y1="156.096" x2="227.341" y2="195.099"/>
            <line class="cls-10" x1="230.939" y1="154.333" x2="230.939" y2="193.336"/>
            <line class="cls-10" x1="234.537" y1="152.57" x2="234.537" y2="191.573"/>
            <line class="cls-10" x1="238.134" y1="150.807" x2="238.134" y2="189.81"/>
            <line class="cls-10" x1="241.732" y1="149.044" x2="241.732" y2="188.047"/>
            <line class="cls-10" x1="245.33" y1="147.281" x2="245.33" y2="186.284"/>
            <line class="cls-10" x1="248.928" y1="145.518" x2="248.928" y2="184.52"/>
            <line class="cls-10" x1="252.525" y1="143.755" x2="252.525" y2="182.757"/>
            <line class="cls-10" x1="256.123" y1="141.992" x2="256.123" y2="180.994"/>
            <line class="cls-10" x1="259.721" y1="140.229" x2="259.721" y2="179.231"/>
            <line class="cls-10" x1="263.319" y1="138.465" x2="263.319" y2="177.468"/>
            <line class="cls-10" x1="266.916" y1="136.702" x2="266.916" y2="175.705"/>
            <line class="cls-10" x1="270.514" y1="134.939" x2="270.514" y2="173.942"/>
            <line class="cls-10" x1="274.112" y1="133.176" x2="274.112" y2="172.179"/>
            <line class="cls-10" x1="277.709" y1="131.413" x2="277.709" y2="170.416"/>
            <line class="cls-10" x1="281.307" y1="129.65" x2="281.307" y2="168.653"/>
            <line class="cls-10" x1="284.905" y1="127.887" x2="284.905" y2="166.89"/>
            <line class="cls-10" x1="288.503" y1="126.124" x2="288.503" y2="165.126"/>
            <line class="cls-10" x1="292.1" y1="124.361" x2="292.1" y2="163.363"/>
            <line class="cls-10" x1="295.698" y1="122.598" x2="295.698" y2="161.6"/>
          </g>
          <g id="top" class="cls-60">
            <line class="cls-17" x1="149.109" y1="115.077" x2="227.227" y2="76.447"/>
            <line class="cls-20" x1="152.484" y1="117.303" x2="230.536" y2="78.586"/>
            <line class="cls-4" x1="155.858" y1="119.529" x2="233.844" y2="80.726"/>
            <line class="cls-12" x1="159.232" y1="121.755" x2="237.153" y2="82.865"/>
            <line class="cls-9" x1="162.606" y1="123.981" x2="240.461" y2="85.005"/>
            <line class="cls-7" x1="165.98" y1="126.208" x2="243.77" y2="87.144"/>
            <line class="cls-13" x1="169.354" y1="128.434" x2="247.078" y2="89.284"/>
            <line class="cls-6" x1="172.729" y1="130.66" x2="250.387" y2="91.423"/>
            <line class="cls-16" x1="176.103" y1="132.886" x2="253.695" y2="93.563"/>
            <line class="cls-18" x1="179.477" y1="135.112" x2="257.003" y2="95.702"/>
            <line class="cls-14" x1="182.851" y1="137.338" x2="260.312" y2="97.841"/>
            <line class="cls-1" x1="186.225" y1="139.565" x2="263.62" y2="99.981"/>
            <line class="cls-8" x1="189.6" y1="141.791" x2="266.929" y2="102.12"/>
            <line class="cls-19" x1="192.974" y1="144.017" x2="270.237" y2="104.26"/>
            <line class="cls-5" x1="196.348" y1="146.243" x2="273.546" y2="106.399"/>
            <line class="cls-3" x1="199.722" y1="148.469" x2="276.854" y2="108.539"/>
            <line class="cls-2" x1="203.096" y1="150.695" x2="280.163" y2="110.678"/>
            <line class="cls-11" x1="206.47" y1="152.922" x2="283.471" y2="112.818"/>
          </g>
        </g>
      </g>
      <g id="box-error">
        <polygon class="cls-65" points="300.596 114.349 300.596 162.349 204.596 210.349 204.596 162.349 300.596 114.349"/>
        <g>
          <polygon class="cls-47" points="300.596 114.349 204.596 162.349 132.596 114.349 228.596 66.349 300.596 114.349"/>
          <g class="cls-59">
            <path class="cls-32" d="M228.453,68.657l68.167,45.445-91.879,45.94-68.167-45.445,91.879-45.94m.144-2.308l-96,48,72,48,96-48-72-48h0Z"/>
          </g>
        </g>
        <g>
          <polygon class="cls-66" points="204.596 162.349 204.596 210.349 132.596 162.349 132.596 114.349 204.596 162.349"/>
          <polygon class="cls-45" points="204.596 162.349 204.596 210.349 132.596 162.349 132.596 114.349 204.596 162.349"/>
        </g>
        <g id="Lines-2" data-name="Lines">
          <g id="left-2" data-name="left" class="cls-22">
            <line class="cls-10" x1="137.235" y1="121.494" x2="137.235" y2="160.496"/>
            <line class="cls-10" x1="140.546" y1="123.734" x2="140.546" y2="162.736"/>
            <line class="cls-10" x1="143.858" y1="125.974" x2="143.858" y2="164.976"/>
            <line class="cls-10" x1="147.169" y1="128.214" x2="147.169" y2="167.216"/>
            <line class="cls-10" x1="150.481" y1="130.454" x2="150.481" y2="169.456"/>
            <line class="cls-10" x1="153.792" y1="132.694" x2="153.792" y2="171.696"/>
            <line class="cls-10" x1="157.104" y1="134.934" x2="157.104" y2="173.936"/>
            <line class="cls-10" x1="160.415" y1="137.174" x2="160.415" y2="176.176"/>
            <line class="cls-10" x1="163.727" y1="139.414" x2="163.727" y2="178.416"/>
            <line class="cls-10" x1="167.038" y1="141.654" x2="167.038" y2="180.656"/>
            <line class="cls-10" x1="170.35" y1="143.894" x2="170.35" y2="182.896"/>
            <line class="cls-10" x1="173.662" y1="146.133" x2="173.662" y2="185.136"/>
            <line class="cls-10" x1="176.973" y1="148.373" x2="176.973" y2="187.376"/>
            <line class="cls-10" x1="180.285" y1="150.613" x2="180.285" y2="189.616"/>
            <line class="cls-10" x1="183.596" y1="152.853" x2="183.596" y2="191.856"/>
            <line class="cls-10" x1="186.908" y1="155.093" x2="186.908" y2="194.096"/>
            <line class="cls-10" x1="190.219" y1="157.333" x2="190.219" y2="196.336"/>
            <line class="cls-10" x1="193.531" y1="159.573" x2="193.531" y2="198.576"/>
            <line class="cls-10" x1="196.842" y1="161.813" x2="196.842" y2="200.816"/>
            <line class="cls-10" x1="200.154" y1="164.053" x2="200.154" y2="203.056"/>
          </g>
          <g id="right-2" data-name="right" class="cls-22">
            <line class="cls-10" x1="209.353" y1="164.912" x2="209.353" y2="203.914"/>
            <line class="cls-10" x1="212.95" y1="163.149" x2="212.95" y2="202.151"/>
            <line class="cls-10" x1="216.548" y1="161.386" x2="216.548" y2="200.388"/>
            <line class="cls-10" x1="220.146" y1="159.623" x2="220.146" y2="198.625"/>
            <line class="cls-10" x1="223.744" y1="157.859" x2="223.744" y2="196.862"/>
            <line class="cls-10" x1="227.341" y1="156.096" x2="227.341" y2="195.099"/>
            <line class="cls-10" x1="230.939" y1="154.333" x2="230.939" y2="193.336"/>
            <line class="cls-10" x1="234.537" y1="152.57" x2="234.537" y2="191.573"/>
            <line class="cls-10" x1="238.134" y1="150.807" x2="238.134" y2="189.81"/>
            <line class="cls-10" x1="241.732" y1="149.044" x2="241.732" y2="188.047"/>
            <line class="cls-10" x1="245.33" y1="147.281" x2="245.33" y2="186.284"/>
            <line class="cls-10" x1="248.928" y1="145.518" x2="248.928" y2="184.52"/>
            <line class="cls-10" x1="252.525" y1="143.755" x2="252.525" y2="182.757"/>
            <line class="cls-10" x1="256.123" y1="141.992" x2="256.123" y2="180.994"/>
            <line class="cls-10" x1="259.721" y1="140.229" x2="259.721" y2="179.231"/>
            <line class="cls-10" x1="263.319" y1="138.465" x2="263.319" y2="177.468"/>
            <line class="cls-10" x1="266.916" y1="136.702" x2="266.916" y2="175.705"/>
            <line class="cls-10" x1="270.514" y1="134.939" x2="270.514" y2="173.942"/>
            <line class="cls-10" x1="274.112" y1="133.176" x2="274.112" y2="172.179"/>
            <line class="cls-10" x1="277.709" y1="131.413" x2="277.709" y2="170.416"/>
            <line class="cls-10" x1="281.307" y1="129.65" x2="281.307" y2="168.653"/>
            <line class="cls-10" x1="284.905" y1="127.887" x2="284.905" y2="166.89"/>
            <line class="cls-10" x1="288.503" y1="126.124" x2="288.503" y2="165.126"/>
            <line class="cls-10" x1="292.1" y1="124.361" x2="292.1" y2="163.363"/>
            <line class="cls-10" x1="295.698" y1="122.598" x2="295.698" y2="161.6"/>
          </g>
          <g id="top-2" data-name="top" class="cls-60">
            <line class="cls-17" x1="149.109" y1="115.077" x2="227.227" y2="76.447"/>
            <line class="cls-20" x1="152.484" y1="117.303" x2="230.536" y2="78.586"/>
            <line class="cls-4" x1="155.858" y1="119.529" x2="233.844" y2="80.726"/>
            <line class="cls-12" x1="159.232" y1="121.755" x2="237.153" y2="82.865"/>
            <line class="cls-9" x1="162.606" y1="123.981" x2="240.461" y2="85.005"/>
            <line class="cls-7" x1="165.98" y1="126.208" x2="243.77" y2="87.144"/>
            <line class="cls-13" x1="169.354" y1="128.434" x2="247.078" y2="89.284"/>
            <line class="cls-6" x1="172.729" y1="130.66" x2="250.387" y2="91.423"/>
            <line class="cls-16" x1="176.103" y1="132.886" x2="253.695" y2="93.563"/>
            <line class="cls-18" x1="179.477" y1="135.112" x2="257.003" y2="95.702"/>
            <line class="cls-14" x1="182.851" y1="137.338" x2="260.312" y2="97.841"/>
            <line class="cls-1" x1="186.225" y1="139.565" x2="263.62" y2="99.981"/>
            <line class="cls-8" x1="189.6" y1="141.791" x2="266.929" y2="102.12"/>
            <line class="cls-19" x1="192.974" y1="144.017" x2="270.237" y2="104.26"/>
            <line class="cls-5" x1="196.348" y1="146.243" x2="273.546" y2="106.399"/>
            <line class="cls-3" x1="199.722" y1="148.469" x2="276.854" y2="108.539"/>
            <line class="cls-2" x1="203.096" y1="150.695" x2="280.163" y2="110.678"/>
            <line class="cls-11" x1="206.47" y1="152.922" x2="283.471" y2="112.818"/>
          </g>
        </g>
      </g>
    </g>
    <g id="Labels">
      <g id="label-drives">
        <text id="label-2" data-name="label" class="white" transform="translate(52.055 96.473)"><tspan x="0" y="0">Drives</tspan></text>
        <g id="pointer" class="cls-58">
          <g>
            <path class="cls-15" d="M52.786,80.849h102.234c2.209,0,4,1.791,4,4v30.533"/>
            <path class="cls-32" d="M155.261,115.194c0,2.076,1.684,3.76,3.76,3.76s3.76-1.684,3.76-3.76-1.684-3.76-3.76-3.76-3.76,1.684-3.76,3.76Z"/>
          </g>
        </g>
      </g>
      <g id="label-load">
        <text class="white" transform="translate(331.367 305.049)"><tspan x="0" y="0">Load</tspan></text>
        <g id="pointer-2" data-name="pointer" class="cls-58">
          <g>
            <path class="cls-15" d="M366.007,290.33l-44.521-.223c-2.205-.011-3.987-1.802-3.987-4.007v-11.173c0-2.213-1.794-4.006-4.007-4.006h-48.063"/>
            <circle class="cls-32" cx="265.618" cy="270.922" r="3.76"/>
          </g>
        </g>
      </g>
      <g id="label-cores">
        <text class="white" transform="translate(324.743 96.473)"><tspan x="0" y="0">Cores</tspan></text>
        <g id="pointer-3" data-name="pointer" class="cls-58">
          <g>
            <line class="cls-15" x1="264.058" y1="80.849" x2="366.008" y2="80.849"/>
            <circle class="cls-32" cx="264.246" cy="80.849" r="3.76"/>
          </g>
        </g>
      </g>
      <g id="label-net">
        <text class="white" transform="translate(332.503 202.7)"><tspan x="0" y="0">Nets</tspan></text>
        <g id="pointer-4" data-name="pointer" class="cls-58">
          <g>
            <line class="cls-15" x1="364.967" y1="188.708" x2="281.498" y2="188.708"/>
            <circle class="cls-32" cx="281.686" cy="188.708" r="3.76"/>
          </g>
        </g>
      </g>
    </g>
    <g id="Protocols">
      <g id="badge-for-3">
        <path id="shoadow-left" class="cls-58" d="M271.992,139.542l9.6-5.014,.533,28.143-8.795,4.723c-1.129,.565-2.873-.369-2.873-1.632v-23.686c0-1.065,.592-2.041,1.535-2.534Z"/>
        <path id="body-left" class="cls-64" d="M272.525,138.575l9.6-5.014v28.499l-8.677,4.587c-1.129,.565-2.458-.257-2.458-1.519v-24.019c0-1.065,.592-2.041,1.535-2.534Z"/>
        <path id="shadow-main" class="cls-58" d="M282.125,134.181h90.883c1.656,0,3,1.344,3,3v22.499c0,1.656-1.344,3-3,3h-90.883v-28.499h0Z"/>
        <path id="body-main" class="cls-67" d="M282.125,133.56h90.883c1.656,0,3,1.344,3,3v22.499c0,1.656-1.344,3-3,3h-90.883v-28.499h0Z"/>
        <polygon id="light" class="cls-32" points="282.125 133.56 373.008 133.56 370.88 132.651 282.125 133.177 277.926 135.753 282.125 133.56"/>
      </g>
      <g id="badge-for-2">
        <path id="shoadow-left-2" data-name="shoadow-left" class="cls-58" d="M271.992,139.542l9.6-5.014,.533,28.143-8.795,4.723c-1.129,.565-2.873-.369-2.873-1.632v-23.686c0-1.065,.592-2.041,1.535-2.534Z"/>
        <path id="body-left-2" data-name="body-left" class="cls-64" d="M272.525,138.575l9.6-5.014v28.499l-8.677,4.587c-1.129,.565-2.458-.257-2.458-1.519v-24.019c0-1.065,.592-2.041,1.535-2.534Z"/>
        <path id="shadow-main-2" data-name="shadow-main" class="cls-58" d="M282.125,134.181h69.883c1.656,0,3,1.344,3,3v22.499c0,1.656-1.344,3-3,3h-69.883v-28.499h0Z"/>
        <path id="body-main-2" data-name="body-main" class="cls-76" d="M282.125,133.56h69.883c1.656,0,3,1.344,3,3v22.499c0,1.656-1.344,3-3,3h-69.883v-28.499h0Z"/>
        <polygon id="light-2" data-name="light" class="cls-32" points="282.125 133.56 352.008 133.56 349.88 132.651 282.125 133.177 277.926 135.753 282.125 133.56"/>
      </g>
      <g id="badge-for-1">
        <path id="shoadow-left-3" data-name="shoadow-left" class="cls-58" d="M271.992,139.542l9.6-5.014,.533,28.143-8.795,4.723c-1.129,.565-2.873-.369-2.873-1.632v-23.686c0-1.065,.592-2.041,1.535-2.534Z"/>
        <path id="body-left-3" data-name="body-left" class="cls-64" d="M272.525,138.575l9.6-5.014v28.499l-8.677,4.587c-1.129,.565-2.458-.257-2.458-1.519v-24.019c0-1.065,.592-2.041,1.535-2.534Z"/>
        <path id="shadow-main-3" data-name="shadow-main" class="cls-58" d="M282.125,134.181h38.883c1.656,0,3,1.344,3,3v22.499c0,1.656-1.344,3-3,3h-38.883v-28.499h0Z"/>
        <path id="body-main-3" data-name="body-main" class="cls-78" d="M282.125,133.56h38.883c1.656,0,3,1.344,3,3v22.499c0,1.656-1.344,3-3,3h-38.883v-28.499h0Z"/>
        <polygon id="light-3" data-name="light" class="cls-32" points="282.125 133.56 321.008 133.56 318.88 132.651 282.125 133.177 277.926 135.753 282.125 133.56"/>
      </g>
      <g id="label-SMB">
        <path class="cls-27" d="M289.797,151.006c.505,.294,1.326,.537,2.084,.537,1.121,0,1.733-.586,1.733-1.437,0-.826-.53-1.296-1.613-1.851-1.472-.725-2.41-1.757-2.41-3.065,0-1.73,1.291-3.077,3.482-3.077,.901,0,1.631,.224,2.042,.451l-.389,1.582c-.338-.197-.922-.429-1.69-.429-1.066,0-1.552,.637-1.552,1.265,0,.802,.499,1.176,1.744,1.814,1.592,.812,2.282,1.823,2.282,3.143,0,1.858-1.367,3.215-3.688,3.215-.962,0-1.936-.269-2.381-.546l.354-1.603Z"/>
        <path class="cls-27" d="M304.638,148.825c-.062-1.262-.131-2.799-.111-4.112h-.048c-.269,1.24-.625,2.619-.962,3.763l-1.272,4.416h-1.378l-1.179-4.326c-.324-1.186-.656-2.583-.88-3.853h-.04c-.03,1.3-.1,2.84-.168,4.167l-.207,4.148h-1.7l.721-10.788h2.234l1.148,4.25c.346,1.337,.648,2.543,.876,3.762h.042c.228-1.202,.522-2.428,.871-3.767l1.176-4.245h2.228l.629,10.788h-1.774l-.205-4.203Z"/>
        <path class="cls-27" d="M308.363,142.395c.606-.133,1.534-.218,2.487-.218,1.185,0,2.106,.168,2.812,.72,.598,.444,.931,1.143,.931,1.976,0,.998-.565,1.903-1.678,2.348v.048c1.21,.326,2.041,1.299,2.041,2.651,0,.921-.345,1.646-.895,2.173-.69,.682-1.839,1.025-3.609,1.025-.929,0-1.626-.059-2.09-.127v-10.596Zm1.883,4.291h.693c1.062,0,1.769-.662,1.769-1.599,0-.914-.546-1.495-1.651-1.495-.388,0-.642,.029-.811,.076v3.018Zm0,4.937c.188,.037,.424,.048,.734,.048,1.104,0,2.001-.548,2.001-1.791,0-1.228-.944-1.794-2.054-1.799h-.682v3.542Z"/>
      </g>
      <g id="label-S3">
        <path class="cls-27" d="M324.721,151.006c.504,.294,1.326,.537,2.083,.537,1.122,0,1.734-.586,1.734-1.437,0-.826-.531-1.296-1.614-1.851-1.471-.725-2.41-1.757-2.41-3.065,0-1.73,1.291-3.077,3.482-3.077,.901,0,1.631,.224,2.042,.451l-.389,1.582c-.338-.197-.921-.429-1.69-.429-1.066,0-1.552,.637-1.552,1.265,0,.802,.499,1.176,1.745,1.814,1.591,.812,2.282,1.823,2.282,3.143,0,1.858-1.367,3.215-3.687,3.215-.962,0-1.936-.269-2.381-.546l.355-1.603Z"/>
        <path class="cls-27" d="M331.771,151.135c.394,.229,1.139,.511,1.888,.511,1.217,0,1.835-.737,1.833-1.674-.004-1.217-.989-1.782-2.138-1.788h-.552v-1.387h.5c.815-.007,1.89-.411,1.89-1.476,0-.794-.507-1.311-1.424-1.311-.637,0-1.264,.269-1.655,.524l-.351-1.397c.489-.339,1.442-.662,2.457-.662,1.893,0,2.88,1.154,2.88,2.505,0,1.06-.597,1.944-1.681,2.394v.032c1.096,.28,1.999,1.186,1.999,2.639,0,1.688-1.31,3.132-3.628,3.132-.992,0-1.879-.266-2.373-.574l.354-1.468Z"/>
      </g>
      <g id="label-NFS">
        <path class="cls-27" d="M347.452,153.028v-10.788h1.943l2.16,4.525c.509,1.048,1.085,2.393,1.483,3.479l.035-.004c-.107-1.377-.186-2.952-.186-4.769v-3.232h1.708v10.788h-1.85l-2.182-4.562c-.513-1.062-1.09-2.38-1.485-3.539l-.041,.004c.076,1.297,.121,2.805,.121,4.835v3.262h-1.708Z"/>
        <path class="cls-27" d="M356.62,142.24h5.243v1.604h-3.347v3.036h3.126v1.564h-3.126v4.583h-1.896v-10.788Z"/>
        <path class="cls-27" d="M363.382,151.006c.504,.294,1.326,.537,2.083,.537,1.122,0,1.734-.586,1.734-1.437,0-.826-.531-1.296-1.614-1.851-1.471-.725-2.41-1.757-2.41-3.065,0-1.73,1.291-3.077,3.482-3.077,.901,0,1.631,.224,2.042,.451l-.389,1.582c-.338-.197-.921-.429-1.69-.429-1.066,0-1.552,.637-1.552,1.265,0,.802,.499,1.176,1.745,1.814,1.591,.812,2.282,1.823,2.282,3.143,0,1.858-1.367,3.215-3.687,3.215-.962,0-1.936-.269-2.381-.546l.355-1.603Z"/>
      </g>
    </g>
    <g id="Nets">
      <g id="outside">
        <polygon class="cls-32" points="243.753 157.066 218.743 169.608 220.32 170.658 245.33 158.116 243.753 157.066"/>
        <polygon class="cls-23" points="218.743 169.608 218.743 190.698 220.32 191.748 220.32 170.658 218.743 169.608"/>
        <polygon class="cls-77" points="245.33 158.116 245.33 179.196 220.32 191.748 220.32 170.658 245.33 158.116"/>
      </g>
      <g id="light-left">
        <path class="cls-37" d="M225.809,170.892v1.522c0,.396-.224,.758-.578,.936l-2.49,1.25c-.697,.35-1.517-.157-1.517-.936v-1.523c0-.396,.224-.759,.578-.936l2.49-1.249c.697-.349,1.517,.157,1.517,.936Z"/>
        <path class="cls-33" d="M225.042,171.356v1.013c0,.264-.149,.505-.384,.623l-1.657,.832c-.464,.233-1.01-.104-1.01-.623v-1.013c0-.264,.149-.505,.385-.623l1.657-.831c.464-.232,1.01,.105,1.01,.623Z"/>
        <circle class="cls-32" cx="224.432" cy="172.305" r=".6"/>
      </g>
      <g id="light-right">
        <path class="cls-42" d="M244.451,161.419v1.203c0,.329-.185,.629-.479,.777l-1.995,1.001c-.578,.29-1.259-.13-1.259-.777v-1.203c0-.329,.186-.629,.479-.777l1.995-1.001c.578-.29,1.258,.13,1.258,.777Z"/>
        <path class="cls-24" d="M243.957,161.71v.884c0,.242-.136,.463-.352,.571l-1.467,.736c-.425,.213-.926-.096-.926-.571v-.885c0-.242,.136-.463,.353-.571l1.467-.736c.425-.213,.925,.096,.925,.571Z"/>
        <circle class="cls-32" cx="243.331" cy="162.545" r=".626"/>
      </g>
      <g id="connector">
        <polygon class="cls-28" points="230.55 181.83 230.55 184.38 230.55 194.04 222.32 188.51 222.32 176.3 230.55 181.83"/>
        <polygon class="cls-32" points="230.55 169.28 226.53 171.29 226.53 174.19 222.32 176.3 230.55 181.83 251.58 171.32 243.33 165.77 240.26 167.31 240.26 164.41 237.11 165.99 230.55 169.28"/>
        <polygon class="cls-75" points="237.11 165.99 237.11 163.01 230.55 166.3 230.55 169.28 237.11 165.99"/>
        <g id="Box-2" data-name="Box">
          <polygon class="cls-38" points="267.75 181.33 267.75 194.57 245.33 205.04 245.33 191.8 245.36 191.79 267.75 181.33"/>
          <polygon class="cls-35" points="252.32 170.95 230.55 181.83 245.36 191.79 267.75 181.33 252.32 170.95"/>
          <polygon class="cls-39" points="245.36 191.79 245.33 191.8 245.33 205.04 230.55 195.1 230.55 181.83 245.36 191.79"/>
        </g>
        <polygon class="cls-49" points="226.53 174.19 245.16 179.927 257.001 174.099 252.32 170.95 251.58 171.32 246.319 167.781 237.955 166.457 226.53 171.998 226.53 174.19"/>
        <polygon class="cls-35" points="226.53 172.976 237.356 173.407 253.157 165.542 252.596 163.971 226.53 171.29 226.53 172.976"/>
        <polygon class="cls-32" points="226.53 171.29 236.95 171.704 252.596 163.971 240.26 164.41 226.53 171.29"/>
        <path class="cls-79" d="M312.978,215.394c-.163,.015-.328,.02-.496,.015-9.974-.318-35.455-2.662-56.602-17.537-1.807-1.271-2.242-3.766-.971-5.573,1.272-1.807,3.767-2.241,5.573-.97,19.381,13.632,42.999,15.789,52.254,16.084,2.208,.07,3.941,1.917,3.87,4.125-.065,2.04-1.647,3.675-3.63,3.855Z"/>
        <path class="cls-80" d="M313.433,211.185c-.041,.004-.082,.006-.124,.003-9.704-.308-34.487-2.582-54.971-16.991-.452-.319-.56-.942-.242-1.394,.318-.451,.942-.56,1.393-.243,20.043,14.1,44.36,16.327,53.884,16.63,.552,.017,.985,.479,.968,1.031-.016,.51-.412,.919-.907,.964Z"/>
      </g>
    </g>
    <g id="Cores">
      <g id="OK-less">
        <use width="53.76" height="32.745" transform="translate(196.179 75.797)" xlink:href="#core-OK"/>
        <use width="53.76" height="32.745" transform="translate(196.179 70.379)" xlink:href="#core-OK"/>
        <use width="53.76" height="32.745" transform="translate(196.179 64.961)" xlink:href="#core-OK"/>
        <use width="53.76" height="32.745" transform="translate(196.179 59.544)" xlink:href="#core-OK"/>
        <use width="53.76" height="32.745" transform="translate(196.179 54.126)" xlink:href="#core-OK"/>
        <use width="53.76" height="32.745" transform="translate(196.179 48.708)" xlink:href="#core-OK"/>
      </g>
      <g id="OK-more">
        <use width="53.76" height="32.745" transform="translate(196.179 75.797)" xlink:href="#core-OK"/>
        <use width="53.76" height="32.745" transform="translate(196.179 70.379)" xlink:href="#core-OK"/>
        <use width="53.76" height="32.745" transform="translate(196.179 64.961)" xlink:href="#core-OK"/>
        <use width="53.76" height="39.914" transform="translate(196.183 50.374)" xlink:href="#cores-more"/>
        <use width="53.76" height="32.745" transform="translate(196.179 43.29)" xlink:href="#core-OK"/>
        <use width="53.76" height="32.745" transform="translate(196.179 37.872)" xlink:href="#core-OK"/>
        <use width="53.76" height="32.745" transform="translate(196.179 32.454)" xlink:href="#core-OK"/>
      </g>
      <g id="error-less">
        <use width="53.76" height="32.745" transform="translate(227.076 95.213)" xlink:href="#core-error"/>
        <use width="53.76" height="32.745" transform="translate(227.076 89.796)" xlink:href="#core-error"/>
        <use width="53.76" height="32.745" transform="translate(227.076 84.378)" xlink:href="#core-error"/>
        <use width="53.76" height="32.745" transform="translate(227.076 78.96)" xlink:href="#core-error"/>
        <use width="53.76" height="32.745" transform="translate(227.076 73.542)" xlink:href="#core-error"/>
        <use width="53.76" height="32.745" transform="translate(227.076 68.124)" xlink:href="#core-error"/>
      </g>
      <g id="error-more">
        <use width="53.76" height="32.745" transform="translate(227.076 95.213)" xlink:href="#core-error"/>
        <use width="53.76" height="32.745" transform="translate(227.076 89.796)" xlink:href="#core-error"/>
        <use width="53.76" height="32.745" transform="translate(227.076 84.378)" xlink:href="#core-error"/>
        <use width="53.76" height="39.914" transform="translate(227.08 69.79)" xlink:href="#cores-more"/>
        <use width="53.76" height="32.745" transform="translate(227.076 62.706)" xlink:href="#core-error"/>
        <use width="53.76" height="32.745" transform="translate(227.076 57.288)" xlink:href="#core-error"/>
        <use width="53.76" height="32.745" transform="translate(227.076 51.87)" xlink:href="#core-error"/>
      </g>
    </g>
    <g id="Drives">
      <g id="OK-less-2" data-name="OK-less">
        <use width="31.128" height="78.711" transform="translate(136.508 112.986)" xlink:href="#drive-OK"/>
        <use width="31.128" height="78.711" transform="translate(127.999 117.04)" xlink:href="#drive-OK"/>
        <use width="31.128" height="78.711" transform="translate(119.491 121.093)" xlink:href="#drive-OK"/>
        <use width="31.128" height="78.711" transform="translate(110.982 125.147)" xlink:href="#drive-OK"/>
        <use width="31.128" height="78.711" transform="translate(102.474 129.2)" xlink:href="#drive-OK"/>
        <use width="31.128" height="78.711" transform="translate(93.965 133.254)" xlink:href="#drive-OK"/>
      </g>
      <g id="OK-more-2" data-name="OK-more">
        <use width="31.128" height="78.711" transform="translate(136.508 112.986)" xlink:href="#drive-OK"/>
        <use width="31.128" height="78.711" transform="translate(127.999 117.04)" xlink:href="#drive-OK"/>
        <use width="31.128" height="78.711" transform="translate(119.491 121.093)" xlink:href="#drive-OK"/>
        <use width="37.712" height="81.902" transform="translate(103.934 125.67)" xlink:href="#drives-more"/>
        <use width="31.128" height="78.711" transform="translate(93.965 133.254)" xlink:href="#drive-OK"/>
        <use width="31.128" height="78.711" transform="translate(85.456 137.307)" xlink:href="#drive-OK"/>
        <use width="31.128" height="78.711" transform="translate(76.932 141.36)" xlink:href="#drive-OK"/>
      </g>
      <g id="rebuilding-less">
        <use width="31.128" height="78.711" transform="translate(136.504 112.98)" xlink:href="#drive-rebuilding"/>
        <use width="31.128" height="78.711" transform="translate(127.996 117.033)" xlink:href="#drive-rebuilding"/>
        <use width="31.128" height="78.711" transform="translate(119.487 121.087)" xlink:href="#drive-rebuilding"/>
        <use width="31.128" height="78.711" transform="translate(110.979 125.14)" xlink:href="#drive-rebuilding"/>
        <use width="31.128" height="78.711" transform="translate(102.47 129.194)" xlink:href="#drive-rebuilding"/>
        <use width="31.128" height="78.711" transform="translate(93.961 133.247)" xlink:href="#drive-rebuilding"/>
      </g>
      <g id="rebuilding-more">
        <use width="31.128" height="78.711" transform="translate(136.504 112.98)" xlink:href="#drive-rebuilding"/>
        <use width="31.128" height="78.711" transform="translate(127.996 117.033)" xlink:href="#drive-rebuilding"/>
        <use width="31.128" height="78.711" transform="translate(119.487 121.087)" xlink:href="#drive-rebuilding"/>
        <use width="37.712" height="81.902" transform="translate(103.93 125.664)" xlink:href="#drives-more"/>
        <use width="31.128" height="78.711" transform="translate(93.961 133.247)" xlink:href="#drive-rebuilding"/>
        <use width="31.128" height="78.711" transform="translate(85.453 137.3)" xlink:href="#drive-rebuilding"/>
        <use width="31.128" height="78.711" transform="translate(76.928 141.354)" xlink:href="#drive-rebuilding"/>
      </g>
      <g id="error-less-2" data-name="error-less">
        <use width="31.128" height="78.711" transform="translate(168.017 134.093)" xlink:href="#drive-error"/>
        <use width="31.128" height="78.711" transform="translate(159.508 138.146)" xlink:href="#drive-error"/>
        <use width="31.128" height="78.711" transform="translate(150.999 142.2)" xlink:href="#drive-error"/>
        <use width="31.128" height="78.711" transform="translate(142.491 146.253)" xlink:href="#drive-error"/>
        <use width="31.128" height="78.711" transform="translate(133.982 150.307)" xlink:href="#drive-error"/>
        <use width="31.128" height="78.711" transform="translate(125.474 154.36)" xlink:href="#drive-error"/>
      </g>
      <g id="error-more-2" data-name="error-more">
        <use width="31.128" height="78.711" transform="translate(168.017 134.093)" xlink:href="#drive-error"/>
        <use width="31.128" height="78.711" transform="translate(159.508 138.146)" xlink:href="#drive-error"/>
        <use width="31.128" height="78.711" transform="translate(150.999 142.2)" xlink:href="#drive-error"/>
        <use width="37.712" height="81.902" transform="translate(135.442 146.777)" xlink:href="#drives-more"/>
        <use width="31.128" height="78.711" transform="translate(125.474 154.36)" xlink:href="#drive-error"/>
        <use width="31.128" height="78.711" transform="translate(116.965 158.413)" xlink:href="#drive-error"/>
        <use width="31.128" height="78.711" transform="translate(108.44 162.467)" xlink:href="#drive-error"/>
      </g>
    </g>
  </g>
</svg>
